<svg xmlns="http://www.w3.org/2000/svg" viewBox="0 0 200 200"><defs><style>.cls-1{fill:#d9f3fc;}.cls-2{opacity:0.8;}.cls-3{fill:#202a45;}</style></defs><g id="레이어_2" data-name="레이어 2"><g id="레이어_1-2" data-name="레이어 1"><rect class="cls-1" width="200" height="200"/><g class="cls-2"><path class="cls-3" d="M20,173.33h.79v2.74h3.48v-2.74h.79v6.34h-.79v-2.89H20.79v2.89H20Z"/><path class="cls-3" d="M26.35,173.33h3.93V174H27.14v2h3v.7h-3V179h3.14v.71H26.35Z"/><path class="cls-3" d="M33.15,176.49v0L31,173.33h1l1.69,2.55h0l1.71-2.55h.9l-2.19,3.18h0l2.15,3.15h-.95l-1.69-2.53h0l-1.71,2.53H31Z"/><path class="cls-3" d="M38.84,179.67l.31-1.59h-1l.18-1h1l.26-1.34h-1l.19-.94h1l.29-1.52h1l-.29,1.52H41.9l.3-1.52h1l-.29,1.52h1l-.19.94h-1l-.26,1.34h1.06l-.18,1H42.27L42,179.67H41l.3-1.59H40.12l-.3,1.59Zm2.67-2.49.27-1.44H40.52l-.28,1.44Z"/><path class="cls-3" d="M44.54,173.33H47a2.81,2.81,0,0,1,3,3.14h0c0,2-1.12,3.19-3,3.19H44.54Zm2.27,5.24c1.18,0,1.83-.72,1.83-2.09h0c0-1.32-.67-2.05-1.83-2.05h-.94v4.15Z"/><path class="cls-3" d="M55.78,176.44h0c0,2.08-1,3.33-2.66,3.33a2.24,2.24,0,0,1-2.34-1.69v0h1.31v0a1,1,0,0,0,1,.65c.92,0,1.33-.89,1.38-2a1.92,1.92,0,0,0,0-.24h0a1.8,1.8,0,0,1-1.73,1,2,2,0,0,1-2.07-2.06h0a2.26,2.26,0,0,1,2.45-2.21C54.67,173.22,55.78,174.29,55.78,176.44Zm-1.47-1h0a1.17,1.17,0,0,0-2.33,0h0a1.17,1.17,0,0,0,2.33,0Z"/><path class="cls-3" d="M56.75,173.33H60.9v1.09H58.07v1.71h2.58v1H58.07v2.5H56.75Z"/><path class="cls-3" d="M61.43,177.93v-.06h1.27v0c0,.46.5.79,1.19.79s1.12-.36,1.12-.88h0c0-.61-.45-.94-1.22-.94h-.72v-.94h.7c.67,0,1.1-.36,1.1-.87h0c0-.51-.37-.82-1-.82a1,1,0,0,0-1.09.81v0H61.56V175a2.07,2.07,0,0,1,2.31-1.82c1.37,0,2.25.67,2.25,1.67h0a1.5,1.5,0,0,1-1.33,1.46v0a1.51,1.51,0,0,1,1.56,1.49h0c0,1.14-1,1.9-2.47,1.9S61.52,179,61.43,177.93Z"/><path class="cls-3" d="M67.32,173.33h4.16v1.09H68.65v1.71h2.58v1H68.65v2.5H67.32Z"/><path class="cls-3" d="M72,176.5h0c0-2,1.17-3.27,3-3.27a2.59,2.59,0,0,1,2.76,2.32v0H76.49l0-.08A1.39,1.39,0,0,0,75,174.34c-1,0-1.67.82-1.67,2.15h0c0,1.34.65,2.17,1.67,2.17a1.43,1.43,0,0,0,1.47-1.2v0h1.29v.05A2.59,2.59,0,0,1,75,179.78C73.16,179.78,72,178.54,72,176.5Z"/></g><path class="cls-3" d="M20,155.05a7.18,7.18,0,0,1,1.12-4.19,3.65,3.65,0,0,1,6.05,0,7.18,7.18,0,0,1,1.12,4.19,7.06,7.06,0,0,1-1.12,4.13,3.65,3.65,0,0,1-6.05,0A7.05,7.05,0,0,1,20,155.05Zm6.09,0a5.79,5.79,0,0,0-.53-2.74,1.59,1.59,0,0,0-1.41-.95,1.54,1.54,0,0,0-1.37.95,5.8,5.8,0,0,0-.52,2.74,5.57,5.57,0,0,0,.53,2.7,1.54,1.54,0,0,0,1.36,1,1.6,1.6,0,0,0,1.41-1A5.68,5.68,0,0,0,26.09,155.05Zm6.2-6.83v6.05h2.19v1.95H32.29v8H30v-16Z"/><path class="cls-3" d="M43.82,160.1a33.8,33.8,0,0,1-6.29.51l-1.14,0-1.14,0v-6.84h4.91v-2.32H35.23v-1.85H42.5v6H37.62v3H38a29.29,29.29,0,0,0,5.54-.45Q43.72,159.42,43.82,160.1ZM47,148.22v6.05h2.17v2H47v8H44.64v-16Z"/><path class="cls-3" d="M62.69,162.19H48.49v-1.87h5v-5.38h2.34v5.38h6.86Zm-1.48-12.54a40.5,40.5,0,0,1-.14,4.73,30.93,30.93,0,0,1-.6,4.21l-1.09-.11c-.5,0-.87-.09-1.11-.12a24.1,24.1,0,0,0,.45-2.71A25.74,25.74,0,0,0,58.9,153c0-.15,0-.39,0-.72s0-.58,0-.72H50.05v-1.89Z"/><path class="cls-3" d="M72.11,159.6a26.78,26.78,0,0,1-3.41.55,33.93,33.93,0,0,1-3.54.21H63.59V149.79H65.9v8.5h.43a27.59,27.59,0,0,0,5.5-.56C71.85,157.87,72,158.5,72.11,159.6Zm3.27-11.38v6h2.29v2H75.38v8.08H73v-16Z"/><path class="cls-3" d="M78.27,155.05a7.25,7.25,0,0,1,1.11-4.19,3.45,3.45,0,0,1,3-1.61,3.5,3.5,0,0,1,3,1.61,7.25,7.25,0,0,1,1.11,4.19,7.13,7.13,0,0,1-1.11,4.14,3.65,3.65,0,0,1-6,0A7.13,7.13,0,0,1,78.27,155.05Zm6.07,0a5.66,5.66,0,0,0-.54-2.74,1.59,1.59,0,0,0-1.42-.95,1.54,1.54,0,0,0-1.35,1,5.65,5.65,0,0,0-.53,2.73,5.57,5.57,0,0,0,.53,2.7,1.54,1.54,0,0,0,1.35,1,1.6,1.6,0,0,0,1.42-1A5.55,5.55,0,0,0,84.34,155.05Zm6.56,9.21H88.58v-16H90.9Z"/><path class="cls-3" d="M106.29,160.41v1.85H92.09v-1.85Zm-2.15-5.62h-7.9v1.64h8.5v1.87H93.91v-8.76h10.64v1.87H96.24v1.53h7.9Z"/></g></g></svg>