<svg xmlns="http://www.w3.org/2000/svg" viewBox="0 0 7171.67 3000"><defs><style>.cls-1{fill:#202a45;}.cls-2{fill:#1f84ff;}.cls-3{fill:#e1f6ff;}</style></defs><g id="레이어_2" data-name="레이어 2"><g id="Layer_1" data-name="Layer 1"><rect class="cls-1" width="7171.67" height="3000"/><path class="cls-2" d="M1174.58,1949a51.71,51.71,0,0,1-44.73-77.55l457.92-793.14a51.7,51.7,0,1,1,89.55,51.7L1219.4,1923.11A51.67,51.67,0,0,1,1174.58,1949Z"/><path class="cls-3" d="M5189.81,1948.72c-22.61-2.36-39.35-22.27-39.35-45V1095.28c0-25.08,21.07-44.49,47.32-42.77,22.5,1.48,39.62,21,39.62,43.53v808.81C5237.4,1931.19,5216.06,1951.45,5189.81,1948.72ZM5793.24,1447c72.5,72.49,102.38,176.62,77,281.89A285.83,285.83,0,0,1,5679,1934.29c-110.88,35-223.58,6-301.26-71.7S5271,1672.19,5306,1561.3c30-95.14,108.38-168,205.38-191.3C5616.63,1344.67,5720.75,1374.54,5793.24,1447Zm-1.46,221.53c8-124.77-95.31-228-220.07-220.07-103.13,6.59-186.43,89.89-193,193-8,124.77,95.31,228.06,220.07,220.08C5701.89,1855,5785.19,1771.69,5791.78,1668.57ZM3394.72,1095.88h0v559.17c0,78.13-30.68,151.84-86.38,207.54-77.68,77.67-190.37,106.68-301.25,71.7-95.15-30-168-108.36-191.33-205.36-25.34-105.26,4.53-209.39,77-281.89,55.4-55.4,129.27-85.92,208-85.92,64.25,0,127.45,21.21,178,59.7a18.05,18.05,0,0,0,29-14.36V1095.88h0a43.47,43.47,0,1,1,86.94,0Zm-86.94,557.92c0-113.44-92.85-205.73-207-205.73-117.87,0-213,99-206.68,218.24,5.59,104.94,90.49,189.83,195.42,195.42,119.22,6.34,218.24-88.83,218.24-206.68Zm3354-557.92h0v559.17c0,78.13-30.68,151.84-86.38,207.54-77.67,77.67-190.36,106.68-301.25,71.7-95.15-30-168-108.36-191.32-205.36-25.35-105.26,4.53-209.39,77-281.89,55.4-55.4,129.28-85.92,208-85.92,64.25,0,127.46,21.21,178,59.7a18,18,0,0,0,29-14.36V1095.88h0a43.47,43.47,0,1,1,86.94,0Zm-86.94,557.92c0-113.44-92.85-205.73-207-205.73-117.86,0-213,99-206.68,218.24,5.59,104.94,90.49,189.83,195.43,195.42,119.21,6.34,218.23-88.83,218.23-206.68ZM4036.47,1655c0,24-19.37,42.85-44.09,42.85H3563.57a18.05,18.05,0,0,0-17,24h0c29.33,83.8,108.1,140.11,196,140.11,34.78,0,83.51-1.68,144.51-41.08a42.12,42.12,0,0,1,57.54,15.42c11.63,20.14,4.24,48.07-15.9,59.7-75.63,50.41-138,52.9-180,52.9h-6.1c-162.07,0-293.92-131.85-293.92-293.92,0-78.73,30.51-152.6,85.91-208s129.27-85.91,208-85.91C3885,1361.12,4036.47,1464.14,4036.47,1655Zm-96.4-67.33c-30.92-103.07-125.73-139.65-197.52-139.65-87.68,0-166.44,55.77-196,138.78h0a18.05,18.05,0,0,0,17,24.11h359.2A18.06,18.06,0,0,0,3940.07,1587.71ZM5096.55,1655c0,24-19.37,42.85-44.09,42.85H4623.65a18.06,18.06,0,0,0-17,24h0c29.34,83.8,108.11,140.11,196,140.11,34.78,0,83.51-1.68,144.51-41.08a42.12,42.12,0,0,1,57.54,15.42c11.63,20.14,4.24,48.07-15.9,59.7-75.63,50.41-138,52.9-180.06,52.9h-6.09c-162.07,0-293.92-131.85-293.92-293.92,0-78.73,30.51-152.6,85.91-208s129.27-85.91,208-85.91C4945.11,1361.12,5096.55,1464.14,5096.55,1655Zm-96.41-67.33c-30.91-103.07-125.72-139.65-197.51-139.65-87.69,0-166.45,55.77-196,138.78h0a18.05,18.05,0,0,0,17,24.11h359.2A18.05,18.05,0,0,0,5000.14,1587.71Zm933.34-258.85h-.41v3.93C5933.07,1331.44,5933.36,1330.18,5933.48,1328.86Zm-.41,3.93v-3.93h0v3.94Zm0,0h0v0Zm43.47-47.39a43.47,43.47,0,0,0-43.47,43.46v574.86c0,22.73,16.74,42.63,39.35,45,26.25,2.74,47.59-17.52,47.59-43.85v-576h0A43.47,43.47,0,0,0,5976.54,1285.4Zm0-194.77A43.47,43.47,0,1,0,6020,1134.1,43.47,43.47,0,0,0,5976.54,1090.63Zm-1501.06,273.3a44.19,44.19,0,0,0-56.89,26,.36.36,0,0,1,0,.11l-146,389-146-389,0-.11a44.22,44.22,0,1,0-82.82,31h0L4230,1919a46.08,46.08,0,0,0,42.11,29.93v0l.53,0,.53,0v0a46.06,46.06,0,0,0,42.1-29.93l186.18-498.11h0A44.27,44.27,0,0,0,4475.48,1363.93ZM1403.59,2490.51a271.44,271.44,0,0,1-135.74-36.26L645.64,2095a272.23,272.23,0,0,1-135.73-235.1V1141.45a272.23,272.23,0,0,1,135.73-235.1l622.21-359.23a272.22,272.22,0,0,1,271.47,0l622.21,359.23a272.23,272.23,0,0,1,135.74,235.1v718.47A272.22,272.22,0,0,1,2161.53,2095l-622.21,359.23A271.41,271.41,0,0,1,1403.59,2490.51Zm0-1876.29a167.93,167.93,0,0,0-84,22.45L697.34,995.9a168.55,168.55,0,0,0-84,145.55v718.47a168.55,168.55,0,0,0,84,145.55l622.22,359.24a168.55,168.55,0,0,0,168.06,0l622.21-359.24a168.53,168.53,0,0,0,84-145.55V1141.45a168.53,168.53,0,0,0-84-145.55L1487.62,636.67A168,168,0,0,0,1403.59,614.22Z"/></g></g></svg>