<svg xmlns="http://www.w3.org/2000/svg" viewBox="0 0 200 200"><defs><style>.cls-1{fill:#29b8ff;}.cls-2{opacity:0.8;}.cls-3{fill:#fff;}</style></defs><g id="레이어_2" data-name="레이어 2"><g id="레이어_1-2" data-name="레이어 1"><rect class="cls-1" width="200" height="200"/><g class="cls-2"><path class="cls-3" d="M20,173.33h.79v2.74h3.48v-2.74h.79v6.34h-.79v-2.89H20.79v2.89H20Z"/><path class="cls-3" d="M26.35,173.33h3.93V174H27.14v2h3v.7h-3V179h3.14v.71H26.35Z"/><path class="cls-3" d="M33.15,176.49v0L31,173.33h1l1.69,2.55h0l1.71-2.55h.9l-2.19,3.18h0l2.15,3.15h-.95l-1.69-2.53h0l-1.71,2.53H31Z"/><path class="cls-3" d="M38.84,179.67l.31-1.59h-1l.18-1h1l.26-1.34h-1l.19-.94h1l.29-1.52h1l-.29,1.52H41.9l.3-1.52h1l-.29,1.52h1l-.19.94h-1l-.26,1.34h1.06l-.18,1H42.27L42,179.67H41l.3-1.59H40.12l-.3,1.59Zm2.67-2.49.27-1.44H40.52l-.28,1.44Z"/><path class="cls-3" d="M44.51,178.76l2.24-2.09c.82-.77,1-1.08,1-1.52h0a.9.9,0,0,0-1-.89,1,1,0,0,0-1.11,1v0H44.43v0a2.13,2.13,0,0,1,2.34-2c1.34,0,2.26.76,2.26,1.85h0c0,.77-.36,1.27-1.46,2.28l-1.33,1.21v.06h2.88v1H44.51Z"/><path class="cls-3" d="M54.93,176.44h0c0,2.08-1,3.33-2.66,3.33a2.23,2.23,0,0,1-2.33-1.69v0h1.31v0a1,1,0,0,0,1,.65c.93,0,1.33-.89,1.38-2a1.92,1.92,0,0,0,0-.24h0a1.79,1.79,0,0,1-1.73,1,2,2,0,0,1-2.07-2.06h0a2.26,2.26,0,0,1,2.45-2.21C53.82,173.22,54.93,174.29,54.93,176.44Zm-1.47-1h0a1.16,1.16,0,0,0-2.32,0h0a1.16,1.16,0,0,0,2.32,0Z"/><path class="cls-3" d="M55.9,173.33h2.76c1.19,0,1.94.62,1.94,1.59h0a1.4,1.4,0,0,1-1.22,1.38v0a1.54,1.54,0,0,1,1.52,1.52h0c0,1.11-.84,1.8-2.19,1.8H55.9Zm1.32,1V176h.93c.75,0,1.15-.31,1.15-.86h0c0-.51-.37-.8-1-.8Zm0,2.57v1.8h1.15c.76,0,1.17-.31,1.17-.9h0c0-.58-.42-.89-1.23-.89Z"/><path class="cls-3" d="M61.54,177.94h0A1.65,1.65,0,0,1,63,176.34v0a1.46,1.46,0,0,1-1.23-1.39h0c0-1,.95-1.69,2.32-1.69s2.32.71,2.32,1.69h0a1.47,1.47,0,0,1-1.23,1.39v0a1.65,1.65,0,0,1,1.46,1.59h0c0,1.09-1,1.84-2.55,1.84S61.54,179,61.54,177.94Zm3.74-.09h0a1.2,1.2,0,0,0-2.36,0h0c0,.56.49,1,1.18,1S65.28,178.41,65.28,177.85ZM65.11,175h0a.9.9,0,0,0-1-.86.91.91,0,0,0-1,.86h0a1,1,0,0,0,2,0Z"/><path class="cls-3" d="M67.59,173.33h4.15v1.09H68.92v1.71h2.57v1H68.92v2.5H67.59Z"/><path class="cls-3" d="M72.51,173.33h4.15v1.09H73.83v1.71h2.58v1H73.83v2.5H72.51Z"/></g><path class="cls-3" d="M28.25,164.28H25.94v-5.11H20v-1.89H34.2v1.89h-6Zm4.49-13.59H21.39v-1.85H32.74Zm-.09,5.4H21.46v-1.87h2.1l-.39-2.54,2.3-.22.21,2.76H28.5l.28-2.74,2.32.25-.5,2.49h2Z"/><path class="cls-3" d="M49,158.61H34.82v-1.85H49Zm-1.62,5.24H36.6v-4.3h2.33V162H47.4Zm0-8H36.67v-4.41h8.08v-.92H36.69v-1.77H47.12v4.36H39v.95h8.38Z"/><path class="cls-3" d="M53.75,155.05a7.18,7.18,0,0,1,1.12-4.19,3.66,3.66,0,0,1,6.06,0A7.25,7.25,0,0,1,62,155.05a7.13,7.13,0,0,1-1.11,4.14,3.67,3.67,0,0,1-6.06,0A7.05,7.05,0,0,1,53.75,155.05Zm6.1,0a5.66,5.66,0,0,0-.54-2.74,1.59,1.59,0,0,0-1.42-.95,1.52,1.52,0,0,0-1.36.95,5.8,5.8,0,0,0-.52,2.74,5.57,5.57,0,0,0,.53,2.7,1.54,1.54,0,0,0,1.35,1,1.6,1.6,0,0,0,1.42-1A5.55,5.55,0,0,0,59.85,155.05Zm2.29,3.45.09-2.14h2.15V153.3H62.25l-.07-2.18h2.2v-2.9h2.35v16H64.38V158.5Z"/><path class="cls-3" d="M82.1,158.23H67.9v-1.85H82.1ZM80.37,164H69.61v-4.86H80.37Zm.13-8.48H69.74v-4.17H78v-.63H69.74v-1.77H80.29V153H72.12v.68H80.5ZM78,162.17v-1.24H71.92v1.24Z"/></g></g></svg>