<svg xmlns="http://www.w3.org/2000/svg" viewBox="0 0 200 200"><defs><style>.cls-1{fill:#676d99;}.cls-2{opacity:0.8;}.cls-3{fill:#fff;}</style></defs><g id="레이어_2" data-name="레이어 2"><g id="레이어_1-2" data-name="레이어 1"><rect class="cls-1" width="200" height="200"/><g class="cls-2"><path class="cls-3" d="M20,173.33h.79v2.74h3.48v-2.74h.79v6.34h-.79v-2.89H20.79v2.89H20Z"/><path class="cls-3" d="M26.35,173.33h3.93V174H27.14v2h3v.7h-3V179h3.14v.71H26.35Z"/><path class="cls-3" d="M33.15,176.49v0L31,173.33h1l1.69,2.55h0l1.71-2.55h.9l-2.19,3.18h0l2.15,3.15h-.95l-1.69-2.53h0l-1.71,2.53H31Z"/><path class="cls-3" d="M38.84,179.67l.31-1.59h-1l.18-1h1l.26-1.34h-1l.19-.94h1l.29-1.52h1l-.29,1.52H41.9l.3-1.52h1l-.29,1.52h1l-.19.94h-1l-.26,1.34h1.06l-.18,1H42.27L42,179.67H41l.3-1.59H40.12l-.3,1.59Zm2.67-2.49.27-1.44H40.52l-.28,1.44Z"/><path class="cls-3" d="M44.35,176.56h0c0-2.08,1-3.33,2.66-3.33a2.23,2.23,0,0,1,2.33,1.69v0H48v0a1,1,0,0,0-1-.64c-.93,0-1.33.88-1.38,2,0,.09,0,.18,0,.25h0a1.79,1.79,0,0,1,1.73-1,2,2,0,0,1,2.07,2.05h0A2.26,2.26,0,0,1,47,179.78C45.46,179.78,44.35,178.7,44.35,176.56ZM47,178.73a1.14,1.14,0,0,0,1.17-1.12h0A1.1,1.1,0,0,0,47,176.48a1.11,1.11,0,0,0-1.18,1.1h0A1.14,1.14,0,0,0,47,178.73Z"/><path class="cls-3" d="M53.27,174.41v0H50v-1h4.54v1.07l-2.65,5.27H50.54Z"/><path class="cls-3" d="M55.08,176.56h0c0-2.08,1-3.33,2.66-3.33a2.24,2.24,0,0,1,2.34,1.69v0H58.78l0,0a1,1,0,0,0-1-.64c-.92,0-1.33.88-1.38,2v.25h0a1.8,1.8,0,0,1,1.73-1,2,2,0,0,1,2.07,2.05h0a2.25,2.25,0,0,1-2.44,2.22C56.2,179.78,55.08,178.7,55.08,176.56Zm2.63,2.17a1.15,1.15,0,0,0,1.17-1.12h0a1.17,1.17,0,0,0-2.33,0h0A1.14,1.14,0,0,0,57.71,178.73Z"/><path class="cls-3" d="M61.16,173.33h2.43a2.81,2.81,0,0,1,3,3.14h0c0,2-1.12,3.19-3,3.19H61.16Zm2.27,5.24c1.18,0,1.83-.72,1.83-2.09h0c0-1.32-.67-2.05-1.83-2.05h-.94v4.15Z"/><path class="cls-3" d="M72.4,176.44h0c0,2.08-1,3.33-2.66,3.33a2.24,2.24,0,0,1-2.34-1.69v0h1.31v0a1,1,0,0,0,1,.65c.92,0,1.33-.89,1.38-2a1.92,1.92,0,0,0,0-.24h0a1.8,1.8,0,0,1-1.73,1,2,2,0,0,1-2.07-2.06h0a2.26,2.26,0,0,1,2.45-2.21C71.29,173.22,72.4,174.29,72.4,176.44Zm-1.47-1h0a1.17,1.17,0,0,0-2.33,0h0a1.17,1.17,0,0,0,2.33,0Z"/><path class="cls-3" d="M78.23,176.44h0c0,2.08-1,3.33-2.65,3.33a2.23,2.23,0,0,1-2.34-1.69v0h1.31v0a1,1,0,0,0,1,.65c.93,0,1.33-.89,1.38-2a1.92,1.92,0,0,0,0-.24h0a1.79,1.79,0,0,1-1.73,1,2,2,0,0,1-2.06-2.06h0a2.25,2.25,0,0,1,2.44-2.21C77.12,173.22,78.23,174.29,78.23,176.44Zm-1.46-1h0a1.17,1.17,0,0,0-2.33,0h0a1.1,1.1,0,0,0,1.15,1.12A1.11,1.11,0,0,0,76.77,175.41Z"/></g><path class="cls-3" d="M20,152.62a3.47,3.47,0,0,1,1.16-2.69,4.21,4.21,0,0,1,2.9-1,4.24,4.24,0,0,1,2.91,1,3.7,3.7,0,0,1,0,5.38,4.2,4.2,0,0,1-2.91,1.05,4.1,4.1,0,0,1-2.9-1.06A3.46,3.46,0,0,1,20,152.62Zm2.24,0a1.75,1.75,0,0,0,.51,1.31,1.8,1.8,0,0,0,1.31.49,1.84,1.84,0,0,0,1.32-.49,1.88,1.88,0,0,0,0-2.62,2,2,0,0,0-2.64,0A1.79,1.79,0,0,0,22.24,152.63Zm11.15,11.58h-11v-4.45h8.24V159H22.4v-1.87H33v4.39H24.73v.83h8.66ZM33,156.43H30.58v-2.91H28.73v-2h1.85v-3.32H33Z"/><path class="cls-3" d="M34.23,155.05a7.24,7.24,0,0,1,1.11-4.18,3.43,3.43,0,0,1,3-1.62,3.34,3.34,0,0,1,2.7,1.28,6.25,6.25,0,0,1,1.28,3.4h2.44v-5.71h2.38v16H44.73V156H42.31a6.44,6.44,0,0,1-1.26,3.5,3.36,3.36,0,0,1-2.74,1.34,3.45,3.45,0,0,1-3-1.61A7.14,7.14,0,0,1,34.23,155.05Zm6,0a5.77,5.77,0,0,0-.53-2.73,1.55,1.55,0,0,0-1.34-1,1.52,1.52,0,0,0-1.33,1,5.92,5.92,0,0,0-.51,2.73,5.83,5.83,0,0,0,.52,2.7,1.52,1.52,0,0,0,1.32,1,1.55,1.55,0,0,0,1.34-1A5.69,5.69,0,0,0,40.18,155.05Z"/><path class="cls-3" d="M60.4,160.21v1.59h-8v.61h8.41v1.76H50.1v-6.41h4.07V157H48.28v-1.91h14.2V157h-6v.79h4.18v1.79H52.43v.66Zm.18-5.85H50.18v-5.7h2.37v1.11h5.68v-1.11h2.35Zm-2.35-1.85v-.92H52.55v.92Z"/><path class="cls-3" d="M77.3,158.07H63.1v-1.89H77.3Zm-1.55-6a2.75,2.75,0,0,1-1.49,2.34,7.44,7.44,0,0,1-4,1,7.43,7.43,0,0,1-4-.94,2.58,2.58,0,0,1,0-4.68,7.45,7.45,0,0,1,4-.93,7.61,7.61,0,0,1,4.05.93A2.73,2.73,0,0,1,75.75,152.08Zm-.07,11.79H64.88v-4.81h2.35V162h8.45Zm-2.35-11.76c0-.44-.28-.8-.84-1.09A6.32,6.32,0,0,0,68,151c-.57.29-.85.65-.85,1.09s.28.77.85,1a5.29,5.29,0,0,0,2.25.41,5.38,5.38,0,0,0,2.28-.41Q73.33,152.74,73.33,152.11Z"/><path class="cls-3" d="M89.9,149.88a14.36,14.36,0,0,1-1.72,6.66,13,13,0,0,1-5.25,4.93l-1.29-1.87a10.27,10.27,0,0,0,4-3.29,9.32,9.32,0,0,0,1.77-4.49H82.54v-1.94ZM95,164.26H92.67v-5.67h-3v-2h3v-2.2H90v-2h2.7v-4.16H95Z"/><path class="cls-3" d="M109,164.19H97.88v-4.27h8.41v-.64H97.88v-1.89h4.25v-.92H96.18v-1.91h14.2v1.91h-5.94v.92h4.2v4.19H100.2v.68H109ZM99.2,153.33a2.1,2.1,0,0,1,0-4,9.06,9.06,0,0,1,4.07-.76,9.15,9.15,0,0,1,4.09.76,2.09,2.09,0,0,1,0,4,9.15,9.15,0,0,1-4.09.76A9.06,9.06,0,0,1,99.2,153.33Zm1-2c0,.3.28.54.85.72a7.32,7.32,0,0,0,2.27.28,7.46,7.46,0,0,0,2.29-.28c.57-.18.85-.42.85-.72s-.28-.53-.86-.73a7.15,7.15,0,0,0-2.28-.3,7,7,0,0,0-2.26.3C100.44,150.83,100.15,151.07,100.15,151.36Z"/></g></g></svg>