<svg xmlns="http://www.w3.org/2000/svg" viewBox="0 0 345.24 66.88"><defs><style>.cls-1{fill:#fff;}</style></defs><g id="레이어_2" data-name="레이어 2"><g id="레이어_1-2" data-name="레이어 1"><path class="cls-1" d="M132.23,49.74a2.49,2.49,0,0,1-2.18-2.5V2.38a2.41,2.41,0,0,1,4.82,0V47.3A2.39,2.39,0,0,1,132.23,49.74Z"/><path class="cls-1" d="M30.21,0A2.41,2.41,0,0,0,27.8,2.41h0V19.65a1,1,0,0,1-1.61.79,16.45,16.45,0,0,0-9.88-3.31A16.17,16.17,0,0,0,4.77,21.9,16.4,16.4,0,0,0,.49,37.54a15.89,15.89,0,0,0,10.62,11.4,16.35,16.35,0,0,0,16.72-4,16.19,16.19,0,0,0,4.79-11.52v-31A2.41,2.41,0,0,0,30.21,0ZM27.8,33.44a11.45,11.45,0,1,1,0-.07Z"/><path class="cls-1" d="M51.92,17.13a16.31,16.31,0,0,0,0,32.62h.34a16.6,16.6,0,0,0,10-2.94,2.48,2.48,0,0,0,.88-3.31,2.32,2.32,0,0,0-3.19-.85,13.53,13.53,0,0,1-8,2.28A11.58,11.58,0,0,1,41,37.15a1,1,0,0,1,1-1.33H65.78a2.39,2.39,0,0,0,2.45-2.38C68.23,22.85,59.83,17.13,51.92,17.13ZM61.92,31H42a1,1,0,0,1-.94-1.33h0A11.56,11.56,0,0,1,51.92,22c4,0,9.25,2,11,7.74A1,1,0,0,1,61.92,31Z"/><path class="cls-1" d="M110.75,17.13a16.31,16.31,0,0,0,0,32.62h.33a16.61,16.61,0,0,0,10-2.94A2.5,2.5,0,0,0,122,43.5a2.33,2.33,0,0,0-3.19-.85,13.55,13.55,0,0,1-8,2.28,11.58,11.58,0,0,1-10.88-7.78,1,1,0,0,1,.94-1.33h23.8a2.4,2.4,0,0,0,2.45-2.38C127.06,22.85,118.65,17.13,110.75,17.13Zm10,13.86H100.81a1,1,0,0,1-.94-1.33h0A11.58,11.58,0,0,1,110.75,22c4,0,9.24,2,11,7.74A1,1,0,0,1,120.75,31Z"/><path class="cls-1" d="M92.59,17.29a2.44,2.44,0,0,0-3.15,1.44h0l-8.1,21.59-8.1-21.59h0a2.45,2.45,0,1,0-4.59,1.72h0L79,48.09a2.55,2.55,0,0,0,2.33,1.66h.06a2.57,2.57,0,0,0,2.34-1.66L94,20.45h0A2.45,2.45,0,0,0,92.59,17.29Z"/><path class="cls-1" d="M228.09,29.34a15.89,15.89,0,0,0-10.62-11.4A16.38,16.38,0,0,0,196,33.44v31h0a2.42,2.42,0,0,0,4.83,0h0V47.23a1,1,0,0,1,1.6-.79,16.45,16.45,0,0,0,9.88,3.31A16.17,16.17,0,0,0,223.81,45,16.4,16.4,0,0,0,228.09,29.34ZM212.27,44.93a11.47,11.47,0,0,1-11.48-11.42v-.07a11.48,11.48,0,1,1,11.48,11.49Z"/><path class="cls-1" d="M262.38,29.34a15.89,15.89,0,0,0-10.62-11.4,16.39,16.39,0,0,0-21.51,15.5v31h0a2.42,2.42,0,0,0,4.83,0h0V47.23a1,1,0,0,1,1.61-.79,16.4,16.4,0,0,0,9.87,3.31A16.17,16.17,0,0,0,258.1,45,16.37,16.37,0,0,0,262.38,29.34ZM246.56,44.93a11.47,11.47,0,0,1-11.48-11.42v-.07a11.48,11.48,0,1,1,11.48,11.49Z"/><path class="cls-1" d="M316.44,21.84a15.19,15.19,0,0,0-5.12.83,12.56,12.56,0,0,0-3.94,2.19,10.25,10.25,0,0,0-2.51,3.05,7.17,7.17,0,0,0-.89,3.4V47.4a2.38,2.38,0,0,1-.6,1.71,2.32,2.32,0,0,1-1.79.64,2.29,2.29,0,0,1-1.78-.64,2.38,2.38,0,0,1-.6-1.71V21a2.76,2.76,0,0,1,.6-1.81,2.55,2.55,0,0,1,3.57,0A2.76,2.76,0,0,1,304,21v2.73a7.62,7.62,0,0,1,2-2.41,15,15,0,0,1,3-1.88,17,17,0,0,1,3.59-1.21,18.45,18.45,0,0,1,3.82-.41H317a1.78,1.78,0,0,1,1.5.61,2.16,2.16,0,0,1,.47,1.36,2.4,2.4,0,0,1-.47,1.46,1.74,1.74,0,0,1-1.5.64Z"/><path class="cls-1" d="M344.38,48a9.94,9.94,0,0,1-2.76,1.31,12.11,12.11,0,0,1-3.28.41c-3.26,0-5.82-.85-7.66-2.54A9.38,9.38,0,0,1,327.91,40V17.13h-5.19a1.77,1.77,0,0,1-1.51-.63,2.37,2.37,0,0,1-.48-1.46,2.14,2.14,0,0,1,.48-1.37,1.82,1.82,0,0,1,1.51-.61h5.19V3.37a2.79,2.79,0,0,1,.6-1.82,2.56,2.56,0,0,1,3.58,0,2.84,2.84,0,0,1,.59,1.82v9.69h8.14a1.89,1.89,0,0,1,1.56.61,2.13,2.13,0,0,1,.47,1.37,2.36,2.36,0,0,1-.47,1.46,1.84,1.84,0,0,1-1.56.63h-8.14V38.94c0,2.55.54,4.3,1.62,5.28a6.18,6.18,0,0,0,4.3,1.46,7.21,7.21,0,0,0,2-.28,8,8,0,0,0,2.06-1,1.33,1.33,0,0,1,1.4-.09,2.24,2.24,0,0,1,1,1,2.49,2.49,0,0,1,.19,1.46A1.74,1.74,0,0,1,344.38,48Z"/><path class="cls-1" d="M192.7,46.57a2.74,2.74,0,0,1-.6,1.81,2.52,2.52,0,0,1-3.57,0,2.74,2.74,0,0,1-.6-1.81V44.16a6.6,6.6,0,0,1-1.4,2.16,9.79,9.79,0,0,1-2.28,1.78,12.81,12.81,0,0,1-6.36,1.65c-4.33,0-7.66-1.24-10-3.72s-3.52-5.82-3.52-10V20.12a2.37,2.37,0,0,1,.59-1.71,2.82,2.82,0,0,1,3.58,0,2.37,2.37,0,0,1,.59,1.71V35.51q0,4.89,2.49,7.53a9,9,0,0,0,6.89,2.64,10.93,10.93,0,0,0,3.77-.63,9.68,9.68,0,0,0,3-1.72,8.09,8.09,0,0,0,2-2.58,7.27,7.27,0,0,0,.73-3.27V20.12a2.38,2.38,0,0,1,.6-1.71,2.32,2.32,0,0,1,1.79-.64,2.29,2.29,0,0,1,1.78.64,2.38,2.38,0,0,1,.6,1.71Z"/><path class="cls-1" d="M149.47,35.1a20.41,20.41,0,0,1-7.25-3.46,6.55,6.55,0,0,1-2.54-5.27,8.07,8.07,0,0,1,.67-3.24,7.76,7.76,0,0,1,2-2.74,9.87,9.87,0,0,1,3.24-1.9,12.65,12.65,0,0,1,4.42-.72,16,16,0,0,1,5.05.75,12.49,12.49,0,0,1,3.66,1.81,2,2,0,0,1,.86,1.37,2.15,2.15,0,0,1-.26,1.4,1.7,1.7,0,0,1-2.57.47,11.67,11.67,0,0,0-2.81-1.34,12,12,0,0,0-3.58-.47A7.24,7.24,0,0,0,146,22.91a3.83,3.83,0,0,0-1.56,3.28,3.72,3.72,0,0,0,1.81,3.18,24.7,24.7,0,0,0,6.2,2.61,15.51,15.51,0,0,1,6.48,3.53,6.94,6.94,0,0,1,2.23,5.08,8.13,8.13,0,0,1-3.08,6.7q-3.08,2.46-8.65,2.46a17.39,17.39,0,0,1-5.73-.93,10.17,10.17,0,0,1-4.16-2.5,2.72,2.72,0,0,1-.89-1.84A2.12,2.12,0,0,1,139.2,43a2,2,0,0,1,1.37-.66,2.15,2.15,0,0,1,1.65.75A8.15,8.15,0,0,0,146,45.23a15.68,15.68,0,0,0,3.75.53c2.38,0,4.08-.5,5.12-1.49a4.57,4.57,0,0,0,1.56-3.37,4.26,4.26,0,0,0-1.62-3.37A14.84,14.84,0,0,0,149.47,35.1Z"/><path class="cls-1" d="M280.83,21.93a11.49,11.49,0,1,1-11.49,11.49,11.51,11.51,0,0,1,11.49-11.49m0-4.8a16.29,16.29,0,1,0,16.3,16.29,16.29,16.29,0,0,0-16.3-16.29Z"/></g></g></svg>