<svg xmlns="http://www.w3.org/2000/svg" viewBox="0 0 36.8 35"><defs><style>.cls-1{fill:#ffffff;}</style></defs><g id="레이어_2" data-name="레이어 2"><g id="레이어_1-2" data-name="레이어 1"><path class="cls-1" d="M19.11.3A1.28,1.28,0,0,0,19.39,0h6.18A7.34,7.34,0,0,1,28.68.7l.08,0a10.11,10.11,0,0,1,6.1,12L28.49,6.42a1.45,1.45,0,0,0-1-.42H18.2a1.47,1.47,0,0,0-.82.3L13.73,9.07a2.17,2.17,0,0,1-.33.19,1.88,1.88,0,0,1-2.31-.55,2.14,2.14,0,0,1-.2-.32,1.87,1.87,0,0,1,.55-2.28Z"/><path class="cls-1" d="M9.53,21.79l0,0L7.61,23.69l0,0a1.76,1.76,0,0,1-2.45,0,1.74,1.74,0,0,1,0-2.46L7,19.36a1.76,1.76,0,0,1,2.48,0A1.73,1.73,0,0,1,9.53,21.79Z"/><path class="cls-1" d="M9,25.09a1.73,1.73,0,0,0,0,2.43,1.75,1.75,0,0,0,2.47,0l1.89-1.88a1.72,1.72,0,0,0,0-2.46,1.44,1.44,0,0,0-.27-.22,1.75,1.75,0,0,0-2.17.2l0,0L9,25.06Z"/><path class="cls-1" d="M4.88,16.3a1.74,1.74,0,0,1,0,2.46L3,20.64a1.76,1.76,0,0,1-2.48,0,1.74,1.74,0,0,1,0-2.46L2.4,16.3A1.76,1.76,0,0,1,4.88,16.3Z"/><path class="cls-1" d="M17.21,27a1.74,1.74,0,0,1,0,2.46l-1.89,1.87a1.94,1.94,0,0,1-.47.34,1.76,1.76,0,0,1-2-.34,1.73,1.73,0,0,1-.33-2h0a1.5,1.5,0,0,1,.33-.46L14.73,27A1.76,1.76,0,0,1,17.21,27Z"/><path class="cls-1" d="M4.57,3.54A12,12,0,0,1,14.49.15L9.69,3.79a4.76,4.76,0,0,0-.91,6.69,4.81,4.81,0,0,0,6.71.91l3.26-2.48h8.12l6.81,6.71a.27.27,0,0,0,.07.08L36,17.93a2.8,2.8,0,0,1-3.76,4.13L32,21.87l-.12-.1L29.8,19.65A1,1,0,0,0,28.43,21l2.23,2.23a2.73,2.73,0,0,0,.25.23l.08.09a2,2,0,0,1-2.79,2.8L27.87,26a1,1,0,0,0-1.37,1.41l.43.43a1.83,1.83,0,0,1-2.59,2.59h0l0,0-.41-.4a1,1,0,0,0-.5-.27,1,1,0,0,0-.87,1.64l.42.42a1.87,1.87,0,0,1-2.62,2.66l-2.78-2.64,1-1a3.64,3.64,0,0,0,0-5.19,3.68,3.68,0,0,0-2.77-1.07A3.68,3.68,0,0,0,12,20.74,3.67,3.67,0,0,0,10.88,18,3.72,3.72,0,0,0,7.3,17a3.63,3.63,0,0,0-1-2.11,3.71,3.71,0,0,0-4.87-.3A11.84,11.84,0,0,1,4.57,3.54Z"/></g></g></svg>