<svg xmlns="http://www.w3.org/2000/svg" viewBox="0 0 200 200"><defs><style>.cls-1{fill:#1f84ff;}.cls-2{opacity:0.8;}.cls-3{fill:#fff;}</style></defs><g id="레이어_2" data-name="레이어 2"><g id="레이어_1-2" data-name="레이어 1"><rect class="cls-1" width="200" height="200"/><g class="cls-2"><path class="cls-3" d="M20,173.33h.79v2.74h3.48v-2.74h.79v6.34h-.79v-2.89H20.79v2.89H20Z"/><path class="cls-3" d="M26.35,173.33h3.93V174H27.14v2h3v.7h-3V179h3.14v.71H26.35Z"/><path class="cls-3" d="M33.15,176.49v0L31,173.33h1l1.69,2.55h0l1.71-2.55h.9l-2.19,3.18h0l2.15,3.15h-.95l-1.69-2.53h0l-1.71,2.53H31Z"/><path class="cls-3" d="M38.84,179.67l.31-1.59h-1l.18-1h1l.26-1.34h-1l.19-.94h1l.29-1.52h1l-.29,1.52H41.9l.3-1.52h1l-.29,1.52h1l-.19.94h-1l-.26,1.34h1.06l-.18,1H42.27L42,179.67H41l.3-1.59H40.12l-.3,1.59Zm2.67-2.49.27-1.44H40.52l-.28,1.44Z"/><path class="cls-3" d="M46.09,174.55h0l-1.62,1.1v-1.18l1.64-1.14h1.32v6.34H46.09Z"/><path class="cls-3" d="M48.82,173.33H53v1.09H50.14v1.71h2.58v1H50.14v2.5H48.82Z"/><path class="cls-3" d="M53.5,177.94h0A1.65,1.65,0,0,1,55,176.34v0a1.47,1.47,0,0,1-1.23-1.39h0c0-1,1-1.69,2.33-1.69s2.32.71,2.32,1.69h0a1.47,1.47,0,0,1-1.23,1.39v0a1.65,1.65,0,0,1,1.46,1.59h0c0,1.09-1,1.84-2.55,1.84S53.5,179,53.5,177.94Zm3.73-.09h0a1,1,0,0,0-1.17-1c-.7,0-1.19.41-1.19,1h0c0,.56.49,1,1.19,1S57.23,178.41,57.23,177.85ZM57.07,175h0a1,1,0,0,0-2,0h0a1,1,0,0,0,2,0Z"/><path class="cls-3" d="M62.45,178.51H59.3V177.4l2.54-4.07h1.87v4.12h.84v1.06h-.84v1.16H62.45Zm0-1v-3.19h0l-2,3.16v0Z"/><path class="cls-3" d="M65.37,173.33h4.16v1.09H66.7v1.71h2.58v1H66.7v2.5H65.37Z"/><path class="cls-3" d="M70.29,173.33h4.16v1.09H71.62v1.71H74.2v1H71.62v2.5H70.29Z"/></g><path class="cls-3" d="M22.35,158.5l1,0a23.33,23.33,0,0,0,5.31-.45c0,.3.11,1,.24,1.94a29.1,29.1,0,0,1-6.33.53l-1.28,0-1.26,0V149.66h7.16v1.88H22.35ZM32,164.26H29.65v-16H32Z"/><path class="cls-3" d="M40.18,156H33.77v-6.95H36.1v1.69h1.69v-1.69h2.39v2.28h1.07v-2.88h2.19v8H41.25v-3.19H40.18Zm6.77,8H35.68v-4.33H44.2V159H35.66v-1.88H46.54v4.29H38v.75H47Zm-9.16-9.93v-1.5H36.1v1.5Zm8.75,2.39H44.36v-8.3h2.18Z"/><path class="cls-3" d="M60.61,158.07H56v2.34H62v1.87H47.77v-1.87h5.95v-2.34H49.55V152.6h8.33v-1.55H49.54v-1.91H60.21v5.37H51.88v1.67h8.73Z"/><path class="cls-3" d="M62.18,155.05a7.33,7.33,0,0,1,1.1-4.19,3.48,3.48,0,0,1,3-1.61,3.53,3.53,0,0,1,3,1.61,7.25,7.25,0,0,1,1.11,4.19,7.13,7.13,0,0,1-1.11,4.14,3.54,3.54,0,0,1-3,1.6,3.49,3.49,0,0,1-3-1.6A7.13,7.13,0,0,1,62.18,155.05Zm6.07,0a5.66,5.66,0,0,0-.54-2.74,1.59,1.59,0,0,0-1.42-.95,1.57,1.57,0,0,0-1.36,1,7.24,7.24,0,0,0,0,5.44,1.57,1.57,0,0,0,1.36,1,1.6,1.6,0,0,0,1.42-1A5.55,5.55,0,0,0,68.25,155.05Zm6.56,9.21H72.48v-16h2.33Z"/><path class="cls-3" d="M90.2,160.32v1.87H76v-1.87Zm-1.67-3H77.8V149.5H88.4v1.89H80.11v4h8.42Z"/></g></g></svg>