<svg xmlns="http://www.w3.org/2000/svg" viewBox="0 0 200 200"><defs><style>.cls-1{fill:#efabab;}.cls-2{opacity:0.8;}.cls-3{fill:#fff;}</style></defs><g id="레이어_2" data-name="레이어 2"><g id="레이어_1-2" data-name="레이어 1"><rect class="cls-1" width="200" height="200"/><g class="cls-2"><path class="cls-3" d="M20,173.33h.79v2.74h3.48v-2.74h.79v6.34h-.79v-2.89H20.79v2.89H20Z"/><path class="cls-3" d="M26.35,173.33h3.93V174H27.14v2h3v.7h-3V179h3.14v.71H26.35Z"/><path class="cls-3" d="M33.15,176.49v0L31,173.33h1l1.69,2.55h0l1.71-2.55h.9l-2.19,3.18h0l2.15,3.15h-.95l-1.69-2.53h0l-1.71,2.53H31Z"/><path class="cls-3" d="M38.84,179.67l.31-1.59h-1l.18-1h1l.26-1.34h-1l.19-.94h1l.29-1.52h1l-.29,1.52H41.9l.3-1.52h1l-.29,1.52h1l-.19.94h-1l-.26,1.34h1.06l-.18,1H42.27L42,179.67H41l.3-1.59H40.12l-.3,1.59Zm2.67-2.49.27-1.44H40.52l-.28,1.44Z"/><path class="cls-3" d="M44.54,173.33h4.21v1.09H45.87v1.52h2.71v1H45.87v1.6h2.88v1.09H44.54Z"/><path class="cls-3" d="M49.8,173.33H54v1.09H51.12v1.71H53.7v1H51.12v2.5H49.8Z"/><path class="cls-3" d="M56.19,173.33h1.56L60,179.67H58.57l-.48-1.54H55.85l-.48,1.54H54Zm0,3.81h1.63l-.8-2.58h0Z"/><path class="cls-3" d="M60.63,173.33h2.76c1.2,0,2,.62,2,1.59h0a1.41,1.41,0,0,1-1.23,1.38v0a1.54,1.54,0,0,1,1.52,1.52h0c0,1.11-.84,1.8-2.19,1.8H60.63Zm1.33,1V176h.92c.75,0,1.15-.31,1.15-.86h0c0-.51-.36-.8-1-.8Zm0,2.57v1.8H63.1c.76,0,1.18-.31,1.18-.9h0c0-.58-.42-.89-1.24-.89Z"/><path class="cls-3" d="M68.15,173.33h1.56l2.21,6.34h-1.4L70,178.13H67.8l-.48,1.54H65.93Zm0,3.81h1.63l-.8-2.58h0Z"/><path class="cls-3" d="M72.59,173.33h2.76c1.19,0,1.94.62,1.94,1.59h0a1.4,1.4,0,0,1-1.22,1.38v0a1.54,1.54,0,0,1,1.52,1.52h0c0,1.11-.84,1.8-2.19,1.8H72.59Zm1.33,1V176h.92c.75,0,1.15-.31,1.15-.86h0c0-.51-.37-.8-1-.8Zm0,2.57v1.8h1.14c.76,0,1.18-.31,1.18-.9h0c0-.58-.43-.89-1.24-.89Z"/></g><path class="cls-3" d="M32.29,154.49h-4v1.33h6v1.93H20v-1.93h5.94v-1.33h-4V148.6H24.3v1.15h5.61v-1.18h2.38Zm.11,9.59H21.8v-5.43H32.4Zm-2.33-1.83v-1.82H24.13v1.82Zm-.16-9.67v-1H24.3v1Z"/><path class="cls-3" d="M34.14,164.64l.72-3.74h2.42L36,164.64Z"/><path class="cls-3" d="M54.58,154.49h-4v1.33h6v1.93H42.29v-1.93h5.94v-1.33h-4V148.6h2.38v1.15H52.2v-1.18h2.38Zm.11,9.59H44.09v-5.43h10.6Zm-2.33-1.83v-1.82H46.42v1.82Zm-.16-9.67v-1H46.59v1Z"/><path class="cls-3" d="M56.43,164.64l.72-3.74h2.42l-1.31,3.74Z"/><path class="cls-3" d="M76.87,154.49h-4v1.33h6v1.93H64.58v-1.93h5.94v-1.33h-4V148.6h2.38v1.15h5.61v-1.18h2.38Zm.11,9.59H66.37v-5.43H77Zm-2.33-1.83v-1.82h-6v1.82Zm-.16-9.67v-1H68.88v1Z"/></g></g></svg>