<svg xmlns="http://www.w3.org/2000/svg" viewBox="0 0 200 200"><defs><style>.cls-1{fill:#719bd8;}.cls-2{opacity:0.8;}.cls-3{fill:#fff;}</style></defs><g id="레이어_2" data-name="레이어 2"><g id="레이어_1-2" data-name="레이어 1"><rect class="cls-1" width="200" height="200"/><g class="cls-2"><path class="cls-3" d="M20,173.33h.79v2.74h3.48v-2.74h.79v6.34h-.79v-2.89H20.79v2.89H20Z"/><path class="cls-3" d="M26.35,173.33h3.93V174H27.14v2h3v.7h-3V179h3.14v.71H26.35Z"/><path class="cls-3" d="M33.15,176.49v0L31,173.33h1l1.69,2.55h0l1.71-2.55h.9l-2.19,3.18h0l2.15,3.15h-.95l-1.69-2.53h0l-1.71,2.53H31Z"/><path class="cls-3" d="M38.84,179.67l.31-1.59h-1l.18-1h1l.26-1.34h-1l.19-.94h1l.29-1.52h1l-.29,1.52H41.9l.3-1.52h1l-.29,1.52h1l-.19.94h-1l-.26,1.34h1.06l-.18,1H42.27L42,179.67H41l.3-1.59H40.12l-.3,1.59Zm2.67-2.49.27-1.44H40.52l-.28,1.44Z"/><path class="cls-3" d="M47.46,174.41v0H44.24v-1h4.53v1.07l-2.64,5.27h-1.4Z"/><path class="cls-3" d="M51.13,174.55h0l-1.61,1.1v-1.18l1.64-1.14h1.31v6.34H51.13Z"/><path class="cls-3" d="M58.76,176.44h0c0,2.08-1,3.33-2.65,3.33a2.23,2.23,0,0,1-2.34-1.69v0h1.31v0a1,1,0,0,0,1,.65c.93,0,1.33-.89,1.38-2a1.92,1.92,0,0,0,0-.24h0a1.79,1.79,0,0,1-1.73,1,2,2,0,0,1-2.07-2.06h0a2.26,2.26,0,0,1,2.45-2.21C57.65,173.22,58.76,174.29,58.76,176.44Zm-1.46-1h0a1.17,1.17,0,0,0-2.33,0h0a1.1,1.1,0,0,0,1.15,1.12A1.11,1.11,0,0,0,57.3,175.41Z"/><path class="cls-3" d="M59.73,173.33h2.76c1.19,0,1.94.62,1.94,1.59h0a1.4,1.4,0,0,1-1.22,1.38v0a1.54,1.54,0,0,1,1.52,1.52h0c0,1.11-.84,1.8-2.19,1.8H59.73Zm1.32,1V176H62c.75,0,1.15-.31,1.15-.86h0c0-.51-.37-.8-1-.8Zm0,2.57v1.8H62.2c.76,0,1.18-.31,1.18-.9h0c0-.58-.43-.89-1.24-.89Z"/><path class="cls-3" d="M65.59,173.33H68a2.81,2.81,0,0,1,3,3.14h0a2.85,2.85,0,0,1-3,3.19H65.59Zm2.27,5.24c1.18,0,1.82-.72,1.82-2.09h0c0-1.32-.66-2.05-1.82-2.05h-.94v4.15Z"/><path class="cls-3" d="M71.67,177.94h0a1.65,1.65,0,0,1,1.47-1.59v0a1.46,1.46,0,0,1-1.23-1.39h0c0-1,1-1.69,2.32-1.69s2.33.71,2.33,1.69h0a1.48,1.48,0,0,1-1.23,1.39v0a1.65,1.65,0,0,1,1.45,1.59h0c0,1.09-1,1.84-2.55,1.84S71.67,179,71.67,177.94Zm3.74-.09h0a1.2,1.2,0,0,0-2.36,0h0c0,.56.49,1,1.18,1S75.41,178.41,75.41,177.85ZM75.24,175h0a1,1,0,0,0-2,0h0a1,1,0,0,0,2,0Z"/></g><path class="cls-3" d="M29.61,159.56l-1.34,1.93a8.47,8.47,0,0,1-2.05-1.7,6.47,6.47,0,0,1-1.35-2.22,6.1,6.1,0,0,1-1.34,2.35,7.51,7.51,0,0,1-2.17,1.7L20,159.85a7.18,7.18,0,0,0,2.67-2.4,7.39,7.39,0,0,0,.95-3.56H20.55V152h8.53v1.89H26a7,7,0,0,0,1,3.48A6.85,6.85,0,0,0,29.61,159.56Zm-7.16-8.73v-1.89h4.71v1.89Zm10.27-2.61v6.2h2.19v2H32.72v7.88H30.43v-16Z"/><path class="cls-3" d="M43.74,160.7H41.39v-2.5h-6v-1.88h14.2v1.88H43.74Zm4.09,3.17H37.16v-4.58h2.33V162h8.34Zm-.17-8.55H37.27V149h2.36v1.51h5.68V149h2.35Zm-2.35-1.89v-1.14H39.63v1.14Z"/><path class="cls-3" d="M58.88,152.9H49.7v-1.81h9.18ZM57.06,154a2.68,2.68,0,0,1,1.06,2.16,2.71,2.71,0,0,1-1.06,2.16,4.78,4.78,0,0,1-5.47,0,2.68,2.68,0,0,1-1.06-2.16A2.65,2.65,0,0,1,51.59,154a4.73,4.73,0,0,1,5.47,0Zm5.43,10H51.68v-4.26h2.4v2.37h8.41ZM52,150.42v-1.75h4.73v1.75Zm.86,5.78a1.15,1.15,0,0,0,.42.89,1.55,1.55,0,0,0,1.06.37,1.61,1.61,0,0,0,1.08-.37,1.15,1.15,0,0,0,.42-.89,1.2,1.2,0,0,0-.42-.9,1.49,1.49,0,0,0-1.08-.4,1.45,1.45,0,0,0-1,.4A1.17,1.17,0,0,0,52.84,156.2Zm9.33-8v5.4h2.12v1.95H62.17v4.73H59.86V148.22Z"/><path class="cls-3" d="M76.87,149.88a13.86,13.86,0,0,1-1.78,6.64,13.5,13.5,0,0,1-5.33,5l-1.31-1.87a11,11,0,0,0,4.11-3.32,9,9,0,0,0,1.84-4.46h-5v-2Zm6.33,6.35H80.94v8H78.61v-16h2.33v6.05H83.2Z"/><path class="cls-3" d="M97.86,156.61H83.66v-1.89h14.2ZM86.6,153.34a2.24,2.24,0,0,1-1.43-2,2.28,2.28,0,0,1,1.44-2,9.16,9.16,0,0,1,4.14-.75,9.16,9.16,0,0,1,4.14.75,2.27,2.27,0,0,1,1.45,2,2.23,2.23,0,0,1-1.44,2,9.18,9.18,0,0,1-4.15.75A9.15,9.15,0,0,1,86.6,153.34Zm9.9,10.83H85.42v-4.28h8.34v-.67H85.4v-1.87H96.11v4.19H87.73v.69H96.5Zm-8.07-13.55c-.54.19-.81.44-.81.74s.27.54.8.72a9.79,9.79,0,0,0,4.65,0c.55-.18.82-.42.82-.72s-.28-.55-.82-.74a7.37,7.37,0,0,0-2.32-.29A7.2,7.2,0,0,0,88.43,150.62Z"/></g></g></svg>