<svg xmlns="http://www.w3.org/2000/svg" viewBox="0 0 200 200"><defs><style>.cls-1{fill:#e8c27e;}.cls-2{opacity:0.8;}.cls-3{fill:#fff;}</style></defs><g id="레이어_2" data-name="레이어 2"><g id="레이어_1-2" data-name="레이어 1"><rect class="cls-1" width="200" height="200"/><g class="cls-2"><path class="cls-3" d="M20,173.33h.79v2.74h3.48v-2.74h.79v6.34h-.79v-2.89H20.79v2.89H20Z"/><path class="cls-3" d="M26.35,173.33h3.93V174H27.14v2h3v.7h-3V179h3.14v.71H26.35Z"/><path class="cls-3" d="M33.15,176.49v0L31,173.33h1l1.69,2.55h0l1.71-2.55h.9l-2.19,3.18h0l2.15,3.15h-.95l-1.69-2.53h0l-1.71,2.53H31Z"/><path class="cls-3" d="M38.84,179.67l.31-1.59h-1l.18-1h1l.26-1.34h-1l.19-.94h1l.29-1.52h1l-.29,1.52H41.9l.3-1.52h1l-.29,1.52h1l-.19.94h-1l-.26,1.34h1.06l-.18,1H42.27L42,179.67H41l.3-1.59H40.12l-.3,1.59Zm2.67-2.49.27-1.44H40.52l-.28,1.44Z"/><path class="cls-3" d="M44.54,173.33h4.21v1.09H45.87v1.52h2.71v1H45.87v1.6h2.88v1.09H44.54Z"/><path class="cls-3" d="M49.49,177.94h0A1.66,1.66,0,0,1,51,176.34v0a1.46,1.46,0,0,1-1.23-1.39h0c0-1,1-1.69,2.32-1.69s2.33.71,2.33,1.69h0a1.47,1.47,0,0,1-1.23,1.39v0a1.66,1.66,0,0,1,1.46,1.59h0c0,1.09-1,1.84-2.56,1.84S49.49,179,49.49,177.94Zm3.74-.09h0a1.2,1.2,0,0,0-2.36,0h0c0,.56.49,1,1.18,1S53.23,178.41,53.23,177.85ZM53.06,175h0a1,1,0,0,0-2,0h0a1,1,0,0,0,2,0Z"/><path class="cls-3" d="M55.25,176.5h0c0-2,1.17-3.27,3-3.27A2.6,2.6,0,0,1,61,175.54v0H59.75l0-.08a1.4,1.4,0,0,0-1.46-1.16c-1,0-1.66.82-1.66,2.15h0c0,1.34.65,2.17,1.66,2.17a1.44,1.44,0,0,0,1.48-1.2v0h1.3v.05a2.59,2.59,0,0,1-2.77,2.31C56.42,179.78,55.25,178.54,55.25,176.5Z"/><path class="cls-3" d="M61.79,178.76,64,176.67c.82-.77,1-1.08,1-1.52h0a.89.89,0,0,0-1-.89,1,1,0,0,0-1.11,1v0H61.72v0a2.12,2.12,0,0,1,2.33-2c1.34,0,2.27.76,2.27,1.85h0c0,.77-.37,1.27-1.46,2.28l-1.33,1.21v.06H66.4v1H61.79Z"/><path class="cls-3" d="M70.22,174.41v0H67v-1h4.53v1.07l-2.64,5.27h-1.4Z"/><path class="cls-3" d="M72.32,173.33h4.2v1.09H73.64v1.52h2.71v1H73.64v1.6h2.88v1.09h-4.2Z"/></g><path class="cls-3" d="M30,158.5l-1.34,1.89a8.77,8.77,0,0,1-2.16-1.77,6.29,6.29,0,0,1-1.42-2.28,6.27,6.27,0,0,1-1.4,2.55,7.44,7.44,0,0,1-2.21,1.9L20,159a7.59,7.59,0,0,0,2.92-3,9.49,9.49,0,0,0,.91-4.36v-2.09h2.41v2C26.24,154.76,27.49,157.09,30,158.5Zm2.79-10.28v6H35v1.95H32.77v8.13H30.48v-16Z"/><path class="cls-3" d="M35.46,152.94a3.48,3.48,0,0,1,1.17-2.71,4.24,4.24,0,0,1,2.94-1,4.31,4.31,0,0,1,3,1,3.46,3.46,0,0,1,1.18,2.71,3.54,3.54,0,0,1-1.18,2.75,4.27,4.27,0,0,1-3,1.07,4.21,4.21,0,0,1-3-1.07A3.56,3.56,0,0,1,35.46,152.94Zm12.2,11.14H37.27V158H47.66Zm-9.43-12.46A1.76,1.76,0,0,0,37.7,153a1.7,1.7,0,0,0,.53,1.32,1.88,1.88,0,0,0,1.34.5,2,2,0,0,0,1.37-.49,1.92,1.92,0,0,0,0-2.67,1.9,1.9,0,0,0-1.35-.52A1.86,1.86,0,0,0,38.23,151.62Zm7.12,10.63v-2.42H39.62v2.42Zm4.41-8.41h-2.1v3.53H45.33v-9.15h2.33v3.68h2.1Z"/></g></g></svg>