<svg xmlns="http://www.w3.org/2000/svg" viewBox="0 0 6247 3000"><defs><style>.cls-1{fill:#fff;}.cls-2{fill:#202a45;}</style></defs><g id="레이어_2" data-name="레이어 2"><g id="Layer_1" data-name="Layer 1"><rect class="cls-1" width="6247" height="3000"/><path class="cls-2" d="M3624.07,1994.31c-24.86-2.61-43.26-24.6-43.26-49.72V1051.8c0-27.69,23.17-49.12,52-47.22,24.74,1.63,43.55,23.14,43.55,48.06v893.22C3676.38,1975,3652.92,1997.33,3624.07,1994.31Zm663.36-554c79.7,80.07,112.54,195.06,84.68,311.31-25.67,107.12-105.73,193.65-210.32,226.8-121.9,38.63-245.79,6.6-331.18-79.19s-117.29-210.26-78.82-332.73a314.82,314.82,0,0,1,225.77-211.26C4093.27,1327.22,4207.73,1360.21,4287.43,1440.27Zm-1.61,244.65c8.76-137.78-104.78-251.85-241.93-243-113.37,7.29-204.94,99.28-212.19,213.16-8.77,137.79,104.78,251.86,241.93,243C4187,1890.81,4278.57,1798.81,4285.82,1684.92ZM1650.7,1052.47h0V1670c0,86.29-33.72,167.69-95,229.2-85.39,85.78-209.27,117.82-331.17,79.19-104.6-33.15-184.65-119.67-210.33-226.79-27.86-116.25,5-231.25,84.68-311.32,60.9-61.18,142.11-94.88,228.66-94.88,70.63,0,140.12,23.42,195.67,65.93,13.06,10,31.87.64,31.87-15.86v-343h0a47.79,47.79,0,1,1,95.58,0h0Zm-95.58,616.15c0-125.29-102.07-227.21-227.54-227.21-129.56,0-234.18,109.36-227.2,241,6.15,115.89,99.48,209.64,214.84,215.81,131,7,239.9-98.09,239.9-228.25ZM5242.2,1052.47h0V1670c0,86.29-33.72,167.69-94.95,229.2C5061.86,1985,4938,2017,4816.08,1978.38c-104.6-33.15-184.66-119.67-210.33-226.79-27.86-116.25,5-231.25,84.68-311.32,60.9-61.18,142.11-94.88,228.66-94.88,70.63,0,140.12,23.42,195.66,65.93,13.07,10,31.88.64,31.88-15.86v-343h0a47.79,47.79,0,1,1,95.57,0h0Zm-95.57,616.15c0-125.29-102.07-227.21-227.54-227.21-129.57,0-234.19,109.36-227.2,241,6.15,115.89,99.48,209.64,214.83,215.81,131.06,7,239.91-98.09,239.91-228.25ZM2356.18,1670c0,26.53-21.29,47.32-48.47,47.32H1836.32a19.93,19.93,0,0,0-18.74,26.52h0c32.25,92.55,118.85,154.74,215.49,154.74,38.24,0,91.81-1.86,158.87-45.37a46.18,46.18,0,0,1,63.25,17c12.79,22.25,4.67,53.09-17.48,65.93-83.14,55.68-151.69,58.43-197.93,58.43h-6.71C1854.91,1994.58,1710,1849,1710,1670c0-87,33.54-168.54,94.45-229.72s142.11-94.88,228.66-94.88C2189.71,1345.39,2356.18,1459.16,2356.18,1670Zm-106-74.36c-34-113.83-138.22-154.22-217.14-154.22-96.39,0-183,61.59-215.45,153.26h0a19.92,19.92,0,0,0,18.7,26.62h394.87A19.92,19.92,0,0,0,2250.21,1595.63ZM3521.54,1670c0,26.53-21.29,47.32-48.47,47.32h-471.4a19.92,19.92,0,0,0-18.73,26.52h0c32.25,92.55,118.84,154.74,215.49,154.74,38.24,0,91.81-1.86,158.87-45.37a46.18,46.18,0,0,1,63.25,17c12.79,22.25,4.66,53.09-17.48,65.93-83.14,55.68-151.69,58.43-197.94,58.43h-6.7c-178.16,0-323.11-145.61-323.11-324.59,0-87,33.54-168.54,94.44-229.72s142.12-94.88,228.67-94.88C3355.07,1345.39,3521.54,1459.16,3521.54,1670Zm-106-74.36c-34-113.83-138.21-154.22-217.13-154.22-96.39,0-183,61.59-215.45,153.26h0a19.92,19.92,0,0,0,18.69,26.62h394.88A19.91,19.91,0,0,0,3415.56,1595.63Zm1026-285.86h-.46v4.33C4441.14,1312.61,4441.46,1311.22,4441.6,1309.77Zm-.46,4.33v-4.33h0v4.34Zm0,0h0v0Zm47.79-52.34a47.9,47.9,0,0,0-47.79,48v634.84c0,25.11,18.4,47.09,43.26,49.7,28.85,3,52.32-19.34,52.32-48.42V1309.77h0A47.9,47.9,0,0,0,4488.93,1261.76Zm0-215.09a48,48,0,1,0,47.79,48A47.9,47.9,0,0,0,4488.93,1046.67ZM2838.79,1348.49a48.52,48.52,0,0,0-62.54,28.66.5.5,0,0,1,0,.13l-160.46,429.6-160.46-429.6a.93.93,0,0,0,0-.13,48.63,48.63,0,1,0-91,34.24h0l204.67,550.09a50.67,50.67,0,0,0,46.29,33.06v0l.58,0,.59,0v0a50.66,50.66,0,0,0,46.28-33.06l204.67-550.09h0A49,49,0,0,0,2838.79,1348.49Z"/></g></g></svg>