<?xml version="1.0" encoding="utf-8"?>
<!-- Generator: Adobe Illustrator 26.3.1, SVG Export Plug-In . SVG Version: 6.00 Build 0)  -->
<svg version="1.1" id="레이어_1" xmlns="http://www.w3.org/2000/svg" xmlns:xlink="http://www.w3.org/1999/xlink" x="0px"
	 y="0px" viewBox="0 0 6151.9 1979.6" style="enable-background:new 0 0 6151.9 1979.6;" xml:space="preserve">
<style type="text/css">
	.st0{fill:#303030;}
</style>
<g id="레이어_2_00000160912667560923537040000002618911053859479451_">
	<g id="Layer_1">
		<path class="st0" d="M664.7,1438.1c-28.6-0.1-51.7-23.3-51.6-51.9c0-9,2.4-17.9,6.9-25.7l457.9-793.1
			c14.5-24.6,46.3-32.7,70.8-18.2c24.2,14.3,32.5,45.4,18.7,69.9l-457.9,793.1C700.3,1428.3,683.2,1438.1,664.7,1438.1z"/>
		<path class="st0" d="M4679.9,1437.8c-22.6-2.4-39.4-22.3-39.4-45V584.4c0-25.1,21.1-44.5,47.3-42.8c22.5,1.5,39.6,21,39.6,43.5
			V1394C4727.5,1420.3,4706.1,1440.6,4679.9,1437.8z M5283.3,936.2c72.5,72.5,102.4,176.6,77,281.9c-23.4,97-96.2,175.3-191.3,205.4
			c-110.9,35-223.6,6-301.3-71.7s-106.7-190.4-71.7-301.3c30-95.2,108.4-168,205.4-191.3C5106.7,833.8,5210.8,863.7,5283.3,936.2z
			 M5281.9,1157.7c8-124.8-95.3-228-220.1-220.1c-103.1,6.6-186.4,89.9-193,193c-8,124.8,95.3,228,220.1,220.1
			C5192,1344.1,5275.3,1260.8,5281.9,1157.7z M2884.8,585L2884.8,585v559.2c0,78.1-30.7,151.8-86.4,207.5
			c-77.7,77.7-190.4,106.7-301.2,71.7c-95.1-30-168-108.4-191.3-205.4c-25.3-105.3,4.5-209.4,77-281.9
			c55.4-55.4,129.3-85.9,208-85.9c64.2,0,127.5,21.2,178,59.7c7.9,6,19.3,4.5,25.3-3.4c2.4-3.1,3.7-7,3.7-10.9V585l0,0
			c0-24,19.4-43.5,43.4-43.5S2884.8,560.9,2884.8,585L2884.8,585L2884.8,585z M2797.9,1142.9c0-113.4-92.9-205.7-207-205.7
			c-117.9,0-213,99-206.7,218.2c5.6,104.9,90.5,189.8,195.4,195.4c119.2,6.3,218.2-88.8,218.2-206.7L2797.9,1142.9z M6151.9,585
			L6151.9,585v559.2c0,78.1-30.7,151.8-86.4,207.5c-77.7,77.7-190.4,106.7-301.2,71.7c-95.3-30.3-167.9-108.2-191.3-205.4
			c-25.4-105.3,4.5-209.4,77-281.9c55.4-55.4,129.3-85.9,208-85.9c64.2,0,127.5,21.2,178,59.7c7.9,6,19.3,4.5,25.3-3.4
			c2.4-3.1,3.7-7,3.7-10.9V585l0,0c-0.4-24,18.8-43.8,42.8-44.1c24-0.4,43.8,18.8,44.1,42.8C6151.8,584.1,6151.8,584.6,6151.9,585
			L6151.9,585z M6064.9,1142.9c0-113.4-92.9-205.7-207-205.7c-117.9,0-213,99-206.7,218.2c5.6,104.9,90.5,189.8,195.4,195.4
			c119.2,6.3,218.2-88.8,218.2-206.7L6064.9,1142.9z M3526.6,1144.2c0,24-19.4,42.8-44.1,42.8h-428.8c-10,0-18,8.1-18,18.1
			c0,2,0.3,4,1,5.9l0,0c29.3,83.8,108.1,140.1,196,140.1c34.8,0,83.5-1.7,144.5-41.1c20.1-11.6,45.9-4.7,57.5,15.4l0,0
			c11.6,20.2,4.2,48.1-15.9,59.7c-75.6,50.4-138,52.9-180.1,52.9h-6.1c-162.1,0-293.9-131.9-293.9-293.9c0-78.7,30.5-152.6,85.9-208
			s129.3-85.9,208-85.9C3375.1,850.3,3526.6,953.3,3526.6,1144.2L3526.6,1144.2z M3430.2,1076.8
			c-30.9-103.1-125.7-139.6-197.5-139.6c-87.7,0-166.4,55.8-196,138.8l0,0c-3.3,9.4,1.6,19.7,11,23.1c1.9,0.7,4,1,6,1h359.2
			c10,0,18.1-8.1,18.1-18.1C3430.9,1080.3,3430.7,1078.5,3430.2,1076.8L3430.2,1076.8z M4586.6,1144.2c0,24-19.4,42.8-44.1,42.8
			h-428.8c-10,0-18,8.1-18,18.1c0,2,0.3,4,1,5.9l0,0c29.3,83.8,108.1,140.1,196,140.1c34.8,0,83.5-1.7,144.5-41.1
			c20.1-11.6,45.9-4.7,57.5,15.4l0,0c11.6,20.2,4.2,48.1-15.9,59.7c-75.6,50.4-138,52.9-180,52.9h-6.1
			c-162.1,0-293.9-131.9-293.9-293.9c0-78.7,30.5-152.6,85.9-208s129.3-85.9,208-85.9C4435.2,850.3,4586.6,953.3,4586.6,1144.2
			L4586.6,1144.2z M4490.2,1076.8c-30.9-103.1-125.7-139.6-197.5-139.6c-87.7,0-166.4,55.8-196,138.8l0,0
			c-3.3,9.4,1.6,19.7,10.9,23.1c1.9,0.7,4,1,6.1,1h359.2c10,0,18.1-8.1,18.1-18C4491,1080.3,4490.7,1078.5,4490.2,1076.8
			L4490.2,1076.8z M5423.6,818h-0.4v3.9C5423.2,820.6,5423.5,819.3,5423.6,818z M5423.2,821.9V818l0,0V821.9z M5423.2,821.9
			L5423.2,821.9L5423.2,821.9z M5466.6,774.5c-24,0-43.5,19.5-43.5,43.5l0,0v574.8c0,22.7,16.7,42.6,39.4,45
			c26.2,2.7,47.6-17.5,47.6-43.8V818l0,0C5510.1,794,5490.6,774.5,5466.6,774.5L5466.6,774.5L5466.6,774.5z M5466.6,579.8
			c-24,0-43.5,19.5-43.5,43.5s19.5,43.5,43.5,43.5s43.5-19.5,43.5-43.5C5510.1,599.2,5490.6,579.8,5466.6,579.8L5466.6,579.8
			L5466.6,579.8z M3965.6,853.1c-22.9-8.5-48.3,3.1-56.9,25.9c0,0,0,0,0,0.1v0.1l-146,389l-146-389v-0.1
			c-8.6-22.9-34-34.5-56.9-25.9s-34.5,34-25.9,56.9l0,0l186.2,498.1c6.6,17.6,23.3,29.5,42.1,29.9l0,0h0.5h0.5l0,0
			c18.8-0.4,35.5-12.3,42.1-29.9L3991.5,910l0,0C4000,887.1,3988.4,861.6,3965.6,853.1z M893.7,1979.6c-47.6,0-94.4-12.5-135.7-36.2
			l-622.3-359.2C51.9,1535.5,0.2,1446,0,1349.1V630.6c0.2-96.9,51.9-186.5,135.7-235.1L758,36.2c84-48.3,187.4-48.3,271.5,0
			l622.2,359.2c83.9,48.6,135.6,138.1,135.7,235.1V1349c-0.2,96.9-51.9,186.5-135.7,235.1l-622.2,359.2
			C988.2,1967.2,941.3,1979.7,893.7,1979.6z M893.7,103.4c-29.5,0-58.5,7.7-84,22.4L187.4,485c-51.9,30.1-83.9,85.5-84,145.5V1349
			c0.1,60,32.1,115.4,84,145.5l622.2,359.2c52,29.9,116,29.9,168.1,0l622.2-359.2c51.9-30.1,83.9-85.5,84-145.5V630.6
			c-0.1-60-32.1-115.4-84-145.5L977.7,125.8C952.2,111.1,923.2,103.3,893.7,103.4L893.7,103.4z"/>
	</g>
</g>
</svg>
