<svg width="275" height="62" viewBox="0 0 275 62" fill="none" xmlns="http://www.w3.org/2000/svg">
<path d="M233.66 40.12C233.66 37.23 234.14 34.49 235.11 31.9C236.07 29.31 237.42 27.03 239.15 25.08C240.88 23.13 242.93 21.58 245.32 20.43C247.71 19.28 250.32 18.7 253.17 18.7C254.8 18.7 256.31 18.89 257.71 19.27C259.11 19.65 260.35 20.16 261.45 20.81C262.54 21.46 263.51 22.19 264.35 23C265.19 23.81 265.86 24.62 266.37 25.43V4.83002C266.37 3.60002 266.71 2.59001 267.4 1.81001C268.09 1.03001 269.11 0.640015 270.49 0.640015C271.87 0.640015 272.92 1.03001 273.65 1.80001C274.39 2.58001 274.75 3.58002 274.75 4.81002V40.6C274.75 43.44 274.27 46.12 273.3 48.66C272.33 51.2 270.96 53.43 269.18 55.36C267.4 57.29 265.24 58.81 262.7 59.93C260.16 61.05 257.34 61.61 254.24 61.61C251.14 61.61 248.24 61.02 245.7 59.84C243.16 58.66 241 57.1 239.22 55.15C237.44 53.2 236.07 50.92 235.1 48.33C234.13 45.74 233.65 42.99 233.65 40.11L233.66 40.12ZM242.04 40.12C242.04 42.09 242.33 43.92 242.92 45.62C243.5 47.32 244.33 48.78 245.4 50.01C246.47 51.23 247.75 52.2 249.25 52.92C250.75 53.64 252.41 54 254.24 54C255.92 54 257.49 53.67 258.97 53C260.44 52.34 261.74 51.4 262.86 50.21C263.98 49.01 264.85 47.57 265.49 45.86C266.12 44.16 266.44 42.24 266.44 40.12C266.44 38 266.11 36.08 265.45 34.38C264.79 32.68 263.91 31.23 262.82 30.03C261.73 28.83 260.43 27.92 258.93 27.28C257.43 26.64 255.84 26.32 254.17 26.32C252.34 26.32 250.68 26.67 249.18 27.36C247.68 28.05 246.41 29.02 245.37 30.27C244.33 31.52 243.51 32.98 242.93 34.66C242.35 36.33 242.05 38.16 242.05 40.12H242.04Z" fill="#202A45"/>
<path d="M220.02 6.50002C220.02 4.79002 220.58 3.38003 221.7 2.29003C222.82 1.19003 224.11 0.650024 225.59 0.650024C227.07 0.650024 228.36 1.20003 229.48 2.29003C230.6 3.39003 231.16 4.79002 231.16 6.50002C231.16 8.21002 230.6 9.60002 229.48 10.67C228.36 11.74 227.07 12.27 225.59 12.27C224.11 12.27 222.82 11.74 221.7 10.67C220.58 9.60002 220.02 8.21002 220.02 6.50002ZM221.39 23.11C221.39 21.88 221.74 20.84 222.46 19.98C223.17 19.12 224.21 18.7 225.59 18.7C226.97 18.7 228 19.13 228.72 19.98C229.43 20.84 229.79 21.88 229.79 23.11V56.41C229.79 57.64 229.43 58.68 228.72 59.54C228.01 60.4 226.97 60.82 225.59 60.82C224.21 60.82 223.18 60.39 222.46 59.54C221.75 58.69 221.39 57.64 221.39 56.41V23.11Z" fill="#202A45"/>
<path d="M217.56 40.1999C217.56 43.0899 217.08 45.8299 216.11 48.4199C215.14 51.0199 213.76 53.2899 211.96 55.2399C210.16 57.1899 207.98 58.7399 205.44 59.8899C202.9 61.0399 200.05 61.61 196.9 61.61C193.75 61.61 190.9 61.0299 188.36 59.8899C185.82 58.7399 183.65 57.1899 181.84 55.2399C180.04 53.2899 178.65 51.0099 177.69 48.4199C176.72 45.8299 176.24 43.0799 176.24 40.1999C176.24 37.3199 176.72 34.5699 177.69 31.9799C178.65 29.39 180.04 27.11 181.84 25.16C183.64 23.21 185.82 21.64 188.36 20.47C190.9 19.29 193.75 18.7 196.9 18.7C200.05 18.7 202.9 19.29 205.44 20.47C207.98 21.65 210.15 23.21 211.96 25.16C213.76 27.11 215.15 29.39 216.11 31.9799C217.07 34.5799 217.56 37.3199 217.56 40.1999V40.1999ZM184.63 40.1999C184.63 42.1699 184.91 43.99 185.47 45.66C186.03 47.33 186.84 48.8 187.91 50.05C188.98 51.3 190.26 52.2699 191.76 52.9599C193.26 53.6499 194.97 54 196.9 54C198.83 54 200.48 53.6599 202.01 52.9599C203.53 52.2699 204.83 51.3 205.9 50.05C206.97 48.8 207.78 47.34 208.34 45.66C208.9 43.99 209.18 42.1599 209.18 40.1999C209.18 38.2399 208.9 36.4 208.34 34.7C207.78 33 206.97 31.54 205.9 30.31C204.83 29.09 203.54 28.12 202.01 27.4C200.49 26.68 198.78 26.32 196.9 26.32C195.02 26.32 193.25 26.68 191.76 27.4C190.26 28.12 188.98 29.09 187.91 30.31C186.84 31.53 186.03 33 185.47 34.7C184.91 36.4 184.63 38.2399 184.63 40.1999Z" fill="#202A45"/>
<path d="M175.27 53.44C176.34 54.19 176.87 55.23 176.87 56.57C176.87 57.8 176.46 58.82 175.65 59.62C174.84 60.42 173.9 60.82 172.83 60.82C172.17 60.82 171.55 60.7 170.96 60.46C170.37 60.22 169.8 59.94 169.24 59.62C167.46 58.55 166.13 57.07 165.24 55.17C164.35 53.27 163.91 50.77 163.91 47.67V5.13002C163.91 3.90002 164.27 2.84001 164.98 1.96001C165.69 1.08001 166.73 0.640015 168.11 0.640015C169.49 0.640015 170.55 1.08001 171.31 1.96001C172.07 2.84001 172.45 3.90002 172.45 5.13002V46.29C172.45 48.48 172.69 50.06 173.17 51.02C173.65 51.98 174.35 52.78 175.27 53.43V53.44Z" fill="#202A45"/>
<path d="M142.33 54C144.77 54 146.78 53.68 148.35 53.04C149.92 52.4 151.35 51.54 152.62 50.47C153.53 49.72 154.45 49.48 155.36 49.75C156.27 50.02 157.01 50.54 157.57 51.31C158.13 52.09 158.4 53.01 158.37 54.09C158.34 55.17 157.85 56.11 156.88 56.92C155.2 58.38 153.12 59.53 150.63 60.37C148.14 61.21 145.37 61.63 142.32 61.63C139.27 61.63 136.3 61.09 133.71 60.03C131.12 58.96 128.89 57.48 127.04 55.58C125.18 53.68 123.75 51.42 122.73 48.8C121.71 46.18 121.21 43.32 121.21 40.21C121.21 37.1 121.74 34.25 122.81 31.62C123.88 29 125.33 26.73 127.15 24.8C128.98 22.87 131.09 21.38 133.48 20.31C135.87 19.24 138.36 18.71 140.95 18.71C143.54 18.71 146.02 19.18 148.38 20.11C150.74 21.05 152.81 22.38 154.59 24.12C156.37 25.86 157.79 27.95 158.86 30.38C159.93 32.81 160.46 35.56 160.46 38.6C160.46 40.15 160.09 41.4 159.36 42.33C158.62 43.27 157.39 43.73 155.66 43.73H129.97C130.22 45.27 130.71 46.66 131.42 47.91C132.13 49.16 133.03 50.23 134.13 51.13C135.22 52.03 136.46 52.74 137.83 53.24C139.2 53.74 140.7 54 142.33 54V54ZM152.09 36.51C152.09 35.4 151.84 34.24 151.33 33.05C150.82 31.86 150.08 30.75 149.12 29.75C148.15 28.74 146.99 27.92 145.61 27.28C144.23 26.64 142.69 26.32 140.96 26.32C139.54 26.32 138.2 26.59 136.96 27.12C135.71 27.65 134.6 28.37 133.61 29.27C132.62 30.17 131.81 31.25 131.17 32.49C130.53 33.74 130.12 35.08 129.91 36.51H152.09V36.51Z" fill="#202A45"/>
<path d="M102.81 61.62C100.52 61.62 98.53 61 96.83 59.77C95.13 58.54 93.72 56.35 92.6 53.19L84.44 25.35C83.98 24.12 83.98 22.98 84.44 21.94C84.9 20.9 85.79 20.16 87.11 19.73C88.48 19.3 89.6 19.42 90.46 20.09C91.32 20.76 91.96 21.71 92.37 22.94L100.37 51.9C100.62 52.76 100.97 53.33 101.4 53.63C101.83 53.92 102.3 54.07 102.81 54.07C103.32 54.07 103.81 53.92 104.3 53.63C104.78 53.34 105.15 52.76 105.4 51.9L113.18 22.94C113.59 21.71 114.23 20.76 115.12 20.09C116.01 19.42 117.14 19.3 118.51 19.73C119.83 20.16 120.72 20.89 121.18 21.94C121.64 22.98 121.64 24.12 121.18 25.35L113.18 53.19C112.01 56.35 110.56 58.54 108.84 59.77C107.11 61 105.1 61.62 102.82 61.62H102.81Z" fill="#202A45"/>
<path d="M66.2198 54C68.6598 54 70.6699 53.68 72.2399 53.04C73.8099 52.4 75.2399 51.54 76.5099 50.47C77.4199 49.72 78.3398 49.48 79.2498 49.75C80.1598 50.02 80.8999 50.54 81.4599 51.31C82.0199 52.09 82.2899 53.01 82.2599 54.09C82.2299 55.17 81.7399 56.11 80.7699 56.92C79.0899 58.38 77.0099 59.53 74.5199 60.37C72.0299 61.21 69.2599 61.63 66.2099 61.63C63.1599 61.63 60.1899 61.09 57.5999 60.03C55.0099 58.96 52.7799 57.48 50.9299 55.58C49.0699 53.68 47.6399 51.42 46.6199 48.8C45.5999 46.18 45.0999 43.32 45.0999 40.21C45.0999 37.1 45.6298 34.25 46.6998 31.62C47.7698 29 49.2199 26.73 51.0399 24.8C52.8699 22.87 54.9799 21.38 57.3699 20.31C59.7599 19.24 62.2498 18.71 64.8398 18.71C67.4298 18.71 69.9099 19.18 72.2699 20.11C74.6299 21.05 76.6999 22.38 78.4799 24.12C80.2599 25.86 81.6798 27.95 82.7498 30.38C83.8198 32.81 84.3499 35.56 84.3499 38.6C84.3499 40.15 83.9798 41.4 83.2498 42.33C82.5098 43.27 81.2799 43.73 79.5499 43.73H53.8598C54.1098 45.27 54.5998 46.66 55.3098 47.91C56.0198 49.16 56.9199 50.23 58.0199 51.13C59.1099 52.03 60.3498 52.74 61.7198 53.24C63.0898 53.74 64.5898 54 66.2198 54V54ZM75.9799 36.51C75.9799 35.4 75.7298 34.24 75.2198 33.05C74.7098 31.86 73.9699 30.75 73.0099 29.75C72.0399 28.74 70.8798 27.92 69.4998 27.28C68.1198 26.64 66.5799 26.32 64.8499 26.32C63.4299 26.32 62.0899 26.59 60.8499 27.12C59.5999 27.65 58.4898 28.37 57.4998 29.27C56.5098 30.17 55.6998 31.25 55.0598 32.49C54.4198 33.74 54.0099 35.08 53.7999 36.51H75.9799V36.51Z" fill="#202A45"/>
<path d="M0.689926 40.12C0.689926 37.23 1.16992 34.49 2.13992 31.9C3.09992 29.31 4.44993 27.03 6.17993 25.08C7.90993 23.13 9.95993 21.58 12.3499 20.43C14.7399 19.28 17.3499 18.7 20.1999 18.7C21.8299 18.7 23.3399 18.89 24.7399 19.27C26.1399 19.65 27.3799 20.16 28.4799 20.81C29.5699 21.46 30.5399 22.19 31.3799 23C32.2199 23.81 32.8899 24.62 33.3999 25.43V4.83002C33.3999 3.60002 33.7399 2.59001 34.4299 1.81001C35.1199 1.03001 36.1399 0.640015 37.5199 0.640015C38.8999 0.640015 39.9499 1.03001 40.6799 1.80001C41.4199 2.58001 41.7799 3.58002 41.7799 4.81002V40.6C41.7799 43.44 41.2999 46.12 40.3299 48.66C39.3599 51.2 37.9899 53.43 36.2099 55.36C34.4299 57.29 32.2699 58.81 29.7299 59.93C27.1899 61.05 24.3699 61.61 21.2699 61.61C18.1699 61.61 15.2699 61.02 12.7299 59.84C10.1899 58.66 8.02992 57.1 6.24992 55.15C4.46992 53.2 3.09993 50.92 2.12993 48.33C1.15993 45.74 0.679932 42.99 0.679932 40.11L0.689926 40.12ZM9.06993 40.12C9.06993 42.09 9.35992 43.92 9.94992 45.62C10.5299 47.32 11.3599 48.78 12.4299 50.01C13.4999 51.24 14.7799 52.2 16.2799 52.92C17.7799 53.64 19.4399 54 21.2699 54C22.9499 54 24.5199 53.67 25.9999 53C27.4699 52.34 28.7699 51.4 29.8899 50.21C31.0099 49.01 31.8799 47.57 32.5199 45.86C33.1499 44.16 33.4699 42.24 33.4699 40.12C33.4699 38 33.1399 36.08 32.4799 34.38C31.8199 32.68 30.9399 31.23 29.8499 30.03C28.7599 28.83 27.4599 27.92 25.9599 27.28C24.4599 26.64 22.8699 26.32 21.1999 26.32C19.3699 26.32 17.7099 26.67 16.2099 27.36C14.7099 28.05 13.4399 29.02 12.3999 30.27C11.3599 31.52 10.5399 32.98 9.95993 34.66C9.37993 36.33 9.07993 38.16 9.07993 40.12H9.06993Z" fill="#202A45"/>
</svg>
