<svg width="407" height="120" viewBox="0 0 407 120" fill="none" xmlns="http://www.w3.org/2000/svg">
<g clip-path="url(#clip0_1_312)">
<path d="M365.66 69.12C365.66 66.23 366.14 63.49 367.11 60.9C368.07 58.31 369.42 56.03 371.15 54.08C372.88 52.13 374.93 50.58 377.32 49.43C379.71 48.28 382.32 47.7 385.17 47.7C386.8 47.7 388.31 47.89 389.71 48.27C391.11 48.65 392.35 49.16 393.45 49.81C394.54 50.46 395.51 51.19 396.35 52C397.19 52.81 397.86 53.62 398.37 54.43V33.83C398.37 32.6 398.71 31.59 399.4 30.81C400.09 30.03 401.11 29.64 402.49 29.64C403.87 29.64 404.92 30.03 405.65 30.8C406.39 31.58 406.75 32.58 406.75 33.81V69.6C406.75 72.44 406.27 75.12 405.3 77.66C404.33 80.2 402.96 82.43 401.18 84.36C399.4 86.29 397.24 87.81 394.7 88.93C392.16 90.05 389.34 90.61 386.24 90.61C383.14 90.61 380.24 90.02 377.7 88.84C375.16 87.66 373 86.1 371.22 84.15C369.44 82.2 368.07 79.92 367.1 77.33C366.13 74.74 365.65 71.99 365.65 69.11L365.66 69.12ZM374.04 69.12C374.04 71.09 374.33 72.92 374.92 74.62C375.5 76.32 376.33 77.78 377.4 79.01C378.47 80.23 379.75 81.2 381.25 81.92C382.75 82.64 384.41 83 386.24 83C387.92 83 389.49 82.67 390.97 82C392.44 81.34 393.74 80.4 394.86 79.21C395.98 78.01 396.85 76.57 397.49 74.86C398.12 73.16 398.44 71.24 398.44 69.12C398.44 67 398.11 65.08 397.45 63.38C396.79 61.68 395.91 60.23 394.82 59.03C393.73 57.83 392.43 56.92 390.93 56.28C389.43 55.64 387.84 55.32 386.17 55.32C384.34 55.32 382.68 55.67 381.18 56.36C379.68 57.05 378.41 58.02 377.37 59.27C376.33 60.52 375.51 61.98 374.93 63.66C374.35 65.33 374.05 67.16 374.05 69.12H374.04Z" fill="#202A45"/>
<path d="M352.02 35.5C352.02 33.79 352.58 32.38 353.7 31.29C354.82 30.19 356.11 29.65 357.59 29.65C359.07 29.65 360.36 30.2 361.48 31.29C362.6 32.39 363.16 33.79 363.16 35.5C363.16 37.21 362.6 38.6 361.48 39.67C360.36 40.74 359.07 41.27 357.59 41.27C356.11 41.27 354.82 40.74 353.7 39.67C352.58 38.6 352.02 37.21 352.02 35.5ZM353.39 52.11C353.39 50.88 353.74 49.84 354.46 48.98C355.17 48.12 356.21 47.7 357.59 47.7C358.97 47.7 360 48.13 360.72 48.98C361.43 49.84 361.79 50.88 361.79 52.11V85.41C361.79 86.64 361.43 87.68 360.72 88.54C360.01 89.4 358.97 89.82 357.59 89.82C356.21 89.82 355.18 89.39 354.46 88.54C353.75 87.69 353.39 86.64 353.39 85.41V52.11Z" fill="#202A45"/>
<path d="M349.56 69.1999C349.56 72.0899 349.08 74.8299 348.11 77.4199C347.14 80.0199 345.76 82.2899 343.96 84.2399C342.16 86.1899 339.98 87.7399 337.44 88.8899C334.9 90.04 332.05 90.61 328.9 90.61C325.75 90.61 322.9 90.0299 320.36 88.8899C317.82 87.7399 315.65 86.1899 313.84 84.2399C312.04 82.2899 310.65 80.0099 309.69 77.4199C308.72 74.8299 308.24 72.0799 308.24 69.1999C308.24 66.3199 308.72 63.57 309.69 60.9799C310.65 58.3899 312.04 56.11 313.84 54.16C315.64 52.21 317.82 50.64 320.36 49.47C322.9 48.29 325.75 47.7 328.9 47.7C332.05 47.7 334.9 48.29 337.44 49.47C339.98 50.65 342.15 52.21 343.96 54.16C345.76 56.11 347.15 58.3899 348.11 60.9799C349.07 63.58 349.56 66.3199 349.56 69.1999ZM316.63 69.1999C316.63 71.1699 316.91 72.99 317.47 74.66C318.03 76.33 318.84 77.8 319.91 79.05C320.98 80.3 322.26 81.27 323.76 81.9599C325.26 82.6499 326.97 83 328.9 83C330.83 83 332.48 82.66 334.01 81.9599C335.53 81.27 336.83 80.3 337.9 79.05C338.97 77.8 339.78 76.34 340.34 74.66C340.9 72.99 341.18 71.1599 341.18 69.1999C341.18 67.2399 340.9 65.4 340.34 63.7C339.78 62 338.97 60.54 337.9 59.31C336.83 58.09 335.54 57.12 334.01 56.4C332.49 55.68 330.78 55.32 328.9 55.32C327.02 55.32 325.25 55.68 323.76 56.4C322.26 57.12 320.98 58.09 319.91 59.31C318.84 60.53 318.03 62 317.47 63.7C316.91 65.4 316.63 67.2399 316.63 69.1999Z" fill="#202A45"/>
<path d="M307.27 82.44C308.34 83.19 308.87 84.23 308.87 85.57C308.87 86.8 308.46 87.82 307.65 88.62C306.84 89.42 305.9 89.82 304.83 89.82C304.17 89.82 303.55 89.7 302.96 89.46C302.37 89.22 301.8 88.94 301.24 88.62C299.46 87.55 298.13 86.07 297.24 84.17C296.35 82.27 295.91 79.77 295.91 76.67V34.13C295.91 32.9 296.27 31.84 296.98 30.96C297.69 30.08 298.73 29.64 300.11 29.64C301.49 29.64 302.55 30.08 303.31 30.96C304.07 31.84 304.45 32.9 304.45 34.13V75.29C304.45 77.48 304.69 79.06 305.17 80.02C305.65 80.98 306.35 81.78 307.27 82.43V82.44Z" fill="#202A45"/>
<path d="M274.33 83C276.77 83 278.78 82.68 280.35 82.04C281.92 81.4 283.35 80.54 284.62 79.47C285.53 78.72 286.45 78.48 287.36 78.75C288.27 79.02 289.01 79.54 289.57 80.31C290.13 81.09 290.4 82.01 290.37 83.09C290.34 84.17 289.85 85.11 288.88 85.92C287.2 87.38 285.12 88.53 282.63 89.37C280.14 90.21 277.37 90.63 274.32 90.63C271.27 90.63 268.3 90.09 265.71 89.03C263.12 87.96 260.89 86.48 259.04 84.58C257.18 82.68 255.75 80.42 254.73 77.8C253.71 75.18 253.21 72.32 253.21 69.21C253.21 66.1 253.74 63.25 254.81 60.62C255.88 58 257.33 55.73 259.15 53.8C260.98 51.87 263.09 50.38 265.48 49.31C267.87 48.24 270.36 47.71 272.95 47.71C275.54 47.71 278.02 48.18 280.38 49.11C282.74 50.05 284.81 51.38 286.59 53.12C288.37 54.86 289.79 56.95 290.86 59.38C291.93 61.81 292.46 64.56 292.46 67.6C292.46 69.15 292.09 70.4 291.36 71.33C290.62 72.27 289.39 72.73 287.66 72.73H261.97C262.22 74.27 262.71 75.66 263.42 76.91C264.13 78.16 265.03 79.23 266.13 80.13C267.22 81.03 268.46 81.74 269.83 82.24C271.2 82.74 272.7 83 274.33 83ZM284.09 65.51C284.09 64.4 283.84 63.24 283.33 62.05C282.82 60.86 282.08 59.75 281.12 58.75C280.15 57.74 278.99 56.92 277.61 56.28C276.23 55.64 274.69 55.32 272.96 55.32C271.54 55.32 270.2 55.59 268.96 56.12C267.71 56.65 266.6 57.37 265.61 58.27C264.62 59.17 263.81 60.25 263.17 61.49C262.53 62.74 262.12 64.08 261.91 65.51H284.09Z" fill="#202A45"/>
<path d="M234.81 90.62C232.52 90.62 230.53 90 228.83 88.77C227.13 87.54 225.72 85.35 224.6 82.19L216.44 54.35C215.98 53.12 215.98 51.98 216.44 50.94C216.9 49.9 217.79 49.16 219.11 48.73C220.48 48.3 221.6 48.42 222.46 49.09C223.32 49.76 223.96 50.71 224.37 51.94L232.37 80.9C232.62 81.76 232.97 82.33 233.4 82.63C233.83 82.92 234.3 83.07 234.81 83.07C235.32 83.07 235.81 82.92 236.3 82.63C236.78 82.34 237.15 81.76 237.4 80.9L245.18 51.94C245.59 50.71 246.23 49.76 247.12 49.09C248.01 48.42 249.14 48.3 250.51 48.73C251.83 49.16 252.72 49.89 253.18 50.94C253.64 51.98 253.64 53.12 253.18 54.35L245.18 82.19C244.01 85.35 242.56 87.54 240.84 88.77C239.11 90 237.1 90.62 234.82 90.62H234.81Z" fill="#202A45"/>
<path d="M198.22 83C200.66 83 202.67 82.68 204.24 82.04C205.81 81.4 207.24 80.54 208.51 79.47C209.42 78.72 210.34 78.48 211.25 78.75C212.16 79.02 212.9 79.54 213.46 80.31C214.02 81.09 214.29 82.01 214.26 83.09C214.23 84.17 213.74 85.11 212.77 85.92C211.09 87.38 209.01 88.53 206.52 89.37C204.03 90.21 201.26 90.63 198.21 90.63C195.16 90.63 192.19 90.09 189.6 89.03C187.01 87.96 184.78 86.48 182.93 84.58C181.07 82.68 179.64 80.42 178.62 77.8C177.6 75.18 177.1 72.32 177.1 69.21C177.1 66.1 177.63 63.25 178.7 60.62C179.77 58 181.22 55.73 183.04 53.8C184.87 51.87 186.98 50.38 189.37 49.31C191.76 48.24 194.25 47.71 196.84 47.71C199.43 47.71 201.91 48.18 204.27 49.11C206.63 50.05 208.7 51.38 210.48 53.12C212.26 54.86 213.68 56.95 214.75 59.38C215.82 61.81 216.35 64.56 216.35 67.6C216.35 69.15 215.98 70.4 215.25 71.33C214.51 72.27 213.28 72.73 211.55 72.73H185.86C186.11 74.27 186.6 75.66 187.31 76.91C188.02 78.16 188.92 79.23 190.02 80.13C191.11 81.03 192.35 81.74 193.72 82.24C195.09 82.74 196.59 83 198.22 83ZM207.98 65.51C207.98 64.4 207.73 63.24 207.22 62.05C206.71 60.86 205.97 59.75 205.01 58.75C204.04 57.74 202.88 56.92 201.5 56.28C200.12 55.64 198.58 55.32 196.85 55.32C195.43 55.32 194.09 55.59 192.85 56.12C191.6 56.65 190.49 57.37 189.5 58.27C188.51 59.17 187.7 60.25 187.06 61.49C186.42 62.74 186.01 64.08 185.8 65.51H207.98Z" fill="#202A45"/>
<path d="M132.69 69.12C132.69 66.23 133.17 63.49 134.14 60.9C135.1 58.31 136.45 56.03 138.18 54.08C139.91 52.13 141.96 50.58 144.35 49.43C146.74 48.28 149.35 47.7 152.2 47.7C153.83 47.7 155.34 47.89 156.74 48.27C158.14 48.65 159.38 49.16 160.48 49.81C161.57 50.46 162.54 51.19 163.38 52C164.22 52.81 164.89 53.62 165.4 54.43V33.83C165.4 32.6 165.74 31.59 166.43 30.81C167.12 30.03 168.14 29.64 169.52 29.64C170.9 29.64 171.95 30.03 172.68 30.8C173.42 31.58 173.78 32.58 173.78 33.81V69.6C173.78 72.44 173.3 75.12 172.33 77.66C171.36 80.2 169.99 82.43 168.21 84.36C166.43 86.29 164.27 87.81 161.73 88.93C159.19 90.05 156.37 90.61 153.27 90.61C150.17 90.61 147.27 90.02 144.73 88.84C142.19 87.66 140.03 86.1 138.25 84.15C136.47 82.2 135.1 79.92 134.13 77.33C133.16 74.74 132.68 71.99 132.68 69.11L132.69 69.12ZM141.07 69.12C141.07 71.09 141.36 72.92 141.95 74.62C142.53 76.32 143.36 77.78 144.43 79.01C145.5 80.24 146.78 81.2 148.28 81.92C149.78 82.64 151.44 83 153.27 83C154.95 83 156.52 82.67 158 82C159.47 81.34 160.77 80.4 161.89 79.21C163.01 78.01 163.88 76.57 164.52 74.86C165.15 73.16 165.47 71.24 165.47 69.12C165.47 67 165.14 65.08 164.48 63.38C163.82 61.68 162.94 60.23 161.85 59.03C160.76 57.83 159.46 56.92 157.96 56.28C156.46 55.64 154.87 55.32 153.2 55.32C151.37 55.32 149.71 55.67 148.21 56.36C146.71 57.05 145.44 58.02 144.4 59.27C143.36 60.52 142.54 61.98 141.96 63.66C141.38 65.33 141.08 67.16 141.08 69.12H141.07Z" fill="#202A45"/>
<path d="M42.0699 85.73C41.3899 85.73 40.7099 85.56 40.0799 85.19C38.1699 84.09 37.5099 81.64 38.6199 79.73L63.7099 36.27C64.8099 34.36 67.2499 33.71 69.1699 34.81C71.0799 35.91 71.7399 38.36 70.6299 40.27L45.5399 83.73C44.7999 85.01 43.4599 85.73 42.0799 85.73H42.0699Z" fill="#1F84FF"/>
<path d="M54.6199 7.99C56.4899 7.99 58.3299 8.48 59.9499 9.42L95.7699 30.1C99.0599 32 101.1 35.53 101.1 39.33V80.69C101.1 84.48 99.0599 88.02 95.7699 89.92L59.9499 110.6C58.3299 111.53 56.4899 112.03 54.6199 112.03C52.7499 112.03 50.9099 111.54 49.2899 110.6L13.4799 89.9C10.1899 88 8.14991 84.47 8.14991 80.67V39.32C8.14991 35.53 10.1899 31.99 13.4799 30.09L49.2899 9.42C50.9099 8.49 52.7499 7.99 54.6199 7.99ZM54.6199 0C51.3999 0 48.1799 0.83 45.2999 2.5L9.47991 23.18C3.70991 26.51 0.159912 32.66 0.159912 39.32V80.68C0.159912 87.34 3.70991 93.49 9.47991 96.82L45.2999 117.5C48.1799 119.17 51.3999 120 54.6199 120C57.8399 120 61.0599 119.17 63.9399 117.5L99.7599 96.82C105.53 93.49 109.08 87.34 109.08 80.68V39.32C109.08 32.66 105.53 26.51 99.7599 23.18L63.9399 2.5C61.0599 0.83 57.8399 0 54.6199 0Z" fill="#202A45"/>
</g>
<defs>
<clipPath id="clip0_1_312">
<rect width="406.59" height="120" fill="white" transform="translate(0.159912)"/>
</clipPath>
</defs>
</svg>
