<svg width="109" height="120" viewBox="0 0 109 120" fill="none" xmlns="http://www.w3.org/2000/svg">
<g clip-path="url(#clip0_2_682)">
<path d="M41.91 85.72C41.23 85.72 40.55 85.5499 39.92 85.18C38.01 84.08 37.35 81.63 38.46 79.72L63.55 36.2599C64.65 34.3499 67.09 33.6899 69.01 34.7999C70.92 35.8999 71.58 38.3499 70.47 40.2599L45.38 83.72C44.64 85 43.3 85.72 41.92 85.72H41.91Z" fill="#1F84FF"/>
<path d="M54.46 7.99C56.33 7.99 58.17 8.48 59.79 9.42L95.61 30.1C98.9 32 100.94 35.53 100.94 39.33V80.69C100.94 84.48 98.9 88.02 95.61 89.92L59.79 110.6C58.17 111.53 56.33 112.03 54.46 112.03C52.59 112.03 50.75 111.54 49.13 110.6L13.32 89.9C10.03 88 7.99 84.47 7.99 80.67V39.32C7.99 35.53 10.03 31.99 13.32 30.09L49.13 9.42C50.75 8.49 52.59 7.99 54.46 7.99ZM54.46 0C51.24 0 48.02 0.83 45.14 2.5L9.32 23.18C3.55 26.51 0 32.66 0 39.32V80.68C0 87.34 3.55 93.49 9.32 96.82L45.14 117.5C48.02 119.17 51.24 120 54.46 120C57.68 120 60.9 119.17 63.78 117.5L99.6 96.82C105.37 93.49 108.92 87.34 108.92 80.68V39.32C108.92 32.66 105.37 26.51 99.6 23.18L63.78 2.5C60.9 0.83 57.68 0 54.46 0Z" fill="#202A45"/>
</g>
<defs>
<clipPath id="clip0_2_682">
<rect width="109" height="120" fill="white"/>
</clipPath>
</defs>
</svg>
