<svg xmlns="http://www.w3.org/2000/svg" viewBox="0 0 200 200"><defs><style>.cls-1{fill:#8e77c6;}.cls-2{opacity:0.8;}.cls-3{fill:#fff;}</style></defs><g id="레이어_2" data-name="레이어 2"><g id="레이어_1-2" data-name="레이어 1"><rect class="cls-1" width="200" height="200"/><g class="cls-2"><path class="cls-3" d="M20,173.33h.79v2.74h3.48v-2.74h.79v6.34h-.79v-2.89H20.79v2.89H20Z"/><path class="cls-3" d="M26.35,173.33h3.93V174H27.14v2h3v.7h-3V179h3.14v.71H26.35Z"/><path class="cls-3" d="M33.15,176.49v0L31,173.33h1l1.69,2.55h0l1.71-2.55h.9l-2.19,3.18h0l2.15,3.15h-.95l-1.69-2.53h0l-1.71,2.53H31Z"/><path class="cls-3" d="M38.84,179.67l.31-1.59h-1l.18-1h1l.26-1.34h-1l.19-.94h1l.29-1.52h1l-.29,1.52H41.9l.3-1.52h1l-.29,1.52h1l-.19.94h-1l-.26,1.34h1.06l-.18,1H42.27L42,179.67H41l.3-1.59H40.12l-.3,1.59Zm2.67-2.49.27-1.44H40.52l-.28,1.44Z"/><path class="cls-3" d="M44.33,177.94h0a1.65,1.65,0,0,1,1.46-1.59v0a1.47,1.47,0,0,1-1.23-1.39h0c0-1,.95-1.69,2.32-1.69s2.33.71,2.33,1.69h0A1.47,1.47,0,0,1,48,176.31v0a1.65,1.65,0,0,1,1.46,1.59h0c0,1.09-1,1.84-2.56,1.84S44.33,179,44.33,177.94Zm3.73-.09h0a1.2,1.2,0,0,0-2.36,0h0c0,.56.49,1,1.18,1S48.06,178.41,48.06,177.85ZM47.89,175h0a1,1,0,0,0-2,0h0a1,1,0,0,0,2,0Z"/><path class="cls-3" d="M50.38,173.33h4.2v1.09H51.7v1.52h2.72v1H51.7v1.6h2.88v1.09h-4.2Z"/><path class="cls-3" d="M58.51,174.41v0H55.28v-1h4.54v1.07l-2.65,5.27H55.78Z"/><path class="cls-3" d="M63.7,174.41v0H60.47v-1H65v1.07l-2.65,5.27H61Z"/><path class="cls-3" d="M65.47,176.5h0c0-2,1.17-3.27,3-3.27a2.6,2.6,0,0,1,2.77,2.32v0H70l0-.08a1.39,1.39,0,0,0-1.46-1.16c-1,0-1.66.82-1.66,2.15h0c0,1.34.65,2.17,1.66,2.17a1.44,1.44,0,0,0,1.48-1.2v0h1.3v.05a2.59,2.59,0,0,1-2.77,2.31C66.64,179.78,65.47,178.54,65.47,176.5Z"/><path class="cls-3" d="M71.92,176.56h0c0-2.08,1-3.33,2.65-3.33a2.23,2.23,0,0,1,2.34,1.69v0H75.61v0a1,1,0,0,0-1-.64c-.93,0-1.33.88-1.38,2,0,.09,0,.18,0,.25h0a1.79,1.79,0,0,1,1.73-1A2,2,0,0,1,77,177.55h0a2.25,2.25,0,0,1-2.44,2.22C73,179.78,71.92,178.7,71.92,176.56Zm2.62,2.17a1.14,1.14,0,0,0,1.17-1.12h0a1.17,1.17,0,0,0-2.33,0h0A1.14,1.14,0,0,0,74.54,178.73Z"/></g><path class="cls-3" d="M29.93,158.74l-1.3,1.9a9.75,9.75,0,0,1-2.14-1.87A6.69,6.69,0,0,1,25,156.43a7.28,7.28,0,0,1-1.44,2.63,7.9,7.9,0,0,1-2.21,2L20,159.22a7.36,7.36,0,0,0,2.89-3,10,10,0,0,0,.9-4.46v-.07h-3v-2h8.45v2h-3Q26.19,156.69,29.93,158.74Zm2.82-10.52v6.05h2.12v1.95H32.75v8H30.46v-16Z"/><path class="cls-3" d="M43.39,164.28H41.08V158.7H35.19v-1.89h14.2v1.89h-6Zm5.38-10.6-.9,1.94a8.63,8.63,0,0,1-3.4-1.25,5.4,5.4,0,0,1-2.17-2.28,5.74,5.74,0,0,1-2.2,2.31,8.4,8.4,0,0,1-3.36,1.24l-.92-1.91a7.08,7.08,0,0,0,3.7-1.44,3.64,3.64,0,0,0,1.56-3v-.73h2.44v.73a3.58,3.58,0,0,0,1.54,2.95A7.48,7.48,0,0,0,48.77,153.68Z"/><path class="cls-3" d="M50.43,151.19v-1.94h8.29v1.94H55.83a4.44,4.44,0,0,0,1.11,2.62,5.61,5.61,0,0,0,2.44,1.52l-1.27,1.88a6,6,0,0,1-2-1.2,5.4,5.4,0,0,1-1.45-1.86,4.68,4.68,0,0,1-1.44,2.08,6.4,6.4,0,0,1-2.32,1.43l-1.18-1.89a5.75,5.75,0,0,0,2.6-1.74,4.93,4.93,0,0,0,1.07-2.84ZM63,161a2.53,2.53,0,0,1-1.48,2.29,8.28,8.28,0,0,1-4.07.84,8.27,8.27,0,0,1-4.06-.84A2.53,2.53,0,0,1,51.88,161a2.6,2.6,0,0,1,1.47-2.33,8.13,8.13,0,0,1,4.07-.86,8.16,8.16,0,0,1,4.07.86A2.59,2.59,0,0,1,63,161Zm-5.55-1.3a6.58,6.58,0,0,0-2.34.34q-.84.35-.84,1c0,.38.29.69.85.92a6.56,6.56,0,0,0,2.33.34,6.63,6.63,0,0,0,2.35-.33q.84-.35.84-.93t-.84-1A6.6,6.6,0,0,0,57.42,159.67Zm.95-5.79V152h2.15v-3.73h2.37v9.62H60.52v-4Z"/></g></g></svg>