<svg xmlns="http://www.w3.org/2000/svg" viewBox="0 0 500 500"><defs><style>.cls-1{fill:#fff;}</style></defs><g id="Layer_2" data-name="Layer 2"><g id="Layer_1-2" data-name="Layer 1"><rect width="500" height="500"/><path class="cls-1" d="M45.94,419.44h2.6l.44-2.83H46.66v-2.28h2.66l.69-4.6h2.85l-.66,4.6h3.31l.69-4.6h2.85l-.67,4.6h1.93v2.28H58.06l-.41,2.83h1.93v2.25H57.3l-.57,4.12h-3l.62-4.12H51.14l-.58,4.12h-3l.62-4.12H45.94Zm5.41.07H54.8l.46-3H51.78Z"/><path class="cls-1" d="M73.71,415v5.52c0,3.47-2.63,5.54-5.91,5.54s-6-2.07-6-5.54V415c0-3.45,2.62-5.54,6-5.54S73.71,411.57,73.71,415Zm-2,6.79a5.54,5.54,0,0,0,.25-1.73v-4.6a5.43,5.43,0,0,0-.25-1.72,4.18,4.18,0,0,0-7.75,0,5.43,5.43,0,0,0-.25,1.72v4.6a5.54,5.54,0,0,0,.25,1.73,4.19,4.19,0,0,0,7.75,0Z"/><path class="cls-1" d="M88,415v5.52c0,3.47-2.62,5.54-5.91,5.54s-5.95-2.07-5.95-5.54V415c0-3.45,2.62-5.54,5.95-5.54S88,411.57,88,415Zm-2,6.79a5.25,5.25,0,0,0,.26-1.73v-4.6a5.15,5.15,0,0,0-.26-1.72,4.17,4.17,0,0,0-7.74,0,5.15,5.15,0,0,0-.26,1.72v4.6a5.25,5.25,0,0,0,.26,1.73,4.19,4.19,0,0,0,7.74,0Z"/><path class="cls-1" d="M102.26,415v5.52c0,3.47-2.62,5.54-5.91,5.54s-6-2.07-6-5.54V415c0-3.45,2.62-5.54,6-5.54S102.26,411.57,102.26,415Zm-2.05,6.79a5.54,5.54,0,0,0,.25-1.73v-4.6a5.43,5.43,0,0,0-.25-1.72,4.18,4.18,0,0,0-7.75,0,5.43,5.43,0,0,0-.25,1.72v4.6a5.54,5.54,0,0,0,.25,1.73,4.19,4.19,0,0,0,7.75,0Z"/><path class="cls-1" d="M116.53,415v5.52c0,3.47-2.62,5.54-5.91,5.54s-6-2.07-6-5.54V415c0-3.45,2.62-5.54,6-5.54S116.53,411.57,116.53,415Zm-2,6.79a5.54,5.54,0,0,0,.25-1.73v-4.6a5.43,5.43,0,0,0-.25-1.72,3.81,3.81,0,0,0-3.87-2.62,3.76,3.76,0,0,0-3.88,2.62,5.41,5.41,0,0,0-.26,1.72v4.6a5.53,5.53,0,0,0,.26,1.73,3.75,3.75,0,0,0,3.88,2.59A3.8,3.8,0,0,0,114.49,421.81Z"/><path class="cls-1" d="M130.81,415v5.52c0,3.47-2.62,5.54-5.91,5.54s-6-2.07-6-5.54V415c0-3.45,2.62-5.54,6-5.54S130.81,411.57,130.81,415Zm-2.05,6.79a5.54,5.54,0,0,0,.25-1.73v-4.6a5.43,5.43,0,0,0-.25-1.72,4.18,4.18,0,0,0-7.75,0,5.43,5.43,0,0,0-.25,1.72v4.6a5.54,5.54,0,0,0,.25,1.73,4.19,4.19,0,0,0,7.75,0Z"/><path class="cls-1" d="M145.11,415v5.52c0,3.47-2.63,5.54-5.91,5.54s-6-2.07-6-5.54V415c0-3.45,2.62-5.54,6-5.54S145.11,411.57,145.11,415Zm-2.05,6.79a5.54,5.54,0,0,0,.25-1.73v-4.6a5.43,5.43,0,0,0-.25-1.72,4.18,4.18,0,0,0-7.75,0,5.43,5.43,0,0,0-.25,1.72v4.6a5.54,5.54,0,0,0,.25,1.73,4.19,4.19,0,0,0,7.75,0Z"/><path class="cls-1" d="M54.2,438.55c3.24,0,6.69,1.75,7.43,5.72H58.29a4,4,0,0,0-4.09-2.62c-2.85,0-4.76,2.07-4.76,5.13a4.76,4.76,0,0,0,4.73,5.06,4,4,0,0,0,4.19-2.9h3.31c-.69,4.26-4.11,6-7.47,6a8.21,8.21,0,1,1,0-16.42Z"/><path class="cls-1" d="M77.57,438.66h1.24v16.15H75.36v-8.72l-4,5.06h-.43l-4-5.06v8.72H63.38V438.66h1.26l6.46,7.66Z"/><path class="cls-1" d="M87.07,445.22l1.59-3.2,1.93-3.31h3.65v.51l-5.51,9.15v6.44H85.28v-6.44l-5.55-9.15v-.51h3.71l2,3.43L87,445.22Z"/><path class="cls-1" d="M98.58,445.36a7.34,7.34,0,0,0,2.78-.3c.85-.46,1.17-1.68,1.61-3.5.55-2,2-3.56,5.5-2.83v2.35a1.87,1.87,0,0,0-2.33,1.49,9.15,9.15,0,0,1-2,4.28L109,454.3v.51h-3.88l-4-6.63a12.23,12.23,0,0,1-2.53.17v6.46H95.15v-16.1h3.43Z"/><path class="cls-1" d="M127.07,444v5.52c0,3.47-2.62,5.54-5.91,5.54s-6-2.07-6-5.54V444c0-3.45,2.62-5.54,6-5.54S127.07,440.57,127.07,444Zm-2,6.79a5.54,5.54,0,0,0,.25-1.73v-4.6a5.43,5.43,0,0,0-.25-1.72,3.81,3.81,0,0,0-3.87-2.62,3.76,3.76,0,0,0-3.88,2.62,5.41,5.41,0,0,0-.26,1.72v4.6a5.53,5.53,0,0,0,.26,1.73,3.75,3.75,0,0,0,3.88,2.59A3.8,3.8,0,0,0,125,450.81Z"/><path class="cls-1" d="M130.92,454.67l-.69,2.18H129.1l.51-1.79a1.08,1.08,0,0,1-.8-1,1,1,0,0,1,1.12-1,1.13,1.13,0,0,1,1.11.78,1.27,1.27,0,0,1,0,.37A3,3,0,0,1,130.92,454.67Z"/><path class="cls-1" d="M150.26,444v5.52c0,3.47-2.62,5.54-5.91,5.54s-5.95-2.07-5.95-5.54V444c0-3.45,2.62-5.54,5.95-5.54S150.26,440.57,150.26,444Zm-2,6.79a5.25,5.25,0,0,0,.26-1.73v-4.6a5.15,5.15,0,0,0-.26-1.72,4.17,4.17,0,0,0-7.74,0,5.15,5.15,0,0,0-.26,1.72v4.6a5.25,5.25,0,0,0,.26,1.73,4.19,4.19,0,0,0,7.74,0Z"/><path class="cls-1" d="M154.11,454.67l-.69,2.18h-1.13l.51-1.79a1.09,1.09,0,0,1-.81-1,1,1,0,0,1,1.13-1,1.11,1.11,0,0,1,1.1.78,1,1,0,0,1,0,.37A4,4,0,0,1,154.11,454.67Z"/><path class="cls-1" d="M173.45,444v5.52c0,3.47-2.62,5.54-5.91,5.54s-6-2.07-6-5.54V444c0-3.45,2.63-5.54,6-5.54S173.45,440.57,173.45,444Zm-2,6.79a5.53,5.53,0,0,0,.26-1.73v-4.6a5.41,5.41,0,0,0-.26-1.72,4.18,4.18,0,0,0-7.75,0,5.43,5.43,0,0,0-.25,1.72v4.6a5.54,5.54,0,0,0,.25,1.73,4.19,4.19,0,0,0,7.75,0Z"/><path class="cls-1" d="M177.3,454.67l-.69,2.18h-1.13l.51-1.79a1.09,1.09,0,0,1-.81-1,1,1,0,0,1,1.13-1,1.11,1.11,0,0,1,1.1.78,1,1,0,0,1,0,.37A2.85,2.85,0,0,1,177.3,454.67Z"/><path class="cls-1" d="M184.59,440.23v-1.52h4.62v14.58h3.2v1.52h-8.19v-1.52h3.17V440.23Z"/><path class="cls-1" d="M205,444v5.52c0,3.47-2.63,5.54-5.91,5.54s-6-2.07-6-5.54V444c0-3.45,2.62-5.54,6-5.54S205,440.57,205,444Zm-2.05,6.79a5.54,5.54,0,0,0,.25-1.73v-4.6a5.43,5.43,0,0,0-.25-1.72,4.18,4.18,0,0,0-7.75,0,5.43,5.43,0,0,0-.25,1.72v4.6a5.54,5.54,0,0,0,.25,1.73,4.19,4.19,0,0,0,7.75,0Z"/><path class="cls-1" d="M219.23,444v5.52c0,3.47-2.62,5.54-5.91,5.54s-5.95-2.07-5.95-5.54V444c0-3.45,2.62-5.54,5.95-5.54S219.23,440.57,219.23,444Zm-2,6.79a5.54,5.54,0,0,0,.25-1.73v-4.6a5.43,5.43,0,0,0-.25-1.72,3.81,3.81,0,0,0-3.87-2.62,3.76,3.76,0,0,0-3.88,2.62,5.41,5.41,0,0,0-.26,1.72v4.6a5.53,5.53,0,0,0,.26,1.73,3.75,3.75,0,0,0,3.88,2.59A3.8,3.8,0,0,0,217.19,450.81Z"/><path class="cls-1" d="M65,51.25c-.28,10.43-7.24,17-17.84,19.75L45,66.52c6.84-1.28,13-5.88,13.72-10.68H46.92V51.25ZM51.68,86.52V71.76H76.79V86.52ZM71.08,76H57.36v6.2H71.08Zm0-6.2V62.12H64.72V57.56h6.36V49.05h5.71V69.8Z"/><path class="cls-1" d="M80.61,51.48h20v4.6H93.65c.52,5.24,4.07,8.32,8.51,9.8l-3,4.4c-3-.92-7-4-8.35-7.24-1,3.4-5.4,7.16-9,8.32l-2.88-4.48c5.32-1.8,8.48-5.52,8.88-10.8H80.61ZM97.44,86.6c-8.31,0-13.35-2.88-13.35-7.44s5-7.52,13.35-7.52,13.44,2.88,13.44,7.52S105.84,86.6,97.44,86.6Zm-7.63-7.44c0,1.84,2.84,3,7.63,3,5,0,7.72-1.16,7.72-3s-2.76-3-7.72-3C92.65,76.12,89.81,77.28,89.81,79.16Zm10-21.28H105V49.05h5.68V71.76H105V62.4h-5.2Z"/><path class="cls-1" d="M48.44,99.81H58.56c5.16,0,8.8,2.63,8.8,7.31a6.72,6.72,0,0,1-3.44,6.08v.08a6.65,6.65,0,0,1,4.6,6.68c0,5.68-4.56,8.24-9.8,8.24H48.44ZM58.6,111.4a3.39,3.39,0,0,0,3.52-3.64,3.3,3.3,0,0,0-3.6-3.52H53.6v7.16Zm.52,12.36a4.1,4.1,0,1,0,0-8.2H53.6v8.2Z"/><path class="cls-1" d="M71.27,99.81h5v21.27c0,2.24.76,2.8,2.08,2.8a5.37,5.37,0,0,0,.76,0v4.44a13.16,13.16,0,0,1-1.6.12c-2.8,0-6.28-.72-6.28-6.56Z"/><path class="cls-1" d="M91.57,115.4h.88v-.28c0-2.68-1.72-3.6-3.84-3.6a10.45,10.45,0,0,0-5.68,2l-1.88-3.64a14,14,0,0,1,8-2.52c5.32,0,8.48,3,8.48,8.12V128.2H92.81v-1.72a8.91,8.91,0,0,1,.12-1.48h-.08a7.46,7.46,0,0,1-6.44,3.68c-3.68,0-6.71-2.4-6.71-6.12C79.7,116.44,87.05,115.4,91.57,115.4Zm-3.76,9.4c2.84,0,4.68-2.88,4.68-5.36v-.56h-.88c-2.56,0-6.88.36-6.88,3.24A2.77,2.77,0,0,0,87.81,124.8Z"/><path class="cls-1" d="M110.73,107.32a10.83,10.83,0,0,1,7.84,3l-2.28,3.48a7.75,7.75,0,0,0-5.28-2.2,6.06,6.06,0,0,0-6.2,6.32,6.19,6.19,0,0,0,6.36,6.4,9.14,9.14,0,0,0,6-2.6l2,3.6a11.77,11.77,0,0,1-8.4,3.32c-6.76,0-11.08-4.76-11.08-10.68S104,107.32,110.73,107.32Z"/><path class="cls-1" d="M120.77,99.81h5.08V115h2.52l4.92-7.2h5.64l-6.44,9.12V117l7.24,11.2h-5.84l-5.4-8.92h-2.64v8.92h-5.08Z"/></g></g></svg>