<?xml version="1.0" encoding="utf-8"?>
<!-- Generator: Adobe Illustrator 24.2.0, SVG Export Plug-In . SVG Version: 6.00 Build 0)  -->
<svg version="1.1" id="Layer_1" xmlns="http://www.w3.org/2000/svg" xmlns:xlink="http://www.w3.org/1999/xlink" x="0px" y="0px"
	 viewBox="0 0 500 500" style="enable-background:new 0 0 500 500;" xml:space="preserve">
<style type="text/css">
	.st0{clip-path:url(#SVGID_3_);fill:url(#SVGID_4_);}
	.st1{clip-path:url(#SVGID_6_);fill:#FFFFFF;}
	.st2{fill:#333333;}
	.st3{fill:none;stroke:url(#SVGID_7_);stroke-width:4;stroke-miterlimit:10;}
	.st4{fill:#FFFFFF;}
	.st5{fill:url(#SVGID_8_);}
	.st6{fill:#92DFF0;}
	.st7{fill:url(#SVGID_9_);}
	.st8{fill:url(#SVGID_10_);}
	.st9{fill:url(#SVGID_11_);}
	.st10{fill:url(#SVGID_12_);}
	.st11{fill:url(#SVGID_13_);}
	.st12{fill:url(#SVGID_14_);}
	.st13{fill:url(#SVGID_15_);}
	.st14{fill:url(#SVGID_16_);}
	.st15{fill:url(#SVGID_17_);}
	.st16{fill:#53565A;}
	.st17{fill:url(#SVGID_18_);}
	.st18{fill:url(#SVGID_19_);}
	.st19{fill:url(#SVGID_20_);}
	.st20{fill:url(#SVGID_21_);}
	.st21{fill:url(#SVGID_22_);}
	.st22{fill:#FF00FF;}
	.st23{fill:none;}
	.st24{fill:url(#SVGID_23_);}
	.st25{fill:url(#SVGID_24_);}
	.st26{fill:url(#SVGID_25_);}
	.st27{fill:url(#SVGID_26_);}
	.st28{fill:none;stroke:#CCCCCC;stroke-width:0.5;stroke-miterlimit:10;}
	.st29{fill:#CCCCCC;}
	.st30{fill:#E6E6E6;}
	.st31{fill:url(#SVGID_27_);}
	.st32{clip-path:url(#SVGID_29_);fill:#FFFFFF;}
	.st33{clip-path:url(#SVGID_32_);fill:url(#SVGID_33_);}
	.st34{fill:none;stroke:#FFFFFF;stroke-width:4;stroke-linecap:round;stroke-miterlimit:10;}
	.st35{clip-path:url(#SVGID_35_);fill:#272727;}
	.st36{clip-path:url(#SVGID_37_);fill:#272727;}
	.st37{fill:none;stroke:url(#SVGID_38_);stroke-width:4;stroke-miterlimit:10;}
	.st38{fill:url(#SVGID_39_);}
	.st39{clip-path:url(#SVGID_41_);fill:#272727;}
	.st40{opacity:0.1;clip-path:url(#SVGID_41_);}
	.st41{clip-path:url(#SVGID_43_);fill:#272727;}
	.st42{opacity:0.1;clip-path:url(#SVGID_43_);}
	.st43{fill:none;stroke:url(#SVGID_44_);stroke-width:4;stroke-miterlimit:10;}
	.st44{fill:url(#SVGID_45_);}
	.st45{fill:url(#SVGID_46_);}
	.st46{fill:#B3B3B3;}
	.st47{fill:url(#SVGID_47_);}
	.st48{fill:#FF7477;}
	.st49{fill:#FFAD93;}
	.st50{opacity:0.15;}
	.st51{fill:#25282A;}
	.st52{fill:none;stroke:#FFFFFF;stroke-width:10;stroke-miterlimit:10;}
</style>
<rect x="-0.12" y="0" class="st48" width="500" height="500"/>
<g>
	<path class="st4" d="M45.82,390.44h2.6l0.44-2.83h-2.32v-2.28h2.67l0.69-4.6h2.85l-0.67,4.6h3.31l0.69-4.6h2.85l-0.67,4.6h1.93
		v2.28h-2.25l-0.41,2.83h1.93v2.25h-2.28l-0.58,4.12h-2.97l0.62-4.12h-3.24l-0.58,4.12h-2.99l0.62-4.12h-2.25V390.44z M51.22,390.51
		h3.45l0.46-2.99h-3.47L51.22,390.51z"/>
	<path class="st4" d="M71.12,390.02h-7.01v6.78h-1.93v-16.1h9.57v1.7h-7.63v5.91h7.01V390.02z"/>
	<path class="st4" d="M82.34,390.02h-7.01v6.78h-1.93v-16.1h9.57v1.7h-7.63v5.91h7.01V390.02z"/>
	<path class="st4" d="M94.72,380.99l-7.4,15.82h-1.96l6.76-14.4h-8.14v-1.7h10.74V380.99z"/>
	<path class="st4" d="M102.89,397.04h-1.75v-3.61h-8.3v-0.83l8.16-11.66h1.88v10.92h1.66v1.56h-1.66V397.04z M101.31,383.1
		l-6.16,8.83h6.12v-4.05l0.07-4.78H101.31z"/>
	<path class="st4" d="M115.56,380.99l-7.4,15.82h-1.96l6.76-14.4h-8.14v-1.7h10.74V380.99z"/>
	<path class="st4" d="M127,380.99l-7.4,15.82h-1.96l6.76-14.4h-8.14v-1.7H127V380.99z"/>
	<path class="st4" d="M54.08,409.55c3.24,0,6.69,1.75,7.43,5.73h-3.33c-0.71-1.82-2.16-2.62-4.09-2.62c-2.85,0-4.76,2.07-4.76,5.13
		c0,2.76,1.86,5.06,4.74,5.06c2,0,3.63-0.94,4.19-2.9h3.31c-0.69,4.25-4.12,6.02-7.47,6.02c-4.23,0-8.23-2.85-8.23-8.19
		C45.84,412.42,49.84,409.48,54.08,409.55z"/>
	<path class="st4" d="M77.44,409.66h1.24v16.14h-3.45v-8.72l-4.05,5.06h-0.44l-4.05-5.06v8.72h-3.45v-16.14h1.26l6.46,7.66
		L77.44,409.66z"/>
	<path class="st4" d="M86.95,416.22l1.59-3.2l1.93-3.31h3.66v0.51l-5.52,9.15v6.44h-3.45v-6.44l-5.54-9.15v-0.51h3.7l2,3.43
		l1.52,3.08H86.95z"/>
	<path class="st4" d="M98.46,416.36c0.99,0,2.14,0.02,2.78-0.3c0.85-0.46,1.17-1.68,1.61-3.5c0.55-2,1.96-3.56,5.5-2.83v2.35
		c-1.29-0.11-1.98,0.28-2.32,1.49c-0.48,1.84-1.04,3.29-2.02,4.28l4.92,7.45v0.51h-3.89l-4.05-6.62c-0.62,0.16-1.82,0.16-2.53,0.16
		v6.46h-3.43v-16.1h3.43V416.36z"/>
	<path class="st4" d="M126.95,415.02v5.52c0,3.47-2.62,5.54-5.91,5.54c-3.33,0-5.96-2.07-5.96-5.54v-5.52
		c0-3.45,2.62-5.54,5.96-5.54C124.33,409.48,126.95,411.57,126.95,415.02z M124.9,421.81c0.16-0.48,0.25-1.06,0.25-1.72v-4.6
		c0-0.67-0.09-1.24-0.25-1.72c-0.48-1.66-2.02-2.62-3.86-2.62c-1.91,0-3.4,0.97-3.89,2.62c-0.16,0.48-0.25,1.06-0.25,1.72v4.6
		c0,0.67,0.09,1.24,0.25,1.72c0.48,1.66,1.98,2.6,3.89,2.6C122.88,424.4,124.42,423.46,124.9,421.81z"/>
	<path class="st4" d="M130.8,425.67l-0.69,2.18h-1.13l0.51-1.79c-0.46-0.16-0.8-0.51-0.8-1.03c0-0.64,0.48-1.06,1.13-1.06
		c0.53,0,0.94,0.3,1.1,0.78c0.02,0.16,0.05,0.3,0.02,0.37C130.91,425.28,130.87,425.46,130.8,425.67z"/>
	<path class="st4" d="M147.38,426.04h-1.75v-3.61h-8.3v-0.83l8.16-11.66h1.88v10.92h1.66v1.56h-1.66V426.04z M145.79,412.1
		l-6.16,8.83h6.12v-4.05l0.07-4.78H145.79z"/>
	<path class="st4" d="M162.07,421.12c0,2.92-2.51,4.92-5.86,4.92c-3.33,0-5.86-1.77-5.86-4.92c0-2.23,1.4-3.66,3.22-4.32
		c-1.22-0.57-2.16-1.66-2.18-3.22c0-2.44,2.05-4.09,4.83-4.09s4.88,1.63,4.88,4.07c0,1.56-0.97,2.64-2.25,3.27
		C160.66,417.53,162.04,418.84,162.07,421.12z M160.2,421.05c0-2.14-1.91-3.38-4-3.38c-2.12,0-3.98,1.26-3.98,3.4
		c0,2.12,1.91,3.36,3.98,3.36C158.3,424.43,160.2,423.19,160.2,421.05z M159.35,413.6c0-1.63-1.5-2.58-3.15-2.58
		c-1.59,0-3.13,0.94-3.13,2.6c0,1.66,1.49,2.58,3.13,2.58S159.35,415.25,159.35,413.6z"/>
	<path class="st4" d="M165.84,425.67l-0.69,2.18h-1.13l0.51-1.79c-0.46-0.16-0.8-0.51-0.8-1.03c0-0.64,0.48-1.06,1.13-1.06
		c0.53,0,0.94,0.3,1.1,0.78c0.02,0.16,0.05,0.3,0.02,0.37C165.95,425.28,165.91,425.46,165.84,425.67z"/>
	<path class="st4" d="M182.42,426.04h-1.75v-3.61h-8.3v-0.83l8.16-11.66h1.88v10.92h1.66v1.56h-1.66V426.04z M180.83,412.1
		l-6.16,8.83h6.12v-4.05l0.07-4.78H180.83z"/>
	<path class="st4" d="M197.11,421.12c0,2.92-2.51,4.92-5.86,4.92c-3.33,0-5.86-1.77-5.86-4.92c0-2.23,1.4-3.66,3.22-4.32
		c-1.22-0.57-2.16-1.66-2.18-3.22c0-2.44,2.05-4.09,4.83-4.09s4.88,1.63,4.88,4.07c0,1.56-0.97,2.64-2.25,3.27
		C195.7,417.53,197.08,418.84,197.11,421.12z M195.24,421.05c0-2.14-1.91-3.38-4-3.38c-2.12,0-3.98,1.26-3.98,3.4
		c0,2.12,1.91,3.36,3.98,3.36C193.34,424.43,195.24,423.19,195.24,421.05z M194.39,413.6c0-1.63-1.5-2.58-3.15-2.58
		c-1.59,0-3.13,0.94-3.13,2.6c0,1.66,1.49,2.58,3.13,2.58S194.39,415.25,194.39,413.6z"/>
	<path class="st4" d="M200.88,425.67l-0.69,2.18h-1.13l0.51-1.79c-0.46-0.16-0.8-0.51-0.8-1.03c0-0.64,0.48-1.06,1.13-1.06
		c0.53,0,0.94,0.3,1.1,0.78c0.02,0.16,0.05,0.3,0.02,0.37C200.99,425.28,200.95,425.46,200.88,425.67z"/>
	<path class="st4" d="M220.22,415.02v5.52c0,3.47-2.62,5.54-5.91,5.54c-3.33,0-5.96-2.07-5.96-5.54v-5.52
		c0-3.45,2.62-5.54,5.96-5.54C217.6,409.48,220.22,411.57,220.22,415.02z M218.17,421.81c0.16-0.48,0.25-1.06,0.25-1.72v-4.6
		c0-0.67-0.09-1.24-0.25-1.72c-0.48-1.66-2.02-2.62-3.86-2.62c-1.91,0-3.4,0.97-3.89,2.62c-0.16,0.48-0.25,1.06-0.25,1.72v4.6
		c0,0.67,0.09,1.24,0.25,1.72c0.48,1.66,1.98,2.6,3.89,2.6C216.15,424.4,217.69,423.46,218.17,421.81z"/>
	<path class="st4" d="M46.76,454.78v-16.1c2.3-0.02,4.58,0,6.88,0c3.75,0,5.73,2.83,5.73,5.86c0,2.99-2.05,5.68-5.73,5.68h-3.43
		v4.55H46.76z M53.64,447.29c1.47,0,2.44-1.29,2.44-2.83c0-1.49-0.92-2.76-2.44-2.76c-1.17-0.02-2.32,0-3.5,0v5.59H53.64z"/>
	<path class="st4" d="M62.5,452.14l-1.24,2.67h-3.59v-0.46l7.4-15.77h1.59l7.36,15.77v0.46h-3.56l-1.26-2.67H62.5z M63.62,449.24
		h4.46l-2.23-5.31L63.62,449.24z"/>
	<path class="st4" d="M78.28,445.61v9.2h-3.43v-16.17h1.08l9.04,9.2v-9.13h3.45v16.14h-1.04L78.28,445.61z"/>
	<path class="st4" d="M89.51,441.7v-2.99h11.91v2.99h-4.28v13.11h-3.33V441.7H89.51z"/>
	<path class="st4" d="M109.57,455.08c-4.3,0-8.19-2.9-8.19-8.32s3.98-8.3,8.25-8.3c4.21,0,8.19,2.9,8.19,8.3
		C117.83,451.66,114.45,455.08,109.57,455.08z M109.62,451.93c2.51,0,4.78-1.66,4.78-5.17c0-3.43-2.25-5.13-4.76-5.13
		c-2.53,0-4.78,1.72-4.78,5.13C104.86,450.28,107.05,451.93,109.62,451.93z"/>
	<path class="st4" d="M123.08,445.61v9.2h-3.43v-16.17h1.08l9.04,9.2v-9.13h3.45v16.14h-1.04L123.08,445.61z"/>
	<path class="st4" d="M145.81,441.72h-6.39v3.27h5.98V448h-5.98v3.68h6.58v3.13h-10.05v-16.1h9.87V441.72z"/>
	<path class="st4" d="M147.12,446.76c0-10.6,15.8-10.6,15.8,0C162.92,457.34,147.12,457.41,147.12,446.76z M160.6,446.76
		c0-7.91-11.13-7.91-11.13,0C149.47,454.69,160.6,454.65,160.6,446.76z M158.58,450.12v0.34h-1.96l-1.49-2.44h-0.94v2.44h-1.91
		v-7.47h3.31c1.59,0,2.8,0.92,2.8,2.6c0,0.94-0.46,1.86-1.4,2.16L158.58,450.12z M154.18,446.48h1.22c0.64,0,1.08-0.39,1.08-0.92
		s-0.37-0.92-1.08-0.92h-1.22V446.48z"/>
	<path class="st4" d="M181.16,450.12c0,2.92-2.51,4.92-5.86,4.92c-3.33,0-5.86-1.77-5.86-4.92c0-2.23,1.4-3.66,3.22-4.32
		c-1.22-0.57-2.16-1.66-2.18-3.22c0-2.44,2.05-4.09,4.83-4.09s4.88,1.63,4.88,4.07c0,1.56-0.97,2.64-2.25,3.27
		C179.76,446.53,181.14,447.84,181.16,450.12z M179.3,450.05c0-2.14-1.91-3.38-4-3.38c-2.12,0-3.98,1.26-3.98,3.4
		c0,2.12,1.91,3.36,3.98,3.36C177.39,453.43,179.3,452.19,179.3,450.05z M178.45,442.6c0-1.63-1.5-2.58-3.15-2.58
		c-1.59,0-3.13,0.94-3.13,2.6c0,1.66,1.49,2.58,3.13,2.58S178.45,444.25,178.45,442.6z"/>
	<path class="st4" d="M194.82,444.02v5.52c0,3.47-2.62,5.54-5.91,5.54c-3.33,0-5.96-2.07-5.96-5.54v-5.52
		c0-3.45,2.62-5.54,5.96-5.54C192.2,438.48,194.82,440.57,194.82,444.02z M192.78,450.81c0.16-0.48,0.25-1.06,0.25-1.72v-4.6
		c0-0.67-0.09-1.24-0.25-1.72c-0.48-1.66-2.02-2.62-3.86-2.62c-1.91,0-3.4,0.97-3.89,2.62c-0.16,0.48-0.25,1.06-0.25,1.72v4.6
		c0,0.67,0.09,1.24,0.25,1.72c0.48,1.66,1.98,2.6,3.89,2.6C190.75,453.4,192.29,452.46,192.78,450.81z"/>
	<path class="st4" d="M199.04,444.6c0.8-0.21,1.61-0.3,2.46-0.3c3.22,0,6.28,1.45,6.16,5.4c0,3.24-2.18,5.36-5.54,5.36
		c-2.78,0-5.01-1.52-5.27-4.44h1.82c0.21,1.77,1.59,2.74,3.43,2.74c1.63,0,3.68-0.87,3.68-3.61c0-2.97-2.21-3.77-4.48-3.77
		c-1.47,0-2.92,0.16-4,0.51v-7.77h9.43v1.72h-7.68V444.6z"/>
</g>
<g>
	<path class="st4" d="M45.16,82.32v-4.4h12.2V69h5.64v8.92h16.4v4.4H45.16z M75.67,52.6c0.04,1.2,0.08,2.6,0.08,3.76
		c0,5.6-0.88,13.48-1.88,17.64c-1.76-0.24-3.56-0.44-5.28-0.72c0.48-2.12,0.88-4.68,1.16-7.24l-21.08,1.2l-0.64-4.76
		c7.36-0.2,14.72-0.4,22.08-0.64c0.08-1.16,0.12-2.32,0.12-3.36v-1.36H49.52V52.6H75.67z"/>
	<path class="st4" d="M85.98,67.84c-2.2,0-4.44-0.08-6.64-0.12V56.88h11.24v-2.2h-11.2v-4.4H96.3V61H84.98v2.36
		c0.8,0.04,1.68,0.08,2.6,0.08c4,0,8.92-0.4,11.92-1.16c0.16,1.44,0.36,2.84,0.48,4.28C97.42,67.24,90.66,67.84,85.98,67.84z
		 M82.35,86.84V76.6h19.84v-1.8H82.46v-4.4h25.4v10.16H88.02v1.8h20.48v4.48H82.35z M107.86,61.32v7.52h-5.6v-19.8h5.6v7.72h5.24
		v4.56H107.86z"/>
	<path class="st4" d="M61.28,99.33c3.72,0,7.72,1.2,10.48,3.88l-2.48,3.84c-2-1.72-5-3-7.76-3c-6.24,0-9.52,4.52-9.52,9.76
		c0,5.32,3.4,10.16,9.56,10.16c3.04,0,6.08-1.48,8.24-3.6l2.72,3.72c-2.44,2.48-6.08,4.6-11.16,4.6c-8.92,0-14.68-6.44-14.68-14.8
		C46.68,105.64,52.72,99.33,61.28,99.33z"/>
	<path class="st4" d="M83.86,107.32c6.24,0,11.24,4.44,11.24,10.68c0,6.28-5,10.68-11.2,10.68s-11.2-4.4-11.2-10.68
		C72.7,111.76,77.7,107.32,83.86,107.32z M83.9,124.36c3.32,0,6.08-2.56,6.08-6.36c0-3.76-2.76-6.36-6.08-6.36s-6.04,2.6-6.04,6.36
		C77.86,121.8,80.58,124.36,83.9,124.36z"/>
	<path class="st4" d="M97.42,107.8h4.88v3.6c0,0.76-0.08,1.4-0.08,1.4h0.08c0.92-2.88,3.4-5.28,6.48-5.28
		c0.32,0,0.64,0.04,0.96,0.08v5c-0.2-0.04-0.8-0.08-1.24-0.08c-4.16,0-6,3.6-6,7.44v8.24h-5.08V107.8z"/>
	<path class="st4" d="M121.42,115.4h0.88v-0.28c0-2.68-1.72-3.6-3.84-3.6c-2,0-4.04,0.84-5.68,1.96l-1.88-3.64
		c1.68-1.36,4.96-2.52,8-2.52c5.32,0,8.48,2.96,8.48,8.12v12.76h-4.72v-1.72c0-0.84,0.12-1.48,0.12-1.48h-0.08
		c-1.24,2.16-3.68,3.68-6.44,3.68c-3.68,0-6.72-2.4-6.72-6.12C109.54,116.44,116.9,115.4,121.42,115.4z M117.66,124.8
		c2.84,0,4.68-2.88,4.68-5.36v-0.56h-0.88c-2.56,0-6.88,0.36-6.88,3.24C114.58,123.48,115.62,124.8,117.66,124.8z"/>
	<path class="st4" d="M130.63,99.81h5.04v21.28c0,2.24,0.76,2.8,2.08,2.8c0.2,0,0.48,0,0.76-0.04v4.44
		c-0.36,0.04-0.92,0.12-1.6,0.12c-2.8,0-6.28-0.72-6.28-6.56V99.81z"/>
</g>
</svg>
