<svg xmlns="http://www.w3.org/2000/svg" xmlns:xlink="http://www.w3.org/1999/xlink" viewBox="0 0 1556.12 600"><defs><style>.cls-1{fill:#333;}.cls-2{fill:#fff;}.cls-3{fill:url(#linear-gradient);}</style><linearGradient id="linear-gradient" x1="368.63" y1="373.93" x2="454" y2="226.07" gradientUnits="userSpaceOnUse"><stop offset="0" stop-color="#ff7477"/><stop offset="1" stop-color="#ffad93"/></linearGradient></defs><g id="Layer_2" data-name="Layer 2"><g id="Layer_1-2" data-name="Layer 1"><rect class="cls-1" width="1556.12" height="600"/><path class="cls-2" d="M411.32,465.82a45.44,45.44,0,0,1-22.74-6.08L284.34,399.56a45.6,45.6,0,0,1-22.73-39.38V239.82a45.6,45.6,0,0,1,22.73-39.38l104.24-60.18a45.58,45.58,0,0,1,45.47,0l104.24,60.18A45.61,45.61,0,0,1,561,239.82V360.18a45.61,45.61,0,0,1-22.74,39.38L434.05,459.74A45.43,45.43,0,0,1,411.32,465.82Zm0-314.32a28.11,28.11,0,0,0-14.08,3.76L293,215.44a28.22,28.22,0,0,0-14.07,24.38V360.18A28.22,28.22,0,0,0,293,384.56l104.24,60.18a28.19,28.19,0,0,0,28.15,0l104.24-60.18a28.23,28.23,0,0,0,14.08-24.38V239.82a28.23,28.23,0,0,0-14.08-24.38L425.39,155.26A28.1,28.1,0,0,0,411.32,151.5Z"/><path class="cls-3" d="M373,375.1a8.68,8.68,0,0,1-7.49-13l76.71-132.86a8.66,8.66,0,0,1,15,8.66L380.46,370.76A8.65,8.65,0,0,1,373,375.1Z"/><path class="cls-2" d="M1053.56,367.71V232.21a7.28,7.28,0,0,0-14.56-.12V367.51a7.51,7.51,0,0,0,6.59,7.54A7.19,7.19,0,0,0,1053.56,367.71Z"/><path class="cls-2" d="M1099.46,278.11a47.9,47.9,0,0,0-34.41,32c-5.86,18.58-1,37.46,12,50.48s31.9,17.87,50.47,12a47.89,47.89,0,0,0,32-34.4c4.25-17.64-.76-35.08-12.9-47.23S1117.09,273.86,1099.46,278.11Zm14.64,82.35a34.67,34.67,0,1,1,32.33-32.34A34.72,34.72,0,0,1,1114.1,360.46Z"/><path class="cls-2" d="M744.87,232.19h0a7.28,7.28,0,1,0-14.56,0h0v52a3,3,0,0,1-4.86,2.4A49.41,49.41,0,0,0,660.79,291c-12.14,12.15-17.15,29.59-12.9,47.23a47.88,47.88,0,0,0,32.05,34.4c18.57,5.86,37.45,1,50.46-12a48.89,48.89,0,0,0,14.47-34.77V232.19Zm-14.56,93.67a34.57,34.57,0,1,1,0-.21Z"/><path class="cls-2" d="M1292.17,232.19h0a7.28,7.28,0,1,0-14.56,0h0v52a3,3,0,0,1-4.86,2.4,49.41,49.41,0,0,0-64.66,4.39c-12.14,12.15-17.15,29.59-12.9,47.23a47.88,47.88,0,0,0,32,34.4c18.57,5.86,37.45,1,50.46-12a48.89,48.89,0,0,0,14.47-34.77V232.19Zm-14.56,93.67a34.57,34.57,0,1,1,0-.21Z"/><path class="cls-2" d="M803.14,276.62a49.24,49.24,0,0,0,0,98.48h1c7.05,0,17.5-.42,30.17-8.87a7.51,7.51,0,0,0,2.66-10,7.06,7.06,0,0,0-9.64-2.58,40.72,40.72,0,0,1-24.21,6.88,34.91,34.91,0,0,1-32.83-23.47h0a3,3,0,0,1,2.85-4H845a7.21,7.21,0,0,0,7.39-7.18C852.38,293.88,827,276.62,803.14,276.62Zm30.19,41.85H773.16a3,3,0,0,1-2.85-4h0a35,35,0,0,1,32.83-23.25c12,0,27.91,6.13,33.09,23.4A3,3,0,0,1,833.33,318.47Z"/><path class="cls-2" d="M980.73,276.62a49.24,49.24,0,0,0,0,98.48h1c7,0,17.49-.42,30.16-8.87a7.51,7.51,0,0,0,2.67-10,7.06,7.06,0,0,0-9.64-2.58,40.72,40.72,0,0,1-24.21,6.88,34.91,34.91,0,0,1-32.84-23.47h0a3,3,0,0,1,2.86-4h71.83a7.22,7.22,0,0,0,7.39-7.18C1030,293.88,1004.6,276.62,980.73,276.62Zm30.19,41.85H950.75a3,3,0,0,1-2.85-4h0a35,35,0,0,1,32.83-23.25c12,0,27.91,6.13,33.09,23.4A3,3,0,0,1,1010.92,318.47Z"/><path class="cls-2" d="M1170.17,271.22h-.07v.65C1170.1,271.65,1170.15,271.44,1170.17,271.22Z"/><polygon class="cls-2" points="1170.1 271.87 1170.1 271.22 1170.1 271.22 1170.1 291.81 1170.1 271.88 1170.1 271.87"/><polygon class="cls-2" points="1170.1 271.87 1170.1 271.88 1170.1 291.81 1170.1 323.25 1170.1 271.87"/><path class="cls-2" d="M1177.38,263.93a7.28,7.28,0,0,0-7.28,7.29v96.3a7.5,7.5,0,0,0,6.59,7.53,7.2,7.2,0,0,0,8-7.34V271.22h0A7.29,7.29,0,0,0,1177.38,263.93Z"/><circle class="cls-2" cx="1177.38" cy="238.59" r="7.28"/><path class="cls-2" d="M925.92,277.09a7.41,7.41,0,0,0-9.53,4.35v0l-24.45,65.16-24.46-65.16v0a7.41,7.41,0,1,0-13.88,5.19h0l31.19,83.45a7.73,7.73,0,0,0,7.06,5H892a7.72,7.72,0,0,0,7.05-5l31.19-83.45h0A7.41,7.41,0,0,0,925.92,277.09Z"/></g></g></svg>