<svg xmlns="http://www.w3.org/2000/svg" viewBox="0 0 200 200"><defs><style>.cls-1{fill:#78c1a0;}.cls-2{opacity:0.8;}.cls-3{fill:#fff;}</style></defs><g id="레이어_2" data-name="레이어 2"><g id="레이어_1-2" data-name="레이어 1"><rect class="cls-1" width="200" height="200"/><g class="cls-2"><path class="cls-3" d="M20,173.33h.79v2.74h3.48v-2.74h.79v6.34h-.79v-2.89H20.79v2.89H20Z"/><path class="cls-3" d="M26.35,173.33h3.93V174H27.14v2h3v.7h-3V179h3.14v.71H26.35Z"/><path class="cls-3" d="M33.15,176.49v0L31,173.33h1l1.69,2.55h0l1.71-2.55h.9l-2.19,3.18h0l2.15,3.15h-.95l-1.69-2.53h0l-1.71,2.53H31Z"/><path class="cls-3" d="M38.84,179.67l.31-1.59h-1l.18-1h1l.26-1.34h-1l.19-.94h1l.29-1.52h1l-.29,1.52H41.9l.3-1.52h1l-.29,1.52h1l-.19.94h-1l-.26,1.34h1.06l-.18,1H42.27L42,179.67H41l.3-1.59H40.12l-.3,1.59Zm2.67-2.49.27-1.44H40.52l-.28,1.44Z"/><path class="cls-3" d="M47.46,174.41v0H44.24v-1h4.53v1.07l-2.64,5.27h-1.4Z"/><path class="cls-3" d="M49.34,177.94h0a1.65,1.65,0,0,1,1.46-1.59v0a1.47,1.47,0,0,1-1.23-1.39h0c0-1,1-1.69,2.33-1.69s2.32.71,2.32,1.69h0A1.47,1.47,0,0,1,53,176.31v0a1.65,1.65,0,0,1,1.46,1.59h0c0,1.09-1,1.84-2.55,1.84S49.34,179,49.34,177.94Zm3.74-.09h0a1.2,1.2,0,0,0-2.36,0h0c0,.56.48,1,1.18,1S53.08,178.41,53.08,177.85ZM52.91,175h0a1,1,0,0,0-2,0h0a1,1,0,0,0,2,0Z"/><path class="cls-3" d="M55.1,176.5h0c0-2,1.17-3.27,3-3.27a2.59,2.59,0,0,1,2.76,2.32v0H59.6l0-.08a1.4,1.4,0,0,0-1.46-1.16c-1,0-1.67.82-1.67,2.15h0c0,1.34.65,2.17,1.67,2.17a1.43,1.43,0,0,0,1.47-1.2v0h1.29v.05a2.6,2.6,0,0,1-2.77,2.31C56.26,179.78,55.1,178.54,55.1,176.5Z"/><path class="cls-3" d="M63.22,174.55h0l-1.61,1.1v-1.18l1.64-1.14h1.32v6.34H63.22Z"/><path class="cls-3" d="M67.66,173.33h1.56l2.21,6.34H70l-.48-1.54H67.31l-.47,1.54h-1.4Zm0,3.81h1.63l-.8-2.58h0Z"/><path class="cls-3" d="M71.67,176.5h0c0-2,1-3.27,2.58-3.27s2.59,1.26,2.59,3.27h0c0,2-1,3.28-2.59,3.28S71.67,178.52,71.67,176.5Zm3.83,0h0c0-1.39-.46-2.21-1.25-2.21S73,175.1,73,176.49h0c0,1.4.45,2.22,1.24,2.22S75.5,177.9,75.5,176.5Z"/></g><path class="cls-3" d="M30,163.52H27.85v-7.39h-1a10.1,10.1,0,0,1-.46,2.42,4.4,4.4,0,0,1-1.12,1.81,2.68,2.68,0,0,1-3.85-.18,5.19,5.19,0,0,1-1.13-2.2,11.73,11.73,0,0,1-.32-2.81,11.2,11.2,0,0,1,.32-2.74,4.94,4.94,0,0,1,1.13-2.15,2.6,2.6,0,0,1,2-.9,2.55,2.55,0,0,1,1.79.68,4.19,4.19,0,0,1,1.11,1.68,9.33,9.33,0,0,1,.48,2.3h1v-5.51H30Zm-5.25-8.31c0-2.41-.43-3.62-1.27-3.62s-1.26,1.21-1.26,3.62.42,3.6,1.26,3.6S24.75,157.61,24.75,155.21Zm8.5,9H31.06v-16h2.19Z"/><path class="cls-3" d="M41.25,150.06v3.87h1.22v-5.42h2.17v15H42.47V155.8H41.25v4.29H34.87v-10Zm-2.2,8.23v-6.43H37v6.43Zm8.78,6h-2.2v-16h2.2Z"/><path class="cls-3" d="M57.92,155.62a15.88,15.88,0,0,1-2.58.39c-1.19.11-2.26.17-3.23.17l-2.75-.05v-4.59H54v-.94H49.38v-1.85h7v4.53H51.71v1c.44,0,.8,0,1.07,0a19.92,19.92,0,0,0,4.94-.49C57.82,154.67,57.88,155.27,57.92,155.62Zm3.53,8.59H50.61v-4.34h8.22v-.76H50.67v-1.85H61.18v4.28H53v.78h8.49Zm1.92-10.8H61.18v3.18H58.87v-8.37h2.31v3.26h2.19Z"/><path class="cls-3" d="M77.15,160.32v1.87H63v-1.87Zm-1.68-3H64.75V149.5h10.6v1.89H67.06v4h8.41Z"/></g></g></svg>