<?xml version="1.0" encoding="utf-8"?>
<!-- Generator: Adobe Illustrator 24.2.0, SVG Export Plug-In . SVG Version: 6.00 Build 0)  -->
<svg version="1.1" id="Layer_1" xmlns="http://www.w3.org/2000/svg" xmlns:xlink="http://www.w3.org/1999/xlink" x="0px" y="0px"
	 viewBox="0 0 500 500" style="enable-background:new 0 0 500 500;" xml:space="preserve">
<style type="text/css">
	.st0{clip-path:url(#SVGID_3_);fill:url(#SVGID_4_);}
	.st1{clip-path:url(#SVGID_6_);fill:#FFFFFF;}
	.st2{fill:#333333;}
	.st3{fill:none;stroke:url(#SVGID_7_);stroke-width:4;stroke-miterlimit:10;}
	.st4{fill:#FFFFFF;}
	.st5{fill:url(#SVGID_8_);}
	.st6{fill:#92DFF0;}
	.st7{fill:url(#SVGID_9_);}
	.st8{fill:url(#SVGID_10_);}
	.st9{fill:url(#SVGID_11_);}
	.st10{fill:url(#SVGID_12_);}
	.st11{fill:url(#SVGID_13_);}
	.st12{fill:url(#SVGID_14_);}
	.st13{fill:url(#SVGID_15_);}
	.st14{fill:url(#SVGID_16_);}
	.st15{fill:url(#SVGID_17_);}
	.st16{fill:#53565A;}
	.st17{fill:url(#SVGID_18_);}
	.st18{fill:url(#SVGID_19_);}
	.st19{fill:url(#SVGID_20_);}
	.st20{fill:url(#SVGID_21_);}
	.st21{fill:url(#SVGID_22_);}
	.st22{fill:#FF00FF;}
	.st23{fill:none;}
	.st24{fill:url(#SVGID_23_);}
	.st25{fill:url(#SVGID_24_);}
	.st26{fill:url(#SVGID_25_);}
	.st27{fill:url(#SVGID_26_);}
	.st28{fill:none;stroke:#CCCCCC;stroke-width:0.5;stroke-miterlimit:10;}
	.st29{fill:#CCCCCC;}
	.st30{fill:#E6E6E6;}
	.st31{fill:url(#SVGID_27_);}
	.st32{clip-path:url(#SVGID_29_);fill:#FFFFFF;}
	.st33{clip-path:url(#SVGID_32_);fill:url(#SVGID_33_);}
	.st34{fill:none;stroke:#FFFFFF;stroke-width:4;stroke-linecap:round;stroke-miterlimit:10;}
	.st35{clip-path:url(#SVGID_35_);fill:#333333;}
	.st36{clip-path:url(#SVGID_37_);fill:#333333;}
	.st37{fill:none;stroke:url(#SVGID_38_);stroke-width:4;stroke-miterlimit:10;}
	.st38{fill:url(#SVGID_39_);}
	.st39{clip-path:url(#SVGID_41_);fill:#333333;}
	.st40{opacity:0.1;clip-path:url(#SVGID_41_);}
	.st41{clip-path:url(#SVGID_43_);fill:#333333;}
	.st42{opacity:0.1;clip-path:url(#SVGID_43_);}
	.st43{fill:none;stroke:url(#SVGID_44_);stroke-width:4;stroke-miterlimit:10;}
	.st44{fill:url(#SVGID_45_);}
	.st45{fill:url(#SVGID_46_);}
	.st46{fill:#B3B3B3;}
	.st47{fill:url(#SVGID_47_);}
	.st48{fill:#FF7477;}
</style>
<rect class="st4" width="500" height="500"/>
<g>
	<path class="st16" d="M250,415.82c-7.86,0-15.73-2.02-22.74-6.07l-104.23-60.18c-14.03-8.1-22.74-23.19-22.74-39.38V189.82
		c0-16.2,8.71-31.29,22.74-39.38l104.23-60.18c14.02-8.1,31.45-8.1,45.48,0l104.23,60.18c14.03,8.1,22.74,23.19,22.74,39.38v120.36
		c0,16.19-8.71,31.29-22.74,39.38l-104.23,60.18C265.73,413.79,257.86,415.82,250,415.82z M250,101.5c-4.87,0-9.74,1.25-14.08,3.76
		l-104.23,60.18c-8.68,5.01-14.08,14.36-14.08,24.38v120.36c0,10.03,5.39,19.37,14.08,24.38l104.23,60.18
		c8.68,5.01,19.47,5.01,28.15,0l104.23-60.18c8.68-5.01,14.08-14.36,14.08-24.38V189.82c0-10.03-5.39-19.37-14.08-24.38
		l-104.23-60.18C259.74,102.75,254.87,101.5,250,101.5z"/>
</g>
<g>
	<linearGradient id="SVGID_2_" gradientUnits="userSpaceOnUse" x1="202.982" y1="250" x2="297.018" y2="250">
		<stop  offset="0" style="stop-color:#FF7477"/>
		<stop  offset="1" style="stop-color:#FFAD93"/>
	</linearGradient>
	<path style="fill:url(#SVGID_2_);" d="M211.64,325.1c-1.47,0-2.96-0.37-4.32-1.16c-4.14-2.39-5.56-7.69-3.17-11.83l76.71-132.87
		c2.39-4.14,7.69-5.56,11.83-3.17c4.14,2.39,5.56,7.69,3.17,11.83l-76.71,132.87C217.54,323.54,214.63,325.1,211.64,325.1z"/>
</g>
</svg>
