<svg xmlns="http://www.w3.org/2000/svg" viewBox="0 0 3000 3000"><defs><style>.cls-1{fill:#202a45;}.cls-2{fill:#e1f6ff;}.cls-3{fill:#1f84ff;}</style></defs><g id="레이어_2" data-name="레이어 2"><g id="Layer_1" data-name="Layer 1"><rect class="cls-1" width="3000" height="3000"/><path class="cls-2" d="M1500,2281.79a214.39,214.39,0,0,1-107.21-28.63L901.35,1969.42a215,215,0,0,1-107.21-185.68V1216.26a215,215,0,0,1,107.21-185.68l491.44-283.74a215,215,0,0,1,214.41,0l491.45,283.74a215,215,0,0,1,107.21,185.68v567.48a215,215,0,0,1-107.21,185.68L1607.2,2253.16A214.33,214.33,0,0,1,1500,2281.79Zm0-1481.95a132.7,132.7,0,0,0-66.37,17.73L942.18,1101.31a133.11,133.11,0,0,0-66.37,115v567.48a133.11,133.11,0,0,0,66.37,115l491.45,283.74a133.11,133.11,0,0,0,132.74,0l491.45-283.74a133.11,133.11,0,0,0,66.37-115V1216.26a133.11,133.11,0,0,0-66.37-115L1566.37,817.57A132.7,132.7,0,0,0,1500,799.84Z"/><path class="cls-3" d="M1319.12,1854.06a40.83,40.83,0,0,1-35.32-61.26l361.68-626.44a40.83,40.83,0,1,1,70.72,40.84l-361.68,626.44A40.81,40.81,0,0,1,1319.12,1854.06Z"/></g></g></svg>