<svg xmlns="http://www.w3.org/2000/svg" viewBox="0 0 200 200"><defs><style>.cls-1{fill:#202a45;}.cls-2{opacity:0.8;}.cls-3{fill:#d9f3fc;}</style></defs><g id="레이어_2" data-name="레이어 2"><g id="레이어_1-2" data-name="레이어 1"><rect class="cls-1" width="200" height="200"/><g class="cls-2"><path class="cls-3" d="M20,173.33h.79v2.74h3.48v-2.74h.79v6.34h-.79v-2.89H20.79v2.89H20Z"/><path class="cls-3" d="M26.35,173.33h3.93V174H27.14v2h3v.7h-3V179h3.14v.71H26.35Z"/><path class="cls-3" d="M33.15,176.49v0L31,173.33h1l1.69,2.55h0l1.71-2.55h.9l-2.19,3.18h0l2.15,3.15h-.95l-1.69-2.53h0l-1.71,2.53H31Z"/><path class="cls-3" d="M38.84,179.67l.31-1.59h-1l.18-1h1l.26-1.34h-1l.19-.94h1l.29-1.52h1l-.29,1.52H41.9l.3-1.52h1l-.29,1.52h1l-.19.94h-1l-.26,1.34h1.06l-.18,1H42.27L42,179.67H41l.3-1.59H40.12l-.3,1.59Zm2.67-2.49.27-1.44H40.52l-.28,1.44Z"/><path class="cls-3" d="M44.51,178.76l2.24-2.09c.82-.77,1-1.08,1-1.52h0a.9.9,0,0,0-1-.89,1,1,0,0,0-1.11,1v0H44.43v0a2.13,2.13,0,0,1,2.34-2c1.34,0,2.26.76,2.26,1.85h0c0,.77-.36,1.27-1.46,2.28l-1.33,1.21v.06h2.88v1H44.51Z"/><path class="cls-3" d="M49.79,176.5h0c0-2,1-3.27,2.58-3.27S55,174.48,55,176.49h0c0,2-1,3.28-2.59,3.28S49.79,178.52,49.79,176.5Zm3.83,0h0c0-1.39-.46-2.21-1.25-2.21s-1.24.82-1.24,2.21h0c0,1.4.45,2.22,1.24,2.22S53.62,177.9,53.62,176.5Z"/><path class="cls-3" d="M55.7,178.76,58,176.67c.81-.77,1-1.08,1-1.52h0a.89.89,0,0,0-1-.89,1,1,0,0,0-1.11,1v0H55.63v0a2.12,2.12,0,0,1,2.33-2c1.34,0,2.27.76,2.27,1.85h0c0,.77-.37,1.27-1.46,2.28l-1.33,1.21v.06h2.87v1H55.7Z"/><path class="cls-3" d="M63.12,173.33h1.56l2.21,6.34H65.5L65,178.13H62.78l-.48,1.54H60.91Zm0,3.81h1.62l-.8-2.58h0Z"/><path class="cls-3" d="M70.44,178.51H67.29V177.4l2.54-4.07h1.88v4.12h.83v1.06h-.83v1.16H70.44Zm0-1v-3.19h0l-2,3.16v0Z"/><path class="cls-3" d="M73.27,177.92v-.07H74.5v0a1.1,1.1,0,0,0,1.14.85,1.11,1.11,0,0,0,1.18-1.15h0a1.11,1.11,0,0,0-1.17-1.14,1.28,1.28,0,0,0-.82.27,1.1,1.1,0,0,0-.3.35H73.38l.29-3.72h4v1h-3l-.16,1.79h0a1.61,1.61,0,0,1,1.43-.69,2,2,0,0,1,2.07,2.06h0a2.23,2.23,0,0,1-2.45,2.23A2.15,2.15,0,0,1,73.27,177.92Z"/></g><path class="cls-3" d="M26.62,159.91a14.08,14.08,0,0,1-2.33.35c-1.09.1-2.11.15-3,.15H20V149.7h2.33v8.73h.28a16.91,16.91,0,0,0,3.78-.41c0,.21.05.53.1.95S26.58,159.7,26.62,159.91Zm.82-4.85H24.5v-1.9h2.94v-4.67h2.17v15H27.44Zm5.37,9.2H30.58v-16h2.23Z"/><path class="cls-3" d="M34,155.05a7.33,7.33,0,0,1,1.1-4.19,3.64,3.64,0,0,1,6,0,7.25,7.25,0,0,1,1.12,4.19,7.13,7.13,0,0,1-1.12,4.14,3.64,3.64,0,0,1-6,0A7.13,7.13,0,0,1,34,155.05Zm6.07,0a5.66,5.66,0,0,0-.54-2.74,1.59,1.59,0,0,0-1.42-.95,1.56,1.56,0,0,0-1.36,1,5.77,5.77,0,0,0-.53,2.73,5.69,5.69,0,0,0,.53,2.7,1.55,1.55,0,0,0,1.36,1,1.6,1.6,0,0,0,1.42-1A5.55,5.55,0,0,0,40.09,155.05Zm6.56,9.21H44.32v-16h2.33Z"/><path class="cls-3" d="M56.17,160.32H48.64V149.5H51v3.78h2.87V149.5h2.35Zm-2.35-1.87V155.1H51v3.35Zm7.1,5.81H58.59v-16h2.33Z"/><path class="cls-3" d="M74,160.72H71.68v-2.85h-6V156h14.2v1.85H74Zm4.18,3.15H67.5v-4.65h2.31V162h8.41Zm-.16-14.8v5.85H67.55v-5.85Zm-2.36,4v-2.15H69.91v2.15Z"/><path class="cls-3" d="M94.44,162.21H80.24v-1.89h14.2Zm-.39-6.68-1,1.93a9.42,9.42,0,0,1-3.37-1.5,6,6,0,0,1-2.32-2.79A5.89,5.89,0,0,1,85.05,156a9.46,9.46,0,0,1-3.38,1.51l-.47-.87c-.26-.45-.46-.81-.59-1.06a7.1,7.1,0,0,0,3.79-1.72,4.48,4.48,0,0,0,1.68-3.52v-.95h2.51v.95a4.47,4.47,0,0,0,1.66,3.51A7.2,7.2,0,0,0,94.05,155.53Z"/><path class="cls-3" d="M106.63,153.39H98.71v.83h8.38V156h-4.27v1h6v1.9H94.58V157h5.93v-1H96.4v-7.11H107v1.87H98.71v.83h7.92Zm.53,10.48H96.36V159.6h2.31V162h8.49Z"/></g></g></svg>