<?xml version="1.0" encoding="utf-8"?>
<!-- Generator: Adobe Illustrator 24.2.0, SVG Export Plug-In . SVG Version: 6.00 Build 0)  -->
<svg version="1.1" id="Layer_1" xmlns="http://www.w3.org/2000/svg" xmlns:xlink="http://www.w3.org/1999/xlink" x="0px" y="0px"
	 viewBox="0 0 500 500" style="enable-background:new 0 0 500 500;" xml:space="preserve">
<style type="text/css">
	.st0{clip-path:url(#SVGID_3_);fill:url(#SVGID_4_);}
	.st1{clip-path:url(#SVGID_6_);fill:#FFFFFF;}
	.st2{fill:#333333;}
	.st3{fill:none;stroke:url(#SVGID_7_);stroke-width:4;stroke-miterlimit:10;}
	.st4{fill:#FFFFFF;}
	.st5{fill:url(#SVGID_8_);}
	.st6{fill:#92DFF0;}
	.st7{fill:url(#SVGID_9_);}
	.st8{fill:url(#SVGID_10_);}
	.st9{fill:url(#SVGID_11_);}
	.st10{fill:url(#SVGID_12_);}
	.st11{fill:url(#SVGID_13_);}
	.st12{fill:url(#SVGID_14_);}
	.st13{fill:url(#SVGID_15_);}
	.st14{fill:url(#SVGID_16_);}
	.st15{fill:url(#SVGID_17_);}
	.st16{fill:#53565A;}
	.st17{fill:url(#SVGID_18_);}
	.st18{fill:url(#SVGID_19_);}
	.st19{fill:url(#SVGID_20_);}
	.st20{fill:url(#SVGID_21_);}
	.st21{fill:url(#SVGID_22_);}
	.st22{fill:#FF00FF;}
	.st23{fill:none;}
	.st24{fill:url(#SVGID_23_);}
	.st25{fill:url(#SVGID_24_);}
	.st26{fill:url(#SVGID_25_);}
	.st27{fill:url(#SVGID_26_);}
	.st28{fill:none;stroke:#CCCCCC;stroke-width:0.5;stroke-miterlimit:10;}
	.st29{fill:#CCCCCC;}
	.st30{fill:#E6E6E6;}
	.st31{fill:url(#SVGID_27_);}
	.st32{clip-path:url(#SVGID_29_);fill:#FFFFFF;}
	.st33{clip-path:url(#SVGID_32_);fill:url(#SVGID_33_);}
	.st34{fill:none;stroke:#FFFFFF;stroke-width:4;stroke-linecap:round;stroke-miterlimit:10;}
	.st35{clip-path:url(#SVGID_35_);fill:#272727;}
	.st36{clip-path:url(#SVGID_37_);fill:#272727;}
	.st37{fill:none;stroke:url(#SVGID_38_);stroke-width:4;stroke-miterlimit:10;}
	.st38{fill:url(#SVGID_39_);}
	.st39{clip-path:url(#SVGID_41_);fill:#272727;}
	.st40{opacity:0.1;clip-path:url(#SVGID_41_);}
	.st41{clip-path:url(#SVGID_43_);fill:#272727;}
	.st42{opacity:0.1;clip-path:url(#SVGID_43_);}
	.st43{fill:none;stroke:url(#SVGID_44_);stroke-width:4;stroke-miterlimit:10;}
	.st44{fill:url(#SVGID_45_);}
	.st45{fill:url(#SVGID_46_);}
	.st46{fill:#B3B3B3;}
	.st47{fill:url(#SVGID_47_);}
	.st48{fill:#FF7477;}
	.st49{fill:#FFAD93;}
	.st50{opacity:0.15;}
	.st51{fill:#25282A;}
	.st52{fill:none;stroke:#FFFFFF;stroke-width:10;stroke-miterlimit:10;}
</style>
<rect x="-0.12" y="0" class="st16" width="500" height="500"/>
<g>
	<path class="st4" d="M45.82,390.44h2.6l0.44-2.83h-2.32v-2.28h2.67l0.69-4.6h2.85l-0.67,4.6h3.31l0.69-4.6h2.85l-0.67,4.6h1.93
		v2.28h-2.25l-0.41,2.83h1.93v2.25h-2.28l-0.58,4.12h-2.97l0.62-4.12h-3.24l-0.58,4.12h-2.99l0.62-4.12h-2.25V390.44z M51.22,390.51
		h3.45l0.46-2.99h-3.47L51.22,390.51z"/>
	<path class="st4" d="M63.53,386.6c0.8-0.21,1.61-0.3,2.46-0.3c3.22,0,6.28,1.45,6.16,5.4c0,3.24-2.18,5.36-5.54,5.36
		c-2.78,0-5.01-1.52-5.27-4.44h1.82c0.21,1.77,1.59,2.74,3.43,2.74c1.63,0,3.68-0.87,3.68-3.61c0-2.97-2.21-3.77-4.48-3.77
		c-1.47,0-2.92,0.16-4,0.51v-7.77h9.43v1.72h-7.68V386.6z"/>
	<path class="st4" d="M75.07,392.48c0.25,1.95,1.66,2.92,3.59,2.92c2.23,0,3.75-1.33,3.77-3.63c0-2.85-2.87-4-5.59-3.29v-0.44
		l4.42-5.7H74.1v-1.63h10.12v0.3l-4.65,6.02c2.67-0.07,4.67,2.14,4.67,4.74c0,3.08-2.12,5.31-5.56,5.31c-2.85,0-5.04-1.7-5.29-4.6
		H75.07z"/>
	<path class="st4" d="M87.94,386.6c0.8-0.21,1.61-0.3,2.46-0.3c3.22,0,6.28,1.45,6.16,5.4c0,3.24-2.18,5.36-5.54,5.36
		c-2.78,0-5.01-1.52-5.27-4.44h1.82c0.21,1.77,1.59,2.74,3.43,2.74c1.63,0,3.68-0.87,3.68-3.61c0-2.97-2.21-3.77-4.48-3.77
		c-1.47,0-2.92,0.16-4,0.51v-7.77h9.43v1.72h-7.68V386.6z"/>
	<path class="st4" d="M105.94,380.64l-4.16,6.48c0.62-0.37,1.33-0.53,2.05-0.53c3.13-0.07,5.61,1.84,5.61,5.15
		c0,3.45-2.67,5.27-5.89,5.27c-3.22,0-5.84-1.82-5.84-5.27c0-1.17,0.32-2.28,0.99-3.27l5.13-7.84H105.94z M107.53,391.75
		c0-2.32-1.75-3.63-4-3.63c-2.21,0-3.93,1.31-3.93,3.63c0,2.3,1.75,3.61,3.96,3.61C105.78,395.36,107.53,394.05,107.53,391.75z"/>
	<path class="st4" d="M112.87,386.6c0.8-0.21,1.61-0.3,2.46-0.3c3.22,0,6.28,1.45,6.16,5.4c0,3.24-2.18,5.36-5.54,5.36
		c-2.78,0-5.01-1.52-5.27-4.44h1.82c0.21,1.77,1.59,2.74,3.43,2.74c1.63,0,3.68-0.87,3.68-3.61c0-2.97-2.21-3.77-4.48-3.77
		c-1.47,0-2.92,0.16-4,0.51v-7.77h9.43v1.72h-7.68V386.6z"/>
	<path class="st4" d="M125.47,392.83l-1.88,3.98h-2v-0.25l7.5-15.91h0.87l7.43,15.91v0.25h-1.98l-1.89-3.98H125.47z M126.11,391.17
		h6.76l-3.38-7.52L126.11,391.17z"/>
	<path class="st4" d="M54.08,409.55c3.24,0,6.69,1.75,7.43,5.73h-3.33c-0.71-1.82-2.16-2.62-4.09-2.62c-2.85,0-4.76,2.07-4.76,5.13
		c0,2.76,1.86,5.06,4.74,5.06c2,0,3.63-0.94,4.19-2.9h3.31c-0.69,4.25-4.12,6.02-7.47,6.02c-4.23,0-8.23-2.85-8.23-8.19
		C45.84,412.42,49.84,409.48,54.08,409.55z"/>
	<path class="st4" d="M77.44,409.66h1.24v16.14h-3.45v-8.72l-4.05,5.06h-0.44l-4.05-5.06v8.72h-3.45v-16.14h1.26l6.46,7.66
		L77.44,409.66z"/>
	<path class="st4" d="M86.95,416.22l1.59-3.2l1.93-3.31h3.66v0.51l-5.52,9.15v6.44h-3.45v-6.44l-5.54-9.15v-0.51h3.7l2,3.43
		l1.52,3.08H86.95z"/>
	<path class="st4" d="M98.46,416.36c0.99,0,2.14,0.02,2.78-0.3c0.85-0.46,1.17-1.68,1.61-3.5c0.55-2,1.96-3.56,5.5-2.83v2.35
		c-1.29-0.11-1.98,0.28-2.32,1.49c-0.48,1.84-1.04,3.29-2.02,4.28l4.92,7.45v0.51h-3.89l-4.05-6.62c-0.62,0.16-1.82,0.16-2.53,0.16
		v6.46h-3.43v-16.1h3.43V416.36z"/>
	<path class="st4" d="M126.1,421.12c0,2.92-2.51,4.92-5.86,4.92c-3.33,0-5.86-1.77-5.86-4.92c0-2.23,1.4-3.66,3.22-4.32
		c-1.22-0.57-2.16-1.66-2.18-3.22c0-2.44,2.05-4.09,4.83-4.09s4.88,1.63,4.88,4.07c0,1.56-0.97,2.64-2.25,3.27
		C124.7,417.53,126.08,418.84,126.1,421.12z M124.24,421.05c0-2.14-1.91-3.38-4-3.38c-2.12,0-3.98,1.26-3.98,3.4
		c0,2.12,1.91,3.36,3.98,3.36C122.33,424.43,124.24,423.19,124.24,421.05z M123.39,413.6c0-1.63-1.5-2.58-3.15-2.58
		c-1.59,0-3.13,0.94-3.13,2.6c0,1.66,1.49,2.58,3.13,2.58S123.39,415.25,123.39,413.6z"/>
	<path class="st4" d="M129.87,425.67l-0.69,2.18h-1.13l0.51-1.79c-0.46-0.16-0.8-0.51-0.8-1.03c0-0.64,0.48-1.06,1.13-1.06
		c0.53,0,0.94,0.3,1.1,0.78c0.02,0.16,0.05,0.3,0.02,0.37C129.99,425.28,129.94,425.46,129.87,425.67z"/>
	<path class="st4" d="M146.45,426.04h-1.75v-3.61h-8.3v-0.83l8.16-11.66h1.88v10.92h1.66v1.56h-1.66V426.04z M144.87,412.1
		l-6.16,8.83h6.12v-4.05l0.07-4.78H144.87z"/>
	<path class="st4" d="M151.82,425.67l-0.69,2.18h-1.13l0.51-1.79c-0.46-0.16-0.8-0.51-0.8-1.03c0-0.64,0.48-1.06,1.13-1.06
		c0.53,0,0.94,0.3,1.1,0.78c0.02,0.16,0.05,0.3,0.02,0.37C151.94,425.28,151.89,425.46,151.82,425.67z"/>
	<path class="st4" d="M171.16,415.02v5.52c0,3.47-2.62,5.54-5.91,5.54c-3.33,0-5.96-2.07-5.96-5.54v-5.52
		c0-3.45,2.62-5.54,5.96-5.54C168.54,409.48,171.16,411.57,171.16,415.02z M169.12,421.81c0.16-0.48,0.25-1.06,0.25-1.72v-4.6
		c0-0.67-0.09-1.24-0.25-1.72c-0.48-1.66-2.02-2.62-3.86-2.62c-1.91,0-3.4,0.97-3.89,2.62c-0.16,0.48-0.25,1.06-0.25,1.72v4.6
		c0,0.67,0.09,1.24,0.25,1.72c0.48,1.66,1.98,2.6,3.89,2.6C167.09,424.4,168.63,423.46,169.12,421.81z"/>
	<path class="st4" d="M175.01,425.67l-0.69,2.18h-1.13l0.51-1.79c-0.46-0.16-0.8-0.51-0.8-1.03c0-0.64,0.48-1.06,1.13-1.06
		c0.53,0,0.94,0.3,1.1,0.78c0.02,0.16,0.05,0.3,0.02,0.37C175.13,425.28,175.08,425.46,175.01,425.67z"/>
	<path class="st4" d="M189.98,409.64l-4.16,6.48c0.62-0.37,1.33-0.53,2.05-0.53c3.13-0.07,5.61,1.84,5.61,5.15
		c0,3.45-2.67,5.27-5.89,5.27c-3.22,0-5.84-1.82-5.84-5.27c0-1.17,0.32-2.28,0.99-3.27l5.13-7.84H189.98z M191.57,420.75
		c0-2.32-1.75-3.63-4-3.63c-2.21,0-3.93,1.31-3.93,3.63c0,2.3,1.75,3.61,3.96,3.61C189.82,424.36,191.57,423.05,191.57,420.75z"/>
	<path class="st4" d="M196.91,415.6c0.8-0.21,1.61-0.3,2.46-0.3c3.22,0,6.28,1.45,6.16,5.4c0,3.24-2.18,5.36-5.54,5.36
		c-2.78,0-5.01-1.52-5.27-4.44h1.82c0.21,1.77,1.59,2.74,3.43,2.74c1.63,0,3.68-0.87,3.68-3.61c0-2.97-2.21-3.77-4.48-3.77
		c-1.47,0-2.92,0.16-4,0.51v-7.77h9.43v1.72h-7.68V415.6z"/>
	<path class="st4" d="M46.76,454.78v-16.1c2.3-0.02,4.58,0,6.88,0c3.75,0,5.73,2.83,5.73,5.86c0,2.99-2.05,5.68-5.73,5.68h-3.43
		v4.55H46.76z M53.64,447.29c1.47,0,2.44-1.29,2.44-2.83c0-1.49-0.92-2.76-2.44-2.76c-1.17-0.02-2.32,0-3.5,0v5.59H53.64z"/>
	<path class="st4" d="M62.5,452.14l-1.24,2.67h-3.59v-0.46l7.4-15.77h1.59l7.36,15.77v0.46h-3.56l-1.26-2.67H62.5z M63.62,449.24
		h4.46l-2.23-5.31L63.62,449.24z"/>
	<path class="st4" d="M78.28,445.61v9.2h-3.43v-16.17h1.08l9.04,9.2v-9.13h3.45v16.14h-1.04L78.28,445.61z"/>
	<path class="st4" d="M89.51,441.7v-2.99h11.91v2.99h-4.28v13.11h-3.33V441.7H89.51z"/>
	<path class="st4" d="M109.57,455.08c-4.3,0-8.19-2.9-8.19-8.32s3.98-8.3,8.25-8.3c4.21,0,8.19,2.9,8.19,8.3
		C117.83,451.66,114.45,455.08,109.57,455.08z M109.62,451.93c2.51,0,4.78-1.66,4.78-5.17c0-3.43-2.25-5.13-4.76-5.13
		c-2.53,0-4.78,1.72-4.78,5.13C104.86,450.28,107.05,451.93,109.62,451.93z"/>
	<path class="st4" d="M123.08,445.61v9.2h-3.43v-16.17h1.08l9.04,9.2v-9.13h3.45v16.14h-1.04L123.08,445.61z"/>
	<path class="st4" d="M145.81,441.72h-6.39v3.27h5.98V448h-5.98v3.68h6.58v3.13h-10.05v-16.1h9.87V441.72z"/>
	<path class="st4" d="M147.12,446.76c0-10.6,15.8-10.6,15.8,0C162.92,457.34,147.12,457.41,147.12,446.76z M160.6,446.76
		c0-7.91-11.13-7.91-11.13,0C149.47,454.69,160.6,454.65,160.6,446.76z M158.58,450.12v0.34h-1.96l-1.49-2.44h-0.94v2.44h-1.91
		v-7.47h3.31c1.59,0,2.8,0.92,2.8,2.6c0,0.94-0.46,1.86-1.4,2.16L158.58,450.12z M154.18,446.48h1.22c0.64,0,1.08-0.39,1.08-0.92
		s-0.37-0.92-1.08-0.92h-1.22V446.48z"/>
	<path class="st4" d="M177.48,438.53c3.1,0,6.19,1.68,7.15,5.04h-1.86c-0.99-2.18-2.97-3.27-5.29-3.27
		c-3.7-0.07-6.19,2.71-6.19,6.46c0,3.63,2.46,6.46,6.16,6.46c2.46,0,4.55-1.24,5.4-3.56h1.86c-0.92,3.61-4.02,5.33-7.24,5.33
		c-4.48,0-8.14-3.17-8.14-8.23C169.34,441.72,172.95,438.46,177.48,438.53z"/>
	<path class="st4" d="M193.92,455.06c-4.53,0-8.14-3.17-8.14-8.3c0-5.15,3.66-8.32,8.16-8.32c4.51,0,8.16,3.22,8.16,8.32
		C202.11,451.63,198.77,455.06,193.92,455.06z M193.92,453.29c3.54,0,6.25-2.62,6.25-6.53s-2.67-6.58-6.23-6.58
		c-3.5,0-6.23,2.62-6.23,6.58C187.71,450.67,190.4,453.29,193.92,453.29z"/>
	<path class="st4" d="M211.54,455.06c-4.53,0-8.14-3.17-8.14-8.3c0-5.15,3.66-8.32,8.16-8.32c4.51,0,8.16,3.22,8.16,8.32
		C219.73,451.63,216.39,455.06,211.54,455.06z M211.54,453.29c3.54,0,6.25-2.62,6.25-6.53s-2.67-6.58-6.23-6.58
		c-3.5,0-6.23,2.62-6.23,6.58C205.33,450.67,208.02,453.29,211.54,453.29z"/>
	<path class="st4" d="M223.89,453.08h7.59v1.72h-9.52v-16.1h1.93V453.08z"/>
	<path class="st4" d="M245.14,438.48c3.15,0,6.23,1.47,7.15,4.83h-1.89c-0.85-2.32-2.85-3.08-5.27-3.08c-3.75,0-6.09,2.85-6.09,6.51
		c0,3.75,2.35,6.51,6.09,6.51c3.31,0,5.68-1.77,5.98-5.27h-5.73v-1.63h7.5c0.07,1.47-0.09,2.9-0.62,4.19
		c-1.2,2.97-3.89,4.51-7.13,4.51c-4.55,0-8.03-3.31-8.03-8.3S240.65,438.48,245.14,438.48z"/>
	<path class="st4" d="M267.62,454.53v0.28h-2.02l-4.46-5.91h-4.21v5.91H255v-16.12h6.42c3.31,0,5.5,2.25,5.5,5.17
		c0,2.48-1.59,4.23-3.84,4.78L267.62,454.53z M261.42,447.31c2.05,0,3.63-1.38,3.63-3.47c0-2.07-1.54-3.45-3.63-3.45h-4.51v6.92
		H261.42z"/>
	<path class="st4" d="M272.1,450.83l-1.88,3.98h-2v-0.25l7.5-15.91h0.87l7.43,15.91v0.25h-1.98l-1.89-3.98H272.1z M272.75,449.17
		h6.76l-3.38-7.52L272.75,449.17z"/>
	<path class="st4" d="M288.43,446.39l2.32-3.91l2.35-3.77h2.05v0.28l-5.79,9.22v6.6h-1.93v-6.6l-5.82-9.24v-0.25h2.09l2.35,3.75
		l2.32,3.93H288.43z"/>
	<path class="st4" d="M301.18,440.23v-1.52h4.62v14.58h3.2v1.52h-8.19v-1.52h3.17v-13.06H301.18z"/>
	<path class="st4" d="M310.35,440.23v-1.52h4.62v14.58h3.2v1.52h-8.19v-1.52h3.17v-13.06H310.35z"/>
</g>
<g>
	<path class="st4" d="M55.44,51.48c5.4,0,8.92,4.48,9.64,11.04h5.88V49.05h5.72v37.91h-5.72V67.32h-5.84
		c-0.6,6.68-4.16,11.44-9.68,11.44c-6.04,0-9.8-5.76-9.8-13.6C45.64,57.24,49.4,51.48,55.44,51.48z M55.44,56.44
		c-2.44,0-4.4,2.96-4.4,8.72c0,5.72,1.96,8.68,4.4,8.68c2.52,0,4.52-2.96,4.52-8.68C59.95,59.4,57.96,56.44,55.44,56.44z"/>
	<path class="st4" d="M93.19,73.48v-4H78.88v-4.56h34.23v4.56H98.79v4H93.19z M83.2,86.64v-14.2h5.64v3.12h14.48v-3.08h5.6v14.16
		H83.2z M83.48,62.6V49.73h25.28v4.48H89.12v4h19.76v4.4H83.48z M103.31,79.76H88.84v2.56h14.48V79.76z"/>
	<path class="st4" d="M132.55,78.12c-3.04-1.8-7.48-6.28-8.68-10c-1.12,4.12-5.32,9.04-8.84,10.92l-3.32-4.32
		c6.4-3.76,9.12-9.32,9.16-17.48h-7.28v-4.68h20.4v4.68h-7.28c0.08,8.04,3.12,13.28,8.96,16.44L132.55,78.12z M137.91,86.96V49.05
		h5.72v37.91H137.91z"/>
	<path class="st4" d="M167.32,51.29c5.64,0,10,3.52,10,8.8c0,5.28-4.36,8.88-10,8.88c-5.6,0-9.92-3.64-9.92-8.88
		C157.4,54.76,161.72,51.29,167.32,51.29z M171.99,85.2c-2.92,0.92-8.8,1.32-12.08,1.12V72.4h5.32v9.24c1.48,0,4.56-0.36,6.16-0.88
		L171.99,85.2z M167.32,64.52c2.6,0,4.64-1.72,4.64-4.4c0-2.76-2.04-4.4-4.64-4.4c-2.52,0-4.52,1.64-4.52,4.4
		C162.8,62.8,164.76,64.52,167.32,64.52z M171.19,77.48v-3.72h18.84v3.72H171.19z M180.55,87.6c-3.88,0-7.04-1.68-7.04-4.6
		c0-2.96,3.16-4.84,7.04-4.84c3.88,0,7.04,1.88,7.04,4.84C187.59,85.92,184.43,87.6,180.55,87.6z M176.31,72.6v-3.64h9.08v3.64
		H176.31z M180.55,81.72c-1.04,0-2.2,0.4-2.2,1.16c0,0.84,1.16,1.28,2.2,1.28c1.08,0,2.24-0.44,2.24-1.28
		C182.79,82.12,181.63,81.72,180.55,81.72z M186.71,61.44v5.88h-5.64V49.05h5.64v7.84h5.28v4.56H186.71z"/>
	<path class="st4" d="M191.12,72.32v-4.44h34.23v4.44H191.12z M208.35,65.96c-8.48,0-13.32-3.52-13.32-7.8
		c0-4.2,4.84-7.72,13.24-7.72c8.44,0,13.36,3.52,13.36,7.72C221.63,62.44,216.71,65.96,208.35,65.96z M195.4,86.04V74.68h5.68v6.96
		h20.36v4.4H195.4z M208.27,54.68c-4.56,0-7.52,1.52-7.52,3.56c0,1.96,2.96,3.44,7.52,3.44c4.72,0,7.52-1.48,7.52-3.44
		C215.79,56.2,212.99,54.68,208.27,54.68z"/>
	<path class="st4" d="M255.59,51.25c-0.28,10.44-7.24,17-17.84,19.76l-2.16-4.48c6.84-1.28,13-5.88,13.72-10.68h-11.76v-4.6H255.59z
		 M242.32,86.52V71.76h25.12v14.76H242.32z M261.71,76h-13.72v6.2h13.72V76z M261.71,69.8v-7.68h-6.36v-4.56h6.36v-8.52h5.72V69.8
		H261.71z"/>
	<path class="st4" d="M271.24,51.48h20v4.6h-6.96c0.52,5.24,4.08,8.32,8.52,9.8l-3.04,4.4c-2.96-0.92-6.96-4.04-8.36-7.24
		c-0.96,3.4-5.4,7.16-9.04,8.32l-2.88-4.48c5.32-1.8,8.48-5.52,8.88-10.8h-7.12V51.48z M288.08,86.6c-8.32,0-13.36-2.88-13.36-7.44
		c0-4.64,5.04-7.52,13.36-7.52c8.4,0,13.44,2.88,13.44,7.52C301.52,83.72,296.48,86.6,288.08,86.6z M280.44,79.16
		c0,1.84,2.84,3,7.64,3c4.96,0,7.72-1.16,7.72-3c0-1.88-2.76-3.04-7.72-3.04C283.28,76.12,280.44,77.28,280.44,79.16z M290.4,57.88
		h5.2v-8.84h5.68v22.72h-5.68V62.4h-5.2V57.88z"/>
	<path class="st4" d="M48.32,99.81h5.16l10.76,16.4c1.04,1.68,2.36,4.4,2.36,4.4h0.08c0,0-0.28-2.72-0.28-4.4v-16.4h5.12v28.4h-5.12
		l-10.76-16.36c-1.08-1.68-2.36-4.4-2.36-4.4H53.2c0,0,0.28,2.72,0.28,4.4v16.36h-5.16V99.81z"/>
	<path class="st4" d="M85.71,107.32c6.24,0,11.24,4.44,11.24,10.68c0,6.28-5,10.68-11.2,10.68s-11.2-4.4-11.2-10.68
		C74.55,111.76,79.55,107.32,85.71,107.32z M85.75,124.36c3.32,0,6.08-2.56,6.08-6.36c0-3.76-2.76-6.36-6.08-6.36
		s-6.04,2.6-6.04,6.36C79.71,121.8,82.43,124.36,85.75,124.36z"/>
	<path class="st4" d="M99.72,112.12h-2.64v-4.04h2.76v-5.84h4.96v5.84h4.64v4.04h-4.64v7.96c0,3.36,2.64,3.84,4.04,3.84
		c0.28,0,0.52,0,0.92-0.08v4.44c-0.4,0.04-0.88,0.12-1.56,0.12c-2.84,0-8.48-0.84-8.48-7.68V112.12z"/>
	<path class="st4" d="M128.52,107.32c2.28,0,4.64,0.84,5.96,2.68h0.08c0,0-0.08-0.52-0.08-1.2v-9h5.04v28.4h-4.76v-1.76
		c0-0.76,0.08-1.28,0.08-1.28h-0.08c-1.2,2.08-3.52,3.52-6.44,3.52c-5.48,0-9.04-4.36-9.04-10.68
		C119.28,111.52,123.12,107.32,128.52,107.32z M129.48,124.4c2.64,0,5.12-1.92,5.12-6.44c0-3.16-1.64-6.28-5.08-6.28
		c-2.76,0-5.12,2.28-5.12,6.32C124.4,121.88,126.48,124.4,129.48,124.4z"/>
	<path class="st4" d="M153.49,115.4h0.88v-0.28c0-2.68-1.72-3.6-3.84-3.6c-2,0-4.04,0.84-5.68,1.96l-1.88-3.64
		c1.68-1.36,4.96-2.52,8-2.52c5.32,0,8.48,2.96,8.48,8.12v12.76h-4.72v-1.72c0-0.84,0.12-1.48,0.12-1.48h-0.08
		c-1.24,2.16-3.68,3.68-6.44,3.68c-3.68,0-6.72-2.4-6.72-6.12C141.62,116.44,148.97,115.4,153.49,115.4z M149.73,124.8
		c2.84,0,4.68-2.88,4.68-5.36v-0.56h-0.88c-2.56,0-6.88,0.36-6.88,3.24C146.65,123.48,147.69,124.8,149.73,124.8z"/>
	<path class="st4" d="M162.8,107.8h4.88v3.6c0,0.76-0.08,1.4-0.08,1.4h0.08c0.92-2.88,3.4-5.28,6.48-5.28
		c0.32,0,0.64,0.04,0.96,0.08v5c-0.2-0.04-0.8-0.08-1.24-0.08c-4.16,0-6,3.6-6,7.44v8.24h-5.08V107.8z"/>
	<path class="st4" d="M176.37,99.81h5.08V115h2.52l4.92-7.2h5.64l-6.44,9.12V117l7.24,11.2h-5.84l-5.4-8.92h-2.64v8.92h-5.08V99.81z
		"/>
	<path class="st4" d="M213.09,132.28c3.12,0,5.76-1.32,5.76-4.96v-1.28c0-0.48,0.08-1.08,0.08-1.08h-0.08c-1.2,1.8-3,2.84-5.72,2.84
		c-5.84,0-9.12-4.72-9.12-10.32s3.12-10.16,9-10.16c2.28,0,4.72,0.8,6.08,2.68h0.12c0,0-0.08-0.24-0.08-0.56v-1.64h4.8v19.16
		c0,7-5.44,9.64-10.76,9.64c-2.56,0-5.28-0.72-7.28-1.76l1.56-3.88C209.09,131.76,211.09,132.28,213.09,132.28z M214.25,123.52
		c2.4,0,4.72-1.4,4.72-6c0-4.64-2.32-5.88-5.04-5.88c-3.08,0-4.8,2.24-4.8,5.68C209.13,120.88,210.93,123.52,214.25,123.52z"/>
	<path class="st4" d="M227.43,107.8h4.88v3.6c0,0.76-0.08,1.4-0.08,1.4h0.08c0.92-2.88,3.4-5.28,6.48-5.28
		c0.32,0,0.64,0.04,0.96,0.08v5c-0.2-0.04-0.8-0.08-1.24-0.08c-4.16,0-6,3.6-6,7.44v8.24h-5.08V107.8z"/>
	<path class="st4" d="M250.28,107.32c5.84,0,9.04,4.28,9.04,9.68c0,0.64-0.08,1.32-0.16,1.96h-14.04c0.32,3.56,3.04,5.4,6.12,5.4
		c2.08,0,4.2-0.92,5.84-2.24l2,3.64c-2.08,1.84-5.28,2.92-8.2,2.92c-6.76,0-11-4.88-11-10.68
		C239.89,111.72,244.17,107.32,250.28,107.32z M254.24,115.48c-0.04-2.72-1.8-4.32-4.08-4.32c-2.6,0-4.44,1.72-4.92,4.32H254.24z"/>
	<path class="st4" d="M262.68,132.32c1.4,0,2.8-0.84,3.56-2.64l0.76-1.8l-8.6-20.08h5.72l4.28,11.76c0.4,1.08,0.76,2.76,0.76,2.76
		h0.08c0,0,0.36-1.6,0.68-2.68l4-11.84h5.52l-9.08,23.48c-1.4,3.72-4.36,5.32-7.36,5.32c-2.44,0-4.24-1.32-4.24-1.32l1.68-3.8
		C260.44,131.48,261.56,132.32,262.68,132.32z"/>
</g>
</svg>
