<?xml version="1.0" encoding="utf-8"?>
<!-- Generator: Adobe Illustrator 24.2.0, SVG Export Plug-In . SVG Version: 6.00 Build 0)  -->
<svg version="1.1" id="Layer_1" xmlns="http://www.w3.org/2000/svg" xmlns:xlink="http://www.w3.org/1999/xlink" x="0px" y="0px"
	 viewBox="0 0 500 500" style="enable-background:new 0 0 500 500;" xml:space="preserve">
<style type="text/css">
	.st0{clip-path:url(#SVGID_3_);fill:url(#SVGID_4_);}
	.st1{clip-path:url(#SVGID_6_);fill:#FFFFFF;}
	.st2{fill:#333333;}
	.st3{fill:none;stroke:url(#SVGID_7_);stroke-width:4;stroke-miterlimit:10;}
	.st4{fill:#FFFFFF;}
	.st5{fill:url(#SVGID_8_);}
	.st6{fill:#92DFF0;}
	.st7{fill:url(#SVGID_9_);}
	.st8{fill:url(#SVGID_10_);}
	.st9{fill:url(#SVGID_11_);}
	.st10{fill:url(#SVGID_12_);}
	.st11{fill:url(#SVGID_13_);}
	.st12{fill:url(#SVGID_14_);}
	.st13{fill:url(#SVGID_15_);}
	.st14{fill:url(#SVGID_16_);}
	.st15{fill:url(#SVGID_17_);}
	.st16{fill:#53565A;}
	.st17{fill:url(#SVGID_18_);}
	.st18{fill:url(#SVGID_19_);}
	.st19{fill:url(#SVGID_20_);}
	.st20{fill:url(#SVGID_21_);}
	.st21{fill:url(#SVGID_22_);}
	.st22{fill:#FF00FF;}
	.st23{fill:none;}
	.st24{fill:url(#SVGID_23_);}
	.st25{fill:url(#SVGID_24_);}
	.st26{fill:url(#SVGID_25_);}
	.st27{fill:url(#SVGID_26_);}
	.st28{fill:none;stroke:#CCCCCC;stroke-width:0.5;stroke-miterlimit:10;}
	.st29{fill:#CCCCCC;}
	.st30{fill:#E6E6E6;}
	.st31{fill:url(#SVGID_27_);}
	.st32{clip-path:url(#SVGID_29_);fill:#FFFFFF;}
	.st33{clip-path:url(#SVGID_32_);fill:url(#SVGID_33_);}
	.st34{fill:none;stroke:#FFFFFF;stroke-width:4;stroke-linecap:round;stroke-miterlimit:10;}
	.st35{clip-path:url(#SVGID_35_);fill:#272727;}
	.st36{clip-path:url(#SVGID_37_);fill:#272727;}
	.st37{fill:none;stroke:url(#SVGID_38_);stroke-width:4;stroke-miterlimit:10;}
	.st38{fill:url(#SVGID_39_);}
	.st39{clip-path:url(#SVGID_41_);fill:#272727;}
	.st40{opacity:0.1;clip-path:url(#SVGID_41_);}
	.st41{clip-path:url(#SVGID_43_);fill:#272727;}
	.st42{opacity:0.1;clip-path:url(#SVGID_43_);}
	.st43{fill:none;stroke:url(#SVGID_44_);stroke-width:4;stroke-miterlimit:10;}
	.st44{fill:url(#SVGID_45_);}
	.st45{fill:url(#SVGID_46_);}
	.st46{fill:#B3B3B3;}
	.st47{fill:url(#SVGID_47_);}
	.st48{fill:#FF7477;}
	.st49{fill:#FFAD93;}
	.st50{opacity:0.15;}
	.st51{fill:#25282A;}
	.st52{fill:none;stroke:#FFFFFF;stroke-width:10;stroke-miterlimit:10;}
</style>
<rect x="-0.12" y="0" class="st49" width="500" height="500"/>
<g>
	<path class="st4" d="M45.82,390.44h2.6l0.44-2.83h-2.32v-2.28h2.67l0.69-4.6h2.85l-0.67,4.6h3.31l0.69-4.6h2.85l-0.67,4.6h1.93
		v2.28h-2.25l-0.41,2.83h1.93v2.25h-2.28l-0.58,4.12h-2.97l0.62-4.12h-3.24l-0.58,4.12h-2.99l0.62-4.12h-2.25V390.44z M51.22,390.51
		h3.45l0.46-2.99h-3.47L51.22,390.51z"/>
	<path class="st4" d="M71.12,390.02h-7.01v6.78h-1.93v-16.1h9.57v1.7h-7.63v5.91h7.01V390.02z"/>
	<path class="st4" d="M82.34,390.02h-7.01v6.78h-1.93v-16.1h9.57v1.7h-7.63v5.91h7.01V390.02z"/>
	<path class="st4" d="M85.76,392.83l-1.89,3.98h-2v-0.25l7.5-15.91h0.87l7.43,15.91v0.25h-1.98l-1.89-3.98H85.76z M86.4,391.17h6.76
		l-3.38-7.52L86.4,391.17z"/>
	<path class="st4" d="M104.69,380.71c4.92,0,7.82,3.61,7.82,8.03c0,4.51-2.9,8.07-7.82,8.07h-5.7v-16.1H104.69z M104.64,395.06
		c3.68,0,5.96-2.69,5.96-6.3c0-3.56-2.28-6.28-5.96-6.28h-3.72v12.58H104.64z"/>
	<path class="st4" d="M117.05,396.81l4.25-6.55c-0.62,0.35-1.38,0.53-2.09,0.53c-3.2,0.07-5.66-1.84-5.66-5.15
		c0-3.47,2.67-5.27,5.89-5.27c3.2,0,5.86,1.79,5.86,5.27c-0.02,1.29-0.34,2.28-1.06,3.31l-5.08,7.86H117.05z M115.47,385.63
		c0,2.32,1.77,3.63,4,3.63c2.21,0,3.96-1.31,3.96-3.63c0-2.3-1.77-3.61-3.98-3.61C117.21,382.02,115.47,383.33,115.47,385.63z"/>
	<path class="st4" d="M127.29,392.48c0.25,1.95,1.66,2.92,3.59,2.92c2.23,0,3.75-1.33,3.77-3.63c0-2.85-2.87-4-5.59-3.29v-0.44
		l4.42-5.7h-7.15v-1.63h10.12v0.3l-4.65,6.02c2.67-0.07,4.67,2.14,4.67,4.74c0,3.08-2.12,5.31-5.56,5.31c-2.85,0-5.04-1.7-5.29-4.6
		H127.29z"/>
	<path class="st4" d="M54.08,409.55c3.24,0,6.69,1.75,7.43,5.73h-3.33c-0.71-1.82-2.16-2.62-4.09-2.62c-2.85,0-4.76,2.07-4.76,5.13
		c0,2.76,1.86,5.06,4.74,5.06c2,0,3.63-0.94,4.19-2.9h3.31c-0.69,4.25-4.12,6.02-7.47,6.02c-4.23,0-8.23-2.85-8.23-8.19
		C45.84,412.42,49.84,409.48,54.08,409.55z"/>
	<path class="st4" d="M77.44,409.66h1.24v16.14h-3.45v-8.72l-4.05,5.06h-0.44l-4.05-5.06v8.72h-3.45v-16.14h1.26l6.46,7.66
		L77.44,409.66z"/>
	<path class="st4" d="M86.95,416.22l1.59-3.2l1.93-3.31h3.66v0.51l-5.52,9.15v6.44h-3.45v-6.44l-5.54-9.15v-0.51h3.7l2,3.43
		l1.52,3.08H86.95z"/>
	<path class="st4" d="M98.46,416.36c0.99,0,2.14,0.02,2.78-0.3c0.85-0.46,1.17-1.68,1.61-3.5c0.55-2,1.96-3.56,5.5-2.83v2.35
		c-1.29-0.11-1.98,0.28-2.32,1.49c-0.48,1.84-1.04,3.29-2.02,4.28l4.92,7.45v0.51h-3.89l-4.05-6.62c-0.62,0.16-1.82,0.16-2.53,0.16
		v6.46h-3.43v-16.1h3.43V416.36z"/>
	<path class="st4" d="M126.63,415.02v5.52c0,3.47-2.62,5.54-5.91,5.54c-3.33,0-5.96-2.07-5.96-5.54v-5.52
		c0-3.45,2.62-5.54,5.96-5.54C124.01,409.48,126.63,411.57,126.63,415.02z M124.58,421.81c0.16-0.48,0.25-1.06,0.25-1.72v-4.6
		c0-0.67-0.09-1.24-0.25-1.72c-0.48-1.66-2.02-2.62-3.86-2.62c-1.91,0-3.4,0.97-3.89,2.62c-0.16,0.48-0.25,1.06-0.25,1.72v4.6
		c0,0.67,0.09,1.24,0.25,1.72c0.48,1.66,1.98,2.6,3.89,2.6C122.56,424.4,124.1,423.46,124.58,421.81z"/>
	<path class="st4" d="M130.48,425.67l-0.69,2.18h-1.13l0.51-1.79c-0.46-0.16-0.8-0.51-0.8-1.03c0-0.64,0.48-1.06,1.13-1.06
		c0.53,0,0.94,0.3,1.1,0.78c0.02,0.16,0.05,0.3,0.02,0.37C130.59,425.28,130.55,425.46,130.48,425.67z"/>
	<path class="st4" d="M139.1,421.48c0.25,1.95,1.66,2.92,3.59,2.92c2.23,0,3.75-1.33,3.77-3.63c0-2.85-2.87-4-5.59-3.29v-0.44
		l4.42-5.7h-7.15v-1.63h10.12v0.3l-4.65,6.02c2.67-0.07,4.67,2.14,4.67,4.74c0,3.08-2.12,5.31-5.56,5.31c-2.85,0-5.04-1.7-5.29-4.6
		H139.1z"/>
	<path class="st4" d="M150.79,413.92h-1.61c0.16-2.87,1.7-4.44,4.81-4.44c2.85,0,4.46,1.66,4.64,3.7c0.16,1.38-0.21,2.99-1.38,4.46
		l-5.24,6.46h7.01v1.7h-10.14v-0.41l6.65-8.3c1.96-2.39,2.07-5.96-1.59-5.96C152.01,411.14,150.95,411.99,150.79,413.92z"/>
	<path class="st4" d="M162.74,425.67l-0.69,2.18h-1.13l0.51-1.79c-0.46-0.16-0.8-0.51-0.8-1.03c0-0.64,0.48-1.06,1.13-1.06
		c0.53,0,0.94,0.3,1.1,0.78c0.02,0.16,0.05,0.3,0.02,0.37C162.86,425.28,162.81,425.46,162.74,425.67z"/>
	<path class="st4" d="M179.33,426.04h-1.75v-3.61h-8.3v-0.83l8.16-11.66h1.88v10.92h1.66v1.56h-1.66V426.04z M177.74,412.1
		l-6.16,8.83h6.12v-4.05l0.07-4.78H177.74z"/>
	<path class="st4" d="M194.47,415.02v5.52c0,3.47-2.62,5.54-5.91,5.54c-3.33,0-5.96-2.07-5.96-5.54v-5.52
		c0-3.45,2.62-5.54,5.96-5.54C191.85,409.48,194.47,411.57,194.47,415.02z M192.42,421.81c0.16-0.48,0.25-1.06,0.25-1.72v-4.6
		c0-0.67-0.09-1.24-0.25-1.72c-0.48-1.66-2.02-2.62-3.86-2.62c-1.91,0-3.4,0.97-3.89,2.62c-0.16,0.48-0.25,1.06-0.25,1.72v4.6
		c0,0.67,0.09,1.24,0.25,1.72c0.48,1.66,1.98,2.6,3.89,2.6C190.4,424.4,191.94,423.46,192.42,421.81z"/>
	<path class="st4" d="M198.32,425.67l-0.69,2.18h-1.13l0.51-1.79c-0.46-0.16-0.8-0.51-0.8-1.03c0-0.64,0.48-1.06,1.13-1.06
		c0.53,0,0.94,0.3,1.1,0.78c0.02,0.16,0.05,0.3,0.02,0.37C198.43,425.28,198.39,425.46,198.32,425.67z"/>
	<path class="st4" d="M217.66,415.02v5.52c0,3.47-2.62,5.54-5.91,5.54c-3.33,0-5.96-2.07-5.96-5.54v-5.52
		c0-3.45,2.62-5.54,5.96-5.54C215.04,409.48,217.66,411.57,217.66,415.02z M215.61,421.81c0.16-0.48,0.25-1.06,0.25-1.72v-4.6
		c0-0.67-0.09-1.24-0.25-1.72c-0.48-1.66-2.02-2.62-3.86-2.62c-1.91,0-3.4,0.97-3.89,2.62c-0.16,0.48-0.25,1.06-0.25,1.72v4.6
		c0,0.67,0.09,1.24,0.25,1.72c0.48,1.66,1.98,2.6,3.89,2.6C213.59,424.4,215.13,423.46,215.61,421.81z"/>
	<path class="st4" d="M46.76,454.78v-16.1c2.3-0.02,4.58,0,6.88,0c3.75,0,5.73,2.83,5.73,5.86c0,2.99-2.05,5.68-5.73,5.68h-3.43
		v4.55H46.76z M53.64,447.29c1.47,0,2.44-1.29,2.44-2.83c0-1.49-0.92-2.76-2.44-2.76c-1.17-0.02-2.32,0-3.5,0v5.59H53.64z"/>
	<path class="st4" d="M62.5,452.14l-1.24,2.67h-3.59v-0.46l7.4-15.77h1.59l7.36,15.77v0.46h-3.56l-1.26-2.67H62.5z M63.62,449.24
		h4.46l-2.23-5.31L63.62,449.24z"/>
	<path class="st4" d="M78.28,445.61v9.2h-3.43v-16.17h1.08l9.04,9.2v-9.13h3.45v16.14h-1.04L78.28,445.61z"/>
	<path class="st4" d="M89.51,441.7v-2.99h11.91v2.99h-4.28v13.11h-3.33V441.7H89.51z"/>
	<path class="st4" d="M109.57,455.08c-4.3,0-8.19-2.9-8.19-8.32s3.98-8.3,8.25-8.3c4.21,0,8.19,2.9,8.19,8.3
		C117.83,451.66,114.45,455.08,109.57,455.08z M109.62,451.93c2.51,0,4.78-1.66,4.78-5.17c0-3.43-2.25-5.13-4.76-5.13
		c-2.53,0-4.78,1.72-4.78,5.13C104.86,450.28,107.05,451.93,109.62,451.93z"/>
	<path class="st4" d="M123.08,445.61v9.2h-3.43v-16.17h1.08l9.04,9.2v-9.13h3.45v16.14h-1.04L123.08,445.61z"/>
	<path class="st4" d="M145.81,441.72h-6.39v3.27h5.98V448h-5.98v3.68h6.58v3.13h-10.05v-16.1h9.87V441.72z"/>
	<path class="st4" d="M147.12,446.76c0-10.6,15.8-10.6,15.8,0C162.92,457.34,147.12,457.41,147.12,446.76z M160.6,446.76
		c0-7.91-11.13-7.91-11.13,0C149.47,454.69,160.6,454.65,160.6,446.76z M158.58,450.12v0.34h-1.96l-1.49-2.44h-0.94v2.44h-1.91
		v-7.47h3.31c1.59,0,2.8,0.92,2.8,2.6c0,0.94-0.46,1.86-1.4,2.16L158.58,450.12z M154.18,446.48h1.22c0.64,0,1.08-0.39,1.08-0.92
		s-0.37-0.92-1.08-0.92h-1.22V446.48z"/>
	<path class="st4" d="M172.56,454.81l4.25-6.55c-0.62,0.35-1.38,0.53-2.09,0.53c-3.2,0.07-5.66-1.84-5.66-5.15
		c0-3.47,2.67-5.27,5.89-5.27c3.2,0,5.86,1.79,5.86,5.27c-0.02,1.29-0.34,2.28-1.06,3.31l-5.08,7.86H172.56z M170.98,443.63
		c0,2.32,1.77,3.63,4,3.63c2.21,0,3.96-1.31,3.96-3.63c0-2.3-1.77-3.61-3.98-3.61C172.72,440.02,170.98,441.33,170.98,443.63z"/>
	<path class="st4" d="M183.65,442.92h-1.61c0.16-2.87,1.7-4.44,4.81-4.44c2.85,0,4.46,1.66,4.64,3.7c0.16,1.38-0.21,2.99-1.38,4.46
		l-5.24,6.46h7.01v1.7h-10.14v-0.41l6.65-8.3c1.96-2.39,2.07-5.96-1.59-5.96C184.87,440.14,183.81,440.99,183.65,442.92z"/>
	<path class="st4" d="M195.3,444.6c0.8-0.21,1.61-0.3,2.46-0.3c3.22,0,6.28,1.45,6.16,5.4c0,3.24-2.18,5.36-5.54,5.36
		c-2.78,0-5.01-1.52-5.27-4.44h1.82c0.21,1.77,1.59,2.74,3.43,2.74c1.63,0,3.68-0.87,3.68-3.61c0-2.97-2.21-3.77-4.48-3.77
		c-1.47,0-2.92,0.16-4,0.51v-7.77h9.43v1.72h-7.68V444.6z"/>
</g>
<g>
	<path class="st4" d="M55.16,52.04c5.52,0,9.88,3.8,9.88,9.44c0,5.56-4.36,9.4-9.88,9.4c-5.48,0-9.8-3.84-9.8-9.4
		C45.36,55.84,49.68,52.04,55.16,52.04z M50.64,86.04V74h5.68v7.64h20.84v4.4H50.64z M55.16,66.16c2.44,0,4.48-1.72,4.48-4.68
		c0-3-2.04-4.8-4.48-4.8s-4.4,1.8-4.4,4.8C50.76,64.44,52.72,66.16,55.16,66.16z M66.27,63.44h4.68v-4.52h-4.52l-0.16-4.76h4.68
		v-5.12h5.72v27.52h-5.72v-8.4h-4.92L66.27,63.44z"/>
	<path class="st4" d="M88.9,51.48c5.4,0,8.92,4.48,9.64,11.04h5.88V49.05h5.72v37.91h-5.72V67.32h-5.84
		c-0.6,6.68-4.16,11.44-9.68,11.44c-6.04,0-9.8-5.76-9.8-13.6C79.11,57.24,82.86,51.48,88.9,51.48z M88.9,56.44
		c-2.44,0-4.4,2.96-4.4,8.72c0,5.72,1.96,8.68,4.4,8.68c2.52,0,4.52-2.96,4.52-8.68C93.42,59.4,91.42,56.44,88.9,56.44z"/>
	<path class="st4" d="M49.08,120.92c1.68,1.52,4.4,3,7.04,3c2.56,0,4.16-1.32,4.16-3.24c0-5.4-13.24-4.28-13.24-13.12
		c0-5,4.16-8.24,9.68-8.24c2.96,0,6.08,1,8.32,3.04l-2.28,4.2c-1.56-1.4-4-2.48-6.24-2.48c-2.6,0-4.32,1.28-4.32,3.24
		c0,5.28,13.24,3.92,13.24,12.96c0,4.6-3.36,8.4-9.44,8.4c-3.52,0-7.16-1.32-9.72-3.88L49.08,120.92z"/>
	<path class="st4" d="M78.37,115.4h0.88v-0.28c0-2.68-1.72-3.6-3.84-3.6c-2,0-4.04,0.84-5.68,1.96l-1.88-3.64
		c1.68-1.36,4.96-2.52,8-2.52c5.32,0,8.48,2.96,8.48,8.12v12.76h-4.72v-1.72c0-0.84,0.12-1.48,0.12-1.48h-0.08
		c-1.24,2.16-3.68,3.68-6.44,3.68c-3.68,0-6.72-2.4-6.72-6.12C66.49,116.44,73.85,115.4,78.37,115.4z M74.61,124.8
		c2.84,0,4.68-2.88,4.68-5.36v-0.56h-0.88c-2.56,0-6.88,0.36-6.88,3.24C71.53,123.48,72.57,124.8,74.61,124.8z"/>
	<path class="st4" d="M87.58,99.81h5.04v21.28c0,2.24,0.76,2.8,2.08,2.8c0.2,0,0.48,0,0.76-0.04v4.44c-0.36,0.04-0.92,0.12-1.6,0.12
		c-2.8,0-6.28-0.72-6.28-6.56V99.81z"/>
	<path class="st4" d="M97.24,107.8h4.88v2.4c0,0.8-0.08,1.44-0.08,1.44h0.08c0.96-2,3.48-4.32,6.68-4.32c3.08,0,5.08,1.44,5.92,4.2
		h0.08c1.12-2.12,3.76-4.2,6.96-4.2c4.28,0,6.68,2.4,6.68,7.76v13.12h-5.04v-12.16c0-2.32-0.48-4.08-2.8-4.08
		c-3.48,0-5.2,3.52-5.2,7.08v9.16h-5.08v-12.16c0-2.2-0.36-4.08-2.76-4.08c-3.56,0-5.24,3.68-5.24,7.08v9.16h-5.08V107.8z"/>
	<path class="st4" d="M141.81,107.32c6.24,0,11.24,4.44,11.24,10.68c0,6.28-5,10.68-11.2,10.68s-11.2-4.4-11.2-10.68
		C130.65,111.76,135.65,107.32,141.81,107.32z M141.85,124.36c3.32,0,6.08-2.56,6.08-6.36c0-3.76-2.76-6.36-6.08-6.36
		s-6.04,2.6-6.04,6.36C135.81,121.8,138.53,124.36,141.85,124.36z"/>
	<path class="st4" d="M155.37,107.8h4.88v2.4c0,0.8-0.08,1.44-0.08,1.44h0.08c0.84-1.72,3.12-4.32,7.24-4.32
		c4.52,0,7.12,2.36,7.12,7.76v13.12h-5.08v-12.08c0-2.48-0.64-4.16-3.2-4.16c-3.6,0-5.88,3-5.88,6.68v9.56h-5.08V107.8z"/>
</g>
</svg>
