<?xml version="1.0" encoding="utf-8"?>
<!-- Generator: Adobe Illustrator 24.2.0, SVG Export Plug-In . SVG Version: 6.00 Build 0)  -->
<svg version="1.1" id="Layer_1" xmlns="http://www.w3.org/2000/svg" xmlns:xlink="http://www.w3.org/1999/xlink" x="0px" y="0px"
	 viewBox="0 0 3600 857" style="enable-background:new 0 0 3600 857;" xml:space="preserve">
<style type="text/css">
	.st0{clip-path:url(#SVGID_3_);fill:url(#SVGID_4_);}
	.st1{clip-path:url(#SVGID_6_);fill:#FFFFFF;}
	.st2{fill:#333333;}
	.st3{fill:none;stroke:url(#SVGID_7_);stroke-width:4;stroke-miterlimit:10;}
	.st4{fill:#FFFFFF;}
	.st5{fill:url(#SVGID_8_);}
	.st6{fill:#92DFF0;}
	.st7{fill:url(#SVGID_9_);}
	.st8{fill:url(#SVGID_10_);}
	.st9{fill:url(#SVGID_11_);}
	.st10{fill:url(#SVGID_12_);}
	.st11{fill:url(#SVGID_13_);}
	.st12{fill:url(#SVGID_14_);}
	.st13{fill:url(#SVGID_15_);}
	.st14{fill:url(#SVGID_16_);}
	.st15{fill:url(#SVGID_17_);}
	.st16{fill:#53565A;}
	.st17{fill:url(#SVGID_18_);}
	.st18{fill:url(#SVGID_19_);}
	.st19{fill:url(#SVGID_20_);}
	.st20{fill:url(#SVGID_21_);}
	.st21{fill:url(#SVGID_22_);}
	.st22{fill:#FF00FF;}
	.st23{fill:none;}
	.st24{fill:url(#SVGID_23_);}
	.st25{fill:url(#SVGID_24_);}
	.st26{fill:none;stroke:#CCCCCC;stroke-width:0.5;stroke-miterlimit:10;}
	.st27{fill:#CCCCCC;}
	.st28{fill:#E6E6E6;}
	.st29{fill:url(#SVGID_25_);}
	.st30{clip-path:url(#SVGID_27_);fill:#FFFFFF;}
	.st31{clip-path:url(#SVGID_30_);fill:url(#SVGID_31_);}
	.st32{fill:none;stroke:#FFFFFF;stroke-width:4;stroke-linecap:round;stroke-miterlimit:10;}
	.st33{clip-path:url(#SVGID_33_);fill:#333333;}
	.st34{clip-path:url(#SVGID_35_);fill:#333333;}
	.st35{fill:none;stroke:url(#SVGID_36_);stroke-width:4;stroke-miterlimit:10;}
	.st36{fill:url(#SVGID_37_);}
	.st37{clip-path:url(#SVGID_39_);fill:#333333;}
	.st38{opacity:0.1;clip-path:url(#SVGID_39_);}
	.st39{clip-path:url(#SVGID_41_);fill:#333333;}
	.st40{opacity:0.1;clip-path:url(#SVGID_41_);}
	.st41{fill:none;stroke:url(#SVGID_42_);stroke-width:4;stroke-miterlimit:10;}
	.st42{fill:url(#SVGID_43_);}
	.st43{fill:url(#SVGID_44_);}
	.st44{fill:#B3B3B3;}
	.st45{fill:url(#SVGID_45_);}
	.st46{fill:#FF7477;}
</style>
<g>
	<g>
		<path class="st16" d="M2409.58,546.96c-6.28,0-12.55-1.62-18.15-4.85l-83.22-48.05c-11.2-6.46-18.15-18.51-18.15-31.44v-96.09
			c0-12.93,6.96-24.98,18.15-31.44l83.22-48.05c11.2-6.46,25.11-6.46,36.31,0l83.22,48.05c11.2,6.46,18.15,18.51,18.15,31.44v96.09
			c0,12.93-6.96,24.98-18.15,31.44l-83.22,48.05C2422.14,545.34,2415.86,546.96,2409.58,546.96z M2409.58,296.01
			c-3.89,0-7.77,1-11.24,3l-83.22,48.05c-6.93,4-11.24,11.46-11.24,19.47v96.09c0,8,4.31,15.46,11.24,19.47l83.22,48.05
			c6.93,4,15.55,4,22.48,0l83.22-48.05c6.93-4,11.24-11.46,11.24-19.47v-96.09c0-8-4.31-15.46-11.24-19.47l-83.22-48.05
			C2417.36,297.01,2413.47,296.01,2409.58,296.01z"/>
		<linearGradient id="SVGID_2_" gradientUnits="userSpaceOnUse" x1="2375.5034" y1="473.6023" x2="2443.6631" y2="355.5466">
			<stop  offset="0" style="stop-color:#FF7477"/>
			<stop  offset="1" style="stop-color:#FFAD93"/>
		</linearGradient>
		<path style="fill:url(#SVGID_2_);" d="M2378.95,474.53c-1.17,0-2.36-0.3-3.45-0.93c-3.31-1.91-4.44-6.14-2.53-9.45l61.24-106.08
			c1.91-3.31,6.14-4.44,9.45-2.53c3.31,1.91,4.44,6.14,2.53,9.45l-61.24,106.08C2383.67,473.29,2381.34,474.53,2378.95,474.53z"/>
		<g>
			<path class="st44" d="M2529.11,547.95V668.3h-239.05V547.95H2529.11 M2530.11,546.95h-1h-239.05h-1v1V668.3v1h1h239.05h1v-1
				V547.95V546.95L2530.11,546.95z"/>
		</g>
		<g>
			<path class="st44" d="M2650.45,282.19v264.77H2530.1V282.19H2650.45 M2651.45,281.19h-1H2530.1h-1v1v264.77v1h1h120.35h1v-1
				V282.19V281.19L2651.45,281.19z"/>
		</g>
		<g>
			<path class="st44" d="M2650.45,160.85V281.2H2530.1V160.85H2650.45 M2651.45,159.85h-1H2530.1h-1v1V281.2v1h1h120.35h1v-1V160.85
				V159.85L2651.45,159.85z"/>
		</g>
		<g>
			<path class="st44" d="M2650.45,547.95V668.3H2530.1V547.95H2650.45 M2651.45,546.95h-1H2530.1h-1v1V668.3v1h1h120.35h1v-1V547.95
				V546.95L2651.45,546.95z"/>
		</g>
		<g>
			<path class="st44" d="M2289.06,282.19v264.77h-120.35V282.19H2289.06 M2290.06,281.19h-1h-120.35h-1v1v264.77v1h1h120.35h1v-1
				V282.19V281.19L2290.06,281.19z"/>
		</g>
		<g>
			<path class="st44" d="M2289.06,160.85V281.2h-120.35V160.85H2289.06 M2290.06,159.85h-1h-120.35h-1v1V281.2v1h1h120.35h1v-1
				V160.85V159.85L2290.06,159.85z"/>
		</g>
		<g>
			<path class="st44" d="M2289.06,547.95V668.3h-120.35V547.95H2289.06 M2290.06,546.95h-1h-120.35h-1v1V668.3v1h1h120.35h1v-1
				V547.95V546.95L2290.06,546.95z"/>
		</g>
		<g>
			<path class="st44" d="M2529.11,160.85V281.2h-239.05V160.85H2529.11 M2530.11,159.85h-1h-239.05h-1v1V281.2v1h1h239.05h1v-1
				V160.85V159.85L2530.11,159.85z"/>
		</g>
		<g>
			<path class="st44" d="M2529.11,282.19v264.77h-239.05V282.19H2529.11 M2530.11,281.19h-1h-239.05h-1v1v264.77v1h1h239.05h1v-1
				V282.19V281.19L2530.11,281.19z"/>
		</g>
		<g>
			<g>
				<path class="st44" d="M2596.88,706.45c0.57,0.74,0.44,1.79-0.3,2.33c-0.3,0.24-0.64,0.37-1.02,0.37c-0.51,0-0.98-0.24-1.32-0.64
					l-3.96-5.11l-3.96,5.11c-0.34,0.41-0.81,0.64-1.32,0.64c-0.37,0-0.71-0.14-1.02-0.37c-0.74-0.54-0.88-1.59-0.3-2.33l4.47-5.79
					l-4.47-5.79c-0.58-0.74-0.44-1.79,0.3-2.37c0.71-0.58,1.76-0.44,2.33,0.3l3.96,5.11l3.96-5.11c0.57-0.74,1.62-0.88,2.33-0.3
					c0.74,0.58,0.88,1.62,0.3,2.37l-4.47,5.79L2596.88,706.45z"/>
			</g>
		</g>
		<g>
			<g>
				<path class="st44" d="M2235.49,706.45c0.57,0.74,0.44,1.79-0.3,2.33c-0.3,0.24-0.64,0.37-1.02,0.37c-0.51,0-0.98-0.24-1.32-0.64
					l-3.96-5.11l-3.96,5.11c-0.34,0.41-0.81,0.64-1.32,0.64c-0.37,0-0.71-0.14-1.02-0.37c-0.74-0.54-0.88-1.59-0.3-2.33l4.47-5.79
					l-4.47-5.79c-0.58-0.74-0.44-1.79,0.3-2.37c0.71-0.58,1.76-0.44,2.33,0.3l3.96,5.11l3.96-5.11c0.57-0.74,1.62-0.88,2.33-0.3
					c0.74,0.58,0.88,1.62,0.3,2.37l-4.47,5.79L2235.49,706.45z"/>
			</g>
		</g>
		<g>
			<g>
				<path class="st44" d="M2144.51,613.92c0.57,0.74,0.44,1.79-0.3,2.33c-0.3,0.24-0.64,0.37-1.02,0.37c-0.51,0-0.98-0.24-1.32-0.64
					l-3.96-5.11l-3.96,5.11c-0.34,0.41-0.81,0.64-1.32,0.64c-0.37,0-0.71-0.14-1.02-0.37c-0.74-0.54-0.88-1.59-0.3-2.33l4.47-5.79
					l-4.47-5.79c-0.58-0.74-0.44-1.79,0.3-2.37c0.71-0.58,1.76-0.44,2.33,0.3l3.96,5.11l3.96-5.11c0.57-0.74,1.62-0.88,2.33-0.3
					c0.74,0.58,0.88,1.62,0.3,2.37l-4.47,5.79L2144.51,613.92z"/>
			</g>
		</g>
		<g>
			<g>
				<path class="st44" d="M2144.51,226.82c0.57,0.74,0.44,1.79-0.3,2.33c-0.3,0.24-0.64,0.37-1.02,0.37c-0.51,0-0.98-0.24-1.32-0.64
					l-3.96-5.11l-3.96,5.11c-0.34,0.41-0.81,0.64-1.32,0.64c-0.37,0-0.71-0.14-1.02-0.37c-0.74-0.54-0.88-1.59-0.3-2.33l4.47-5.79
					l-4.47-5.79c-0.58-0.74-0.44-1.79,0.3-2.37c0.71-0.58,1.76-0.44,2.33,0.3l3.96,5.11l3.96-5.11c0.57-0.74,1.62-0.88,2.33-0.3
					c0.74,0.58,0.88,1.62,0.3,2.37l-4.47,5.79L2144.51,226.82z"/>
			</g>
		</g>
	</g>
	<g>
		<g>
			<linearGradient id="SVGID_3_" gradientUnits="userSpaceOnUse" x1="398.6937" y1="527.6378" x2="533.7428" y2="293.726">
				<stop  offset="0" style="stop-color:#FF7477"/>
				<stop  offset="1" style="stop-color:#FFAD93"/>
			</linearGradient>
			<path style="fill:url(#SVGID_3_);" d="M405.53,529.48c-2.32,0-4.68-0.59-6.84-1.84c-6.55-3.78-8.8-12.16-5.01-18.72
				l121.35-210.18c3.78-6.55,12.16-8.8,18.72-5.01c6.55,3.78,8.8,12.16,5.01,18.72L417.41,522.62
				C414.87,527.02,410.27,529.48,405.53,529.48z"/>
		</g>
		<g>
			<path class="st16" d="M1482.18,517.79l0-214.34c0-5.98-4.54-11.14-10.5-11.53c-6.95-0.46-12.54,4.69-12.54,11.33l0,214.23
				c0,6.03,4.44,11.3,10.43,11.93C1476.52,530.14,1482.18,524.77,1482.18,517.79z"/>
			<path class="st16" d="M1554.78,376.05c-25.7,6.19-46.47,25.48-54.42,50.69c-9.27,29.39-1.59,59.25,19,79.84
				c20.58,20.59,50.45,28.27,79.83,19c25.21-7.95,44.51-28.72,50.7-54.42c6.72-27.89-1.2-55.49-20.41-74.7
				C1610.27,377.25,1582.67,369.34,1554.78,376.05z M1577.94,506.32c-33.06,2.11-60.43-25.26-58.32-58.32
				c1.75-27.33,23.82-49.4,51.15-51.15c33.06-2.11,60.43,25.26,58.32,58.32C1627.34,482.5,1605.27,504.57,1577.94,506.32z"/>
			<path class="st16" d="M993.87,303.41L993.87,303.41L993.87,303.41c0-6.36-5.16-11.52-11.52-11.52c-6.36,0-11.52,5.16-11.52,11.52
				h0l0,82.3c0,3.96-4.53,6.21-7.68,3.81c-13.39-10.2-30.14-15.82-47.17-15.82c-20.86,0-40.44,8.09-55.12,22.77
				c-19.21,19.21-27.13,46.81-20.41,74.7c6.19,25.7,25.49,46.47,50.7,54.42c29.38,9.27,59.25,1.58,79.83-19
				c14.76-14.76,22.89-34.29,22.89-55v-0.33L993.87,303.41L993.87,303.41L993.87,303.41z M970.83,451.59
				c0,31.23-26.24,56.45-57.83,54.77c-27.81-1.48-50.31-23.98-51.79-51.78c-1.68-31.59,23.54-57.84,54.77-57.84
				c30.24,0,54.85,24.46,54.85,54.52V451.59z"/>
			<path class="st16" d="M1859.63,303.41L1859.63,303.41L1859.63,303.41c0-6.36-5.16-11.52-11.52-11.52
				c-6.36,0-11.52,5.16-11.52,11.52h0l0,82.3c0,3.96-4.53,6.21-7.68,3.81c-13.39-10.2-30.14-15.82-47.17-15.82
				c-20.86,0-40.44,8.09-55.12,22.77c-19.21,19.21-27.13,46.81-20.41,74.7c6.19,25.7,25.49,46.47,50.7,54.42
				c29.38,9.27,59.25,1.58,79.83-19c14.76-14.76,22.89-34.29,22.89-55v-0.33L1859.63,303.41L1859.63,303.41L1859.63,303.41z
				 M1836.6,451.59c0,31.23-26.24,56.45-57.83,54.77c-27.81-1.48-50.31-23.98-51.79-51.78c-1.68-31.59,23.54-57.84,54.77-57.84
				c30.24,0,54.85,24.46,54.85,54.52V451.59z"/>
			<path class="st16" d="M1086.04,373.7c-20.86,0-40.44,8.09-55.12,22.77c-14.68,14.68-22.77,34.26-22.77,55.12
				c0,42.95,34.94,77.89,77.89,77.89l0.8,0h0.82c11.15,0,27.67-0.66,47.71-14.02c5.34-3.08,7.3-10.48,4.21-15.82
				c-3.08-5.34-9.91-7.17-15.25-4.09c-16.17,10.44-29.08,10.89-38.3,10.89c-23.3,0-44.17-14.92-51.95-37.13v0
				c-1.09-3.11,1.22-6.37,4.52-6.37h113.63c6.55,0,11.68-4.99,11.68-11.35C1163.93,401,1123.8,373.7,1086.04,373.7z M1133.8,439.9
				L1133.8,439.9h-95.19c-3.31,0-5.62-3.27-4.51-6.39v0c7.83-22,28.7-36.78,51.94-36.78c19.03,0,44.15,9.69,52.34,37.01
				C1139.31,436.81,1137.01,439.9,1133.8,439.9z"/>
			<path class="st16" d="M1366.96,373.7c-20.86,0-40.44,8.09-55.12,22.77c-14.68,14.68-22.77,34.26-22.77,55.12
				c0,42.95,34.94,77.89,77.89,77.89l0.8,0h0.82c11.15,0,27.67-0.66,47.71-14.02c5.34-3.08,7.3-10.48,4.21-15.82
				c-3.08-5.34-9.91-7.17-15.25-4.09c-16.17,10.44-29.08,10.89-38.3,10.89c-23.3,0-44.17-14.92-51.95-37.13v0
				c-1.09-3.11,1.22-6.37,4.52-6.37h113.63c6.55,0,11.68-4.99,11.68-11.35C1444.85,401,1404.72,373.7,1366.96,373.7z M1414.72,439.9
				L1414.72,439.9h-95.19c-3.31,0-5.62-3.27-4.51-6.39v0c7.83-22,28.7-36.78,51.94-36.78c19.03,0,44.15,9.69,52.34,37.01
				C1420.23,436.81,1417.93,439.9,1414.72,439.9z"/>
			<g>
				<path class="st16" d="M1666.64,365.15h-0.11v1.04C1666.53,365.83,1666.61,365.5,1666.64,365.15z"/>
				<polygon class="st16" points="1666.53,366.19 1666.53,365.15 1666.53,365.15 1666.53,397.72 1666.53,366.19 				"/>
				<polygon class="st16" points="1666.53,366.19 1666.53,366.19 1666.53,397.72 1666.53,447.45 				"/>
				<path class="st16" d="M1678.05,353.63c-6.36,0-11.52,5.16-11.52,11.52v82.3l0-49.73v119.76c0,6.03,4.44,11.3,10.43,11.92
					c6.95,0.73,12.61-4.64,12.61-11.62V365.15h0C1689.57,358.79,1684.41,353.63,1678.05,353.63z"/>
			</g>
			<circle class="st16" cx="1678.05" cy="313.54" r="11.52"/>
			<path class="st16" d="M1280.27,374.44c-6.06-2.27-12.81,0.81-15.08,6.88c0,0.01-0.01,0.02-0.01,0.03l-38.68,103.09l-38.68-103.09
				c0-0.01-0.01-0.02-0.01-0.03c-2.27-6.07-9.02-9.15-15.08-6.88c-6.06,2.27-9.14,9.03-6.87,15.09l0,0l49.34,132
				c1.75,4.69,6.18,7.82,11.16,7.93v0.01c0.05,0,0.09,0,0.14-0.01c0.05,0,0.09,0.01,0.14,0.01v-0.01c4.98-0.12,9.41-3.24,11.16-7.93
				l49.34-132c0,0,0,0,0,0v0C1289.41,383.47,1286.33,376.71,1280.27,374.44z"/>
		</g>
		<g>
			<path class="st44" d="M1859.63,148.29v524.6H229.39v-524.6H1859.63 M1860.63,147.29h-1H229.39h-1v1v524.6v1h1h1630.24h1v-1
				v-524.6V147.29L1860.63,147.29z"/>
		</g>
		<g>
			<path class="st44" d="M837.17,14.17v792.86H704.04V14.17H837.17 M838.17,13.17H703.04v794.86h135.13V13.17L838.17,13.17z"/>
		</g>
		<g>
			<path class="st44" d="M1993.76,148.3v524.59h-133.13V148.3H1993.76 M1994.76,147.3h-135.13v526.59h135.13V147.3L1994.76,147.3z"
				/>
		</g>
		<g>
			<path class="st44" d="M1993.76,673.9v133.13h-133.13V673.9H1993.76 M1994.76,672.9h-135.13v135.13h135.13V672.9L1994.76,672.9z"
				/>
		</g>
		<g>
			<path class="st44" d="M1993.76,14.17v133.13h-133.13V14.17H1993.76 M1994.76,13.17h-135.13v135.13h135.13V13.17L1994.76,13.17z"
				/>
		</g>
		<g>
			<path class="st44" d="M228.39,148.3v524.59H95.27V148.3H228.39 M229.39,147.3H94.27v526.59h135.13V147.3L229.39,147.3z"/>
		</g>
		<g>
			<path class="st44" d="M228.39,673.9v133.13H95.27V673.9H228.39 M229.39,672.9H94.27v135.13h135.13V672.9L229.39,672.9z"/>
		</g>
		<g>
			<path class="st44" d="M228.39,14.17v133.13H95.27V14.17H228.39 M229.39,13.17H94.27v135.13h135.13V13.17L229.39,13.17z"/>
		</g>
		<g>
			<path class="st44" d="M1859.63,14.17v133.13H229.4V14.17H1859.63 M1860.63,13.17H228.4v135.13h1632.23V13.17L1860.63,13.17z"/>
		</g>
		<g>
			<path class="st44" d="M1859.63,673.9v133.13H229.4V673.9H1859.63 M1860.63,672.9H228.4v135.13h1632.23V672.9L1860.63,672.9z"/>
		</g>
		<path class="st16" d="M466.22,672.98c-12.44,0-24.88-3.2-35.97-9.61l-164.89-95.2c-22.19-12.81-35.97-36.68-35.97-62.3v-190.4
			c0-25.62,13.78-49.49,35.97-62.3l164.89-95.2c22.19-12.81,49.75-12.81,71.94,0l164.89,95.2c22.19,12.81,35.97,36.68,35.97,62.3
			v190.4c0,25.62-13.78,49.49-35.97,62.3l-164.89,95.2C491.09,669.78,478.66,672.98,466.22,672.98z M466.22,175.77
			c-7.7,0-15.4,1.98-22.27,5.95l-164.89,95.2c-13.74,7.93-22.27,22.71-22.27,38.57v190.4c0,15.86,8.53,30.64,22.27,38.57
			l164.89,95.2c13.74,7.93,30.8,7.93,44.54,0l164.89-95.2c13.74-7.93,22.27-22.71,22.27-38.57v-190.4
			c0-15.86-8.53-30.64-22.27-38.57l-164.89-95.2C481.62,177.75,473.92,175.77,466.22,175.77z"/>
		<g>
			<g>
				<path class="st44" d="M1935.78,850.25c0.74,0.96,0.57,2.31-0.39,3c-0.39,0.3-0.83,0.48-1.31,0.48c-0.65,0-1.26-0.3-1.7-0.83
					l-5.09-6.57l-5.09,6.57c-0.44,0.52-1.04,0.83-1.7,0.83c-0.48,0-0.91-0.17-1.31-0.48c-0.96-0.7-1.13-2.04-0.39-3l5.74-7.44
					l-5.74-7.44c-0.74-0.96-0.57-2.31,0.39-3.05c0.91-0.74,2.26-0.57,3,0.39l5.09,6.57l5.09-6.57c0.74-0.96,2.09-1.13,3-0.39
					c0.96,0.74,1.13,2.09,0.39,3.05l-5.74,7.44L1935.78,850.25z"/>
			</g>
		</g>
		<g>
			<g>
				<path class="st44" d="M170.41,850.25c0.74,0.96,0.57,2.31-0.39,3c-0.39,0.3-0.83,0.48-1.31,0.48c-0.65,0-1.26-0.3-1.7-0.83
					l-5.09-6.57l-5.09,6.57c-0.44,0.52-1.04,0.83-1.7,0.83c-0.48,0-0.91-0.17-1.31-0.48c-0.96-0.7-1.13-2.04-0.39-3l5.74-7.44
					l-5.74-7.44c-0.74-0.96-0.57-2.31,0.39-3.05c0.91-0.74,2.26-0.57,3,0.39l5.09,6.57l5.09-6.57c0.74-0.96,2.09-1.13,3-0.39
					c0.96,0.74,1.13,2.09,0.39,3.05l-5.74,7.44L170.41,850.25z"/>
			</g>
		</g>
		<g>
			<g>
				<path class="st44" d="M69.96,88.28c0.74,0.96,0.57,2.31-0.39,3c-0.39,0.3-0.83,0.48-1.31,0.48c-0.65,0-1.26-0.3-1.7-0.83
					l-5.09-6.57l-5.09,6.57c-0.44,0.52-1.04,0.83-1.7,0.83c-0.48,0-0.91-0.17-1.31-0.48c-0.96-0.7-1.13-2.04-0.39-3l5.74-7.44
					L53,73.4c-0.74-0.96-0.57-2.31,0.39-3.05c0.91-0.74,2.26-0.57,3,0.39l5.09,6.57l5.09-6.57c0.74-0.96,2.09-1.13,3-0.39
					c0.96,0.74,1.13,2.09,0.39,3.05l-5.74,7.44L69.96,88.28z"/>
			</g>
		</g>
		<g>
			<g>
				<path class="st16" d="M3238.52,465.84V357.27c0-3.03-2.29-5.64-5.29-5.84c-3.51-0.23-6.32,2.37-6.32,5.74v108.52
					c0,3.05,2.24,5.73,5.26,6.04C3235.67,472.1,3238.52,469.38,3238.52,465.84z"/>
				<path class="st16" d="M3275.13,394.04c-12.96,3.13-23.43,12.91-27.44,25.68c-4.68,14.89-0.8,30.02,9.58,40.44
					c10.38,10.43,25.44,14.32,40.26,9.63c12.71-4.03,22.44-14.55,25.56-27.57c3.39-14.13-0.61-28.11-10.29-37.84
					C3303.11,394.65,3289.2,390.64,3275.13,394.04z M3286.81,460.03c-16.67,1.07-30.47-12.79-29.41-29.54
					c0.88-13.84,12.01-25.02,25.79-25.91c16.67-1.07,30.47,12.79,29.41,29.54C3311.72,447.97,3300.59,459.15,3286.81,460.03z"/>
				<path class="st16" d="M2992.3,357.25L2992.3,357.25L2992.3,357.25c0-3.22-2.6-5.84-5.81-5.84c-3.21,0-5.81,2.61-5.81,5.84h0
					l0,41.69c0,2.01-2.29,3.14-3.87,1.93c-6.75-5.17-15.2-8.01-23.78-8.01c-10.52,0-20.39,4.1-27.79,11.53
					c-9.69,9.73-13.68,23.71-10.29,37.84c3.12,13.02,12.85,23.54,25.57,27.57c14.82,4.7,29.87,0.8,40.25-9.63
					c7.44-7.48,11.54-17.37,11.54-27.86v-0.17L2992.3,357.25L2992.3,357.25L2992.3,357.25z M2980.68,432.31
					c0,15.82-13.23,28.6-29.16,27.74c-14.02-0.75-25.37-12.15-26.11-26.23c-0.85-16,11.87-29.3,27.62-29.3
					c15.25,0,27.66,12.39,27.66,27.62V432.31z"/>
				<path class="st16" d="M3428.85,357.25L3428.85,357.25L3428.85,357.25c0-3.22-2.6-5.84-5.81-5.84c-3.21,0-5.81,2.61-5.81,5.84h0
					l0,41.69c0,2.01-2.29,3.14-3.87,1.93c-6.75-5.17-15.2-8.01-23.78-8.01c-10.52,0-20.39,4.1-27.79,11.53
					c-9.69,9.73-13.68,23.71-10.29,37.84c3.12,13.02,12.85,23.54,25.57,27.57c14.82,4.7,29.87,0.8,40.25-9.63
					c7.44-7.48,11.54-17.37,11.54-27.86v-0.17L3428.85,357.25L3428.85,357.25L3428.85,357.25z M3417.23,432.31
					c0,15.82-13.23,28.6-29.16,27.74c-14.02-0.75-25.37-12.15-26.11-26.23c-0.85-16,11.87-29.3,27.62-29.3
					c15.25,0,27.66,12.39,27.66,27.62V432.31z"/>
				<path class="st16" d="M3038.78,392.85c-10.52,0-20.39,4.1-27.79,11.53c-7.4,7.44-11.48,17.35-11.48,27.92
					c0,21.76,17.62,39.45,39.27,39.45l0.4,0h0.41c5.62,0,13.95-0.33,24.06-7.1c2.69-1.56,3.68-5.31,2.13-8.01
					c-1.55-2.7-5-3.63-7.69-2.07c-8.15,5.29-14.66,5.51-19.31,5.51c-11.75,0-22.27-7.56-26.19-18.81v0
					c-0.55-1.58,0.62-3.22,2.28-3.22h57.3c3.3,0,5.89-2.53,5.89-5.75C3078.05,406.68,3057.82,392.85,3038.78,392.85z
					 M3062.86,426.39L3062.86,426.39h-48c-1.67,0-2.83-1.66-2.27-3.24v0c3.95-11.14,14.47-18.63,26.19-18.63
					c9.59,0,22.26,4.91,26.39,18.75C3065.64,424.82,3064.48,426.39,3062.86,426.39z"/>
				<path class="st16" d="M3180.43,392.85c-10.52,0-20.39,4.1-27.79,11.53c-7.4,7.44-11.48,17.35-11.48,27.92
					c0,21.76,17.62,39.45,39.27,39.45l0.4,0h0.41c5.62,0,13.95-0.33,24.06-7.1c2.69-1.56,3.68-5.31,2.13-8.01
					c-1.55-2.7-5-3.63-7.69-2.07c-8.15,5.29-14.66,5.51-19.31,5.51c-11.75,0-22.27-7.56-26.19-18.81v0
					c-0.55-1.58,0.62-3.22,2.28-3.22h57.3c3.3,0,5.89-2.53,5.89-5.75C3219.7,406.68,3199.47,392.85,3180.43,392.85z M3204.51,426.39
					L3204.51,426.39h-48c-1.67,0-2.83-1.66-2.27-3.24v0c3.95-11.14,14.47-18.63,26.19-18.63c9.59,0,22.26,4.91,26.39,18.75
					C3207.28,424.82,3206.13,426.39,3204.51,426.39z"/>
				<g>
					<path class="st16" d="M3331.53,388.52h-0.06v0.53C3331.48,388.87,3331.52,388.7,3331.53,388.52z"/>
					<polygon class="st16" points="3331.48,389.05 3331.48,388.52 3331.48,388.52 3331.48,405.02 3331.48,389.05 					"/>
					<polygon class="st16" points="3331.48,389.05 3331.48,389.05 3331.48,405.02 3331.48,430.21 					"/>
					<path class="st16" d="M3337.29,382.69c-3.21,0-5.81,2.61-5.81,5.83v41.69l0-25.19v60.66c0,3.05,2.24,5.72,5.26,6.04
						c3.51,0.37,6.36-2.35,6.36-5.89v-77.32l0,0C3343.1,385.3,3340.5,382.69,3337.29,382.69z"/>
				</g>
				<ellipse class="st16" cx="3337.29" cy="362.38" rx="5.81" ry="5.84"/>
				<path class="st16" d="M3136.71,393.23c-3.06-1.15-6.46,0.41-7.6,3.48c0,0,0,0.01,0,0.01l-19.5,52.22l-19.5-52.22
					c0,0,0-0.01,0-0.01c-1.14-3.07-4.55-4.63-7.6-3.48c-3.06,1.15-4.61,4.57-3.46,7.65l0,0l24.88,66.86
					c0.88,2.37,3.11,3.96,5.63,4.02v0.01c0.02,0,0.05,0,0.07,0c0.02,0,0.05,0,0.07,0v-0.01c2.51-0.06,4.74-1.64,5.63-4.02
					l24.88-66.86c0,0,0,0,0,0l0,0C3141.32,397.8,3139.77,394.38,3136.71,393.23z"/>
			</g>
			<g>
				<path class="st44" d="M3428.85,472.56v120.35h-515.1V472.56H3428.85 M3429.85,471.56h-1h-515.1h-1v1v120.35v1h1h515.1h1v-1
					V472.56V471.56L3429.85,471.56z"/>
			</g>
			<g>
				<path class="st44" d="M3550,230.26v120.35h-120.35V230.26H3550 M3551,229.26h-1h-120.35h-1v1v120.35v1h1H3550h1v-1V230.26
					V229.26L3551,229.26z"/>
			</g>
			<g>
				<path class="st44" d="M3550,472.56v120.35h-120.35V472.56H3550 M3551,471.56h-1h-120.35h-1v1v120.35v1h1H3550h1v-1V472.56
					V471.56L3551,471.56z"/>
			</g>
			<g>
				<path class="st44" d="M2912.95,351.41v120.35H2792.6V351.41H2912.95 M2913.95,350.41h-1H2792.6h-1v1v120.35v1h1h120.35h1v-1
					V351.41V350.41L2913.95,350.41z"/>
			</g>
			<g>
				<path class="st44" d="M2912.95,230.26v120.35H2792.6V230.26H2912.95 M2913.95,229.26h-1H2792.6h-1v1v120.35v1h1h120.35h1v-1
					V230.26V229.26L2913.95,229.26z"/>
			</g>
			<g>
				<path class="st44" d="M2912.95,472.56v120.35H2792.6V472.56H2912.95 M2913.95,471.56h-1H2792.6h-1v1v120.35v1h1h120.35h1v-1
					V472.56V471.56L2913.95,471.56z"/>
			</g>
			<g>
				<path class="st44" d="M3428.85,230.26v120.35h-515.1V230.26H3428.85 M3429.85,229.26h-1h-515.1h-1v1v120.35v1h1h515.1h1v-1
					V230.26V229.26L3429.85,229.26z"/>
			</g>
			<g>
				<path class="st44" d="M3428.85,351.41v120.35h-515.1V351.41H3428.85 M3429.85,350.41h-1h-515.1h-1v1v120.35v1h1h515.1h1v-1
					V351.41V350.41L3429.85,350.41z"/>
			</g>
			<g>
				<path class="st44" d="M3550,351.41v120.35h-120.35V351.41H3550 M3551,350.41h-1h-120.35h-1v1v120.35v1h1H3550h1v-1V351.41
					V350.41L3551,350.41z"/>
			</g>
			<g>
				<g>
					<rect x="703.04" y="812.99" class="st46" width="135.13" height="8.94"/>
				</g>
				<g>
					<rect x="2792.6" y="597.88" class="st46" width="120.35" height="8.94"/>
				</g>
				<g>
					<g>
						<path class="st46" d="M2859.37,631.06c0.57,0.74,0.44,1.79-0.3,2.33c-0.3,0.24-0.64,0.37-1.02,0.37
							c-0.51,0-0.98-0.24-1.32-0.64l-3.96-5.11l-3.96,5.11c-0.34,0.41-0.81,0.64-1.32,0.64c-0.37,0-0.71-0.14-1.02-0.37
							c-0.74-0.54-0.88-1.59-0.3-2.33l4.47-5.79l-4.47-5.79c-0.58-0.74-0.44-1.79,0.3-2.37c0.71-0.58,1.76-0.44,2.33,0.3l3.96,5.11
							l3.96-5.11c0.57-0.74,1.62-0.88,2.33-0.3c0.74,0.58,0.88,1.62,0.3,2.37l-4.47,5.79L2859.37,631.06z"/>
					</g>
				</g>
				<g>
					<rect x="80.36" y="672.9" class="st46" width="8.94" height="135.13"/>
				</g>
				<g>
					<g>
						<path class="st46" d="M69.9,749.07c0.84,1.09,0.65,2.63-0.45,3.43c-0.45,0.35-0.94,0.55-1.49,0.55
							c-0.75,0-1.44-0.35-1.94-0.94l-5.81-7.5l-5.81,7.5c-0.5,0.6-1.19,0.94-1.94,0.94c-0.55,0-1.04-0.2-1.49-0.55
							c-1.09-0.79-1.29-2.33-0.45-3.43l6.56-8.5l-6.56-8.5c-0.85-1.09-0.65-2.63,0.45-3.48c1.04-0.84,2.58-0.65,3.43,0.45l5.81,7.5
							l5.81-7.5c0.84-1.09,2.38-1.29,3.43-0.45c1.09,0.84,1.29,2.38,0.45,3.48l-6.56,8.5L69.9,749.07z"/>
					</g>
				</g>
				<g>
					<rect x="2778.69" y="351.41" class="st46" width="8.94" height="120.35"/>
				</g>
				<g>
					<g>
						<path class="st46" d="M2768.3,419.04c0.74,0.96,0.57,2.31-0.39,3c-0.39,0.3-0.83,0.48-1.31,0.48c-0.65,0-1.26-0.3-1.7-0.83
							l-5.09-6.57l-5.09,6.57c-0.44,0.52-1.04,0.83-1.7,0.83c-0.48,0-0.91-0.17-1.31-0.48c-0.96-0.7-1.13-2.04-0.39-3l5.74-7.44
							l-5.74-7.44c-0.74-0.96-0.57-2.31,0.39-3.05c0.91-0.74,2.26-0.57,3,0.39l5.09,6.57l5.09-6.57c0.74-0.96,2.09-1.13,3-0.39
							c0.96,0.74,1.13,2.09,0.39,3.05l-5.74,7.44L2768.3,419.04z"/>
					</g>
				</g>
				<g>
					<path class="st46" d="M780.39,852.86c0.84,1.09,0.65,2.63-0.45,3.43c-0.45,0.35-0.94,0.55-1.49,0.55
						c-0.75,0-1.44-0.35-1.94-0.94l-5.81-7.5l-5.81,7.5c-0.5,0.6-1.19,0.94-1.94,0.94c-0.55,0-1.04-0.2-1.49-0.55
						c-1.09-0.79-1.29-2.33-0.45-3.43l6.56-8.5l-6.56-8.5c-0.85-1.09-0.65-2.63,0.45-3.48c1.04-0.84,2.58-0.65,3.43,0.45l5.81,7.5
						l5.81-7.5c0.84-1.09,2.38-1.29,3.43-0.45c1.09,0.84,1.29,2.38,0.45,3.48l-6.56,8.5L780.39,852.86z"/>
				</g>
			</g>
			<g>
				<g>
					<path class="st44" d="M3496.42,631.06c0.57,0.74,0.44,1.79-0.3,2.33c-0.3,0.24-0.64,0.37-1.02,0.37
						c-0.51,0-0.98-0.24-1.32-0.64l-3.96-5.11l-3.96,5.11c-0.34,0.41-0.81,0.64-1.32,0.64c-0.37,0-0.71-0.14-1.02-0.37
						c-0.74-0.54-0.88-1.59-0.3-2.33l4.47-5.79l-4.47-5.79c-0.58-0.74-0.44-1.79,0.3-2.37c0.71-0.58,1.76-0.44,2.33,0.3l3.96,5.11
						l3.96-5.11c0.57-0.74,1.62-0.88,2.33-0.3c0.74,0.58,0.88,1.62,0.3,2.37l-4.47,5.79L3496.42,631.06z"/>
				</g>
			</g>
			<g>
				<g>
					<path class="st44" d="M2768.4,538.53c0.57,0.74,0.44,1.79-0.3,2.33c-0.3,0.24-0.64,0.37-1.02,0.37c-0.51,0-0.98-0.24-1.32-0.64
						l-3.96-5.11l-3.96,5.11c-0.34,0.41-0.81,0.64-1.32,0.64c-0.37,0-0.71-0.14-1.02-0.37c-0.74-0.54-0.88-1.59-0.3-2.33l4.47-5.79
						l-4.47-5.79c-0.58-0.74-0.44-1.79,0.3-2.37c0.71-0.58,1.76-0.44,2.33,0.3l3.96,5.11l3.96-5.11c0.57-0.74,1.62-0.88,2.33-0.3
						c0.74,0.58,0.88,1.62,0.3,2.37l-4.47,5.79L2768.4,538.53z"/>
				</g>
			</g>
			<g>
				<g>
					<path class="st44" d="M2768.4,296.23c0.57,0.74,0.44,1.79-0.3,2.33c-0.3,0.24-0.64,0.37-1.02,0.37c-0.51,0-0.98-0.24-1.32-0.64
						l-3.96-5.11l-3.96,5.11c-0.34,0.41-0.81,0.64-1.32,0.64c-0.37,0-0.71-0.14-1.02-0.37c-0.74-0.54-0.88-1.59-0.3-2.33l4.47-5.79
						l-4.47-5.79c-0.58-0.74-0.44-1.79,0.3-2.37c0.71-0.58,1.76-0.44,2.33,0.3l3.96,5.11l3.96-5.11c0.57-0.74,1.62-0.88,2.33-0.3
						c0.74,0.58,0.88,1.62,0.3,2.37l-4.47,5.79L2768.4,296.23z"/>
				</g>
			</g>
		</g>
	</g>
</g>
</svg>
