<svg xmlns="http://www.w3.org/2000/svg" viewBox="0 0 500 500"><defs><style>.cls-1{opacity:0.15;}.cls-2{fill:#fff;}.cls-3{fill:#53565a;}</style></defs><g id="Layer_2" data-name="Layer 2"><g id="Layer_1-2" data-name="Layer 1"><g class="cls-1"><rect class="cls-2" width="500" height="500"/></g><path class="cls-3" d="M45.94,418.44h2.6l.44-2.83H46.66v-2.28h2.66l.69-4.6h2.85l-.66,4.6h3.31l.69-4.6h2.85l-.67,4.6h1.93v2.28H58.06l-.41,2.83h1.93v2.25H57.3l-.57,4.12h-3l.62-4.12H51.14l-.58,4.12h-3l.62-4.12H45.94Zm5.41.07H54.8l.46-3H51.78Z"/><path class="cls-3" d="M71.24,418h-7v6.79H62.3v-16.1h9.56v1.7H64.23v5.91h7Z"/><path class="cls-3" d="M82.46,418h-7v6.79H73.51v-16.1h9.57v1.7H75.45v5.91h7Z"/><path class="cls-3" d="M93.68,418h-7v6.79H84.73v-16.1H94.3v1.7H86.67v5.91h7Z"/><path class="cls-3" d="M104.9,418h-7v6.79H96v-16.1h9.57v1.7H97.88v5.91h7Z"/><path class="cls-3" d="M116.12,418h-7v6.79h-1.93v-16.1h9.57v1.7H109.1v5.91h7Z"/><path class="cls-3" d="M127.34,418h-7v6.79h-1.93v-16.1H128v1.7h-7.64v5.91h7Z"/><path class="cls-3" d="M54.2,437.55c3.24,0,6.69,1.75,7.43,5.72H58.29a4,4,0,0,0-4.09-2.62c-2.85,0-4.76,2.07-4.76,5.13a4.76,4.76,0,0,0,4.73,5.06,4,4,0,0,0,4.19-2.9h3.31c-.69,4.26-4.11,6-7.47,6a8.21,8.21,0,1,1,0-16.42Z"/><path class="cls-3" d="M77.57,437.66h1.24v16.15H75.36v-8.72l-4,5.06h-.43l-4-5.06v8.72H63.38V437.66h1.26l6.46,7.66Z"/><path class="cls-3" d="M87.07,444.22l1.59-3.2,1.93-3.31h3.65v.51l-5.51,9.15v6.44H85.28v-6.44l-5.55-9.15v-.51h3.71l2,3.43L87,444.22Z"/><path class="cls-3" d="M98.58,444.36a7.34,7.34,0,0,0,2.78-.3c.85-.46,1.17-1.68,1.61-3.5.55-2,2-3.56,5.5-2.83v2.35a1.87,1.87,0,0,0-2.33,1.49,9.15,9.15,0,0,1-2,4.28L109,453.3v.51h-3.88l-4-6.63a12.23,12.23,0,0,1-2.53.17v6.46H95.15v-16.1h3.43Z"/><path class="cls-3" d="M127.07,443v5.52c0,3.47-2.62,5.54-5.91,5.54s-6-2.07-6-5.54V443c0-3.45,2.62-5.54,6-5.54S127.07,439.57,127.07,443Zm-2,6.79a5.54,5.54,0,0,0,.25-1.73v-4.6a5.43,5.43,0,0,0-.25-1.72,3.81,3.81,0,0,0-3.87-2.62,3.76,3.76,0,0,0-3.88,2.62,5.41,5.41,0,0,0-.26,1.72v4.6a5.53,5.53,0,0,0,.26,1.73,3.75,3.75,0,0,0,3.88,2.59A3.8,3.8,0,0,0,125,449.81Z"/><path class="cls-3" d="M130.92,453.67l-.69,2.18H129.1l.51-1.79a1.08,1.08,0,0,1-.8-1,1,1,0,0,1,1.12-1,1.13,1.13,0,0,1,1.11.78,1.27,1.27,0,0,1,0,.37A3,3,0,0,1,130.92,453.67Z"/><path class="cls-3" d="M139.73,441.92h-1.61c.16-2.88,1.7-4.44,4.81-4.44,2.85,0,4.46,1.66,4.64,3.7a6,6,0,0,1-1.38,4.46L141,452.1h7v1.71H137.82v-.42l6.65-8.3c1.95-2.39,2.07-5.95-1.59-5.95C141,439.14,139.89,440,139.73,441.92Z"/><path class="cls-3" d="M151.38,443.6a9.51,9.51,0,0,1,2.45-.3c3.22,0,6.28,1.45,6.17,5.4,0,3.24-2.19,5.36-5.54,5.36-2.79,0-5-1.52-5.27-4.44H151a3.11,3.11,0,0,0,3.42,2.74,3.42,3.42,0,0,0,3.68-3.61c0-3-2.21-3.77-4.48-3.77a14.06,14.06,0,0,0-4,.5v-7.77h9.42v1.72h-7.67Z"/><path class="cls-3" d="M163.55,443.6a9.64,9.64,0,0,1,2.46-.3c3.22,0,6.28,1.45,6.16,5.4,0,3.24-2.18,5.36-5.54,5.36-2.78,0-5-1.52-5.26-4.44h1.81a3.12,3.12,0,0,0,3.43,2.74,3.42,3.42,0,0,0,3.68-3.61c0-3-2.21-3.77-4.49-3.77a14.06,14.06,0,0,0-4,.5v-7.77h9.43v1.72h-7.68Z"/><path class="cls-3" d="M175.9,453.67l-.69,2.18h-1.13l.51-1.79a1.09,1.09,0,0,1-.81-1,1,1,0,0,1,1.13-1,1.11,1.11,0,0,1,1.1.78,1,1,0,0,1,0,.37A2.85,2.85,0,0,1,175.9,453.67Z"/><path class="cls-3" d="M184.71,441.92h-1.62c.17-2.88,1.71-4.44,4.81-4.44,2.85,0,4.46,1.66,4.65,3.7a6,6,0,0,1-1.38,4.46l-5.25,6.46h7v1.71H182.8v-.42l6.64-8.3c2-2.39,2.07-5.95-1.59-5.95C185.92,439.14,184.87,440,184.71,441.92Z"/><path class="cls-3" d="M196.35,443.6a9.58,9.58,0,0,1,2.46-.3c3.22,0,6.28,1.45,6.16,5.4,0,3.24-2.18,5.36-5.54,5.36-2.78,0-5-1.52-5.26-4.44H196a3.12,3.12,0,0,0,3.43,2.74,3.42,3.42,0,0,0,3.68-3.61c0-3-2.21-3.77-4.49-3.77a14.06,14.06,0,0,0-4,.5v-7.77H204v1.72h-7.68Z"/><path class="cls-3" d="M208.53,443.6a9.53,9.53,0,0,1,2.46-.3c3.22,0,6.27,1.45,6.16,5.4,0,3.24-2.19,5.36-5.54,5.36-2.79,0-5-1.52-5.27-4.44h1.82a3.11,3.11,0,0,0,3.42,2.74,3.42,3.42,0,0,0,3.68-3.61c0-3-2.21-3.77-4.48-3.77a14.06,14.06,0,0,0-4,.5v-7.77h9.43v1.72h-7.68Z"/><path class="cls-3" d="M220.87,453.67l-.69,2.18h-1.12l.5-1.79a1.08,1.08,0,0,1-.8-1,1,1,0,0,1,1.12-1,1.13,1.13,0,0,1,1.11.78,1.27,1.27,0,0,1,0,.37A3,3,0,0,1,220.87,453.67Z"/><path class="cls-3" d="M240.21,443v5.52c0,3.47-2.62,5.54-5.91,5.54s-6-2.07-6-5.54V443c0-3.45,2.62-5.54,6-5.54S240.21,439.57,240.21,443Zm-2,6.79a5.54,5.54,0,0,0,.25-1.73v-4.6a5.43,5.43,0,0,0-.25-1.72,3.81,3.81,0,0,0-3.87-2.62,3.76,3.76,0,0,0-3.88,2.62,5.15,5.15,0,0,0-.26,1.72v4.6a5.25,5.25,0,0,0,.26,1.73,3.75,3.75,0,0,0,3.88,2.59A3.8,3.8,0,0,0,238.17,449.81Z"/><path class="cls-3" d="M45,62.48v-4.4H67v4.4Zm11.2,1.28c5.2,0,9.32,3.24,9.32,8.16s-4.12,8.16-9.32,8.16S47,76.8,47,71.92,51,63.76,56.2,63.76ZM50.44,51.37H62.12v4.47H50.44ZM56.2,76a4.14,4.14,0,1,0,0-8.28,4.14,4.14,0,1,0,0,8.28Zm18.88-11.6h5.11V69H75.08V87H69.44V49.05h5.64Z"/><path class="cls-3" d="M90.45,51.33c5.68,0,10,3.59,10,8.87s-4.32,9-10,9-9.91-3.68-9.91-9S84.85,51.33,90.45,51.33Zm6.6,35.35c-8.28,0-13.2-3-13.2-7.64s4.92-7.72,13.2-7.72,13.28,3,13.28,7.72S105.33,86.68,97.05,86.68Zm-6.6-22.12c2.64,0,4.6-1.6,4.6-4.32a4.31,4.31,0,0,0-4.6-4.36A4.23,4.23,0,0,0,86,60.24,4.18,4.18,0,0,0,90.45,64.56ZM89.49,79c0,1.92,2.8,3.2,7.56,3.2s7.6-1.28,7.6-3.2-2.72-3.24-7.6-3.24S89.49,77,89.49,79ZM110,58.84v3.24h4.52v4.56H110v4.68h-5.64V49.05H110v5.19h4.52v4.6Z"/><path class="cls-3" d="M45.92,99.81h5.4l4.4,19.63a25.1,25.1,0,0,1,.48,3h.08a23.54,23.54,0,0,1,.6-3L62,99.81h4.32l5,19.63a23.54,23.54,0,0,1,.6,3H72a20.7,20.7,0,0,1,.44-3l4.71-19.63h5.32L75.12,128.2h-5.8l-4.44-16.8c-.44-1.84-.72-3.72-.72-3.72H64s-.28,1.88-.76,3.72l-4.4,16.8H53Z"/><path class="cls-3" d="M83.92,99.81H89v9.91a11.58,11.58,0,0,1-.12,1.72H89A8,8,0,0,1,96,107.32c4.52,0,7.12,2.36,7.12,7.76V128.2H98.08V116.12c0-2.48-.64-4.16-3.2-4.16-3.56,0-5.88,2.88-5.88,6.76v9.48H83.92Z"/><path class="cls-3" d="M106.54,99.81h5.08v4.51h-5.08Zm0,8h5.08v20.4h-5.08Z"/><path class="cls-3" d="M116,112.12h-2.64v-4h2.76v-5.84h5v5.84h4.64v4h-4.64v8c0,3.36,2.64,3.84,4,3.84a4.07,4.07,0,0,0,.92-.08v4.44a13.08,13.08,0,0,1-1.56.12c-2.84,0-8.48-.84-8.48-7.68Z"/><path class="cls-3" d="M136.55,107.32c5.84,0,9,4.28,9,9.68a16.18,16.18,0,0,1-.16,2h-14a5.78,5.78,0,0,0,6.12,5.4,9.64,9.64,0,0,0,5.84-2.24l2,3.64a12.91,12.91,0,0,1-8.2,2.92c-6.76,0-11-4.88-11-10.68C126.15,111.72,130.43,107.32,136.55,107.32Zm4,8.16c0-2.72-1.8-4.32-4.08-4.32a4.89,4.89,0,0,0-4.92,4.32Z"/></g></g></svg>