<svg xmlns="http://www.w3.org/2000/svg" viewBox="0 0 6247.63 3000"><defs><style>.cls-1{fill:#202a45;}.cls-2{fill:#e1f6ff;}</style></defs><g id="레이어_2" data-name="레이어 2"><g id="Layer_1" data-name="Layer 1"><rect class="cls-1" width="6247.63" height="3000"/><path class="cls-2" d="M3624.57,1994.81c-24.86-2.61-43.26-24.6-43.26-49.72V1052.3c0-27.69,23.17-49.12,52-47.22,24.74,1.63,43.55,23.14,43.55,48.06v893.22C3676.88,1975.45,3653.42,1997.83,3624.57,1994.81Zm663.36-554c79.7,80.07,112.54,195.06,84.68,311.31-25.67,107.12-105.73,193.65-210.32,226.8-121.9,38.63-245.79,6.6-331.18-79.19s-117.29-210.26-78.82-332.73a314.82,314.82,0,0,1,225.77-211.26C4093.77,1327.72,4208.23,1360.71,4287.93,1440.77Zm-1.61,244.65c8.76-137.78-104.78-251.85-241.93-243-113.37,7.29-204.94,99.28-212.19,213.16-8.77,137.79,104.78,251.86,241.93,243C4187.5,1891.31,4279.07,1799.31,4286.32,1685.42ZM1651.2,1053h0v617.52c0,86.29-33.72,167.69-95,229.2-85.39,85.78-209.27,117.82-331.17,79.19-104.6-33.15-184.65-119.67-210.33-226.79-27.86-116.25,5-231.25,84.68-311.32,60.9-61.18,142.11-94.88,228.66-94.88,70.63,0,140.12,23.42,195.67,65.93,13.06,10,31.87.64,31.87-15.86V1053h0a47.79,47.79,0,1,1,95.58,0h0Zm-95.58,616.15c0-125.29-102.07-227.21-227.54-227.21-129.56,0-234.18,109.36-227.2,241,6.15,115.89,99.48,209.64,214.84,215.81,131,7,239.9-98.09,239.9-228.25ZM5242.7,1053h0v617.52c0,86.29-33.72,167.69-94.95,229.2-85.39,85.78-209.28,117.82-331.17,79.19-104.6-33.15-184.66-119.67-210.33-226.79-27.86-116.25,5-231.25,84.68-311.32,60.9-61.18,142.11-94.88,228.66-94.88,70.63,0,140.12,23.42,195.66,65.93,13.07,10,31.88.64,31.88-15.86V1053h0a47.79,47.79,0,1,1,95.57,0h0Zm-95.57,616.15c0-125.29-102.07-227.21-227.54-227.21-129.57,0-234.19,109.36-227.2,241,6.15,115.89,99.48,209.64,214.83,215.81,131.06,7,239.91-98.09,239.91-228.25Zm-2790.45,1.37c0,26.53-21.29,47.32-48.47,47.32H1836.82a19.93,19.93,0,0,0-18.74,26.52h0c32.25,92.55,118.85,154.74,215.49,154.74,38.24,0,91.81-1.86,158.87-45.37a46.18,46.18,0,0,1,63.25,17c12.79,22.25,4.67,53.09-17.48,65.93-83.14,55.68-151.69,58.43-197.93,58.43h-6.71c-178.16,0-323.11-145.61-323.11-324.59,0-87,33.54-168.54,94.45-229.72s142.11-94.88,228.66-94.88C2190.21,1345.89,2356.68,1459.66,2356.68,1670.49Zm-106-74.36c-34-113.83-138.22-154.22-217.14-154.22-96.39,0-183,61.59-215.45,153.26h0a19.92,19.92,0,0,0,18.7,26.62h394.87A19.92,19.92,0,0,0,2250.71,1596.13ZM3522,1670.49c0,26.53-21.29,47.32-48.47,47.32h-471.4a19.92,19.92,0,0,0-18.73,26.52h0c32.25,92.55,118.84,154.74,215.49,154.74,38.24,0,91.81-1.86,158.87-45.37a46.18,46.18,0,0,1,63.25,17c12.79,22.25,4.66,53.09-17.48,65.93-83.14,55.68-151.69,58.43-197.94,58.43h-6.7c-178.16,0-323.11-145.61-323.11-324.59,0-87,33.54-168.54,94.44-229.72s142.12-94.88,228.67-94.88C3355.57,1345.89,3522,1459.66,3522,1670.49Zm-106-74.36c-34-113.83-138.21-154.22-217.13-154.22-96.39,0-183,61.59-215.45,153.26h0a19.92,19.92,0,0,0,18.69,26.62h394.88A19.91,19.91,0,0,0,3416.06,1596.13Zm1026-285.86h-.46v4.33C4441.64,1313.11,4442,1311.72,4442.1,1310.27Zm-.46,4.33v-4.33h0v4.34Zm0,0h0v0Zm47.79-52.34a47.9,47.9,0,0,0-47.79,48v634.84c0,25.11,18.4,47.09,43.26,49.7,28.85,3,52.32-19.34,52.32-48.42V1310.27h0A47.9,47.9,0,0,0,4489.43,1262.26Zm0-215.09a48,48,0,1,0,47.79,48A47.9,47.9,0,0,0,4489.43,1047.17ZM2839.29,1349a48.52,48.52,0,0,0-62.54,28.66.5.5,0,0,1,0,.13l-160.46,429.6-160.46-429.6a.93.93,0,0,0,0-.13,48.63,48.63,0,1,0-91,34.24h0L2569.38,1962a50.67,50.67,0,0,0,46.29,33.06v0l.58,0,.59,0v0a50.66,50.66,0,0,0,46.28-33.06l204.67-550.09h0A49,49,0,0,0,2839.29,1349Z"/></g></g></svg>