<?xml version="1.0" encoding="utf-8"?>
<!-- Generator: Adobe Illustrator 24.2.0, SVG Export Plug-In . SVG Version: 6.00 Build 0)  -->
<svg version="1.1" id="Layer_1" xmlns="http://www.w3.org/2000/svg" xmlns:xlink="http://www.w3.org/1999/xlink" x="0px" y="0px"
	 viewBox="0 0 935 500" style="enable-background:new 0 0 935 500;" xml:space="preserve">
<style type="text/css">
	.st0{clip-path:url(#SVGID_3_);fill:url(#SVGID_4_);}
	.st1{clip-path:url(#SVGID_6_);fill:#FFFFFF;}
	.st2{fill:#333333;}
	.st3{fill:none;stroke:url(#SVGID_7_);stroke-width:4;stroke-miterlimit:10;}
	.st4{fill:#FFFFFF;}
	.st5{fill:url(#SVGID_8_);}
	.st6{fill:#92DFF0;}
	.st7{fill:url(#SVGID_9_);}
	.st8{fill:url(#SVGID_10_);}
	.st9{fill:url(#SVGID_11_);}
	.st10{fill:url(#SVGID_12_);}
	.st11{fill:url(#SVGID_13_);}
	.st12{fill:url(#SVGID_14_);}
	.st13{fill:url(#SVGID_15_);}
	.st14{fill:url(#SVGID_16_);}
	.st15{fill:url(#SVGID_17_);}
	.st16{fill:#53565A;}
	.st17{fill:url(#SVGID_18_);}
	.st18{fill:url(#SVGID_19_);}
	.st19{fill:url(#SVGID_20_);}
	.st20{fill:url(#SVGID_21_);}
	.st21{fill:url(#SVGID_22_);}
	.st22{fill:#FF00FF;}
	.st23{fill:none;}
	.st24{fill:url(#SVGID_23_);}
	.st25{fill:url(#SVGID_24_);}
	.st26{fill:url(#SVGID_25_);}
	.st27{fill:url(#SVGID_26_);}
	.st28{fill:none;stroke:#CCCCCC;stroke-width:0.5;stroke-miterlimit:10;}
	.st29{fill:#CCCCCC;}
	.st30{fill:#E6E6E6;}
	.st31{fill:url(#SVGID_27_);}
	.st32{clip-path:url(#SVGID_29_);fill:#FFFFFF;}
	.st33{clip-path:url(#SVGID_32_);fill:url(#SVGID_33_);}
	.st34{fill:none;stroke:#FFFFFF;stroke-width:4;stroke-linecap:round;stroke-miterlimit:10;}
	.st35{clip-path:url(#SVGID_35_);fill:#333333;}
	.st36{clip-path:url(#SVGID_37_);fill:#333333;}
	.st37{fill:none;stroke:url(#SVGID_38_);stroke-width:4;stroke-miterlimit:10;}
	.st38{fill:url(#SVGID_39_);}
	.st39{clip-path:url(#SVGID_41_);fill:#333333;}
	.st40{opacity:0.1;clip-path:url(#SVGID_41_);}
	.st41{clip-path:url(#SVGID_43_);fill:#333333;}
	.st42{opacity:0.1;clip-path:url(#SVGID_43_);}
	.st43{fill:none;stroke:url(#SVGID_44_);stroke-width:4;stroke-miterlimit:10;}
	.st44{fill:url(#SVGID_45_);}
	.st45{fill:url(#SVGID_46_);}
	.st46{fill:#B3B3B3;}
	.st47{fill:url(#SVGID_47_);}
	.st48{fill:#FF7477;}
</style>
<rect y="0" class="st2" width="935" height="500"/>
<g>
	<path class="st4" d="M551.78,317.71V182.21c0-3.78-2.87-7.04-6.64-7.29c-4.4-0.29-7.93,2.96-7.93,7.16v135.43
		c0,3.81,2.8,7.15,6.59,7.54C548.2,325.51,551.78,322.12,551.78,317.71z"/>
	<path class="st4" d="M597.67,228.11c-16.25,3.91-29.37,16.11-34.41,32.05c-5.86,18.58-1,37.46,12.01,50.47
		c13.01,13.01,31.89,17.87,50.47,12.01c15.94-5.03,28.14-18.15,32.05-34.4c4.25-17.63-0.76-35.08-12.9-47.22
		C632.75,228.87,615.31,223.86,597.67,228.11z M612.31,310.46c-20.9,1.34-38.2-15.97-36.87-36.87c1.1-17.28,15.06-31.23,32.33-32.33
		c20.9-1.34,38.2,15.97,36.87,36.87C643.54,295.4,629.59,309.35,612.31,310.46z"/>
	<path class="st4" d="M243.09,182.19L243.09,182.19L243.09,182.19c0-4.02-3.26-7.28-7.28-7.28c-4.02,0-7.28,3.26-7.28,7.28h0
		l0,52.03c0,2.5-2.87,3.92-4.86,2.41c-8.46-6.45-19.05-10-29.82-10c-13.19,0-25.56,5.11-34.85,14.39
		c-12.14,12.15-17.15,29.59-12.9,47.22c3.91,16.25,16.11,29.37,32.05,34.4c18.58,5.86,37.45,1,50.47-12.01
		c9.33-9.33,14.47-21.68,14.47-34.77v-0.21L243.09,182.19L243.09,182.19L243.09,182.19z M228.52,275.86
		c0,19.74-16.59,35.69-36.56,34.62c-17.58-0.94-31.8-15.16-32.74-32.74c-1.06-19.97,14.88-36.56,34.62-36.56
		c19.12,0,34.67,15.46,34.67,34.47V275.86z"/>
	<path class="st4" d="M790.39,182.19L790.39,182.19L790.39,182.19c0-4.02-3.26-7.28-7.28-7.28c-4.02,0-7.28,3.26-7.28,7.28h0
		l0,52.03c0,2.5-2.87,3.92-4.86,2.41c-8.46-6.45-19.05-10-29.82-10c-13.19,0-25.56,5.11-34.85,14.39
		c-12.14,12.15-17.15,29.59-12.9,47.22c3.91,16.25,16.11,29.37,32.05,34.4c18.58,5.86,37.45,1,50.47-12.01
		c9.33-9.33,14.47-21.68,14.47-34.77v-0.21L790.39,182.19L790.39,182.19L790.39,182.19z M775.82,275.86
		c0,19.74-16.59,35.69-36.56,34.62c-17.58-0.94-31.8-15.16-32.74-32.74c-1.06-19.97,14.88-36.56,34.62-36.56
		c19.12,0,34.67,15.46,34.67,34.47V275.86z"/>
	<path class="st4" d="M301.36,226.62c-13.19,0-25.56,5.11-34.85,14.39c-9.28,9.28-14.39,21.66-14.39,34.85
		c0,27.15,22.09,49.24,49.24,49.24l0.5,0h0.52c7.05,0,17.49-0.42,30.16-8.86c3.37-1.95,4.61-6.63,2.66-10
		c-1.95-3.37-6.26-4.53-9.64-2.58c-10.22,6.6-18.38,6.88-24.21,6.88c-14.73,0-27.92-9.43-32.84-23.47v0
		c-0.69-1.97,0.77-4.02,2.85-4.02h71.83c4.14,0,7.39-3.15,7.39-7.18C350.59,243.88,325.23,226.62,301.36,226.62z M331.55,268.47
		L331.55,268.47h-60.17c-2.09,0-3.55-2.07-2.85-4.04v0c4.95-13.91,18.14-23.25,32.83-23.25c12.03,0,27.91,6.13,33.09,23.39
		C335.03,266.52,333.57,268.47,331.55,268.47z"/>
	<path class="st4" d="M478.94,226.62c-13.19,0-25.56,5.11-34.85,14.39c-9.28,9.28-14.39,21.66-14.39,34.85
		c0,27.15,22.09,49.24,49.24,49.24l0.5,0h0.52c7.05,0,17.49-0.42,30.16-8.86c3.37-1.95,4.61-6.63,2.66-10
		c-1.95-3.37-6.26-4.53-9.64-2.58c-10.22,6.6-18.38,6.88-24.21,6.88c-14.73,0-27.92-9.43-32.84-23.47v0
		c-0.69-1.97,0.77-4.02,2.85-4.02h71.84c4.14,0,7.39-3.15,7.39-7.18C528.18,243.88,502.81,226.62,478.94,226.62z M509.13,268.47
		L509.13,268.47h-60.17c-2.09,0-3.55-2.07-2.85-4.04v0c4.95-13.91,18.14-23.25,32.83-23.25c12.03,0,27.91,6.13,33.09,23.39
		C512.61,266.52,511.16,268.47,509.13,268.47z"/>
	<g>
		<path class="st4" d="M668.39,221.22h-0.07v0.66C668.32,221.65,668.37,221.44,668.39,221.22z"/>
		<polygon class="st4" points="668.32,221.87 668.32,221.22 668.32,221.22 668.32,241.81 668.32,221.87 		"/>
		<polygon class="st4" points="668.32,221.87 668.32,221.87 668.32,241.81 668.32,273.25 		"/>
		<path class="st4" d="M675.6,213.93c-4.02,0-7.28,3.26-7.28,7.28v52.03l0-31.44v75.71c0,3.81,2.8,7.14,6.59,7.54
			c4.4,0.46,7.97-2.93,7.97-7.34v-96.49h0C682.88,217.19,679.62,213.93,675.6,213.93z"/>
	</g>
	<circle class="st4" cx="675.6" cy="188.59" r="7.28"/>
	<path class="st4" d="M424.14,227.09c-3.83-1.43-8.1,0.51-9.53,4.35c0,0.01,0,0.01-0.01,0.02l-24.45,65.17l-24.45-65.17
		c0-0.01,0-0.01-0.01-0.02c-1.43-3.84-5.7-5.78-9.53-4.35c-3.83,1.43-5.78,5.71-4.34,9.54h0l31.19,83.44
		c1.11,2.96,3.91,4.94,7.05,5.01v0.01c0.03,0,0.06,0,0.09,0c0.03,0,0.06,0,0.09,0v-0.01c3.15-0.07,5.95-2.05,7.05-5.01l31.19-83.44
		c0,0,0,0,0,0v0C429.91,232.8,427.97,228.52,424.14,227.09z"/>
</g>
</svg>
