<svg xmlns="http://www.w3.org/2000/svg" viewBox="0 0 200 200"><defs><style>.cls-1{fill:#e28a8a;}.cls-2{opacity:0.8;}.cls-3{fill:#fff;}</style></defs><g id="레이어_2" data-name="레이어 2"><g id="레이어_1-2" data-name="레이어 1"><rect class="cls-1" width="200" height="200"/><g class="cls-2"><path class="cls-3" d="M20,173.33h.79v2.74h3.48v-2.74h.79v6.34h-.79v-2.89H20.79v2.89H20Z"/><path class="cls-3" d="M26.35,173.33h3.93V174H27.14v2h3v.7h-3V179h3.14v.71H26.35Z"/><path class="cls-3" d="M33.15,176.49v0L31,173.33h1l1.69,2.55h0l1.71-2.55h.9l-2.19,3.18h0l2.15,3.15h-.95l-1.69-2.53h0l-1.71,2.53H31Z"/><path class="cls-3" d="M38.84,179.67l.31-1.59h-1l.18-1h1l.26-1.34h-1l.19-.94h1l.29-1.52h1l-.29,1.52H41.9l.3-1.52h1l-.29,1.52h1l-.19.94h-1l-.26,1.34h1.06l-.18,1H42.27L42,179.67H41l.3-1.59H40.12l-.3,1.59Zm2.67-2.49.27-1.44H40.52l-.28,1.44Z"/><path class="cls-3" d="M44.54,173.33h4.21v1.09H45.87v1.52h2.71v1H45.87v1.6h2.88v1.09H44.54Z"/><path class="cls-3" d="M49.55,178.76l2.24-2.09c.82-.77,1-1.08,1-1.52h0a.89.89,0,0,0-1-.89,1,1,0,0,0-1.11,1v0H49.48v0a2.12,2.12,0,0,1,2.33-2c1.34,0,2.26.76,2.26,1.85h0c0,.77-.36,1.27-1.46,2.28l-1.32,1.21v.06h2.87v1H49.55Z"/><path class="cls-3" d="M54.83,177.94h0a1.65,1.65,0,0,1,1.47-1.59v0a1.47,1.47,0,0,1-1.24-1.39h0c0-1,1-1.69,2.33-1.69s2.32.71,2.32,1.69h0a1.47,1.47,0,0,1-1.23,1.39v0a1.65,1.65,0,0,1,1.46,1.59h0c0,1.09-1,1.84-2.55,1.84S54.83,179,54.83,177.94Zm3.74-.09h0a1.2,1.2,0,0,0-2.36,0h0c0,.56.49,1,1.18,1S58.57,178.41,58.57,177.85ZM58.4,175h0a.9.9,0,0,0-1-.86.91.91,0,0,0-1,.86h0a1,1,0,0,0,2,0Z"/><path class="cls-3" d="M62.53,173.33h1.56l2.21,6.34H64.91l-.48-1.54H62.19l-.48,1.54H60.32Zm0,3.81h1.62l-.8-2.58h0Z"/><path class="cls-3" d="M66.68,177.94h0a1.65,1.65,0,0,1,1.46-1.59v0a1.47,1.47,0,0,1-1.23-1.39h0c0-1,1-1.69,2.32-1.69s2.33.71,2.33,1.69h0a1.47,1.47,0,0,1-1.23,1.39v0a1.65,1.65,0,0,1,1.46,1.59h0c0,1.09-1,1.84-2.56,1.84S66.68,179,66.68,177.94Zm3.73-.09h0a1.2,1.2,0,0,0-2.36,0h0c0,.56.49,1,1.18,1S70.41,178.41,70.41,177.85ZM70.25,175h0a1,1,0,0,0-2,0h0a1,1,0,0,0,2,0Z"/><path class="cls-3" d="M74.38,173.33h1.56l2.21,6.34h-1.4l-.47-1.54H74l-.47,1.54h-1.4Zm0,3.81H76l-.8-2.58h0Z"/></g><path class="cls-3" d="M20.65,151.21v-1.85h8.28v1.85H26.1a5.29,5.29,0,0,0,1,3,4.67,4.67,0,0,0,2.3,1.71l-1.27,1.87a5.64,5.64,0,0,1-1.8-1.2,6.57,6.57,0,0,1-1.45-2,5.54,5.54,0,0,1-1.38,2.24,5.16,5.16,0,0,1-2.09,1.4L20,156.38a5.45,5.45,0,0,0,2.68-2,5.64,5.64,0,0,0,1-3.21Zm12.7,12.66H22.22V159h2.35v3h8.78Zm-.35-4H30.64V148.22H33Z"/><path class="cls-3" d="M44,158.5l-1.34,1.89a8.62,8.62,0,0,1-2.17-1.77A6.29,6.29,0,0,1,39,156.34a6.16,6.16,0,0,1-1.4,2.55,7.32,7.32,0,0,1-2.21,1.9L34,159a7.52,7.52,0,0,0,2.92-3,9.49,9.49,0,0,0,.91-4.36v-2.09h2.42v2C40.21,154.76,41.45,157.09,44,158.5Zm2.78-10.28v6h2.19v1.95H46.73v8.13H44.44v-16Z"/></g></g></svg>