<?xml version="1.0" encoding="utf-8"?>
<!-- Generator: Adobe Illustrator 25.2.1, SVG Export Plug-In . SVG Version: 6.00 Build 0)  -->
<svg version="1.1" id="레이어_1" xmlns="http://www.w3.org/2000/svg" xmlns:xlink="http://www.w3.org/1999/xlink" x="0px"
	 y="0px" viewBox="0 0 7172 3000" style="enable-background:new 0 0 7172 3000;" xml:space="preserve">
<style type="text/css">
	.st0{fill:#ECECEC;}
	.st1{fill:#1F84FF;}
	.st2{fill:#202A45;}
</style>
<g id="레이어_2_1_">
	<g id="Layer_1">
		<rect class="st0" width="7172" height="3000"/>
		<path class="st1" d="M1174.6,1948.9c-28.6,0-51.7-23.2-51.6-51.8c0-9,2.4-17.9,6.9-25.8l457.9-792.9
			c14.3-24.7,45.9-33.2,70.6-18.9s33.2,45.9,18.9,70.6L1219.4,1923C1210.2,1939,1193.1,1948.9,1174.6,1948.9z"/>
		<path class="st2" d="M5189.8,1948.6c-22.6-2.4-39.4-22.3-39.4-45v-808.2c0-25.1,21.1-44.5,47.3-42.8c22.5,1.5,39.6,21,39.6,43.5
			v808.5C5237.4,1931,5216.1,1951.3,5189.8,1948.6z M5793.2,1447c72.5,72.5,102.4,176.6,77,281.8c-23.5,97.2-96,175-191.3,205.3
			c-110.9,35-223.6,6-301.3-71.7s-106.7-190.3-71.7-301.2c30-95.1,108.4-167.9,205.4-191.2C5616.6,1344.7,5720.8,1374.6,5793.2,1447
			z M5791.8,1668.5c8-124.7-95.3-227.9-220.1-220c-103.1,6.6-186.4,89.9-193,192.9c-8,124.7,95.3,228,220.1,220
			C5701.9,1854.9,5785.2,1771.6,5791.8,1668.5L5791.8,1668.5z M3394.7,1096L3394.7,1096v559c0,78.1-30.7,151.8-86.4,207.5
			c-77.7,77.6-190.4,106.6-301.3,71.7c-95.1-30-168-108.3-191.3-205.3c-25.3-105.2,4.5-209.3,77-281.8
			c55.4-55.4,129.3-85.9,208-85.9c64.3,0,127.4,21.2,178,59.7c7.9,6,19.3,4.5,25.3-3.4c2.4-3.1,3.7-7,3.7-11V1096l0,0
			c0-24,19.4-43.5,43.4-43.5c24,0,43.5,19.4,43.5,43.4C3394.7,1095.9,3394.7,1096,3394.7,1096L3394.7,1096z M3307.8,1653.7
			c0-113.4-92.9-205.7-207-205.7c-117.9,0-213,99-206.7,218.2c5.6,104.9,90.5,189.8,195.4,195.4c119.2,6.3,218.2-88.8,218.2-206.6
			L3307.8,1653.7z M6661.8,1096L6661.8,1096v559c0,78.1-30.7,151.8-86.4,207.5c-77.7,77.6-190.4,106.6-301.3,71.7
			c-95.1-30-168-108.3-191.3-205.3c-25.4-105.2,4.5-209.3,77-281.8c55.4-55.4,129.3-85.9,208-85.9c64.3,0,127.5,21.2,178,59.7
			c7.9,6.1,19.2,4.6,25.2-3.2c2.5-3.2,3.8-7.1,3.8-11.1V1096l0,0c0-24,19.4-43.5,43.4-43.5c24,0,43.5,19.4,43.5,43.4
			C6661.8,1095.9,6661.8,1096,6661.8,1096L6661.8,1096z M6574.8,1653.7c0-113.4-92.9-205.7-207-205.7c-117.9,0-213,99-206.7,218.2
			c5.6,104.9,90.5,189.8,195.4,195.4c119.2,6.3,218.2-88.8,218.2-206.6L6574.8,1653.7z M4036.5,1654.9c0,24-19.4,42.8-44.1,42.8
			h-428.8c-10,0-18,8.1-18,18.1c0,2,0.3,4,1,5.9l0,0c29.3,83.8,108.1,140.1,196,140.1c34.8,0,83.5-1.7,144.5-41.1
			c20.1-11.6,45.9-4.7,57.5,15.4c0,0,0,0,0,0c11.6,20.1,4.2,48.1-15.9,59.7c-75.6,50.4-138,52.9-180,52.9h-6.1
			c-162.1,0-293.9-131.8-293.9-293.8c0-78.7,30.5-152.5,85.9-207.9s129.3-85.9,208-85.9C3885,1361.2,4036.5,1464.2,4036.5,1654.9z
			 M3940.1,1587.6c-30.9-103-125.7-139.6-197.5-139.6c-87.7,0-166.4,55.8-196,138.7l0,0c-3.3,9.4,1.6,19.7,10.9,23.1
			c1.9,0.7,4,1,6.1,1h359.2c10,0,18-8.1,18-18.1C3940.8,1591.1,3940.6,1589.3,3940.1,1587.6L3940.1,1587.6z M5096.5,1654.9
			c0,24-19.4,42.8-44.1,42.8h-428.8c-10,0-18,8.1-18,18.1c0,2,0.3,4,1,5.9l0,0c29.3,83.8,108.1,140.1,196,140.1
			c34.8,0,83.5-1.7,144.5-41.1c20.1-11.6,45.9-4.7,57.5,15.4c0,0,0,0,0,0c11.6,20.1,4.2,48.1-15.9,59.7
			c-75.6,50.4-138,52.9-180.1,52.9h-6.1c-162.1,0-293.9-131.8-293.9-293.8c0-78.7,30.5-152.5,85.9-207.9s129.3-85.9,208-85.9
			C4945.1,1361.2,5096.5,1464.2,5096.5,1654.9z M5000.1,1587.6c-30.9-103-125.7-139.6-197.5-139.6c-87.7,0-166.5,55.8-196,138.7l0,0
			c-3.3,9.4,1.6,19.7,10.9,23.1c1.9,0.7,4,1,6.1,1h359.2c10,0,18.1-8.1,18.1-18C5000.9,1591.1,5000.6,1589.4,5000.1,1587.6
			L5000.1,1587.6z M5933.5,1328.9h-0.4v3.9C5933.1,1331.5,5933.4,1330.2,5933.5,1328.9z M5933.1,1332.8v-3.9l0,0V1332.8
			L5933.1,1332.8z M5933.1,1332.8L5933.1,1332.8L5933.1,1332.8z M5976.5,1285.5c-24,0-43.5,19.4-43.5,43.4v574.7
			c0,22.7,16.7,42.6,39.4,45c26.3,2.7,47.6-17.5,47.6-43.8v-575.8l0,0C6020,1304.9,6000.5,1285.5,5976.5,1285.5z M5976.5,1090.8
			c-24,0-43.5,19.5-43.5,43.5c0,24,19.5,43.5,43.5,43.5c24,0,43.5-19.5,43.5-43.5C6020,1110.2,6000.5,1090.8,5976.5,1090.8
			L5976.5,1090.8z M4475.5,1364c-22.9-8.5-48.3,3.1-56.9,25.9c0,0,0,0,0,0.1c0,0,0,0.1,0,0.1l-146,388.9l-146-388.9v-0.1
			c-8.2-23-33.6-34.9-56.6-26.7c-23,8.2-34.9,33.6-26.7,56.5c0.1,0.4,0.3,0.8,0.4,1.1l0,0l186.2,497.9c6.6,17.6,23.3,29.5,42.1,29.9
			l0,0h0.5h0.5l0,0c18.8-0.4,35.5-12.3,42.1-29.9l186.2-497.9l0,0C4510,1398,4498.4,1372.6,4475.5,1364z M1403.6,2490.2
			c-47.6,0-94.5-12.5-135.7-36.2l-622.2-359.1c-83.9-48.6-135.6-138.1-135.7-235v-718.2c0.2-96.9,51.9-186.4,135.7-235l622.2-359.1
			c84-48.3,187.4-48.3,271.5,0l622.2,359.1c83.9,48.6,135.6,138.1,135.7,235v718.2c-0.2,96.9-51.9,186.4-135.7,235l-622.2,359.1
			C1498,2477.7,1451.2,2490.2,1403.6,2490.2z M1403.6,614.5c-29.5,0-58.5,7.7-84,22.4L697.3,996.1c-51.9,30.1-83.9,85.5-84,145.5
			v718.2c0.1,60,32.1,115.4,84,145.5l622.2,359.1c52,29.9,116,29.9,168.1,0l622.2-359.1c51.9-30.1,83.9-85.5,84-145.5v-718.2
			c-0.1-60-32.1-115.4-84-145.5L1487.6,637C1462.1,622.2,1433.1,614.5,1403.6,614.5z"/>
	</g>
</g>
</svg>
