<svg xmlns="http://www.w3.org/2000/svg" viewBox="0 0 200 200"><defs><style>.cls-1{fill:#8fa9d8;}.cls-2{opacity:0.8;}.cls-3{fill:#fff;}</style></defs><g id="레이어_2" data-name="레이어 2"><g id="레이어_1-2" data-name="레이어 1"><rect class="cls-1" width="200" height="200"/><g class="cls-2"><path class="cls-3" d="M20,173.33h.79v2.74h3.48v-2.74h.79v6.34h-.79v-2.89H20.79v2.89H20Z"/><path class="cls-3" d="M26.35,173.33h3.93V174H27.14v2h3v.7h-3V179h3.14v.71H26.35Z"/><path class="cls-3" d="M33.15,176.49v0L31,173.33h1l1.69,2.55h0l1.71-2.55h.9l-2.19,3.18h0l2.15,3.15h-.95l-1.69-2.53h0l-1.71,2.53H31Z"/><path class="cls-3" d="M38.84,179.67l.31-1.59h-1l.18-1h1l.26-1.34h-1l.19-.94h1l.29-1.52h1l-.29,1.52H41.9l.3-1.52h1l-.29,1.52h1l-.19.94h-1l-.26,1.34h1.06l-.18,1H42.27L42,179.67H41l.3-1.59H40.12l-.3,1.59Zm2.67-2.49.27-1.44H40.52l-.28,1.44Z"/><path class="cls-3" d="M44.33,177.94h0a1.65,1.65,0,0,1,1.46-1.59v0a1.47,1.47,0,0,1-1.23-1.39h0c0-1,.95-1.69,2.32-1.69s2.33.71,2.33,1.69h0A1.47,1.47,0,0,1,48,176.31v0a1.65,1.65,0,0,1,1.46,1.59h0c0,1.09-1,1.84-2.56,1.84S44.33,179,44.33,177.94Zm3.73-.09h0a1.2,1.2,0,0,0-2.36,0h0c0,.56.49,1,1.18,1S48.06,178.41,48.06,177.85ZM47.89,175h0a1,1,0,0,0-2,0h0a1,1,0,0,0,2,0Z"/><path class="cls-3" d="M50.38,173.33h4.15v1.09H51.7v1.71h2.58v1H51.7v2.5H50.38Z"/><path class="cls-3" d="M56.77,173.33h1.56l2.21,6.34h-1.4l-.47-1.54H56.42L56,179.67h-1.4Zm0,3.81h1.63l-.8-2.58h0Z"/><path class="cls-3" d="M66,176.44h0c0,2.08-1,3.33-2.66,3.33A2.24,2.24,0,0,1,61,178.09v0h1.31l0,0a1,1,0,0,0,1,.65c.92,0,1.33-.89,1.38-2v-.24h0a1.8,1.8,0,0,1-1.73,1,2,2,0,0,1-2.07-2.06h0a2.25,2.25,0,0,1,2.44-2.21C64.86,173.22,66,174.29,66,176.44Zm-1.47-1h0a1.17,1.17,0,0,0-2.33,0h0a1.17,1.17,0,0,0,2.33,0Z"/><path class="cls-3" d="M66.94,173.33h2.43a2.81,2.81,0,0,1,3,3.14h0c0,2-1.12,3.19-3,3.19H66.94Zm2.27,5.24c1.18,0,1.83-.72,1.83-2.09h0c0-1.32-.67-2.05-1.83-2.05h-.94v4.15Z"/><path class="cls-3" d="M73,177.94h0a1.65,1.65,0,0,1,1.46-1.59v0a1.46,1.46,0,0,1-1.23-1.39h0c0-1,.95-1.69,2.32-1.69s2.33.71,2.33,1.69h0a1.47,1.47,0,0,1-1.23,1.39v0a1.65,1.65,0,0,1,1.46,1.59h0c0,1.09-1,1.84-2.56,1.84S73,179,73,177.94Zm3.73-.09h0a1.2,1.2,0,0,0-2.36,0h0c0,.56.49,1,1.18,1S76.76,178.41,76.76,177.85ZM76.59,175h0a1,1,0,0,0-2,0h0a1,1,0,0,0,2,0Z"/></g><path class="cls-3" d="M28.13,149.16q-.22,7.14-7.23,9.07l-.9-1.92a7.77,7.77,0,0,0,4.48-2.43l-4.13.34L20,152.27l5.42-.1a6.53,6.53,0,0,0,.21-1.07H20.88v-1.94Zm4.59,14.92H22.24v-5.92H32.72Zm-2.37-1.83V160H24.6v2.29Zm2.37-4.79H30.35v-9.24h2.37Z"/><path class="cls-3" d="M41.72,156H34.38v-7.11h2.35v1.83h2.64v-1.83h2.35Zm5.57,8.12h-11v-4.5h8.17v-.85H36.3v-1.85H46.85v4.41H38.63v.91h8.66Zm-7.92-10v-1.6H36.73v1.6Zm7.48,2H44.47v-2.77h-2v-2h2v-3.17h2.38Z"/><path class="cls-3" d="M57.23,160.1a34,34,0,0,1-6.3.51l-1.14,0-1.13,0v-6.84h4.9v-2.32H48.64v-1.85h7.27v6H51v3h.42a29.22,29.22,0,0,0,5.54-.45C57.08,159,57.16,159.65,57.23,160.1Zm3.12-11.88v6.05h2.17v2H60.35v8H58v-16Z"/><path class="cls-3" d="M63.2,155.05a7.33,7.33,0,0,1,1.1-4.19,3.48,3.48,0,0,1,3-1.61,3.53,3.53,0,0,1,3,1.61,7.25,7.25,0,0,1,1.11,4.19,7.13,7.13,0,0,1-1.11,4.14,3.54,3.54,0,0,1-3,1.6,3.49,3.49,0,0,1-3-1.6A7.13,7.13,0,0,1,63.2,155.05Zm6.07,0a5.66,5.66,0,0,0-.54-2.74,1.59,1.59,0,0,0-1.42-.95,1.57,1.57,0,0,0-1.36,1,7.24,7.24,0,0,0,0,5.44,1.57,1.57,0,0,0,1.36,1,1.6,1.6,0,0,0,1.42-1A5.55,5.55,0,0,0,69.27,155.05Zm6.56,9.21H73.5v-16h2.33Z"/><path class="cls-3" d="M91.22,160.41v1.85H77v-1.85Zm-2.15-5.62h-7.9v1.64h8.5v1.87H78.84v-8.76H89.47v1.87h-8.3v1.53h7.9Z"/></g></g></svg>