<?xml version="1.0" encoding="utf-8"?>
<!-- Generator: Adobe Illustrator 26.3.1, SVG Export Plug-In . SVG Version: 6.00 Build 0)  -->
<svg version="1.1" id="레이어_1" xmlns="http://www.w3.org/2000/svg" xmlns:xlink="http://www.w3.org/1999/xlink" x="0px"
	 y="0px" viewBox="0 0 500 500" style="enable-background:new 0 0 500 500;" xml:space="preserve">
<style type="text/css">
	.st0{fill:#E28A8A;}
	.st1{fill:#1F84FF;}
	.st2{fill:#FFFFFF;}
	.st3{fill:#8FA9D8;}
	.st4{fill:#78C1A0;}
	.st5{fill:#D9F3FC;}
	.st6{fill:#202A45;}
	.st7{fill:#303030;}
	.st8{fill:#719BD8;}
	.st9{fill:#29B8FF;}
	.st10{fill:#E8C27E;}
	.st11{fill:#8E77C6;}
	.st12{fill:#EFABAB;}
	.st13{fill:#676D99;}
	.st14{fill:#ECECEC;}
	.st15{fill:#222222;}
</style>
<rect class="st0" width="500" height="500"/>
<g>
	<g>
		<path class="st2" d="M52.3,399.62h16.44l-0.49,2.9H51.82L52.3,399.62z M53.53,392.17h16.46l-0.49,2.9H53.06L53.53,392.17z
			 M57.43,386.64h2.91l-3.5,21.39h-2.93L57.43,386.64z M64.97,386.64h2.91l-3.52,21.39h-2.91L64.97,386.64z"/>
		<path class="st2" d="M71.46,386.64h13.9v3.24H75.3v5.85h9.34v3.21H75.3v5.87h10.12v3.24H71.46V386.64z"/>
		<path class="st2" d="M88.08,405.25l7.55-7.27c0.82-0.83,1.45-1.51,1.91-2.04s0.8-1.06,1.04-1.57c0.24-0.52,0.36-1.07,0.36-1.65
			c0-0.64-0.16-1.21-0.49-1.7c-0.33-0.49-0.77-0.87-1.32-1.15c-0.56-0.27-1.18-0.41-1.88-0.41c-0.72,0-1.35,0.15-1.89,0.44
			c-0.54,0.29-0.96,0.71-1.26,1.24c-0.3,0.54-0.45,1.17-0.45,1.88h-3.65c-0.01-1.33,0.3-2.5,0.92-3.51c0.62-1.01,1.49-1.79,2.6-2.34
			s2.38-0.83,3.8-0.83c1.43,0,2.7,0.27,3.8,0.8c1.11,0.53,1.97,1.27,2.59,2.2c0.62,0.94,0.92,2,0.92,3.19
			c-0.01,0.83-0.17,1.62-0.48,2.39c-0.31,0.77-0.85,1.62-1.63,2.56c-0.77,0.94-1.86,2.06-3.26,3.38l-3.81,3.78v0.16h9.5v3.22H88.1
			L88.08,405.25z"/>
		<path class="st2" d="M109.13,407.55c-1.23-0.52-2.19-1.24-2.89-2.15c-0.69-0.91-1.04-1.94-1.04-3.09c0-0.89,0.2-1.71,0.61-2.48
			c0.4-0.77,0.96-1.4,1.65-1.91c0.7-0.5,1.47-0.82,2.32-0.95v-0.13c-0.74-0.16-1.39-0.46-1.96-0.92s-1.01-1.01-1.33-1.68
			c-0.32-0.67-0.48-1.39-0.48-2.16c0-1.08,0.32-2.06,0.95-2.93c0.63-0.87,1.5-1.56,2.61-2.05c1.11-0.5,2.36-0.75,3.76-0.75
			c1.38,0,2.62,0.25,3.74,0.75c1.11,0.5,1.99,1.18,2.62,2.05c0.64,0.87,0.95,1.85,0.95,2.93c0,0.77-0.16,1.49-0.49,2.16
			s-0.77,1.23-1.34,1.68c-0.57,0.45-1.22,0.76-1.95,0.92v0.13c0.84,0.13,1.61,0.44,2.31,0.95c0.7,0.5,1.26,1.14,1.67,1.91
			s0.61,1.6,0.61,2.48c0,1.15-0.35,2.18-1.04,3.09c-0.69,0.91-1.66,1.63-2.9,2.15c-1.24,0.52-2.64,0.78-4.18,0.78
			C111.76,408.33,110.36,408.07,109.13,407.55z M115.51,404.87c0.62-0.28,1.11-0.67,1.46-1.17c0.34-0.5,0.52-1.08,0.52-1.74
			s-0.18-1.26-0.53-1.79c-0.35-0.54-0.85-0.96-1.48-1.26s-1.35-0.46-2.14-0.46c-0.8,0-1.51,0.15-2.13,0.45
			c-0.63,0.3-1.12,0.72-1.48,1.26c-0.36,0.54-0.54,1.14-0.54,1.81c0,0.65,0.17,1.22,0.51,1.72c0.34,0.5,0.82,0.89,1.45,1.17
			c0.63,0.29,1.36,0.43,2.19,0.43C114.16,405.29,114.88,405.15,115.51,404.87z M115.16,395.19c0.54-0.27,0.96-0.64,1.27-1.12
			c0.31-0.47,0.46-1.01,0.46-1.63c0-0.6-0.15-1.14-0.45-1.61c-0.3-0.47-0.72-0.84-1.26-1.09c-0.54-0.26-1.16-0.38-1.85-0.38
			c-0.71,0-1.33,0.13-1.86,0.38c-0.53,0.26-0.95,0.62-1.25,1.09c-0.3,0.47-0.45,1.01-0.45,1.61c0,0.61,0.15,1.15,0.46,1.63
			c0.31,0.47,0.73,0.84,1.26,1.12c0.54,0.27,1.15,0.41,1.84,0.41C114.01,395.6,114.62,395.46,115.16,395.19z"/>
		<path class="st2" d="M122.71,408.04l7.54-21.39h4.74l7.54,21.39h-4.11l-5.72-17.02h-0.18l-5.72,17.02H122.71z M138.24,399.65v3.09
			h-11.27v-3.09H138.24z"/>
		<path class="st2" d="M147.71,407.55c-1.23-0.52-2.19-1.24-2.89-2.15c-0.69-0.91-1.04-1.94-1.04-3.09c0-0.89,0.2-1.71,0.61-2.48
			c0.4-0.77,0.96-1.4,1.65-1.91c0.7-0.5,1.47-0.82,2.32-0.95v-0.13c-0.74-0.16-1.39-0.46-1.96-0.92s-1.01-1.01-1.33-1.68
			c-0.32-0.67-0.48-1.39-0.48-2.16c0-1.08,0.32-2.06,0.95-2.93c0.63-0.87,1.5-1.56,2.61-2.05c1.11-0.5,2.36-0.75,3.76-0.75
			c1.38,0,2.62,0.25,3.74,0.75c1.11,0.5,1.99,1.18,2.62,2.05c0.64,0.87,0.95,1.85,0.95,2.93c0,0.77-0.16,1.49-0.49,2.16
			s-0.77,1.23-1.34,1.68c-0.57,0.45-1.22,0.76-1.95,0.92v0.13c0.84,0.13,1.61,0.44,2.31,0.95c0.7,0.5,1.26,1.14,1.67,1.91
			s0.61,1.6,0.61,2.48c0,1.15-0.35,2.18-1.04,3.09c-0.69,0.91-1.66,1.63-2.9,2.15c-1.24,0.52-2.64,0.78-4.18,0.78
			C150.33,408.33,148.94,408.07,147.71,407.55z M154.08,404.87c0.62-0.28,1.11-0.67,1.46-1.17c0.34-0.5,0.52-1.08,0.52-1.74
			s-0.18-1.26-0.53-1.79c-0.35-0.54-0.85-0.96-1.48-1.26s-1.35-0.46-2.14-0.46c-0.8,0-1.51,0.15-2.13,0.45
			c-0.63,0.3-1.12,0.72-1.48,1.26c-0.36,0.54-0.54,1.14-0.54,1.81c0,0.65,0.17,1.22,0.51,1.72c0.34,0.5,0.82,0.89,1.45,1.17
			c0.63,0.29,1.36,0.43,2.19,0.43C152.73,405.29,153.45,405.15,154.08,404.87z M153.73,395.19c0.54-0.27,0.96-0.64,1.27-1.12
			c0.31-0.47,0.46-1.01,0.46-1.63c0-0.6-0.15-1.14-0.45-1.61c-0.3-0.47-0.72-0.84-1.26-1.09c-0.54-0.26-1.16-0.38-1.85-0.38
			c-0.71,0-1.33,0.13-1.86,0.38c-0.53,0.26-0.95,0.62-1.25,1.09c-0.3,0.47-0.45,1.01-0.45,1.61c0,0.61,0.15,1.15,0.46,1.63
			c0.31,0.47,0.73,0.84,1.26,1.12c0.54,0.27,1.15,0.41,1.84,0.41C152.58,395.6,153.19,395.46,153.73,395.19z"/>
		<path class="st2" d="M161.28,408.04l7.54-21.39h4.74l7.54,21.39h-4.11l-5.72-17.02h-0.18l-5.72,17.02H161.28z M176.81,399.65v3.09
			h-11.27v-3.09H176.81z"/>
	</g>
</g>
<g>
	<g>
		<path class="st2" d="M53.35,446.82l7.55-7.27c0.82-0.83,1.45-1.51,1.91-2.04s0.8-1.06,1.04-1.57c0.24-0.52,0.36-1.07,0.36-1.65
			c0-0.64-0.16-1.21-0.49-1.7c-0.33-0.49-0.77-0.87-1.32-1.15c-0.56-0.27-1.18-0.41-1.88-0.41c-0.72,0-1.35,0.15-1.89,0.44
			c-0.54,0.29-0.96,0.71-1.26,1.24c-0.3,0.54-0.45,1.17-0.45,1.88h-3.65c-0.01-1.33,0.3-2.5,0.92-3.51c0.62-1.01,1.49-1.79,2.6-2.34
			s2.38-0.83,3.8-0.83c1.43,0,2.7,0.27,3.8,0.8c1.11,0.53,1.97,1.27,2.59,2.2c0.62,0.94,0.92,2,0.92,3.19
			c-0.01,0.83-0.17,1.62-0.48,2.39c-0.31,0.77-0.85,1.62-1.63,2.56c-0.77,0.94-1.86,2.06-3.26,3.38l-3.81,3.78v0.16h9.5v3.22H53.37
			L53.35,446.82z"/>
		<path class="st2" d="M70.83,446.82l7.55-7.27c0.82-0.83,1.45-1.51,1.91-2.04s0.8-1.06,1.04-1.57c0.24-0.52,0.36-1.07,0.36-1.65
			c0-0.64-0.16-1.21-0.49-1.7c-0.33-0.49-0.77-0.87-1.32-1.15c-0.56-0.27-1.18-0.41-1.88-0.41c-0.72,0-1.35,0.15-1.89,0.44
			c-0.54,0.29-0.96,0.71-1.26,1.24c-0.3,0.54-0.45,1.17-0.45,1.88h-3.65c-0.01-1.33,0.3-2.5,0.92-3.51c0.62-1.01,1.49-1.79,2.6-2.34
			s2.38-0.83,3.8-0.83c1.43,0,2.7,0.27,3.8,0.8c1.11,0.53,1.97,1.27,2.59,2.2c0.62,0.94,0.92,2,0.92,3.19
			c-0.01,0.83-0.17,1.62-0.48,2.39c-0.31,0.77-0.85,1.62-1.63,2.56c-0.77,0.94-1.86,2.06-3.26,3.38l-3.81,3.78v0.16h9.5v3.22H70.84
			L70.83,446.82z"/>
		<path class="st2" d="M92.17,448.88c-1.25-0.67-2.27-1.78-3.04-3.32c-0.78-1.54-1.16-3.55-1.15-6.04c0-2.42,0.35-4.51,1.06-6.25
			c0.7-1.74,1.7-3.07,2.98-3.98s2.79-1.37,4.54-1.37c1.34,0,2.55,0.26,3.63,0.78c1.08,0.52,1.95,1.24,2.6,2.17
			c0.65,0.93,1.06,1.96,1.22,3.12h-3.8c-0.14-0.56-0.37-1.05-0.69-1.46c-0.33-0.41-0.74-0.72-1.24-0.94s-1.07-0.33-1.71-0.33
			c-1.03,0-1.91,0.29-2.63,0.86c-0.72,0.58-1.27,1.41-1.64,2.5c-0.37,1.09-0.56,2.39-0.56,3.89h0.21c0.35-0.62,0.81-1.16,1.37-1.6
			s1.19-0.79,1.89-1.01c0.7-0.23,1.44-0.34,2.22-0.34c1.27,0,2.42,0.3,3.46,0.9c1.03,0.6,1.85,1.43,2.45,2.49s0.89,2.25,0.89,3.58
			c0,1.41-0.33,2.67-0.98,3.79c-0.66,1.12-1.58,2-2.78,2.64c-1.2,0.64-2.57,0.96-4.11,0.95C94.81,449.9,93.43,449.55,92.17,448.88z
			 M98.43,446.23c0.64-0.37,1.14-0.87,1.5-1.51c0.36-0.64,0.55-1.34,0.55-2.11c0-0.76-0.18-1.45-0.53-2.08
			c-0.35-0.63-0.85-1.13-1.48-1.49c-0.63-0.36-1.34-0.55-2.13-0.55c-0.78,0-1.48,0.18-2.12,0.55s-1.14,0.87-1.52,1.51
			c-0.38,0.64-0.57,1.33-0.58,2.07c0,0.75,0.19,1.44,0.56,2.07c0.37,0.63,0.88,1.14,1.51,1.51s1.34,0.57,2.13,0.57
			C97.09,446.79,97.8,446.6,98.43,446.23z"/>
		<path class="st2" d="M108.56,455.79h-2.81l1.52-8.29h3.77L108.56,455.79z"/>
		<path class="st2" d="M129.47,449.61h-3.87v-17.64h-0.12l-5.01,3.21v-3.53l5.3-3.43h3.69V449.61z"/>
		<path class="st2" d="M137.65,449.14c-1.19-0.51-2.12-1.23-2.81-2.17c-0.68-0.93-1.04-1.99-1.07-3.17h3.89
			c0.03,0.57,0.23,1.07,0.59,1.5c0.36,0.43,0.84,0.76,1.43,1c0.59,0.24,1.26,0.35,1.99,0.35c0.79,0,1.49-0.13,2.11-0.4
			c0.62-0.27,1.1-0.64,1.45-1.12c0.34-0.48,0.51-1.03,0.5-1.66c0-0.65-0.17-1.23-0.52-1.73s-0.85-0.89-1.53-1.17
			c-0.67-0.28-1.47-0.42-2.39-0.42h-1.91v-2.97h1.91c0.75,0,1.42-0.13,2.01-0.39s1.05-0.63,1.37-1.1c0.32-0.47,0.48-1.01,0.48-1.62
			c0-0.59-0.14-1.12-0.42-1.57s-0.68-0.81-1.2-1.07c-0.52-0.26-1.12-0.38-1.81-0.38c-0.68,0.01-1.31,0.13-1.88,0.37
			s-1.03,0.58-1.39,1.02s-0.54,0.96-0.56,1.55h-3.71c0.03-1.18,0.38-2.23,1.06-3.15c0.67-0.92,1.58-1.63,2.71-2.14
			c1.13-0.51,2.39-0.76,3.78-0.76c1.42,0,2.67,0.26,3.75,0.79c1.08,0.53,1.91,1.24,2.5,2.14s0.88,1.9,0.87,2.99
			c0.01,0.79-0.15,1.5-0.47,2.14c-0.32,0.64-0.78,1.17-1.38,1.6c-0.6,0.42-1.29,0.72-2.07,0.89v0.16c0.99,0.14,1.85,0.43,2.56,0.88
			c0.71,0.45,1.25,1.03,1.62,1.74c0.36,0.71,0.55,1.52,0.55,2.42c0,1.18-0.34,2.25-1.03,3.19c-0.69,0.95-1.64,1.69-2.85,2.23
			c-1.22,0.54-2.59,0.81-4.12,0.81C140.18,449.91,138.83,449.65,137.65,449.14z"/>
		<path class="st2" d="M155.85,449.12c-1.23-0.52-2.19-1.24-2.89-2.15c-0.69-0.91-1.04-1.94-1.04-3.09c0-0.89,0.2-1.71,0.61-2.48
			c0.4-0.77,0.96-1.4,1.65-1.91c0.7-0.5,1.47-0.82,2.32-0.95v-0.13c-0.74-0.16-1.39-0.46-1.96-0.92s-1.01-1.01-1.33-1.68
			c-0.32-0.67-0.48-1.39-0.48-2.16c0-1.08,0.32-2.06,0.95-2.93c0.63-0.87,1.5-1.56,2.61-2.05c1.11-0.5,2.36-0.75,3.76-0.75
			c1.38,0,2.62,0.25,3.74,0.75c1.11,0.5,1.99,1.18,2.62,2.05c0.64,0.87,0.95,1.85,0.95,2.93c0,0.77-0.16,1.49-0.49,2.16
			s-0.77,1.23-1.34,1.68c-0.57,0.45-1.22,0.76-1.95,0.92v0.13c0.84,0.13,1.61,0.44,2.31,0.95c0.7,0.5,1.26,1.14,1.67,1.91
			s0.61,1.6,0.61,2.48c0,1.15-0.35,2.18-1.04,3.09c-0.69,0.91-1.66,1.63-2.9,2.15c-1.24,0.52-2.64,0.78-4.18,0.78
			C158.48,449.91,157.09,449.64,155.85,449.12z M162.23,446.44c0.62-0.28,1.11-0.67,1.46-1.17c0.34-0.5,0.52-1.08,0.52-1.74
			s-0.18-1.26-0.53-1.79c-0.35-0.54-0.85-0.96-1.48-1.26s-1.35-0.46-2.14-0.46c-0.8,0-1.51,0.15-2.13,0.45
			c-0.63,0.3-1.12,0.72-1.48,1.26c-0.36,0.54-0.54,1.14-0.54,1.81c0,0.65,0.17,1.22,0.51,1.72c0.34,0.5,0.82,0.89,1.45,1.17
			c0.63,0.29,1.36,0.43,2.19,0.43C160.88,446.86,161.6,446.72,162.23,446.44z M161.88,436.76c0.54-0.27,0.96-0.64,1.27-1.12
			c0.31-0.47,0.46-1.01,0.46-1.63c0-0.6-0.15-1.14-0.45-1.61c-0.3-0.47-0.72-0.84-1.26-1.09c-0.54-0.26-1.16-0.38-1.85-0.38
			c-0.71,0-1.33,0.13-1.86,0.38c-0.53,0.26-0.95,0.62-1.25,1.09c-0.3,0.47-0.45,1.01-0.45,1.61c0,0.61,0.15,1.15,0.46,1.63
			c0.31,0.47,0.73,0.84,1.26,1.12c0.54,0.27,1.15,0.41,1.84,0.41C160.73,437.17,161.34,437.03,161.88,436.76z"/>
		<path class="st2" d="M172.46,455.79h-2.81l1.52-8.29h3.77L172.46,455.79z"/>
		<path class="st2" d="M193.37,449.61h-3.87v-17.64h-0.12l-5.01,3.21v-3.53l5.3-3.43h3.69V449.61z"/>
		<path class="st2" d="M201.55,449.14c-1.19-0.51-2.12-1.23-2.81-2.17c-0.68-0.93-1.04-1.99-1.07-3.17h3.89
			c0.03,0.57,0.23,1.07,0.59,1.5c0.36,0.43,0.84,0.76,1.43,1c0.59,0.24,1.26,0.35,1.99,0.35c0.79,0,1.49-0.13,2.11-0.4
			c0.62-0.27,1.1-0.64,1.45-1.12c0.34-0.48,0.51-1.03,0.5-1.66c0-0.65-0.17-1.23-0.52-1.73s-0.85-0.89-1.53-1.17
			c-0.67-0.28-1.47-0.42-2.39-0.42h-1.91v-2.97h1.91c0.75,0,1.42-0.13,2.01-0.39s1.05-0.63,1.37-1.1c0.32-0.47,0.48-1.01,0.48-1.62
			c0-0.59-0.14-1.12-0.42-1.57s-0.68-0.81-1.2-1.07c-0.52-0.26-1.12-0.38-1.81-0.38c-0.68,0.01-1.31,0.13-1.88,0.37
			s-1.03,0.58-1.39,1.02s-0.54,0.96-0.56,1.55h-3.71c0.03-1.18,0.38-2.23,1.06-3.15c0.67-0.92,1.58-1.63,2.71-2.14
			c1.13-0.51,2.39-0.76,3.78-0.76c1.42,0,2.67,0.26,3.75,0.79c1.08,0.53,1.91,1.24,2.5,2.14s0.88,1.9,0.87,2.99
			c0.01,0.79-0.15,1.5-0.47,2.14c-0.32,0.64-0.78,1.17-1.38,1.6c-0.6,0.42-1.29,0.72-2.07,0.89v0.16c0.99,0.14,1.85,0.43,2.56,0.88
			c0.71,0.45,1.25,1.03,1.62,1.74c0.36,0.71,0.55,1.52,0.55,2.42c0,1.18-0.34,2.25-1.03,3.19c-0.69,0.95-1.64,1.69-2.85,2.23
			c-1.22,0.54-2.59,0.81-4.12,0.81C204.08,449.91,202.74,449.65,201.55,449.14z"/>
		<path class="st2" d="M219.76,449.12c-1.23-0.52-2.19-1.24-2.89-2.15c-0.69-0.91-1.04-1.94-1.04-3.09c0-0.89,0.2-1.71,0.61-2.48
			c0.4-0.77,0.96-1.4,1.65-1.91c0.7-0.5,1.47-0.82,2.32-0.95v-0.13c-0.74-0.16-1.39-0.46-1.96-0.92s-1.01-1.01-1.33-1.68
			c-0.32-0.67-0.48-1.39-0.48-2.16c0-1.08,0.32-2.06,0.95-2.93c0.63-0.87,1.5-1.56,2.61-2.05c1.11-0.5,2.36-0.75,3.76-0.75
			c1.38,0,2.62,0.25,3.74,0.75c1.11,0.5,1.99,1.18,2.62,2.05c0.64,0.87,0.95,1.85,0.95,2.93c0,0.77-0.16,1.49-0.49,2.16
			s-0.77,1.23-1.34,1.68c-0.57,0.45-1.22,0.76-1.95,0.92v0.13c0.84,0.13,1.61,0.44,2.31,0.95c0.7,0.5,1.26,1.14,1.67,1.91
			s0.61,1.6,0.61,2.48c0,1.15-0.35,2.18-1.04,3.09c-0.69,0.91-1.66,1.63-2.9,2.15c-1.24,0.52-2.64,0.78-4.18,0.78
			C222.39,449.91,220.99,449.64,219.76,449.12z M226.13,446.44c0.62-0.28,1.11-0.67,1.46-1.17c0.34-0.5,0.52-1.08,0.52-1.74
			s-0.18-1.26-0.53-1.79c-0.35-0.54-0.85-0.96-1.48-1.26s-1.35-0.46-2.14-0.46c-0.8,0-1.51,0.15-2.13,0.45
			c-0.63,0.3-1.12,0.72-1.48,1.26c-0.36,0.54-0.54,1.14-0.54,1.81c0,0.65,0.17,1.22,0.51,1.72c0.34,0.5,0.82,0.89,1.45,1.17
			c0.63,0.29,1.36,0.43,2.19,0.43C224.78,446.86,225.51,446.72,226.13,446.44z M225.79,436.76c0.54-0.27,0.96-0.64,1.27-1.12
			c0.31-0.47,0.46-1.01,0.46-1.63c0-0.6-0.15-1.14-0.45-1.61c-0.3-0.47-0.72-0.84-1.26-1.09c-0.54-0.26-1.16-0.38-1.85-0.38
			c-0.71,0-1.33,0.13-1.86,0.38c-0.53,0.26-0.95,0.62-1.25,1.09c-0.3,0.47-0.45,1.01-0.45,1.61c0,0.61,0.15,1.15,0.46,1.63
			c0.31,0.47,0.73,0.84,1.26,1.12c0.54,0.27,1.15,0.41,1.84,0.41C224.63,437.17,225.24,437.03,225.79,436.76z"/>
	</g>
</g>
<circle class="st2" cx="57.5" cy="358.22" r="3.73"/>
<circle class="st2" cx="68.81" cy="358.22" r="3.73"/>
<circle class="st2" cx="80.12" cy="358.22" r="3.73"/>
</svg>
