<?xml version="1.0" encoding="utf-8"?>
<!-- Generator: Adobe Illustrator 26.3.1, SVG Export Plug-In . SVG Version: 6.00 Build 0)  -->
<svg version="1.1" id="레이어_1" xmlns="http://www.w3.org/2000/svg" xmlns:xlink="http://www.w3.org/1999/xlink" x="0px"
	 y="0px" viewBox="0 0 500 500" style="enable-background:new 0 0 500 500;" xml:space="preserve">
<style type="text/css">
	.st0{fill:#E28A8A;}
	.st1{fill:#1F84FF;}
	.st2{fill:#FFFFFF;}
	.st3{fill:#8FA9D8;}
	.st4{fill:#78C1A0;}
	.st5{fill:#D9F3FC;}
	.st6{fill:#202A45;}
	.st7{fill:#303030;}
	.st8{fill:#719BD8;}
	.st9{fill:#29B8FF;}
	.st10{fill:#E8C27E;}
	.st11{fill:#8E77C6;}
	.st12{fill:#EFABAB;}
	.st13{fill:#676D99;}
	.st14{fill:#ECECEC;}
	.st15{fill:#222222;}
</style>
<rect class="st13" width="500" height="500"/>
<g>
	<g>
		<path class="st2" d="M52.3,399.62h16.45l-0.49,2.9H51.82L52.3,399.62z M53.53,392.17h16.46l-0.49,2.9H53.06L53.53,392.17z
			 M57.43,386.64h2.91l-3.5,21.39h-2.92L57.43,386.64z M64.96,386.64h2.91l-3.52,21.39h-2.91L64.96,386.64z"/>
		<path class="st2" d="M75.11,407.31c-1.25-0.67-2.27-1.78-3.04-3.32s-1.16-3.55-1.15-6.04c0-2.42,0.35-4.51,1.06-6.25
			c0.71-1.74,1.7-3.07,2.98-3.98s2.79-1.37,4.54-1.37c1.34,0,2.55,0.26,3.63,0.78c1.08,0.52,1.95,1.24,2.6,2.17s1.06,1.96,1.22,3.12
			h-3.8c-0.14-0.56-0.37-1.05-0.69-1.46c-0.33-0.41-0.74-0.72-1.24-0.94s-1.07-0.33-1.71-0.33c-1.03,0-1.91,0.29-2.63,0.86
			c-0.72,0.58-1.27,1.41-1.64,2.5c-0.38,1.09-0.56,2.39-0.56,3.89h0.21c0.36-0.62,0.81-1.16,1.38-1.6c0.56-0.45,1.19-0.79,1.89-1.01
			s1.44-0.34,2.22-0.34c1.27,0,2.42,0.3,3.46,0.9c1.03,0.6,1.85,1.43,2.45,2.49c0.6,1.06,0.89,2.25,0.89,3.58
			c0,1.41-0.33,2.67-0.98,3.79s-1.58,2-2.78,2.64c-1.2,0.64-2.57,0.96-4.11,0.95C77.75,408.32,76.36,407.98,75.11,407.31z
			 M81.37,404.66c0.64-0.37,1.14-0.87,1.5-1.51c0.37-0.64,0.55-1.34,0.55-2.11c0-0.76-0.18-1.45-0.53-2.08
			c-0.36-0.63-0.85-1.13-1.48-1.49c-0.63-0.36-1.34-0.55-2.13-0.55c-0.78,0-1.48,0.18-2.12,0.55s-1.14,0.87-1.52,1.51
			c-0.38,0.64-0.57,1.33-0.58,2.07c0,0.75,0.19,1.44,0.56,2.07c0.37,0.63,0.88,1.14,1.51,1.51s1.34,0.57,2.13,0.57
			C80.03,405.22,80.73,405.03,81.37,404.66z"/>
		<path class="st2" d="M99.72,390v-0.13H88.95v-3.22h14.76v3.29l-9.28,18.1h-3.99L99.72,390z"/>
		<path class="st2" d="M109.93,407.31c-1.25-0.67-2.27-1.78-3.04-3.32s-1.16-3.55-1.15-6.04c0-2.42,0.35-4.51,1.06-6.25
			c0.71-1.74,1.7-3.07,2.98-3.98s2.79-1.37,4.54-1.37c1.34,0,2.55,0.26,3.63,0.78c1.08,0.52,1.95,1.24,2.6,2.17s1.06,1.96,1.22,3.12
			h-3.8c-0.14-0.56-0.37-1.05-0.69-1.46c-0.33-0.41-0.74-0.72-1.24-0.94s-1.07-0.33-1.71-0.33c-1.03,0-1.91,0.29-2.63,0.86
			c-0.72,0.58-1.27,1.41-1.64,2.5c-0.38,1.09-0.56,2.39-0.56,3.89h0.21c0.36-0.62,0.81-1.16,1.38-1.6c0.56-0.45,1.19-0.79,1.89-1.01
			s1.44-0.34,2.22-0.34c1.27,0,2.42,0.3,3.46,0.9c1.03,0.6,1.85,1.43,2.45,2.49c0.6,1.06,0.89,2.25,0.89,3.58
			c0,1.41-0.33,2.67-0.98,3.79s-1.58,2-2.78,2.64c-1.2,0.64-2.57,0.96-4.11,0.95C112.57,408.32,111.18,407.98,109.93,407.31z
			 M116.19,404.66c0.64-0.37,1.14-0.87,1.5-1.51c0.37-0.64,0.55-1.34,0.55-2.11c0-0.76-0.18-1.45-0.53-2.08
			c-0.36-0.63-0.85-1.13-1.48-1.49c-0.63-0.36-1.34-0.55-2.13-0.55c-0.78,0-1.48,0.18-2.12,0.55s-1.14,0.87-1.52,1.51
			c-0.38,0.64-0.57,1.33-0.58,2.07c0,0.75,0.19,1.44,0.56,2.07c0.37,0.63,0.88,1.14,1.51,1.51s1.34,0.57,2.13,0.57
			C114.85,405.22,115.55,405.03,116.19,404.66z"/>
		<path class="st2" d="M128.53,408.04h-3.84v-21.39h3.84V408.04z M126.51,408.04v-3.34h5.23c1.5,0,2.74-0.28,3.74-0.83
			c0.99-0.55,1.74-1.37,2.25-2.46c0.5-1.09,0.75-2.45,0.75-4.08s-0.25-3-0.75-4.08c-0.5-1.09-1.24-1.91-2.22-2.45
			c-0.98-0.55-2.2-0.81-3.66-0.8h-5.47v-3.34h5.67c2.12,0,3.95,0.42,5.48,1.27c1.54,0.85,2.71,2.08,3.53,3.69
			c0.82,1.61,1.23,3.52,1.23,5.73c0,2.22-0.41,4.13-1.23,5.73s-2.01,2.84-3.57,3.69c-1.56,0.86-3.41,1.29-5.57,1.29H126.51z"/>
		<path class="st2" d="M156.51,387.37c1.25,0.67,2.26,1.77,3.04,3.31c0.77,1.54,1.16,3.54,1.16,6.01c0,2.42-0.35,4.51-1.03,6.26
			c-0.69,1.75-1.68,3.08-2.98,4s-2.81,1.38-4.56,1.38c-1.36,0-2.57-0.26-3.64-0.79c-1.07-0.53-1.93-1.25-2.59-2.16
			c-0.66-0.92-1.06-1.97-1.22-3.15h3.78c0.14,0.56,0.38,1.05,0.71,1.46s0.75,0.73,1.25,0.96s1.07,0.34,1.71,0.34
			c1.03,0,1.9-0.29,2.62-0.87c0.72-0.58,1.27-1.42,1.65-2.51c0.37-1.09,0.57-2.4,0.58-3.93h-0.22c-0.35,0.61-0.81,1.14-1.37,1.57
			c-0.56,0.44-1.19,0.78-1.89,1.01s-1.45,0.35-2.22,0.35c-1.27,0-2.42-0.3-3.45-0.89c-1.03-0.6-1.84-1.42-2.45-2.48
			c-0.6-1.05-0.9-2.24-0.9-3.56c0-1.4,0.33-2.66,0.98-3.77c0.65-1.12,1.58-2,2.78-2.63c1.2-0.64,2.57-0.95,4.13-0.94
			C153.88,386.36,155.26,386.7,156.51,387.37z M150.25,390.01c-0.64,0.37-1.14,0.87-1.5,1.51c-0.36,0.63-0.54,1.33-0.53,2.08
			c0,0.76,0.18,1.45,0.53,2.08c0.35,0.63,0.84,1.12,1.46,1.49c0.62,0.36,1.32,0.55,2.11,0.55c0.77,0,1.47-0.19,2.12-0.58
			c0.65-0.38,1.16-0.89,1.53-1.52c0.38-0.63,0.56-1.31,0.56-2.04c0-0.73-0.18-1.41-0.55-2.04c-0.37-0.63-0.86-1.13-1.49-1.51
			c-0.63-0.37-1.34-0.56-2.13-0.56C151.6,389.45,150.89,389.64,150.25,390.01z"/>
		<path class="st2" d="M174.92,387.37c1.25,0.67,2.26,1.77,3.04,3.31c0.77,1.54,1.16,3.54,1.16,6.01c0,2.42-0.34,4.51-1.03,6.26
			c-0.69,1.75-1.68,3.08-2.98,4c-1.29,0.92-2.81,1.38-4.56,1.38c-1.36,0-2.57-0.26-3.64-0.79c-1.07-0.53-1.93-1.25-2.59-2.16
			s-1.06-1.97-1.22-3.15h3.78c0.14,0.56,0.37,1.05,0.71,1.46c0.33,0.41,0.75,0.73,1.25,0.96c0.5,0.23,1.07,0.34,1.71,0.34
			c1.02,0,1.9-0.29,2.62-0.87c0.72-0.58,1.27-1.42,1.65-2.51c0.37-1.09,0.57-2.4,0.58-3.93h-0.22c-0.35,0.61-0.81,1.14-1.37,1.57
			c-0.56,0.44-1.19,0.78-1.89,1.01c-0.7,0.24-1.45,0.35-2.22,0.35c-1.27,0-2.42-0.3-3.45-0.89c-1.03-0.6-1.84-1.42-2.45-2.48
			c-0.6-1.05-0.9-2.24-0.9-3.56c0-1.4,0.33-2.66,0.98-3.77c0.66-1.12,1.58-2,2.78-2.63c1.2-0.64,2.57-0.95,4.13-0.94
			C172.29,386.36,173.67,386.7,174.92,387.37z M168.66,390.01c-0.63,0.37-1.13,0.87-1.5,1.51c-0.36,0.63-0.54,1.33-0.53,2.08
			c0,0.76,0.18,1.45,0.53,2.08c0.36,0.63,0.84,1.12,1.46,1.49c0.62,0.36,1.33,0.55,2.11,0.55c0.77,0,1.47-0.19,2.12-0.58
			c0.65-0.38,1.16-0.89,1.53-1.52c0.37-0.63,0.56-1.31,0.56-2.04c0-0.73-0.18-1.41-0.55-2.04c-0.36-0.63-0.86-1.13-1.49-1.51
			s-1.34-0.56-2.13-0.56C170,389.45,169.3,389.64,168.66,390.01z"/>
	</g>
</g>
<g>
	<g>
		<path class="st2" d="M62.04,449.61h-3.87v-17.64h-0.12l-5.01,3.21v-3.53l5.3-3.43h3.69V449.61z"/>
		<path class="st2" d="M69.96,448.61c-1.23-0.86-2.17-2.11-2.82-3.75c-0.66-1.64-0.98-3.62-0.98-5.95c0-2.3,0.33-4.28,0.98-5.93
			c0.66-1.65,1.6-2.91,2.82-3.77c1.23-0.86,2.7-1.29,4.41-1.29c1.7,0,3.16,0.43,4.4,1.29c1.24,0.86,2.19,2.12,2.84,3.77
			c0.65,1.65,0.98,3.63,0.98,5.93c0,2.33-0.32,4.31-0.97,5.95c-0.65,1.65-1.59,2.9-2.82,3.75c-1.24,0.86-2.71,1.29-4.43,1.29
			C72.66,449.91,71.19,449.47,69.96,448.61z M76.7,445.79c0.65-0.59,1.15-1.46,1.49-2.62s0.51-2.58,0.51-4.26
			c0-1.67-0.18-3.09-0.53-4.26c-0.35-1.17-0.85-2.05-1.49-2.64c-0.64-0.6-1.42-0.89-2.31-0.89c-0.9,0-1.67,0.3-2.31,0.89
			s-1.15,1.48-1.5,2.64c-0.36,1.17-0.53,2.59-0.53,4.26c0,1.68,0.18,3.11,0.53,4.26c0.35,1.16,0.85,2.03,1.49,2.62
			c0.64,0.59,1.41,0.88,2.32,0.88C75.27,446.67,76.04,446.38,76.7,445.79z"/>
		<path class="st2" d="M88.78,449.14c-1.19-0.51-2.12-1.23-2.81-2.17c-0.68-0.93-1.04-1.99-1.07-3.17h3.88
			c0.03,0.57,0.23,1.07,0.59,1.5c0.36,0.43,0.84,0.76,1.43,1s1.26,0.35,2,0.35c0.79,0,1.49-0.13,2.11-0.4
			c0.62-0.27,1.1-0.64,1.45-1.12c0.34-0.48,0.51-1.03,0.5-1.66c0-0.65-0.17-1.23-0.52-1.73c-0.34-0.5-0.85-0.89-1.53-1.17
			c-0.67-0.28-1.47-0.42-2.39-0.42h-1.91v-2.97h1.91c0.75,0,1.42-0.13,2.01-0.39s1.05-0.63,1.37-1.1s0.48-1.01,0.48-1.62
			c0-0.59-0.14-1.12-0.42-1.57s-0.68-0.81-1.2-1.07c-0.52-0.26-1.12-0.38-1.81-0.38c-0.68,0.01-1.3,0.13-1.88,0.37
			c-0.57,0.24-1.03,0.58-1.39,1.02c-0.35,0.44-0.54,0.96-0.56,1.55h-3.71c0.03-1.18,0.38-2.23,1.06-3.15
			c0.67-0.92,1.58-1.63,2.71-2.14c1.13-0.51,2.39-0.76,3.78-0.76c1.42,0,2.67,0.26,3.75,0.79c1.08,0.53,1.91,1.24,2.5,2.14
			s0.88,1.9,0.87,2.99c0.01,0.79-0.15,1.5-0.47,2.14c-0.32,0.64-0.78,1.17-1.38,1.6c-0.6,0.42-1.29,0.72-2.07,0.89v0.16
			c1,0.14,1.85,0.43,2.56,0.88c0.71,0.45,1.25,1.03,1.62,1.74c0.36,0.71,0.55,1.52,0.55,2.42c0,1.18-0.34,2.25-1.03,3.19
			s-1.63,1.69-2.85,2.23c-1.22,0.54-2.59,0.81-4.12,0.81C91.32,449.91,89.97,449.65,88.78,449.14z"/>
		<path class="st2" d="M105.26,455.79h-2.81l1.52-8.29h3.77L105.26,455.79z"/>
		<path class="st2" d="M126.18,449.61h-3.87v-17.64h-0.12l-5.01,3.21v-3.53l5.3-3.43h3.69V449.61z"/>
		<path class="st2" d="M134.1,448.61c-1.23-0.86-2.17-2.11-2.82-3.75c-0.65-1.64-0.98-3.62-0.98-5.95c0-2.3,0.33-4.28,0.98-5.93
			c0.66-1.65,1.6-2.91,2.82-3.77c1.23-0.86,2.7-1.29,4.41-1.29c1.69,0,3.16,0.43,4.4,1.29c1.24,0.86,2.19,2.12,2.84,3.77
			c0.65,1.65,0.97,3.63,0.97,5.93c0,2.33-0.32,4.31-0.97,5.95c-0.65,1.65-1.59,2.9-2.82,3.75c-1.24,0.86-2.71,1.29-4.43,1.29
			C136.8,449.91,135.33,449.47,134.1,448.61z M140.84,445.79c0.66-0.59,1.15-1.46,1.49-2.62c0.34-1.16,0.51-2.58,0.51-4.26
			c0-1.67-0.17-3.09-0.52-4.26c-0.35-1.17-0.85-2.05-1.49-2.64s-1.42-0.89-2.31-0.89s-1.67,0.3-2.31,0.89
			c-0.64,0.6-1.14,1.48-1.5,2.64c-0.35,1.17-0.53,2.59-0.53,4.26c0,1.68,0.18,3.11,0.53,4.26s0.85,2.03,1.49,2.62
			c0.64,0.59,1.41,0.88,2.32,0.88C139.41,446.67,140.18,446.38,140.84,445.79z"/>
		<path class="st2" d="M160.94,428.94c1.25,0.67,2.26,1.77,3.04,3.31c0.77,1.54,1.16,3.54,1.16,6.01c0,2.42-0.34,4.51-1.03,6.26
			s-1.68,3.08-2.98,4s-2.81,1.38-4.56,1.38c-1.36,0-2.57-0.26-3.64-0.79c-1.07-0.53-1.93-1.25-2.59-2.16
			c-0.65-0.92-1.06-1.97-1.22-3.15h3.78c0.14,0.56,0.37,1.05,0.71,1.46c0.33,0.41,0.75,0.73,1.25,0.96c0.5,0.23,1.07,0.34,1.71,0.34
			c1.02,0,1.9-0.29,2.62-0.87s1.27-1.42,1.65-2.51c0.38-1.09,0.57-2.4,0.58-3.93h-0.22c-0.36,0.61-0.81,1.14-1.37,1.57
			c-0.56,0.44-1.19,0.78-1.89,1.01s-1.45,0.35-2.22,0.35c-1.27,0-2.42-0.3-3.45-0.89c-1.03-0.6-1.85-1.42-2.45-2.48
			c-0.6-1.05-0.9-2.24-0.9-3.56c0-1.4,0.33-2.66,0.98-3.77c0.66-1.12,1.58-2,2.78-2.63c1.2-0.64,2.57-0.95,4.13-0.94
			C158.31,427.93,159.69,428.27,160.94,428.94z M154.68,431.58c-0.63,0.37-1.13,0.87-1.5,1.51c-0.36,0.63-0.54,1.33-0.53,2.08
			c0,0.76,0.18,1.45,0.53,2.08c0.35,0.63,0.84,1.12,1.46,1.49c0.62,0.36,1.33,0.55,2.11,0.55c0.77,0,1.47-0.19,2.12-0.58
			c0.64-0.38,1.15-0.89,1.53-1.52c0.37-0.63,0.56-1.31,0.56-2.04c0-0.73-0.18-1.41-0.55-2.04c-0.36-0.63-0.86-1.13-1.49-1.51
			c-0.63-0.37-1.34-0.56-2.13-0.56C156.02,431.02,155.32,431.21,154.68,431.58z"/>
		<path class="st2" d="M169.45,455.79h-2.81l1.52-8.29h3.77L169.45,455.79z"/>
		<path class="st2" d="M190.36,449.61h-3.87v-17.64h-0.12l-5.01,3.21v-3.53l5.3-3.43h3.69V449.61z"/>
		<path class="st2" d="M198.59,449.12c-1.13-0.53-2.03-1.25-2.68-2.17s-1-1.97-1.04-3.14h3.74c0.04,0.57,0.23,1.08,0.58,1.54
			s0.8,0.81,1.37,1.07c0.56,0.26,1.18,0.39,1.85,0.38c0.79,0,1.49-0.18,2.11-0.53c0.62-0.36,1.11-0.84,1.46-1.46
			c0.35-0.62,0.53-1.33,0.53-2.11c0-0.8-0.18-1.51-0.54-2.15c-0.36-0.64-0.86-1.13-1.5-1.49c-0.64-0.36-1.37-0.54-2.19-0.54
			c-0.85-0.01-1.57,0.13-2.16,0.44c-0.59,0.3-1.05,0.77-1.39,1.4h-3.56l1.29-12.12h12.63v3.22h-9.46l-0.65,5.69h0.18
			c0.43-0.48,1.02-0.88,1.76-1.17c0.74-0.3,1.54-0.46,2.41-0.47c1.3,0,2.48,0.3,3.54,0.91c1.06,0.61,1.88,1.45,2.48,2.53
			c0.6,1.08,0.89,2.3,0.89,3.65c0,1.41-0.33,2.67-1,3.78c-0.67,1.11-1.6,1.98-2.79,2.61c-1.19,0.63-2.54,0.94-4.06,0.94
			C200.99,449.91,199.72,449.64,198.59,449.12z"/>
		<path class="st2" d="M216.46,449.14c-1.19-0.51-2.12-1.23-2.81-2.17c-0.68-0.93-1.04-1.99-1.07-3.17h3.89
			c0.03,0.57,0.23,1.07,0.59,1.5c0.36,0.43,0.84,0.76,1.43,1c0.59,0.24,1.26,0.35,1.99,0.35c0.79,0,1.49-0.13,2.11-0.4
			c0.62-0.27,1.1-0.64,1.45-1.12c0.35-0.48,0.51-1.03,0.5-1.66c0-0.65-0.17-1.23-0.52-1.73s-0.85-0.89-1.53-1.17
			c-0.68-0.28-1.47-0.42-2.39-0.42h-1.91v-2.97h1.91c0.75,0,1.42-0.13,2.01-0.39c0.59-0.26,1.05-0.63,1.37-1.1
			c0.32-0.47,0.48-1.01,0.48-1.62c0-0.59-0.14-1.12-0.42-1.57c-0.28-0.46-0.68-0.81-1.2-1.07c-0.52-0.26-1.12-0.38-1.81-0.38
			c-0.68,0.01-1.3,0.13-1.88,0.37s-1.03,0.58-1.39,1.02s-0.54,0.96-0.56,1.55H213c0.03-1.18,0.38-2.23,1.06-3.15
			c0.67-0.92,1.58-1.63,2.71-2.14c1.13-0.51,2.39-0.76,3.78-0.76c1.42,0,2.67,0.26,3.75,0.79c1.08,0.53,1.91,1.24,2.5,2.14
			c0.59,0.9,0.88,1.9,0.87,2.99c0.01,0.79-0.14,1.5-0.46,2.14c-0.32,0.64-0.78,1.17-1.38,1.6c-0.6,0.42-1.29,0.72-2.07,0.89v0.16
			c1,0.14,1.85,0.43,2.56,0.88c0.71,0.45,1.25,1.03,1.62,1.74c0.37,0.71,0.55,1.52,0.55,2.42c0,1.18-0.34,2.25-1.03,3.19
			s-1.64,1.69-2.85,2.23c-1.22,0.54-2.59,0.81-4.12,0.81C218.99,449.91,217.64,449.65,216.46,449.14z"/>
	</g>
</g>
<circle class="st2" cx="57.5" cy="358.22" r="3.73"/>
<circle class="st2" cx="68.81" cy="358.22" r="3.73"/>
<circle class="st2" cx="80.12" cy="358.22" r="3.73"/>
</svg>
