<?xml version="1.0" encoding="utf-8"?>
<!-- Generator: Adobe Illustrator 26.3.1, SVG Export Plug-In . SVG Version: 6.00 Build 0)  -->
<svg version="1.1" id="레이어_1" xmlns="http://www.w3.org/2000/svg" xmlns:xlink="http://www.w3.org/1999/xlink" x="0px"
	 y="0px" viewBox="0 0 500 500" style="enable-background:new 0 0 500 500;" xml:space="preserve">
<style type="text/css">
	.st0{fill:#E28A8A;}
	.st1{fill:#1F84FF;}
	.st2{fill:#FFFFFF;}
	.st3{fill:#8FA9D8;}
	.st4{fill:#78C1A0;}
	.st5{fill:#D9F3FC;}
	.st6{fill:#202A45;}
	.st7{fill:#303030;}
	.st8{fill:#719BD8;}
	.st9{fill:#29B8FF;}
	.st10{fill:#E8C27E;}
	.st11{fill:#8E77C6;}
	.st12{fill:#EFABAB;}
	.st13{fill:#676D99;}
	.st14{fill:#ECECEC;}
	.st15{fill:#222222;}
</style>
<rect class="st1" width="500" height="500"/>
<g>
	<g>
		<path class="st2" d="M52.3,399.62h16.44l-0.49,2.9H51.82L52.3,399.62z M53.53,392.17h16.46l-0.49,2.9H53.06L53.53,392.17z
			 M57.43,386.64h2.91l-3.5,21.39h-2.93L57.43,386.64z M64.97,386.64h2.91l-3.52,21.39h-2.91L64.97,386.64z"/>
		<path class="st2" d="M79.93,408.04h-3.87V390.4h-0.12l-5.01,3.21v-3.53l5.3-3.43h3.69V408.04z"/>
		<path class="st2" d="M84.6,386.64h13.7v3.24h-9.85v5.85h8.91v3.21h-8.91v9.1H84.6V386.64z"/>
		<path class="st2" d="M104.15,407.55c-1.23-0.52-2.19-1.24-2.89-2.15c-0.69-0.91-1.04-1.94-1.04-3.09c0-0.89,0.2-1.71,0.61-2.48
			c0.4-0.77,0.96-1.4,1.65-1.91c0.7-0.5,1.47-0.82,2.32-0.95v-0.13c-0.74-0.16-1.39-0.46-1.96-0.92s-1.01-1.01-1.33-1.68
			c-0.32-0.67-0.48-1.39-0.48-2.16c0-1.08,0.32-2.06,0.95-2.93c0.63-0.87,1.5-1.56,2.61-2.05c1.11-0.5,2.36-0.75,3.76-0.75
			c1.38,0,2.62,0.25,3.74,0.75c1.11,0.5,1.99,1.18,2.62,2.05c0.64,0.87,0.95,1.85,0.95,2.93c0,0.77-0.16,1.49-0.49,2.16
			s-0.77,1.23-1.34,1.68c-0.57,0.45-1.22,0.76-1.95,0.92v0.13c0.84,0.13,1.61,0.44,2.31,0.95c0.7,0.5,1.26,1.14,1.67,1.91
			s0.61,1.6,0.61,2.48c0,1.15-0.35,2.18-1.04,3.09c-0.69,0.91-1.66,1.63-2.9,2.15c-1.24,0.52-2.64,0.78-4.18,0.78
			C106.78,408.33,105.39,408.07,104.15,407.55z M110.53,404.87c0.62-0.28,1.11-0.67,1.46-1.17c0.34-0.5,0.52-1.08,0.52-1.74
			s-0.18-1.26-0.53-1.79c-0.35-0.54-0.85-0.96-1.48-1.26s-1.35-0.46-2.14-0.46c-0.8,0-1.51,0.15-2.13,0.45
			c-0.63,0.3-1.12,0.72-1.48,1.26c-0.36,0.54-0.54,1.14-0.54,1.81c0,0.65,0.17,1.22,0.51,1.72c0.34,0.5,0.82,0.89,1.45,1.17
			c0.63,0.29,1.36,0.43,2.19,0.43C109.18,405.29,109.9,405.15,110.53,404.87z M110.18,395.19c0.54-0.27,0.96-0.64,1.27-1.12
			c0.31-0.47,0.46-1.01,0.46-1.63c0-0.6-0.15-1.14-0.45-1.61c-0.3-0.47-0.72-0.84-1.26-1.09c-0.54-0.26-1.16-0.38-1.85-0.38
			c-0.71,0-1.33,0.13-1.86,0.38c-0.53,0.26-0.95,0.62-1.25,1.09c-0.3,0.47-0.45,1.01-0.45,1.61c0,0.61,0.15,1.15,0.46,1.63
			c0.31,0.47,0.73,0.84,1.26,1.12c0.54,0.27,1.15,0.41,1.84,0.41C109.03,395.6,109.64,395.46,110.18,395.19z"/>
		<path class="st2" d="M118.51,400.99l9.25-14.35h2.54v4.37h-1.58l-6.26,9.71v0.18h12.91v3.15h-16.86V400.99z M128.9,403.13
			l0.04-1.39v-15.1h3.63v21.39h-3.68V403.13z"/>
		<path class="st2" d="M137.92,386.64h13.7v3.24h-9.85v5.85h8.91v3.21h-8.91v9.1h-3.84V386.64z"/>
		<path class="st2" d="M154.13,386.64h13.7v3.24h-9.85v5.85h8.91v3.21h-8.91v9.1h-3.84V386.64z"/>
	</g>
</g>
<g>
	<g>
		<path class="st2" d="M57.08,449.14c-1.19-0.51-2.12-1.23-2.81-2.17c-0.68-0.93-1.04-1.99-1.07-3.17h3.89
			c0.03,0.57,0.23,1.07,0.59,1.5c0.36,0.43,0.84,0.76,1.43,1c0.59,0.24,1.26,0.35,1.99,0.35c0.79,0,1.49-0.13,2.11-0.4
			c0.62-0.27,1.1-0.64,1.45-1.12c0.34-0.48,0.51-1.03,0.5-1.66c0-0.65-0.17-1.23-0.52-1.73s-0.85-0.89-1.53-1.17
			c-0.67-0.28-1.47-0.42-2.39-0.42h-1.91v-2.97h1.91c0.75,0,1.42-0.13,2.01-0.39s1.05-0.63,1.37-1.1c0.32-0.47,0.48-1.01,0.48-1.62
			c0-0.59-0.14-1.12-0.42-1.57s-0.68-0.81-1.2-1.07c-0.52-0.26-1.12-0.38-1.81-0.38c-0.68,0.01-1.31,0.13-1.88,0.37
			s-1.03,0.58-1.39,1.02s-0.54,0.96-0.56,1.55h-3.71c0.03-1.18,0.38-2.23,1.06-3.15c0.67-0.92,1.58-1.63,2.71-2.14
			c1.13-0.51,2.39-0.76,3.78-0.76c1.42,0,2.67,0.26,3.75,0.79c1.08,0.53,1.91,1.24,2.5,2.14s0.88,1.9,0.87,2.99
			c0.01,0.79-0.15,1.5-0.47,2.14c-0.32,0.64-0.78,1.17-1.38,1.6c-0.6,0.42-1.29,0.72-2.07,0.89v0.16c0.99,0.14,1.85,0.43,2.56,0.88
			c0.71,0.45,1.25,1.03,1.62,1.74c0.36,0.71,0.55,1.52,0.55,2.42c0,1.18-0.34,2.25-1.03,3.19c-0.69,0.95-1.64,1.69-2.85,2.23
			c-1.22,0.54-2.59,0.81-4.12,0.81C59.62,449.91,58.27,449.65,57.08,449.14z"/>
		<path class="st2" d="M80.4,449.61h-3.87v-17.64h-0.12l-5.01,3.21v-3.53l5.3-3.43h3.69V449.61z"/>
		<path class="st2" d="M86.69,455.79h-2.81l1.52-8.29h3.77L86.69,455.79z"/>
		<path class="st2" d="M107.61,449.61h-3.87v-17.64h-0.12l-5.01,3.21v-3.53l5.3-3.43h3.69V449.61z"/>
		<path class="st2" d="M115.78,449.14c-1.19-0.51-2.12-1.23-2.81-2.17c-0.68-0.93-1.04-1.99-1.07-3.17h3.89
			c0.03,0.57,0.23,1.07,0.59,1.5c0.36,0.43,0.84,0.76,1.43,1c0.59,0.24,1.26,0.35,1.99,0.35c0.79,0,1.49-0.13,2.11-0.4
			c0.62-0.27,1.1-0.64,1.45-1.12c0.34-0.48,0.51-1.03,0.5-1.66c0-0.65-0.17-1.23-0.52-1.73s-0.85-0.89-1.53-1.17
			c-0.67-0.28-1.47-0.42-2.39-0.42h-1.91v-2.97h1.91c0.75,0,1.42-0.13,2.01-0.39s1.05-0.63,1.37-1.1c0.32-0.47,0.48-1.01,0.48-1.62
			c0-0.59-0.14-1.12-0.42-1.57s-0.68-0.81-1.2-1.07c-0.52-0.26-1.12-0.38-1.81-0.38c-0.68,0.01-1.31,0.13-1.88,0.37
			s-1.03,0.58-1.39,1.02s-0.54,0.96-0.56,1.55h-3.71c0.03-1.18,0.38-2.23,1.06-3.15c0.67-0.92,1.58-1.63,2.71-2.14
			c1.13-0.51,2.39-0.76,3.78-0.76c1.42,0,2.67,0.26,3.75,0.79c1.08,0.53,1.91,1.24,2.5,2.14s0.88,1.9,0.87,2.99
			c0.01,0.79-0.15,1.5-0.47,2.14c-0.32,0.64-0.78,1.17-1.38,1.6c-0.6,0.42-1.29,0.72-2.07,0.89v0.16c0.99,0.14,1.85,0.43,2.56,0.88
			c0.71,0.45,1.25,1.03,1.62,1.74c0.36,0.71,0.55,1.52,0.55,2.42c0,1.18-0.34,2.25-1.03,3.19c-0.69,0.95-1.64,1.69-2.85,2.23
			c-1.22,0.54-2.59,0.81-4.12,0.81C118.32,449.91,116.97,449.65,115.78,449.14z"/>
		<path class="st2" d="M130.42,446.82l7.55-7.27c0.82-0.83,1.45-1.51,1.91-2.04s0.8-1.06,1.04-1.57c0.24-0.52,0.36-1.07,0.36-1.65
			c0-0.64-0.16-1.21-0.49-1.7c-0.33-0.49-0.77-0.87-1.32-1.15c-0.56-0.27-1.18-0.41-1.88-0.41c-0.72,0-1.35,0.15-1.89,0.44
			c-0.54,0.29-0.96,0.71-1.26,1.24c-0.3,0.54-0.45,1.17-0.45,1.88h-3.65c-0.01-1.33,0.3-2.5,0.92-3.51c0.62-1.01,1.49-1.79,2.6-2.34
			s2.38-0.83,3.8-0.83c1.43,0,2.7,0.27,3.8,0.8c1.11,0.53,1.97,1.27,2.59,2.2c0.62,0.94,0.92,2,0.92,3.19
			c-0.01,0.83-0.17,1.62-0.48,2.39c-0.31,0.77-0.85,1.62-1.63,2.56c-0.77,0.94-1.86,2.06-3.26,3.38l-3.81,3.78v0.16h9.5v3.22h-14.85
			L130.42,446.82z"/>
		<path class="st2" d="M149.74,455.79h-2.81l1.52-8.29h3.77L149.74,455.79z"/>
		<path class="st2" d="M161.97,446.82l7.55-7.27c0.82-0.83,1.45-1.51,1.91-2.04s0.8-1.06,1.04-1.57c0.24-0.52,0.36-1.07,0.36-1.65
			c0-0.64-0.16-1.21-0.49-1.7c-0.33-0.49-0.77-0.87-1.32-1.15c-0.56-0.27-1.18-0.41-1.88-0.41c-0.72,0-1.35,0.15-1.89,0.44
			c-0.54,0.29-0.96,0.71-1.26,1.24c-0.3,0.54-0.45,1.17-0.45,1.88h-3.65c-0.01-1.33,0.3-2.5,0.92-3.51c0.62-1.01,1.49-1.79,2.6-2.34
			s2.38-0.83,3.8-0.83c1.43,0,2.7,0.27,3.8,0.8c1.11,0.53,1.97,1.27,2.59,2.2c0.62,0.94,0.92,2,0.92,3.19
			c-0.01,0.83-0.17,1.62-0.48,2.39c-0.31,0.77-0.85,1.62-1.63,2.56c-0.77,0.94-1.86,2.06-3.26,3.38l-3.81,3.78v0.16h9.5v3.22h-14.85
			L161.97,446.82z"/>
		<path class="st2" d="M183.22,449.12c-1.13-0.53-2.03-1.25-2.68-2.17c-0.65-0.92-1-1.97-1.04-3.14h3.74
			c0.04,0.57,0.23,1.08,0.58,1.54s0.81,0.81,1.37,1.07c0.56,0.26,1.18,0.39,1.85,0.38c0.79,0,1.49-0.18,2.11-0.53
			c0.62-0.36,1.11-0.84,1.46-1.46c0.35-0.62,0.53-1.33,0.53-2.11c0-0.8-0.18-1.51-0.54-2.15c-0.36-0.64-0.86-1.13-1.5-1.49
			c-0.64-0.36-1.37-0.54-2.19-0.54c-0.85-0.01-1.57,0.13-2.16,0.44c-0.59,0.3-1.05,0.77-1.39,1.4h-3.56l1.29-12.12h12.63v3.22h-9.46
			l-0.65,5.69h0.18c0.43-0.48,1.02-0.88,1.76-1.17c0.74-0.3,1.54-0.46,2.41-0.47c1.3,0,2.48,0.3,3.54,0.91
			c1.06,0.61,1.89,1.45,2.48,2.53c0.6,1.08,0.89,2.3,0.89,3.65c0,1.41-0.33,2.67-1,3.78c-0.67,1.11-1.6,1.98-2.79,2.61
			s-2.54,0.94-4.06,0.94C185.63,449.91,184.36,449.64,183.22,449.12z"/>
		<path class="st2" d="M201.14,449.12c-1.13-0.53-2.03-1.25-2.68-2.17c-0.65-0.92-1-1.97-1.04-3.14h3.74
			c0.04,0.57,0.23,1.08,0.58,1.54s0.81,0.81,1.37,1.07c0.56,0.26,1.18,0.39,1.85,0.38c0.79,0,1.49-0.18,2.11-0.53
			c0.62-0.36,1.11-0.84,1.46-1.46c0.35-0.62,0.53-1.33,0.53-2.11c0-0.8-0.18-1.51-0.54-2.15c-0.36-0.64-0.86-1.13-1.5-1.49
			c-0.64-0.36-1.37-0.54-2.19-0.54c-0.85-0.01-1.57,0.13-2.16,0.44c-0.59,0.3-1.05,0.77-1.39,1.4h-3.56l1.29-12.12h12.63v3.22h-9.46
			l-0.65,5.69h0.18c0.43-0.48,1.02-0.88,1.76-1.17c0.74-0.3,1.54-0.46,2.41-0.47c1.3,0,2.48,0.3,3.54,0.91
			c1.06,0.61,1.89,1.45,2.48,2.53c0.6,1.08,0.89,2.3,0.89,3.65c0,1.41-0.33,2.67-1,3.78c-0.67,1.11-1.6,1.98-2.79,2.61
			s-2.54,0.94-4.06,0.94C203.55,449.91,202.28,449.64,201.14,449.12z"/>
	</g>
</g>
<circle class="st2" cx="57.5" cy="358.22" r="3.73"/>
<circle class="st2" cx="68.81" cy="358.22" r="3.73"/>
<circle class="st2" cx="80.12" cy="358.22" r="3.73"/>
</svg>
