<?xml version="1.0" encoding="utf-8"?>
<!-- Generator: Adobe Illustrator 26.3.1, SVG Export Plug-In . SVG Version: 6.00 Build 0)  -->
<svg version="1.1" id="레이어_1" xmlns="http://www.w3.org/2000/svg" xmlns:xlink="http://www.w3.org/1999/xlink" x="0px"
	 y="0px" viewBox="0 0 500 500" style="enable-background:new 0 0 500 500;" xml:space="preserve">
<style type="text/css">
	.st0{fill:#E28A8A;}
	.st1{fill:#1F84FF;}
	.st2{fill:#FFFFFF;}
	.st3{fill:#8FA9D8;}
	.st4{fill:#78C1A0;}
	.st5{fill:#D9F3FC;}
	.st6{fill:#202A45;}
	.st7{fill:#303030;}
	.st8{fill:#719BD8;}
	.st9{fill:#29B8FF;}
	.st10{fill:#E8C27E;}
	.st11{fill:#8E77C6;}
	.st12{fill:#EFABAB;}
	.st13{fill:#676D99;}
	.st14{fill:#ECECEC;}
	.st15{fill:#222222;}
</style>
<rect class="st5" width="500" height="500"/>
<g>
	<g>
		<path class="st7" d="M52.3,399.62h16.44l-0.49,2.9H51.82L52.3,399.62z M53.53,392.17h16.46l-0.49,2.9H53.06L53.53,392.17z
			 M57.43,386.64h2.91l-3.5,21.39h-2.93L57.43,386.64z M64.97,386.64h2.91l-3.52,21.39h-2.91L64.97,386.64z"/>
		<path class="st7" d="M75.3,408.04h-3.84v-21.39h3.84V408.04z M73.28,408.04v-3.34h5.23c1.5,0,2.74-0.28,3.74-0.83
			c0.99-0.55,1.74-1.37,2.25-2.46c0.5-1.09,0.75-2.45,0.75-4.08s-0.25-3-0.75-4.08c-0.5-1.09-1.24-1.91-2.22-2.45
			c-0.98-0.55-2.2-0.81-3.66-0.8h-5.47v-3.34h5.67c2.12,0,3.94,0.42,5.48,1.27c1.54,0.85,2.71,2.08,3.53,3.69
			c0.82,1.61,1.23,3.52,1.23,5.73c0,2.22-0.41,4.13-1.23,5.73s-2.01,2.84-3.57,3.69c-1.56,0.86-3.41,1.29-5.57,1.29H73.28z"/>
		<path class="st7" d="M103.29,387.37c1.25,0.67,2.26,1.77,3.04,3.31c0.77,1.54,1.16,3.54,1.16,6.01c0,2.42-0.35,4.51-1.03,6.26
			c-0.69,1.75-1.68,3.08-2.98,4s-2.81,1.38-4.56,1.38c-1.36,0-2.57-0.26-3.64-0.79c-1.07-0.53-1.93-1.25-2.59-2.16
			s-1.06-1.97-1.22-3.15h3.78c0.14,0.56,0.37,1.05,0.71,1.46c0.33,0.41,0.75,0.73,1.25,0.96c0.5,0.23,1.07,0.34,1.71,0.34
			c1.02,0,1.9-0.29,2.62-0.87c0.72-0.58,1.27-1.42,1.65-2.51c0.37-1.09,0.57-2.4,0.58-3.93h-0.22c-0.35,0.61-0.81,1.14-1.37,1.57
			c-0.56,0.44-1.19,0.78-1.89,1.01s-1.45,0.35-2.22,0.35c-1.27,0-2.42-0.3-3.45-0.89c-1.03-0.6-1.84-1.42-2.45-2.48
			c-0.6-1.05-0.9-2.24-0.9-3.56c0-1.4,0.33-2.66,0.98-3.77c0.66-1.12,1.58-2,2.78-2.63c1.2-0.64,2.57-0.95,4.13-0.94
			C100.66,386.36,102.03,386.7,103.29,387.37z M97.03,390.01c-0.64,0.37-1.14,0.87-1.5,1.51c-0.36,0.63-0.54,1.33-0.53,2.08
			c0,0.76,0.18,1.45,0.53,2.08c0.35,0.63,0.84,1.12,1.46,1.49c0.62,0.36,1.32,0.55,2.11,0.55c0.77,0,1.47-0.19,2.12-0.58
			c0.65-0.38,1.15-0.89,1.53-1.52c0.37-0.63,0.56-1.31,0.56-2.04c0-0.73-0.18-1.41-0.55-2.04c-0.36-0.63-0.86-1.13-1.49-1.51
			s-1.34-0.56-2.13-0.56C98.37,389.45,97.66,389.64,97.03,390.01z"/>
		<path class="st7" d="M110.17,386.64h13.7v3.24h-9.85v5.85h8.91v3.21h-8.91v9.1h-3.84V386.64z"/>
		<path class="st7" d="M129.88,407.57c-1.19-0.51-2.12-1.23-2.81-2.17c-0.68-0.93-1.04-1.99-1.07-3.17h3.89
			c0.03,0.57,0.23,1.07,0.59,1.5c0.36,0.43,0.84,0.76,1.43,1c0.59,0.24,1.26,0.35,1.99,0.35c0.79,0,1.49-0.13,2.11-0.4
			c0.62-0.27,1.1-0.64,1.45-1.12c0.34-0.48,0.51-1.03,0.5-1.66c0-0.65-0.17-1.23-0.52-1.73s-0.85-0.89-1.53-1.17
			c-0.67-0.28-1.47-0.42-2.39-0.42h-1.91v-2.97h1.91c0.75,0,1.42-0.13,2.01-0.39s1.05-0.63,1.37-1.1c0.32-0.47,0.48-1.01,0.48-1.62
			c0-0.59-0.14-1.12-0.42-1.57s-0.68-0.81-1.2-1.07c-0.52-0.26-1.12-0.38-1.81-0.38c-0.68,0.01-1.31,0.13-1.88,0.37
			s-1.03,0.58-1.39,1.02s-0.54,0.96-0.56,1.55h-3.71c0.03-1.18,0.38-2.23,1.06-3.15c0.67-0.92,1.58-1.63,2.71-2.14
			c1.13-0.51,2.39-0.76,3.78-0.76c1.42,0,2.67,0.26,3.75,0.79c1.08,0.53,1.91,1.24,2.5,2.14s0.88,1.9,0.87,2.99
			c0.01,0.79-0.15,1.5-0.47,2.14c-0.32,0.64-0.78,1.17-1.38,1.6c-0.6,0.42-1.29,0.72-2.07,0.89v0.16c0.99,0.14,1.85,0.43,2.56,0.88
			c0.71,0.45,1.25,1.03,1.62,1.74c0.36,0.71,0.55,1.52,0.55,2.42c0,1.18-0.34,2.25-1.03,3.19c-0.69,0.95-1.64,1.69-2.85,2.23
			c-1.22,0.54-2.59,0.81-4.12,0.81C132.42,408.33,131.07,408.08,129.88,407.57z"/>
		<path class="st7" d="M144.74,386.64h13.7v3.24h-9.85v5.85h8.91v3.21h-8.91v9.1h-3.84V386.64z"/>
		<path class="st7" d="M174.42,391.68c-0.47-0.61-1.07-1.08-1.79-1.4c-0.72-0.32-1.52-0.48-2.39-0.48c-1.17,0-2.21,0.29-3.11,0.88
			c-0.9,0.59-1.61,1.45-2.11,2.58c-0.51,1.13-0.76,2.49-0.76,4.08c0,1.61,0.25,2.97,0.76,4.09s1.21,1.98,2.11,2.56
			s1.93,0.88,3.1,0.88c0.86,0,1.64-0.16,2.36-0.46c0.72-0.31,1.32-0.76,1.8-1.35c0.48-0.59,0.8-1.29,0.97-2.11l3.89,0.01
			c-0.21,1.38-0.71,2.63-1.5,3.75c-0.79,1.12-1.84,2-3.14,2.65c-1.3,0.65-2.77,0.98-4.42,0.98c-1.89,0-3.58-0.44-5.05-1.32
			c-1.48-0.88-2.63-2.15-3.47-3.81c-0.84-1.66-1.26-3.61-1.26-5.86c0-2.25,0.42-4.21,1.27-5.87c0.85-1.66,2.01-2.93,3.48-3.8
			c1.47-0.88,3.15-1.31,5.03-1.31c1.58,0,3.01,0.29,4.31,0.89c1.29,0.59,2.35,1.45,3.18,2.58s1.35,2.48,1.57,4.03h-3.89
			C175.2,393.02,174.89,392.29,174.42,391.68z"/>
	</g>
</g>
<g>
	<g>
		<path class="st7" d="M53.35,446.82l7.55-7.27c0.82-0.83,1.45-1.51,1.91-2.04s0.8-1.06,1.04-1.57c0.24-0.52,0.36-1.07,0.36-1.65
			c0-0.64-0.16-1.21-0.49-1.7c-0.33-0.49-0.77-0.87-1.32-1.15c-0.56-0.27-1.18-0.41-1.88-0.41c-0.72,0-1.35,0.15-1.89,0.44
			c-0.54,0.29-0.96,0.71-1.26,1.24c-0.3,0.54-0.45,1.17-0.45,1.88h-3.65c-0.01-1.33,0.3-2.5,0.92-3.51c0.62-1.01,1.49-1.79,2.6-2.34
			s2.38-0.83,3.8-0.83c1.43,0,2.7,0.27,3.8,0.8c1.11,0.53,1.97,1.27,2.59,2.2c0.62,0.94,0.92,2,0.92,3.19
			c-0.01,0.83-0.17,1.62-0.48,2.39c-0.31,0.77-0.85,1.62-1.63,2.56c-0.77,0.94-1.86,2.06-3.26,3.38l-3.81,3.78v0.16h9.5v3.22H53.37
			L53.35,446.82z"/>
		<path class="st7" d="M79.52,449.61h-3.87v-17.64h-0.12l-5.01,3.21v-3.53l5.3-3.43h3.69V449.61z"/>
		<path class="st7" d="M94.04,431.57v-0.13H83.27v-3.22h14.76v3.29l-9.28,18.1h-3.99L94.04,431.57z"/>
		<path class="st7" d="M102.22,455.79h-2.81l1.52-8.29h3.77L102.22,455.79z"/>
		<path class="st7" d="M114.45,446.82l7.55-7.27c0.82-0.83,1.45-1.51,1.91-2.04s0.8-1.06,1.04-1.57c0.24-0.52,0.36-1.07,0.36-1.65
			c0-0.64-0.16-1.21-0.49-1.7c-0.33-0.49-0.77-0.87-1.32-1.15c-0.56-0.27-1.18-0.41-1.88-0.41c-0.72,0-1.35,0.15-1.89,0.44
			c-0.54,0.29-0.96,0.71-1.26,1.24c-0.3,0.54-0.45,1.17-0.45,1.88h-3.65c-0.01-1.33,0.3-2.5,0.92-3.51c0.62-1.01,1.49-1.79,2.6-2.34
			s2.38-0.83,3.8-0.83c1.43,0,2.7,0.27,3.8,0.8c1.11,0.53,1.97,1.27,2.59,2.2c0.62,0.94,0.92,2,0.92,3.19
			c-0.01,0.83-0.17,1.62-0.48,2.39c-0.31,0.77-0.85,1.62-1.63,2.56c-0.77,0.94-1.86,2.06-3.26,3.38l-3.81,3.78v0.16h9.5v3.22h-14.85
			L114.45,446.82z"/>
		<path class="st7" d="M131.52,442.56l9.25-14.35h2.54v4.37h-1.58l-6.26,9.71v0.18h12.91v3.15h-16.86V442.56z M141.91,444.71
			l0.04-1.39v-15.1h3.63v21.39h-3.68V444.71z"/>
		<path class="st7" d="M154.44,449.14c-1.19-0.51-2.12-1.23-2.81-2.17c-0.68-0.93-1.04-1.99-1.07-3.17h3.89
			c0.03,0.57,0.23,1.07,0.59,1.5c0.36,0.43,0.84,0.76,1.43,1c0.59,0.24,1.26,0.35,1.99,0.35c0.79,0,1.49-0.13,2.11-0.4
			c0.62-0.27,1.1-0.64,1.45-1.12c0.34-0.48,0.51-1.03,0.5-1.66c0-0.65-0.17-1.23-0.52-1.73s-0.85-0.89-1.53-1.17
			c-0.67-0.28-1.47-0.42-2.39-0.42h-1.91v-2.97h1.91c0.75,0,1.42-0.13,2.01-0.39s1.05-0.63,1.37-1.1c0.32-0.47,0.48-1.01,0.48-1.62
			c0-0.59-0.14-1.12-0.42-1.57s-0.68-0.81-1.2-1.07c-0.52-0.26-1.12-0.38-1.81-0.38c-0.68,0.01-1.31,0.13-1.88,0.37
			s-1.03,0.58-1.39,1.02s-0.54,0.96-0.56,1.55h-3.71c0.03-1.18,0.38-2.23,1.06-3.15c0.67-0.92,1.58-1.63,2.71-2.14
			c1.13-0.51,2.39-0.76,3.78-0.76c1.42,0,2.67,0.26,3.75,0.79c1.08,0.53,1.91,1.24,2.5,2.14s0.88,1.9,0.87,2.99
			c0.01,0.79-0.15,1.5-0.47,2.14c-0.32,0.64-0.78,1.17-1.38,1.6c-0.6,0.42-1.29,0.72-2.07,0.89v0.16c0.99,0.14,1.85,0.43,2.56,0.88
			c0.71,0.45,1.25,1.03,1.62,1.74c0.36,0.71,0.55,1.52,0.55,2.42c0,1.18-0.34,2.25-1.03,3.19c-0.69,0.95-1.64,1.69-2.85,2.23
			c-1.22,0.54-2.59,0.81-4.12,0.81C156.98,449.91,155.63,449.65,154.44,449.14z"/>
		<path class="st7" d="M170.92,455.79h-2.81l1.52-8.29h3.77L170.92,455.79z"/>
		<path class="st7" d="M183.15,446.82l7.55-7.27c0.82-0.83,1.45-1.51,1.91-2.04s0.8-1.06,1.04-1.57c0.24-0.52,0.36-1.07,0.36-1.65
			c0-0.64-0.16-1.21-0.49-1.7c-0.33-0.49-0.77-0.87-1.32-1.15c-0.56-0.27-1.18-0.41-1.88-0.41c-0.72,0-1.35,0.15-1.89,0.44
			c-0.54,0.29-0.96,0.71-1.26,1.24c-0.3,0.54-0.45,1.17-0.45,1.88h-3.65c-0.01-1.33,0.3-2.5,0.92-3.51c0.62-1.01,1.49-1.79,2.6-2.34
			s2.38-0.83,3.8-0.83c1.43,0,2.7,0.27,3.8,0.8c1.11,0.53,1.97,1.27,2.59,2.2c0.62,0.94,0.92,2,0.92,3.19
			c-0.01,0.83-0.17,1.62-0.48,2.39c-0.31,0.77-0.85,1.62-1.63,2.56c-0.77,0.94-1.86,2.06-3.26,3.38l-3.81,3.78v0.16h9.5v3.22h-14.85
			L183.15,446.82z"/>
		<path class="st7" d="M204.41,449.12c-1.13-0.53-2.03-1.25-2.68-2.17c-0.65-0.92-1-1.97-1.04-3.14h3.74
			c0.04,0.57,0.23,1.08,0.58,1.54s0.81,0.81,1.37,1.07c0.56,0.26,1.18,0.39,1.85,0.38c0.79,0,1.49-0.18,2.11-0.53
			c0.62-0.36,1.11-0.84,1.46-1.46c0.35-0.62,0.53-1.33,0.53-2.11c0-0.8-0.18-1.51-0.54-2.15c-0.36-0.64-0.86-1.13-1.5-1.49
			c-0.64-0.36-1.37-0.54-2.19-0.54c-0.85-0.01-1.57,0.13-2.16,0.44c-0.59,0.3-1.05,0.77-1.39,1.4H201l1.29-12.12h12.63v3.22h-9.46
			l-0.65,5.69h0.18c0.43-0.48,1.02-0.88,1.76-1.17c0.74-0.3,1.54-0.46,2.41-0.47c1.3,0,2.48,0.3,3.54,0.91
			c1.06,0.61,1.89,1.45,2.48,2.53c0.6,1.08,0.89,2.3,0.89,3.65c0,1.41-0.33,2.67-1,3.78c-0.67,1.11-1.6,1.98-2.79,2.61
			s-2.54,0.94-4.06,0.94C206.81,449.91,205.54,449.64,204.41,449.12z"/>
		<path class="st7" d="M218.54,446.82l7.55-7.27c0.82-0.83,1.45-1.51,1.91-2.04s0.8-1.06,1.04-1.57c0.24-0.52,0.36-1.07,0.36-1.65
			c0-0.64-0.16-1.21-0.49-1.7c-0.33-0.49-0.77-0.87-1.32-1.15c-0.56-0.27-1.18-0.41-1.88-0.41c-0.72,0-1.35,0.15-1.89,0.44
			c-0.54,0.29-0.96,0.71-1.26,1.24c-0.3,0.54-0.45,1.17-0.45,1.88h-3.65c-0.01-1.33,0.3-2.5,0.92-3.51c0.62-1.01,1.49-1.79,2.6-2.34
			s2.38-0.83,3.8-0.83c1.43,0,2.7,0.27,3.8,0.8c1.11,0.53,1.97,1.27,2.59,2.2c0.62,0.94,0.92,2,0.92,3.19
			c-0.01,0.83-0.17,1.62-0.48,2.39c-0.31,0.77-0.85,1.62-1.63,2.56c-0.77,0.94-1.86,2.06-3.26,3.38l-3.81,3.78v0.16h9.5v3.22h-14.85
			L218.54,446.82z"/>
	</g>
</g>
<circle class="st7" cx="57.5" cy="358.22" r="3.73"/>
<circle class="st7" cx="68.81" cy="358.22" r="3.73"/>
<circle class="st7" cx="80.12" cy="358.22" r="3.73"/>
</svg>
