<?xml version="1.0" encoding="utf-8"?>
<!-- Generator: Adobe Illustrator 26.3.1, SVG Export Plug-In . SVG Version: 6.00 Build 0)  -->
<svg version="1.1" id="레이어_1" xmlns="http://www.w3.org/2000/svg" xmlns:xlink="http://www.w3.org/1999/xlink" x="0px"
	 y="0px" viewBox="0 0 500 500" style="enable-background:new 0 0 500 500;" xml:space="preserve">
<style type="text/css">
	.st0{fill:#E28A8A;}
	.st1{fill:#1F84FF;}
	.st2{fill:#FFFFFF;}
	.st3{fill:#8FA9D8;}
	.st4{fill:#78C1A0;}
	.st5{fill:#D9F3FC;}
	.st6{fill:#202A45;}
	.st7{fill:#303030;}
	.st8{fill:#719BD8;}
	.st9{fill:#29B8FF;}
	.st10{fill:#E8C27E;}
	.st11{fill:#8E77C6;}
	.st12{fill:#EFABAB;}
	.st13{fill:#676D99;}
	.st14{fill:#ECECEC;}
	.st15{fill:#222222;}
</style>
<rect class="st4" width="500" height="500"/>
<g>
	<g>
		<path class="st2" d="M52.3,399.62h16.44l-0.49,2.9H51.82L52.3,399.62z M53.53,392.17h16.46l-0.49,2.9H53.06L53.53,392.17z
			 M57.43,386.64h2.91l-3.5,21.39h-2.93L57.43,386.64z M64.97,386.64h2.91l-3.52,21.39h-2.91L64.97,386.64z"/>
		<path class="st2" d="M81.32,390v-0.13H70.55v-3.22h14.76v3.29l-9.28,18.1h-3.99L81.32,390z"/>
		<path class="st2" d="M91.23,407.55c-1.23-0.52-2.19-1.24-2.89-2.15c-0.69-0.91-1.04-1.94-1.04-3.09c0-0.89,0.2-1.71,0.61-2.48
			c0.4-0.77,0.96-1.4,1.65-1.91c0.7-0.5,1.47-0.82,2.32-0.95v-0.13c-0.74-0.16-1.39-0.46-1.96-0.92s-1.01-1.01-1.33-1.68
			c-0.32-0.67-0.48-1.39-0.48-2.16c0-1.08,0.32-2.06,0.95-2.93c0.63-0.87,1.5-1.56,2.61-2.05c1.11-0.5,2.36-0.75,3.76-0.75
			c1.38,0,2.62,0.25,3.74,0.75c1.11,0.5,1.99,1.18,2.62,2.05c0.64,0.87,0.95,1.85,0.95,2.93c0,0.77-0.16,1.49-0.49,2.16
			s-0.77,1.23-1.34,1.68c-0.57,0.45-1.22,0.76-1.95,0.92v0.13c0.84,0.13,1.61,0.44,2.31,0.95c0.7,0.5,1.26,1.14,1.67,1.91
			s0.61,1.6,0.61,2.48c0,1.15-0.35,2.18-1.04,3.09c-0.69,0.91-1.66,1.63-2.9,2.15c-1.24,0.52-2.64,0.78-4.18,0.78
			C93.86,408.33,92.46,408.07,91.23,407.55z M97.6,404.87c0.62-0.28,1.11-0.67,1.46-1.17c0.34-0.5,0.52-1.08,0.52-1.74
			s-0.18-1.26-0.53-1.79c-0.35-0.54-0.85-0.96-1.48-1.26s-1.35-0.46-2.14-0.46c-0.8,0-1.51,0.15-2.13,0.45
			c-0.63,0.3-1.12,0.72-1.48,1.26c-0.36,0.54-0.54,1.14-0.54,1.81c0,0.65,0.17,1.22,0.51,1.72c0.34,0.5,0.82,0.89,1.45,1.17
			c0.63,0.29,1.36,0.43,2.19,0.43C96.25,405.29,96.98,405.15,97.6,404.87z M97.26,395.19c0.54-0.27,0.96-0.64,1.27-1.12
			c0.31-0.47,0.46-1.01,0.46-1.63c0-0.6-0.15-1.14-0.45-1.61c-0.3-0.47-0.72-0.84-1.26-1.09c-0.54-0.26-1.16-0.38-1.85-0.38
			c-0.71,0-1.33,0.13-1.86,0.38c-0.53,0.26-0.95,0.62-1.25,1.09c-0.3,0.47-0.45,1.01-0.45,1.61c0,0.61,0.15,1.15,0.46,1.63
			c0.31,0.47,0.73,0.84,1.26,1.12c0.54,0.27,1.15,0.41,1.84,0.41C96.1,395.6,96.72,395.46,97.26,395.19z"/>
		<path class="st2" d="M119.68,391.68c-0.47-0.61-1.07-1.08-1.79-1.4c-0.72-0.32-1.52-0.48-2.39-0.48c-1.17,0-2.21,0.29-3.11,0.88
			c-0.9,0.59-1.61,1.45-2.11,2.58c-0.51,1.13-0.76,2.49-0.76,4.08c0,1.61,0.25,2.97,0.76,4.09s1.21,1.98,2.11,2.56
			s1.93,0.88,3.1,0.88c0.86,0,1.64-0.16,2.36-0.46c0.72-0.31,1.32-0.76,1.8-1.35c0.48-0.59,0.8-1.29,0.97-2.11l3.89,0.01
			c-0.21,1.38-0.71,2.63-1.5,3.75c-0.79,1.12-1.84,2-3.14,2.65c-1.3,0.65-2.77,0.98-4.42,0.98c-1.89,0-3.58-0.44-5.05-1.32
			c-1.48-0.88-2.63-2.15-3.47-3.81c-0.84-1.66-1.26-3.61-1.26-5.86c0-2.25,0.42-4.21,1.27-5.87c0.85-1.66,2.01-2.93,3.48-3.8
			c1.47-0.88,3.15-1.31,5.03-1.31c1.58,0,3.01,0.29,4.31,0.89c1.29,0.59,2.35,1.45,3.18,2.58s1.35,2.48,1.57,4.03h-3.89
			C120.47,393.02,120.16,392.29,119.68,391.68z"/>
		<path class="st2" d="M135.52,408.04h-3.87V390.4h-0.12l-5.01,3.21v-3.53l5.3-3.43h3.69V408.04z"/>
		<path class="st2" d="M138.78,408.04l7.54-21.39h4.74l7.54,21.39h-4.11l-5.72-17.02h-0.18l-5.72,17.02H138.78z M154.31,399.65v3.09
			h-11.27v-3.09H154.31z"/>
		<path class="st2" d="M163.68,407.04c-1.23-0.86-2.17-2.11-2.82-3.75c-0.66-1.64-0.98-3.62-0.98-5.95c0-2.3,0.33-4.28,0.98-5.93
			c0.65-1.65,1.6-2.91,2.82-3.77c1.23-0.86,2.7-1.29,4.41-1.29c1.69,0,3.16,0.43,4.4,1.29c1.24,0.86,2.19,2.12,2.84,3.77
			c0.65,1.65,0.98,3.63,0.98,5.93c0,2.33-0.32,4.31-0.97,5.95c-0.65,1.65-1.59,2.9-2.82,3.75c-1.24,0.86-2.71,1.29-4.43,1.29
			C166.38,408.33,164.91,407.9,163.68,407.04z M170.42,404.22c0.66-0.59,1.15-1.46,1.49-2.62c0.34-1.16,0.51-2.58,0.51-4.26
			c0-1.67-0.17-3.09-0.52-4.26c-0.35-1.17-0.85-2.05-1.49-2.64s-1.42-0.89-2.31-0.89c-0.9,0-1.67,0.3-2.31,0.89
			c-0.65,0.6-1.15,1.48-1.5,2.64c-0.35,1.17-0.53,2.59-0.53,4.26c0,1.68,0.18,3.11,0.53,4.26c0.35,1.16,0.85,2.03,1.49,2.62
			c0.64,0.59,1.41,0.88,2.32,0.88C168.99,405.1,169.76,404.81,170.42,404.22z"/>
	</g>
</g>
<g>
	<g>
		<path class="st2" d="M62.04,449.61h-3.87v-17.64h-0.12l-5.01,3.21v-3.53l5.3-3.43h3.69V449.61z"/>
		<path class="st2" d="M66.48,446.82l7.55-7.27c0.82-0.83,1.45-1.51,1.91-2.04s0.8-1.06,1.04-1.57c0.24-0.52,0.36-1.07,0.36-1.65
			c0-0.64-0.16-1.21-0.49-1.7c-0.33-0.49-0.77-0.87-1.32-1.15c-0.56-0.27-1.18-0.41-1.88-0.41c-0.72,0-1.35,0.15-1.89,0.44
			c-0.54,0.29-0.96,0.71-1.26,1.24c-0.3,0.54-0.45,1.17-0.45,1.88H66.4c-0.01-1.33,0.3-2.5,0.92-3.51c0.62-1.01,1.49-1.79,2.6-2.34
			s2.38-0.83,3.8-0.83c1.43,0,2.7,0.27,3.8,0.8c1.11,0.53,1.97,1.27,2.59,2.2c0.62,0.94,0.92,2,0.92,3.19
			c-0.01,0.83-0.17,1.62-0.48,2.39c-0.31,0.77-0.85,1.62-1.63,2.56c-0.77,0.94-1.86,2.06-3.26,3.38l-3.81,3.78v0.16h9.5v3.22H66.5
			L66.48,446.82z"/>
		<path class="st2" d="M87.44,448.61c-1.23-0.86-2.17-2.11-2.82-3.75c-0.66-1.64-0.98-3.62-0.98-5.95c0-2.3,0.33-4.28,0.98-5.93
			c0.65-1.65,1.6-2.91,2.82-3.77c1.23-0.86,2.7-1.29,4.41-1.29c1.69,0,3.16,0.43,4.4,1.29c1.24,0.86,2.19,2.12,2.84,3.77
			c0.65,1.65,0.98,3.63,0.98,5.93c0,2.33-0.32,4.31-0.97,5.95c-0.65,1.65-1.59,2.9-2.82,3.75c-1.24,0.86-2.71,1.29-4.43,1.29
			C90.14,449.91,88.67,449.47,87.44,448.61z M94.18,445.79c0.66-0.59,1.15-1.46,1.49-2.62c0.34-1.16,0.51-2.58,0.51-4.26
			c0-1.67-0.17-3.09-0.52-4.26c-0.35-1.17-0.85-2.05-1.49-2.64s-1.42-0.89-2.31-0.89c-0.9,0-1.67,0.3-2.31,0.89
			c-0.65,0.6-1.15,1.48-1.5,2.64c-0.35,1.17-0.53,2.59-0.53,4.26c0,1.68,0.18,3.11,0.53,4.26c0.35,1.16,0.85,2.03,1.49,2.62
			c0.64,0.59,1.41,0.88,2.32,0.88C92.75,446.67,93.52,446.38,94.18,445.79z"/>
		<path class="st2" d="M104.38,455.79h-2.81l1.52-8.29h3.77L104.38,455.79z"/>
		<path class="st2" d="M125.29,449.61h-3.87v-17.64h-0.12l-5.01,3.21v-3.53l5.3-3.43h3.69V449.61z"/>
		<path class="st2" d="M141.48,428.94c1.25,0.67,2.26,1.77,3.04,3.31c0.77,1.54,1.16,3.54,1.16,6.01c0,2.42-0.35,4.51-1.03,6.26
			c-0.69,1.75-1.68,3.08-2.98,4s-2.81,1.38-4.56,1.38c-1.36,0-2.57-0.26-3.64-0.79c-1.07-0.53-1.93-1.25-2.59-2.16
			s-1.06-1.97-1.22-3.15h3.78c0.14,0.56,0.37,1.05,0.71,1.46c0.33,0.41,0.75,0.73,1.25,0.96c0.5,0.23,1.07,0.34,1.71,0.34
			c1.02,0,1.9-0.29,2.62-0.87c0.72-0.58,1.27-1.42,1.65-2.51c0.37-1.09,0.57-2.4,0.58-3.93h-0.22c-0.35,0.61-0.81,1.14-1.37,1.57
			c-0.56,0.44-1.19,0.78-1.89,1.01s-1.45,0.35-2.22,0.35c-1.27,0-2.42-0.3-3.45-0.89c-1.03-0.6-1.84-1.42-2.45-2.48
			c-0.6-1.05-0.9-2.24-0.9-3.56c0-1.4,0.33-2.66,0.98-3.77c0.66-1.12,1.58-2,2.78-2.63c1.2-0.64,2.57-0.95,4.13-0.94
			C138.85,427.93,140.23,428.27,141.48,428.94z M135.22,431.58c-0.64,0.37-1.14,0.87-1.5,1.51c-0.36,0.63-0.54,1.33-0.53,2.08
			c0,0.76,0.18,1.45,0.53,2.08c0.35,0.63,0.84,1.12,1.46,1.49c0.62,0.36,1.32,0.55,2.11,0.55c0.77,0,1.47-0.19,2.12-0.58
			c0.65-0.38,1.15-0.89,1.53-1.52c0.37-0.63,0.56-1.31,0.56-2.04c0-0.73-0.18-1.41-0.55-2.04c-0.36-0.63-0.86-1.13-1.49-1.51
			s-1.34-0.56-2.13-0.56C136.57,431.02,135.86,431.21,135.22,431.58z"/>
		<path class="st2" d="M151.87,449.14c-1.19-0.51-2.12-1.23-2.81-2.17c-0.68-0.93-1.04-1.99-1.07-3.17h3.89
			c0.03,0.57,0.23,1.07,0.59,1.5c0.36,0.43,0.84,0.76,1.43,1c0.59,0.24,1.26,0.35,1.99,0.35c0.79,0,1.49-0.13,2.11-0.4
			c0.62-0.27,1.1-0.64,1.45-1.12c0.34-0.48,0.51-1.03,0.5-1.66c0-0.65-0.17-1.23-0.52-1.73s-0.85-0.89-1.53-1.17
			c-0.67-0.28-1.47-0.42-2.39-0.42h-1.91v-2.97h1.91c0.75,0,1.42-0.13,2.01-0.39s1.05-0.63,1.37-1.1c0.32-0.47,0.48-1.01,0.48-1.62
			c0-0.59-0.14-1.12-0.42-1.57s-0.68-0.81-1.2-1.07c-0.52-0.26-1.12-0.38-1.81-0.38c-0.68,0.01-1.31,0.13-1.88,0.37
			s-1.03,0.58-1.39,1.02s-0.54,0.96-0.56,1.55h-3.71c0.03-1.18,0.38-2.23,1.06-3.15c0.67-0.92,1.58-1.63,2.71-2.14
			c1.13-0.51,2.39-0.76,3.78-0.76c1.42,0,2.67,0.26,3.75,0.79c1.08,0.53,1.91,1.24,2.5,2.14s0.88,1.9,0.87,2.99
			c0.01,0.79-0.15,1.5-0.47,2.14c-0.32,0.64-0.78,1.17-1.38,1.6c-0.6,0.42-1.29,0.72-2.07,0.89v0.16c0.99,0.14,1.85,0.43,2.56,0.88
			c0.71,0.45,1.25,1.03,1.62,1.74c0.36,0.71,0.55,1.52,0.55,2.42c0,1.18-0.34,2.25-1.03,3.19c-0.69,0.95-1.64,1.69-2.85,2.23
			c-1.22,0.54-2.59,0.81-4.12,0.81C154.41,449.91,153.06,449.65,151.87,449.14z"/>
		<path class="st2" d="M168.35,455.79h-2.81l1.52-8.29h3.77L168.35,455.79z"/>
		<path class="st2" d="M189.27,449.61h-3.87v-17.64h-0.12l-5.01,3.21v-3.53l5.3-3.43h3.69V449.61z"/>
		<path class="st2" d="M197.58,448.88c-1.25-0.67-2.27-1.78-3.04-3.32c-0.78-1.54-1.16-3.55-1.15-6.04c0-2.42,0.35-4.51,1.06-6.25
			c0.7-1.74,1.7-3.07,2.98-3.98s2.79-1.37,4.54-1.37c1.34,0,2.55,0.26,3.63,0.78c1.08,0.52,1.95,1.24,2.6,2.17
			c0.65,0.93,1.06,1.96,1.22,3.12h-3.8c-0.14-0.56-0.37-1.05-0.69-1.46c-0.33-0.41-0.74-0.72-1.24-0.94s-1.07-0.33-1.71-0.33
			c-1.03,0-1.91,0.29-2.63,0.86c-0.72,0.58-1.27,1.41-1.64,2.5c-0.37,1.09-0.56,2.39-0.56,3.89h0.21c0.35-0.62,0.81-1.16,1.37-1.6
			s1.19-0.79,1.89-1.01c0.7-0.23,1.44-0.34,2.22-0.34c1.27,0,2.42,0.3,3.46,0.9c1.03,0.6,1.85,1.43,2.45,2.49s0.89,2.25,0.89,3.58
			c0,1.41-0.33,2.67-0.98,3.79c-0.66,1.12-1.58,2-2.78,2.64c-1.2,0.64-2.57,0.96-4.11,0.95
			C200.22,449.9,198.83,449.55,197.58,448.88z M203.84,446.23c0.64-0.37,1.14-0.87,1.5-1.51c0.36-0.64,0.55-1.34,0.55-2.11
			c0-0.76-0.18-1.45-0.53-2.08c-0.35-0.63-0.85-1.13-1.48-1.49c-0.63-0.36-1.34-0.55-2.13-0.55c-0.78,0-1.48,0.18-2.12,0.55
			s-1.14,0.87-1.52,1.51c-0.38,0.64-0.57,1.33-0.58,2.07c0,0.75,0.19,1.44,0.56,2.07c0.37,0.63,0.88,1.14,1.51,1.51
			s1.34,0.57,2.13,0.57C202.5,446.79,203.2,446.6,203.84,446.23z"/>
		<path class="st2" d="M215.6,448.61c-1.23-0.86-2.17-2.11-2.82-3.75c-0.66-1.64-0.98-3.62-0.98-5.95c0-2.3,0.33-4.28,0.98-5.93
			c0.65-1.65,1.6-2.91,2.82-3.77c1.23-0.86,2.7-1.29,4.41-1.29c1.69,0,3.16,0.43,4.4,1.29c1.24,0.86,2.19,2.12,2.84,3.77
			c0.65,1.65,0.98,3.63,0.98,5.93c0,2.33-0.32,4.31-0.97,5.95c-0.65,1.65-1.59,2.9-2.82,3.75c-1.24,0.86-2.71,1.29-4.43,1.29
			C218.29,449.91,216.82,449.47,215.6,448.61z M222.33,445.79c0.66-0.59,1.15-1.46,1.49-2.62c0.34-1.16,0.51-2.58,0.51-4.26
			c0-1.67-0.17-3.09-0.52-4.26c-0.35-1.17-0.85-2.05-1.49-2.64s-1.42-0.89-2.31-0.89c-0.9,0-1.67,0.3-2.31,0.89
			c-0.65,0.6-1.15,1.48-1.5,2.64c-0.35,1.17-0.53,2.59-0.53,4.26c0,1.68,0.18,3.11,0.53,4.26c0.35,1.16,0.85,2.03,1.49,2.62
			c0.64,0.59,1.41,0.88,2.32,0.88C220.9,446.67,221.68,446.38,222.33,445.79z"/>
	</g>
</g>
<circle class="st2" cx="57.5" cy="358.22" r="3.73"/>
<circle class="st2" cx="68.81" cy="358.22" r="3.73"/>
<circle class="st2" cx="80.12" cy="358.22" r="3.73"/>
</svg>
