<?xml version="1.0" encoding="utf-8"?>
<!-- Generator: Adobe Illustrator 26.3.1, SVG Export Plug-In . SVG Version: 6.00 Build 0)  -->
<svg version="1.1" id="레이어_1" xmlns="http://www.w3.org/2000/svg" xmlns:xlink="http://www.w3.org/1999/xlink" x="0px"
	 y="0px" viewBox="0 0 500 500" style="enable-background:new 0 0 500 500;" xml:space="preserve">
<style type="text/css">
	.st0{fill:#E28A8A;}
	.st1{fill:#1F84FF;}
	.st2{fill:#FFFFFF;}
	.st3{fill:#8FA9D8;}
	.st4{fill:#78C1A0;}
	.st5{fill:#D9F3FC;}
	.st6{fill:#202A45;}
	.st7{fill:#303030;}
	.st8{fill:#719BD8;}
	.st9{fill:#29B8FF;}
	.st10{fill:#E8C27E;}
	.st11{fill:#8E77C6;}
	.st12{fill:#EFABAB;}
	.st13{fill:#676D99;}
	.st14{fill:#ECECEC;}
	.st15{fill:#222222;}
</style>
<rect class="st9" width="500" height="500"/>
<g>
	<g>
		<path class="st2" d="M52.3,399.62h16.44l-0.49,2.9H51.82L52.3,399.62z M53.53,392.17h16.46l-0.49,2.9H53.06L53.53,392.17z
			 M57.43,386.64h2.91l-3.5,21.39h-2.93L57.43,386.64z M64.97,386.64h2.91l-3.52,21.39h-2.91L64.97,386.64z"/>
		<path class="st2" d="M71.24,405.25l7.55-7.27c0.82-0.83,1.45-1.51,1.91-2.04s0.8-1.06,1.04-1.57c0.24-0.52,0.36-1.07,0.36-1.65
			c0-0.64-0.16-1.21-0.49-1.7c-0.33-0.49-0.77-0.87-1.32-1.15c-0.56-0.27-1.18-0.41-1.88-0.41c-0.72,0-1.35,0.15-1.89,0.44
			c-0.54,0.29-0.96,0.71-1.26,1.24c-0.3,0.54-0.45,1.17-0.45,1.88h-3.65c-0.01-1.33,0.3-2.5,0.92-3.51c0.62-1.01,1.49-1.79,2.6-2.34
			s2.38-0.83,3.8-0.83c1.43,0,2.7,0.27,3.8,0.8c1.11,0.53,1.97,1.27,2.59,2.2c0.62,0.94,0.92,2,0.92,3.19
			c-0.01,0.83-0.17,1.62-0.48,2.39c-0.31,0.77-0.85,1.62-1.63,2.56c-0.77,0.94-1.86,2.06-3.26,3.38l-3.81,3.78v0.16h9.5v3.22H71.26
			L71.24,405.25z"/>
		<path class="st2" d="M100.46,387.37c1.25,0.67,2.26,1.77,3.04,3.31c0.77,1.54,1.16,3.54,1.16,6.01c0,2.42-0.35,4.51-1.03,6.26
			c-0.69,1.75-1.68,3.08-2.98,4s-2.81,1.38-4.56,1.38c-1.36,0-2.57-0.26-3.64-0.79c-1.07-0.53-1.93-1.25-2.59-2.16
			s-1.06-1.97-1.22-3.15h3.78c0.14,0.56,0.37,1.05,0.71,1.46c0.33,0.41,0.75,0.73,1.25,0.96c0.5,0.23,1.07,0.34,1.71,0.34
			c1.02,0,1.9-0.29,2.62-0.87c0.72-0.58,1.27-1.42,1.65-2.51c0.37-1.09,0.57-2.4,0.58-3.93h-0.22c-0.35,0.61-0.81,1.14-1.37,1.57
			c-0.56,0.44-1.19,0.78-1.89,1.01s-1.45,0.35-2.22,0.35c-1.27,0-2.42-0.3-3.45-0.89c-1.03-0.6-1.84-1.42-2.45-2.48
			c-0.6-1.05-0.9-2.24-0.9-3.56c0-1.4,0.33-2.66,0.98-3.77c0.66-1.12,1.58-2,2.78-2.63c1.2-0.64,2.57-0.95,4.13-0.94
			C97.83,386.36,99.21,386.7,100.46,387.37z M94.21,390.01c-0.64,0.37-1.14,0.87-1.5,1.51c-0.36,0.63-0.54,1.33-0.53,2.08
			c0,0.76,0.18,1.45,0.53,2.08c0.35,0.63,0.84,1.12,1.46,1.49c0.62,0.36,1.32,0.55,2.11,0.55c0.77,0,1.47-0.19,2.12-0.58
			c0.65-0.38,1.15-0.89,1.53-1.52c0.37-0.63,0.56-1.31,0.56-2.04c0-0.73-0.18-1.41-0.55-2.04c-0.36-0.63-0.86-1.13-1.49-1.51
			s-1.34-0.56-2.13-0.56C95.55,389.45,94.84,389.64,94.21,390.01z"/>
		<path class="st2" d="M107.35,386.64h8.17c1.51,0,2.78,0.23,3.82,0.7s1.82,1.12,2.34,1.96c0.52,0.84,0.78,1.81,0.77,2.89
			c0,0.84-0.16,1.57-0.48,2.19c-0.32,0.62-0.76,1.13-1.32,1.51c-0.56,0.39-1.21,0.67-1.94,0.85v0.21c0.79,0.04,1.53,0.28,2.23,0.71
			c0.7,0.43,1.27,1.04,1.7,1.83c0.43,0.78,0.65,1.69,0.65,2.73c0,1.13-0.27,2.13-0.82,3.01c-0.55,0.87-1.37,1.56-2.46,2.06
			c-1.09,0.5-2.43,0.75-4.02,0.75h-8.64V386.64z M116.88,395.36c0.54-0.26,0.97-0.61,1.27-1.07s0.46-0.99,0.46-1.6
			c0-0.56-0.13-1.06-0.39-1.49c-0.26-0.43-0.65-0.77-1.17-1c-0.52-0.24-1.15-0.35-1.89-0.35h-3.96v5.91h3.87
			C115.73,395.75,116.33,395.62,116.88,395.36z M117.64,404.45c0.6-0.25,1.04-0.58,1.32-1.01c0.29-0.43,0.42-0.94,0.41-1.53
			c0.01-0.64-0.14-1.22-0.46-1.73c-0.32-0.51-0.77-0.91-1.36-1.2c-0.59-0.29-1.28-0.44-2.05-0.45h-4.31v6.29h4.2
			C116.29,404.82,117.04,404.7,117.64,404.45z"/>
		<path class="st2" d="M129.02,407.55c-1.23-0.52-2.19-1.24-2.89-2.15c-0.69-0.91-1.04-1.94-1.04-3.09c0-0.89,0.2-1.71,0.61-2.48
			c0.4-0.77,0.96-1.4,1.65-1.91c0.7-0.5,1.47-0.82,2.32-0.95v-0.13c-0.74-0.16-1.39-0.46-1.96-0.92s-1.01-1.01-1.33-1.68
			c-0.32-0.67-0.48-1.39-0.48-2.16c0-1.08,0.32-2.06,0.95-2.93c0.63-0.87,1.5-1.56,2.61-2.05c1.11-0.5,2.36-0.75,3.76-0.75
			c1.38,0,2.62,0.25,3.74,0.75c1.11,0.5,1.99,1.18,2.62,2.05c0.64,0.87,0.95,1.85,0.95,2.93c0,0.77-0.16,1.49-0.49,2.16
			s-0.77,1.23-1.34,1.68c-0.57,0.45-1.22,0.76-1.95,0.92v0.13c0.84,0.13,1.61,0.44,2.31,0.95c0.7,0.5,1.26,1.14,1.67,1.91
			s0.61,1.6,0.61,2.48c0,1.15-0.35,2.18-1.04,3.09c-0.69,0.91-1.66,1.63-2.9,2.15c-1.24,0.52-2.64,0.78-4.18,0.78
			C131.65,408.33,130.25,408.07,129.02,407.55z M135.39,404.87c0.62-0.28,1.11-0.67,1.46-1.17c0.34-0.5,0.52-1.08,0.52-1.74
			s-0.18-1.26-0.53-1.79c-0.35-0.54-0.85-0.96-1.48-1.26s-1.35-0.46-2.14-0.46c-0.8,0-1.51,0.15-2.13,0.45
			c-0.63,0.3-1.12,0.72-1.48,1.26c-0.36,0.54-0.54,1.14-0.54,1.81c0,0.65,0.17,1.22,0.51,1.72c0.34,0.5,0.82,0.89,1.45,1.17
			c0.63,0.29,1.36,0.43,2.19,0.43C134.04,405.29,134.77,405.15,135.39,404.87z M135.05,395.19c0.54-0.27,0.96-0.64,1.27-1.12
			c0.31-0.47,0.46-1.01,0.46-1.63c0-0.6-0.15-1.14-0.45-1.61c-0.3-0.47-0.72-0.84-1.26-1.09c-0.54-0.26-1.16-0.38-1.85-0.38
			c-0.71,0-1.33,0.13-1.86,0.38c-0.53,0.26-0.95,0.62-1.25,1.09c-0.3,0.47-0.45,1.01-0.45,1.61c0,0.61,0.15,1.15,0.46,1.63
			c0.31,0.47,0.73,0.84,1.26,1.12c0.54,0.27,1.15,0.41,1.84,0.41C133.89,395.6,134.5,395.46,135.05,395.19z"/>
		<path class="st2" d="M144,386.64h13.7v3.24h-9.85v5.85h8.91v3.21h-8.91v9.1H144V386.64z"/>
		<path class="st2" d="M160.2,386.64h13.7v3.24h-9.85v5.85h8.91v3.21h-8.91v9.1h-3.84V386.64z"/>
	</g>
</g>
<g>
	<g>
		<path class="st2" d="M52.95,442.56l9.25-14.35h2.54v4.37h-1.58l-6.26,9.71v0.18h12.91v3.15H52.95V442.56z M63.34,444.71l0.04-1.39
			v-15.1h3.63v21.39h-3.68V444.71z"/>
		<path class="st2" d="M80.83,449.61h-3.87v-17.64h-0.12l-5.01,3.21v-3.53l5.3-3.43h3.69V449.61z"/>
		<path class="st2" d="M87.12,455.79h-2.81l1.52-8.29h3.77L87.12,455.79z"/>
		<path class="st2" d="M108.04,449.61h-3.87v-17.64h-0.12l-5.01,3.21v-3.53l5.3-3.43h3.69V449.61z"/>
		<path class="st2" d="M116.06,449.12c-1.23-0.52-2.19-1.24-2.89-2.15c-0.69-0.91-1.04-1.94-1.04-3.09c0-0.89,0.2-1.71,0.61-2.48
			c0.4-0.77,0.96-1.4,1.65-1.91c0.7-0.5,1.47-0.82,2.32-0.95v-0.13c-0.74-0.16-1.39-0.46-1.96-0.92s-1.01-1.01-1.33-1.68
			c-0.32-0.67-0.48-1.39-0.48-2.16c0-1.08,0.32-2.06,0.95-2.93c0.63-0.87,1.5-1.56,2.61-2.05c1.11-0.5,2.36-0.75,3.76-0.75
			c1.38,0,2.62,0.25,3.74,0.75c1.11,0.5,1.99,1.18,2.62,2.05c0.64,0.87,0.95,1.85,0.95,2.93c0,0.77-0.16,1.49-0.49,2.16
			s-0.77,1.23-1.34,1.68c-0.57,0.45-1.22,0.76-1.95,0.92v0.13c0.84,0.13,1.61,0.44,2.31,0.95c0.7,0.5,1.26,1.14,1.67,1.91
			s0.61,1.6,0.61,2.48c0,1.15-0.35,2.18-1.04,3.09c-0.69,0.91-1.66,1.63-2.9,2.15c-1.24,0.52-2.64,0.78-4.18,0.78
			C118.69,449.91,117.29,449.64,116.06,449.12z M122.43,446.44c0.62-0.28,1.11-0.67,1.46-1.17c0.34-0.5,0.52-1.08,0.52-1.74
			s-0.18-1.26-0.53-1.79c-0.35-0.54-0.85-0.96-1.48-1.26s-1.35-0.46-2.14-0.46c-0.8,0-1.51,0.15-2.13,0.45
			c-0.63,0.3-1.12,0.72-1.48,1.26c-0.36,0.54-0.54,1.14-0.54,1.81c0,0.65,0.17,1.22,0.51,1.72c0.34,0.5,0.82,0.89,1.45,1.17
			c0.63,0.29,1.36,0.43,2.19,0.43C121.08,446.86,121.81,446.72,122.43,446.44z M122.09,436.76c0.54-0.27,0.96-0.64,1.27-1.12
			c0.31-0.47,0.46-1.01,0.46-1.63c0-0.6-0.15-1.14-0.45-1.61c-0.3-0.47-0.72-0.84-1.26-1.09c-0.54-0.26-1.16-0.38-1.85-0.38
			c-0.71,0-1.33,0.13-1.86,0.38c-0.53,0.26-0.95,0.62-1.25,1.09c-0.3,0.47-0.45,1.01-0.45,1.61c0,0.61,0.15,1.15,0.46,1.63
			c0.31,0.47,0.73,0.84,1.26,1.12c0.54,0.27,1.15,0.41,1.84,0.41C120.93,437.17,121.54,437.03,122.09,436.76z"/>
		<path class="st2" d="M130.42,442.56l9.25-14.35h2.54v4.37h-1.58l-6.26,9.71v0.18h12.91v3.15h-16.86V442.56z M140.8,444.71
			l0.04-1.39v-15.1h3.63v21.39h-3.68V444.71z"/>
		<path class="st2" d="M151.45,455.79h-2.81l1.52-8.29h3.77L151.45,455.79z"/>
		<path class="st2" d="M163.68,446.82l7.55-7.27c0.82-0.83,1.45-1.51,1.91-2.04s0.8-1.06,1.04-1.57c0.24-0.52,0.36-1.07,0.36-1.65
			c0-0.64-0.16-1.21-0.49-1.7c-0.33-0.49-0.77-0.87-1.32-1.15c-0.56-0.27-1.18-0.41-1.88-0.41c-0.72,0-1.35,0.15-1.89,0.44
			c-0.54,0.29-0.96,0.71-1.26,1.24c-0.3,0.54-0.45,1.17-0.45,1.88h-3.65c-0.01-1.33,0.3-2.5,0.92-3.51c0.62-1.01,1.49-1.79,2.6-2.34
			s2.38-0.83,3.8-0.83c1.43,0,2.7,0.27,3.8,0.8c1.11,0.53,1.97,1.27,2.59,2.2c0.62,0.94,0.92,2,0.92,3.19
			c-0.01,0.83-0.17,1.62-0.48,2.39c-0.31,0.77-0.85,1.62-1.63,2.56c-0.77,0.94-1.86,2.06-3.26,3.38l-3.81,3.78v0.16h9.5v3.22h-14.85
			L163.68,446.82z"/>
		<path class="st2" d="M184.94,449.12c-1.13-0.53-2.03-1.25-2.68-2.17c-0.65-0.92-1-1.97-1.04-3.14h3.74
			c0.04,0.57,0.23,1.08,0.58,1.54s0.81,0.81,1.37,1.07c0.56,0.26,1.18,0.39,1.85,0.38c0.79,0,1.49-0.18,2.11-0.53
			c0.62-0.36,1.11-0.84,1.46-1.46c0.35-0.62,0.53-1.33,0.53-2.11c0-0.8-0.18-1.51-0.54-2.15c-0.36-0.64-0.86-1.13-1.5-1.49
			c-0.64-0.36-1.37-0.54-2.19-0.54c-0.85-0.01-1.57,0.13-2.16,0.44c-0.59,0.3-1.05,0.77-1.39,1.4h-3.56l1.29-12.12h12.63v3.22h-9.46
			l-0.65,5.69h0.18c0.43-0.48,1.02-0.88,1.76-1.17c0.74-0.3,1.54-0.46,2.41-0.47c1.3,0,2.48,0.3,3.54,0.91
			c1.06,0.61,1.89,1.45,2.48,2.53c0.6,1.08,0.89,2.3,0.89,3.65c0,1.41-0.33,2.67-1,3.78c-0.67,1.11-1.6,1.98-2.79,2.61
			s-2.54,0.94-4.06,0.94C187.34,449.91,186.07,449.64,184.94,449.12z"/>
		<path class="st2" d="M202.86,449.12c-1.13-0.53-2.03-1.25-2.68-2.17c-0.65-0.92-1-1.97-1.04-3.14h3.74
			c0.04,0.57,0.23,1.08,0.58,1.54s0.81,0.81,1.37,1.07c0.56,0.26,1.18,0.39,1.85,0.38c0.79,0,1.49-0.18,2.11-0.53
			c0.62-0.36,1.11-0.84,1.46-1.46c0.35-0.62,0.53-1.33,0.53-2.11c0-0.8-0.18-1.51-0.54-2.15c-0.36-0.64-0.86-1.13-1.5-1.49
			c-0.64-0.36-1.37-0.54-2.19-0.54c-0.85-0.01-1.57,0.13-2.16,0.44c-0.59,0.3-1.05,0.77-1.39,1.4h-3.56l1.29-12.12h12.63v3.22h-9.46
			l-0.65,5.69h0.18c0.43-0.48,1.02-0.88,1.76-1.17c0.74-0.3,1.54-0.46,2.41-0.47c1.3,0,2.48,0.3,3.54,0.91
			c1.06,0.61,1.89,1.45,2.48,2.53c0.6,1.08,0.89,2.3,0.89,3.65c0,1.41-0.33,2.67-1,3.78c-0.67,1.11-1.6,1.98-2.79,2.61
			s-2.54,0.94-4.06,0.94C205.26,449.91,203.99,449.64,202.86,449.12z"/>
	</g>
</g>
<circle class="st2" cx="57.5" cy="358.22" r="3.73"/>
<circle class="st2" cx="68.81" cy="358.22" r="3.73"/>
<circle class="st2" cx="80.12" cy="358.22" r="3.73"/>
</svg>
