<?xml version="1.0" encoding="utf-8"?>
<!-- Generator: Adobe Illustrator 26.3.1, SVG Export Plug-In . SVG Version: 6.00 Build 0)  -->
<svg version="1.1" id="레이어_1" xmlns="http://www.w3.org/2000/svg" xmlns:xlink="http://www.w3.org/1999/xlink" x="0px"
	 y="0px" viewBox="0 0 500 500" style="enable-background:new 0 0 500 500;" xml:space="preserve">
<style type="text/css">
	.st0{fill:#E28A8A;}
	.st1{fill:#1F84FF;}
	.st2{fill:#FFFFFF;}
	.st3{fill:#8FA9D8;}
	.st4{fill:#78C1A0;}
	.st5{fill:#D9F3FC;}
	.st6{fill:#202A45;}
	.st7{fill:#303030;}
	.st8{fill:#719BD8;}
	.st9{fill:#29B8FF;}
	.st10{fill:#E8C27E;}
	.st11{fill:#8E77C6;}
	.st12{fill:#EFABAB;}
	.st13{fill:#676D99;}
	.st14{fill:#ECECEC;}
	.st15{fill:#222222;}
</style>
<rect class="st12" width="500" height="500"/>
<g>
	<g>
		<path class="st2" d="M52.3,399.62h16.45l-0.49,2.9H51.82L52.3,399.62z M53.53,392.17h16.46l-0.49,2.9H53.06L53.53,392.17z
			 M57.43,386.64h2.91l-3.5,21.39h-2.92L57.43,386.64z M64.96,386.64h2.91l-3.52,21.39h-2.91L64.96,386.64z"/>
		<path class="st2" d="M71.46,386.64h13.9v3.24H75.3v5.85h9.34v3.21H75.3v5.87h10.12v3.24H71.46V386.64z"/>
		<path class="st2" d="M88.3,386.64H102v3.24h-9.86v5.85h8.91v3.21h-8.91v9.1H88.3V386.64z"/>
		<path class="st2" d="M103.11,408.04l7.54-21.39h4.74l7.54,21.39h-4.11l-5.72-17.02h-0.18l-5.72,17.02H103.11z M118.63,399.65v3.09
			h-11.27v-3.09H118.63z"/>
		<path class="st2" d="M124.75,386.64h8.17c1.51,0,2.78,0.23,3.82,0.7s1.82,1.12,2.34,1.96c0.52,0.84,0.78,1.81,0.77,2.89
			c0,0.84-0.16,1.57-0.48,2.19c-0.32,0.62-0.76,1.13-1.32,1.51c-0.56,0.39-1.21,0.67-1.94,0.85v0.21c0.79,0.04,1.53,0.28,2.23,0.71
			c0.7,0.43,1.27,1.04,1.7,1.83c0.43,0.78,0.65,1.69,0.65,2.73c0,1.13-0.27,2.13-0.82,3.01c-0.55,0.87-1.37,1.56-2.46,2.06
			c-1.09,0.5-2.43,0.75-4.02,0.75h-8.64V386.64z M134.28,395.36c0.54-0.26,0.96-0.61,1.27-1.07s0.46-0.99,0.46-1.6
			c0-0.56-0.13-1.06-0.39-1.49c-0.26-0.43-0.65-0.77-1.18-1c-0.52-0.24-1.15-0.35-1.89-0.35h-3.96v5.91h3.87
			C133.13,395.75,133.74,395.62,134.28,395.36z M135.04,404.45c0.6-0.25,1.04-0.58,1.32-1.01c0.29-0.43,0.42-0.94,0.41-1.53
			c0.01-0.64-0.14-1.22-0.46-1.73c-0.32-0.51-0.77-0.91-1.36-1.2c-0.59-0.29-1.28-0.44-2.05-0.45h-4.31v6.29h4.2
			C133.69,404.82,134.44,404.7,135.04,404.45z"/>
		<path class="st2" d="M141.66,408.04l7.54-21.39h4.74l7.54,21.39h-4.11l-5.72-17.02h-0.18l-5.72,17.02H141.66z M157.19,399.65v3.09
			h-11.27v-3.09H157.19z"/>
		<path class="st2" d="M163.3,386.64h8.17c1.51,0,2.78,0.23,3.82,0.7s1.82,1.12,2.34,1.96c0.52,0.84,0.78,1.81,0.77,2.89
			c0,0.84-0.16,1.57-0.48,2.19c-0.32,0.62-0.76,1.13-1.32,1.51c-0.56,0.39-1.21,0.67-1.94,0.85v0.21c0.79,0.04,1.53,0.28,2.23,0.71
			c0.7,0.43,1.27,1.04,1.7,1.83c0.43,0.78,0.65,1.69,0.65,2.73c0,1.13-0.27,2.13-0.82,3.01c-0.55,0.87-1.37,1.56-2.46,2.06
			c-1.09,0.5-2.43,0.75-4.02,0.75h-8.64V386.64z M172.83,395.36c0.54-0.26,0.97-0.61,1.27-1.07c0.3-0.46,0.46-0.99,0.46-1.6
			c0-0.56-0.13-1.06-0.39-1.49c-0.26-0.43-0.65-0.77-1.17-1c-0.52-0.24-1.15-0.35-1.89-0.35h-3.96v5.91h3.87
			C171.69,395.75,172.29,395.62,172.83,395.36z M173.6,404.45c0.6-0.25,1.04-0.58,1.32-1.01c0.29-0.43,0.42-0.94,0.41-1.53
			c0.01-0.64-0.14-1.22-0.46-1.73c-0.31-0.51-0.77-0.91-1.36-1.2c-0.59-0.29-1.28-0.44-2.05-0.45h-4.31v6.29h4.2
			C172.25,404.82,173,404.7,173.6,404.45z"/>
	</g>
</g>
<g>
	<g>
		<path class="st2" d="M53.35,446.82l7.55-7.27c0.82-0.83,1.45-1.51,1.91-2.04s0.8-1.06,1.04-1.57c0.24-0.52,0.36-1.07,0.36-1.65
			c0-0.64-0.16-1.21-0.49-1.7c-0.33-0.49-0.77-0.87-1.32-1.15c-0.56-0.27-1.19-0.41-1.88-0.41c-0.72,0-1.35,0.15-1.89,0.44
			c-0.54,0.29-0.96,0.71-1.26,1.24c-0.3,0.54-0.45,1.17-0.45,1.88h-3.65c-0.01-1.33,0.29-2.5,0.92-3.51
			c0.62-1.01,1.49-1.79,2.6-2.34s2.38-0.83,3.8-0.83c1.43,0,2.7,0.27,3.8,0.8c1.11,0.53,1.97,1.27,2.58,2.2s0.92,2,0.92,3.19
			c-0.01,0.83-0.17,1.62-0.48,2.39s-0.85,1.62-1.62,2.56c-0.77,0.94-1.86,2.06-3.26,3.38l-3.81,3.78v0.16h9.5v3.22H53.37
			L53.35,446.82z"/>
		<path class="st2" d="M74.56,449.14c-1.19-0.51-2.12-1.23-2.81-2.17c-0.69-0.93-1.04-1.99-1.07-3.17h3.89
			c0.03,0.57,0.23,1.07,0.59,1.5c0.36,0.43,0.84,0.76,1.43,1c0.59,0.24,1.26,0.35,2,0.35c0.79,0,1.49-0.13,2.11-0.4
			c0.62-0.27,1.1-0.64,1.45-1.12c0.34-0.48,0.51-1.03,0.5-1.66c0-0.65-0.17-1.23-0.52-1.73s-0.85-0.89-1.53-1.17
			c-0.67-0.28-1.47-0.42-2.39-0.42h-1.91v-2.97h1.91c0.75,0,1.42-0.13,2.01-0.39c0.59-0.26,1.05-0.63,1.37-1.1s0.48-1.01,0.48-1.62
			c0-0.59-0.14-1.12-0.42-1.57c-0.28-0.46-0.68-0.81-1.2-1.07c-0.52-0.26-1.12-0.38-1.81-0.38c-0.68,0.01-1.31,0.13-1.88,0.37
			s-1.03,0.58-1.39,1.02s-0.54,0.96-0.56,1.55h-3.71c0.03-1.18,0.38-2.23,1.06-3.15c0.67-0.92,1.58-1.63,2.71-2.14
			c1.13-0.51,2.39-0.76,3.78-0.76c1.42,0,2.67,0.26,3.75,0.79c1.08,0.53,1.91,1.24,2.5,2.14c0.59,0.9,0.88,1.9,0.87,2.99
			c0.01,0.79-0.15,1.5-0.47,2.14c-0.32,0.64-0.78,1.17-1.38,1.6c-0.6,0.42-1.29,0.72-2.07,0.89v0.16c0.99,0.14,1.85,0.43,2.56,0.88
			s1.25,1.03,1.62,1.74c0.36,0.71,0.55,1.52,0.55,2.42c0,1.18-0.34,2.25-1.03,3.19c-0.69,0.95-1.63,1.69-2.85,2.23
			c-1.22,0.54-2.59,0.81-4.12,0.81C77.09,449.91,75.75,449.65,74.56,449.14z"/>
		<path class="st2" d="M100.94,428.94c1.25,0.67,2.26,1.77,3.04,3.31c0.77,1.54,1.16,3.54,1.16,6.01c0,2.42-0.35,4.51-1.03,6.26
			c-0.69,1.75-1.68,3.08-2.98,4s-2.81,1.38-4.56,1.38c-1.36,0-2.57-0.26-3.64-0.79c-1.07-0.53-1.93-1.25-2.59-2.16
			c-0.66-0.92-1.06-1.97-1.22-3.15h3.78c0.14,0.56,0.38,1.05,0.71,1.46s0.75,0.73,1.25,0.96s1.07,0.34,1.71,0.34
			c1.03,0,1.9-0.29,2.62-0.87c0.72-0.58,1.27-1.42,1.65-2.51c0.37-1.09,0.57-2.4,0.58-3.93h-0.22c-0.35,0.61-0.81,1.14-1.37,1.57
			c-0.56,0.44-1.19,0.78-1.89,1.01s-1.45,0.35-2.22,0.35c-1.27,0-2.42-0.3-3.45-0.89c-1.03-0.6-1.84-1.42-2.45-2.48
			c-0.6-1.05-0.9-2.24-0.9-3.56c0-1.4,0.33-2.66,0.98-3.77c0.65-1.12,1.58-2,2.78-2.63c1.2-0.64,2.57-0.95,4.13-0.94
			C98.31,427.93,99.69,428.27,100.94,428.94z M94.68,431.58c-0.64,0.37-1.14,0.87-1.5,1.51c-0.36,0.63-0.54,1.33-0.53,2.08
			c0,0.76,0.18,1.45,0.53,2.08c0.35,0.63,0.84,1.12,1.46,1.49c0.62,0.36,1.32,0.55,2.11,0.55c0.77,0,1.47-0.19,2.12-0.58
			c0.65-0.38,1.16-0.89,1.53-1.52c0.38-0.63,0.56-1.31,0.56-2.04c0-0.73-0.18-1.41-0.55-2.04c-0.37-0.63-0.86-1.13-1.49-1.51
			c-0.63-0.37-1.34-0.56-2.13-0.56C96.02,431.02,95.31,431.21,94.68,431.58z"/>
		<path class="st2" d="M109.44,455.79h-2.81l1.52-8.29h3.77L109.44,455.79z"/>
		<path class="st2" d="M130.36,449.61h-3.87v-17.64h-0.12l-5.01,3.21v-3.53l5.3-3.43h3.69V449.61z"/>
		<path class="st2" d="M144.88,431.57v-0.13h-10.77v-3.22h14.76v3.29l-9.28,18.1h-3.99L144.88,431.57z"/>
		<path class="st2" d="M159.9,449.61h-3.87v-17.64h-0.12l-5.01,3.21v-3.53l5.3-3.43h3.69V449.61z"/>
		<path class="st2" d="M166.19,455.79h-2.81l1.52-8.29h3.77L166.19,455.79z"/>
		<path class="st2" d="M187.11,449.61h-3.87v-17.64h-0.12l-5.01,3.21v-3.53l5.3-3.43h3.69V449.61z"/>
		<path class="st2" d="M201.63,431.57v-0.13h-10.77v-3.22h14.76v3.29l-9.28,18.1h-3.99L201.63,431.57z"/>
		<path class="st2" d="M216.65,449.61h-3.87v-17.64h-0.12l-5.01,3.21v-3.53l5.3-3.43h3.69V449.61z"/>
	</g>
</g>
<circle class="st2" cx="57.5" cy="358.22" r="3.73"/>
<circle class="st2" cx="68.81" cy="358.22" r="3.73"/>
<circle class="st2" cx="80.12" cy="358.22" r="3.73"/>
</svg>
