<svg xmlns="http://www.w3.org/2000/svg" xmlns:xlink="http://www.w3.org/1999/xlink" viewBox="0 0 6151.85 1979.64"><defs><style>.cls-1{fill:url(#New_Gradient_Swatch);}.cls-2{fill:#fff;}</style><linearGradient id="New_Gradient_Swatch" x1="638.87" y1="1431.16" x2="1148.49" y2="548.48" gradientUnits="userSpaceOnUse"><stop offset="0" stop-color="#ff7477"/><stop offset="1" stop-color="#ffad93"/></linearGradient></defs><g id="Layer_2" data-name="Layer 2"><g id="Layer_1-2" data-name="Layer 1"><path class="cls-1" d="M664.67,1438.1A51.72,51.72,0,0,1,620,1360.54L1077.87,567.4a51.7,51.7,0,0,1,89.54,51.7L709.49,1412.24A51.66,51.66,0,0,1,664.67,1438.1Z"/><path class="cls-2" d="M4679.91,1437.85c-22.62-2.36-39.36-22.27-39.36-45V584.41c0-25.07,21.08-44.48,47.32-42.76,22.5,1.47,39.62,21,39.62,43.52V1394C4727.49,1420.33,4706.15,1440.59,4679.91,1437.85Zm603.42-501.68c72.5,72.5,102.38,176.63,77,281.89-23.36,97-96.18,175.35-191.32,205.36-110.89,35-223.59,6-301.27-71.7s-106.69-190.39-71.69-301.28c30-95.15,108.38-168,205.37-191.3C5106.72,833.8,5210.84,863.68,5283.33,936.17Zm-1.46,221.53c8-124.76-95.31-228.05-220.07-220.07-103.13,6.59-186.42,89.89-193,193-8,124.77,95.31,228,220.08,220.07C5192,1344.13,5275.28,1260.83,5281.87,1157.7ZM2884.81,585h0v559.17c0,78.13-30.68,151.84-86.38,207.54-77.67,77.68-190.37,106.69-301.25,71.71-95.15-30-168-108.36-191.33-205.36-25.34-105.27,4.53-209.4,77-281.9,55.4-55.4,129.27-85.91,208-85.91,64.25,0,127.46,21.2,178,59.7a18.06,18.06,0,0,0,29-14.36V585h0a43.47,43.47,0,1,1,86.94,0Zm-86.94,557.93c0-113.45-92.85-205.74-207-205.74-117.86,0-213,99-206.68,218.25,5.59,104.93,90.49,189.83,195.43,195.41,119.21,6.34,218.23-88.82,218.23-206.68ZM6151.85,585h0v559.17c0,78.13-30.67,151.84-86.38,207.54-77.67,77.68-190.36,106.69-301.24,71.71a285.83,285.83,0,0,1-191.33-205.36c-25.35-105.27,4.53-209.4,77-281.9,55.4-55.4,129.27-85.91,208-85.91,64.25,0,127.46,21.2,178,59.7a18.06,18.06,0,0,0,29-14.36V585h0a43.47,43.47,0,1,1,86.93,0Zm-86.93,557.93c0-113.45-92.86-205.74-207-205.74-117.86,0-213,99-206.68,218.25,5.6,104.93,90.5,189.83,195.43,195.41,119.22,6.34,218.24-88.82,218.24-206.68Zm-2538.36,1.24c0,24-19.37,42.85-44.09,42.85H3053.66a18.05,18.05,0,0,0-17,24h0c29.33,83.8,108.11,140.11,196,140.11,34.78,0,83.52-1.69,144.52-41.09a42.11,42.11,0,0,1,57.53,15.42c11.64,20.15,4.25,48.07-15.9,59.7-75.62,50.42-138,52.91-180.05,52.91h-6.1c-162.07,0-293.92-131.86-293.92-293.92,0-78.74,30.51-152.61,85.91-208s129.28-85.91,208-85.91C3375.13,850.26,3526.56,953.27,3526.56,1144.18Zm-96.4-67.34c-30.92-103.07-125.73-139.64-197.52-139.64-87.68,0-166.44,55.77-196,138.78h0a18.06,18.06,0,0,0,17,24.11h359.21A18.06,18.06,0,0,0,3430.16,1076.84Zm1156.48,67.34c0,24-19.37,42.85-44.09,42.85H4113.74a18.05,18.05,0,0,0-17,24h0c29.33,83.8,108.1,140.11,196,140.11,34.78,0,83.51-1.69,144.51-41.09a42.12,42.12,0,0,1,57.54,15.42c11.63,20.15,4.24,48.07-15.9,59.7-75.63,50.42-138,52.91-180.05,52.91h-6.1c-162.07,0-293.92-131.86-293.92-293.92,0-78.74,30.51-152.61,85.91-208s129.27-85.91,208-85.91C4435.2,850.26,4586.64,953.27,4586.64,1144.18Zm-96.4-67.34c-30.92-103.07-125.73-139.64-197.52-139.64-87.68,0-166.44,55.77-196,138.78h0a18.05,18.05,0,0,0,17,24.11h359.2A18.06,18.06,0,0,0,4490.24,1076.84ZM5423.58,818h-.42v3.93C5423.16,820.57,5423.46,819.31,5423.58,818Zm-.42,3.93V818h0v3.93Zm0,0h0v0Zm43.47-47.4A43.47,43.47,0,0,0,5423.16,818v574.85c0,22.74,16.74,42.64,39.35,45,26.25,2.74,47.59-17.51,47.59-43.84V818h0A43.47,43.47,0,0,0,5466.63,774.53Zm0-194.77a43.47,43.47,0,1,0,43.47,43.47A43.47,43.47,0,0,0,5466.63,579.76ZM3965.57,853.06a44.19,44.19,0,0,0-56.89,26l0,.11-146,389-146-389a.76.76,0,0,1,0-.11,44.21,44.21,0,1,0-82.81,31h0l186.18,498.11a46.08,46.08,0,0,0,42.1,29.93v0l.53,0,.53,0v0a46.09,46.09,0,0,0,42.11-29.93L3991.5,910h0A44.28,44.28,0,0,0,3965.57,853.06ZM893.68,1979.64A271.37,271.37,0,0,1,758,1943.39L135.73,1584.15A272.22,272.22,0,0,1,0,1349.06V630.58A272.22,272.22,0,0,1,135.73,395.49L758,36.25a272.25,272.25,0,0,1,271.46,0l622.22,359.24a272.22,272.22,0,0,1,135.73,235.09v718.48a272.22,272.22,0,0,1-135.73,235.09l-622.22,359.24A271.4,271.4,0,0,1,893.68,1979.64Zm0-1876.28a168,168,0,0,0-84,22.44L187.43,485a168.52,168.52,0,0,0-84,145.54v718.48a168.52,168.52,0,0,0,84,145.54l622.22,359.24a168.5,168.5,0,0,0,168.06,0l622.22-359.24a168.52,168.52,0,0,0,84-145.54V630.58a168.52,168.52,0,0,0-84-145.54L977.71,125.8A168.05,168.05,0,0,0,893.68,103.36Z"/></g></g></svg>