<svg xmlns="http://www.w3.org/2000/svg" viewBox="0 0 282.24 67.1"><defs><style>.cls-1{fill:#202A45;}</style></defs><g id="레이어_2" data-name="레이어 2"><g id="레이어_1-2" data-name="레이어 1"><path class="cls-1" d="M132.23,49.74a2.49,2.49,0,0,1-2.18-2.5V2.38a2.41,2.41,0,0,1,4.82,0V47.3A2.39,2.39,0,0,1,132.23,49.74Z"/><path class="cls-1" d="M30.21,0A2.41,2.41,0,0,0,27.8,2.41h0V19.65a1,1,0,0,1-1.61.79,16.45,16.45,0,0,0-9.88-3.31A16.17,16.17,0,0,0,4.77,21.9,16.4,16.4,0,0,0,.49,37.54a15.89,15.89,0,0,0,10.62,11.4,16.35,16.35,0,0,0,16.72-4,16.19,16.19,0,0,0,4.79-11.52v-31A2.41,2.41,0,0,0,30.21,0ZM27.8,33.44a11.45,11.45,0,1,1,0-.07Z"/><path class="cls-1" d="M51.92,17.13a16.31,16.31,0,0,0,0,32.62h.34a16.6,16.6,0,0,0,10-2.94,2.48,2.48,0,0,0,.88-3.31,2.32,2.32,0,0,0-3.19-.85,13.53,13.53,0,0,1-8,2.28A11.58,11.58,0,0,1,41,37.15a1,1,0,0,1,1-1.33H65.78a2.39,2.39,0,0,0,2.45-2.38C68.23,22.85,59.83,17.13,51.92,17.13ZM61.92,31H42a1,1,0,0,1-.94-1.33h0A11.56,11.56,0,0,1,51.92,22c4,0,9.25,2,11,7.74A1,1,0,0,1,61.92,31Z"/><path class="cls-1" d="M244.21,0a2.41,2.41,0,0,0-2.41,2.41h0V19.65a1,1,0,0,1-1.61.79,16.41,16.41,0,0,0-9.88-3.31,16.21,16.21,0,0,0-11.54,4.77,16.39,16.39,0,0,0-4.27,15.64,15.86,15.86,0,0,0,10.61,11.4,16.38,16.38,0,0,0,21.51-15.5v-31A2.41,2.41,0,0,0,244.21,0ZM241.8,33.44a11.45,11.45,0,1,1,0-.07Z"/><path class="cls-1" d="M265.93,17.13a16.31,16.31,0,0,0,0,32.62h.33a16.61,16.61,0,0,0,10-2.94,2.5,2.5,0,0,0,.88-3.31,2.33,2.33,0,0,0-3.19-.85,13.55,13.55,0,0,1-8,2.28,11.58,11.58,0,0,1-10.88-7.78,1,1,0,0,1,.94-1.33h23.8a2.4,2.4,0,0,0,2.45-2.38C282.24,22.85,273.83,17.13,265.93,17.13Zm10,13.86H256a1,1,0,0,1-.94-1.33h0A11.58,11.58,0,0,1,265.93,22c4,0,9.24,2,11,7.74A1,1,0,0,1,275.93,31Z"/><path class="cls-1" d="M110.75,17.13a16.31,16.31,0,0,0,0,32.62h.33a16.61,16.61,0,0,0,10-2.94A2.5,2.5,0,0,0,122,43.5a2.33,2.33,0,0,0-3.19-.85,13.55,13.55,0,0,1-8,2.28,11.58,11.58,0,0,1-10.88-7.78,1,1,0,0,1,.94-1.33h23.8a2.4,2.4,0,0,0,2.45-2.38C127.06,22.85,118.65,17.13,110.75,17.13Zm10,13.86H100.81a1,1,0,0,1-.94-1.33h0A11.58,11.58,0,0,1,110.75,22c4,0,9.24,2,11,7.74A1,1,0,0,1,120.75,31Z"/><path class="cls-1" d="M92.59,17.29a2.44,2.44,0,0,0-3.15,1.44h0l-8.1,21.59-8.1-21.59h0a2.45,2.45,0,1,0-4.59,1.72h0L79,48.09a2.55,2.55,0,0,0,2.33,1.66h.06a2.57,2.57,0,0,0,2.34-1.66L94,20.45h0A2.45,2.45,0,0,0,92.59,17.29Z"/><path class="cls-1" d="M201.79,46.57a2.74,2.74,0,0,1-.6,1.81,2.53,2.53,0,0,1-3.58,0,2.79,2.79,0,0,1-.59-1.81V44.16a7,7,0,0,1-1.4,2.16,10.07,10.07,0,0,1-2.29,1.78,12.84,12.84,0,0,1-3,1.21,13,13,0,0,1-3.4.44q-6.48,0-10-3.72t-3.53-10V20.12a2.38,2.38,0,0,1,.6-1.71,2.81,2.81,0,0,1,3.57,0,2.38,2.38,0,0,1,.6,1.71V35.51q0,4.89,2.49,7.53a9,9,0,0,0,6.89,2.64,10.87,10.87,0,0,0,3.76-.63,9.62,9.62,0,0,0,3-1.72,7.92,7.92,0,0,0,2-2.58,7.27,7.27,0,0,0,.74-3.27V20.12a2.42,2.42,0,0,1,.59-1.71,2.82,2.82,0,0,1,3.58,0,2.38,2.38,0,0,1,.6,1.71Z"/><path class="cls-1" d="M206.19,15.34h0v.22A1.46,1.46,0,0,1,206.19,15.34Z"/><polygon class="cls-1" points="206.16 15.56 206.16 15.34 206.16 15.34 206.16 22.16 206.16 15.56 206.16 15.56"/><polygon class="cls-1" points="206.16 15.56 206.16 15.56 206.16 22.16 206.16 32.58 206.16 15.56"/><path class="cls-1" d="M208.58,12.93a2.41,2.41,0,0,0-2.42,2.41v31.9a2.49,2.49,0,0,0,2.19,2.5A2.39,2.39,0,0,0,211,47.3v-32h0A2.41,2.41,0,0,0,208.58,12.93Z"/><circle class="cls-1" cx="208.58" cy="4.53" r="2.41"/><path class="cls-1" d="M170.45,33.43A16.41,16.41,0,1,0,164,46.34l1-.77.61-.49v0l0,0V51a11.68,11.68,0,0,1-11.58,11.38,11.57,11.57,0,0,1-10.43-6.55,2.39,2.39,0,0,0-2.12-1.28,2.25,2.25,0,0,0-1,.24,2.34,2.34,0,0,0-1.22,1.35,2.38,2.38,0,0,0,.11,1.81,16.32,16.32,0,0,0,31-7.15ZM154.15,45a11.58,11.58,0,1,1,11.58-11.58A11.73,11.73,0,0,1,154.15,45Z"/></g></g></svg>