<svg xmlns="http://www.w3.org/2000/svg" viewBox="0 0 1411.71 1563.58"><defs><style>.cls-1{fill:#202a45;}.cls-2{fill:#1f84ff;}</style></defs><g id="레이어_2" data-name="레이어 2"><g id="Layer_1" data-name="Layer 1"><path class="cls-1" d="M705.85,1563.58A214.33,214.33,0,0,1,598.65,1535L107.2,1251.21A215,215,0,0,1,0,1065.53V498.05A215,215,0,0,1,107.2,312.37L598.65,28.63a215,215,0,0,1,214.41,0l491.45,283.74a215,215,0,0,1,107.2,185.68v567.48a215,215,0,0,1-107.2,185.68L813.06,1535A214.34,214.34,0,0,1,705.85,1563.58Zm0-1481.95a132.7,132.7,0,0,0-66.37,17.73L148,383.1a133.09,133.09,0,0,0-66.37,115v567.48a133.09,133.09,0,0,0,66.37,115l491.44,283.74a133.13,133.13,0,0,0,132.75,0l491.44-283.74a133.09,133.09,0,0,0,66.37-115V498.05a133.09,133.09,0,0,0-66.37-114.95L772.23,99.36A132.71,132.71,0,0,0,705.85,81.63Z"/><path class="cls-2" d="M525,1135.85a40.84,40.84,0,0,1-35.33-61.25L851.33,448.15A40.84,40.84,0,1,1,922.06,489L560.38,1115.43A40.81,40.81,0,0,1,525,1135.85Z"/></g></g></svg>