<svg xmlns="http://www.w3.org/2000/svg" viewBox="0 0 4237.73 990.12"><defs><style>.cls-1{fill:#fff;}</style></defs><g id="Layer_2" data-name="Layer 2"><g id="Layer_1-2" data-name="Layer 1"><path class="cls-1" d="M2619.59,989.85c-24.85-2.61-43.26-24.6-43.26-49.72V47.35c0-27.7,23.17-49.13,52-47.23,24.74,1.63,43.56,23.14,43.56,48.06V941.4C2671.91,970.5,2648.44,992.87,2619.59,989.85Zm663.36-554c79.7,80.07,112.54,195.06,84.68,311.31-25.67,107.12-105.72,193.65-210.32,226.8-121.9,38.63-245.79,6.6-331.18-79.19S2708.84,684.47,2747.31,562a314.83,314.83,0,0,1,225.78-211.26C3088.8,322.76,3203.26,355.75,3283,435.81Zm-1.61,244.65c8.77-137.78-104.77-251.84-241.93-243-113.36,7.29-204.93,99.28-212.18,213.17-8.77,137.79,104.77,251.85,241.93,243C3182.52,886.35,3274.09,794.35,3281.34,680.46ZM646.22,48h0V665.53c0,86.29-33.72,167.69-95,229.2C465.87,980.51,342,1012.55,220.09,973.92,115.49,940.78,35.44,854.25,9.77,747.13c-27.87-116.25,5-231.25,84.67-311.32,60.91-61.18,142.11-94.88,228.67-94.88,70.63,0,140.11,23.42,195.66,65.93,13.06,10,31.88.64,31.88-15.86V48h0a47.79,47.79,0,1,1,95.57,0ZM550.65,664.16C550.65,538.88,448.57,437,323.11,437,193.54,437,88.92,546.31,95.9,678c6.15,115.89,99.48,209.64,214.84,215.81,131.05,7,239.91-98.09,239.91-228.25ZM4237.73,48h0V665.53c0,86.29-33.72,167.69-94.95,229.2-85.39,85.78-209.27,117.82-331.17,79.19C3707,940.78,3627,854.25,3601.27,747.13c-27.86-116.25,5-231.25,84.68-311.32,60.9-61.18,142.11-94.88,228.66-94.88,70.63,0,140.12,23.42,195.67,65.93,13.06,10,31.87.64,31.87-15.86V48h0a47.79,47.79,0,1,1,95.58,0Zm-95.58,616.15c0-125.28-102.07-227.21-227.54-227.21-129.56,0-234.18,109.36-227.2,241,6.15,115.89,99.48,209.64,214.84,215.81,131.05,7,239.9-98.09,239.9-228.25Zm-2790.44,1.37c0,26.53-21.29,47.32-48.47,47.32H831.84a19.92,19.92,0,0,0-18.73,26.52h0C845.35,831.92,932,894.11,1028.59,894.11c38.24,0,91.81-1.86,158.87-45.37a46.19,46.19,0,0,1,63.26,17c12.78,22.25,4.66,53.09-17.49,65.93-83.13,55.68-151.69,58.43-197.93,58.43h-6.71c-178.16,0-323.1-145.61-323.1-324.59,0-86.95,33.54-168.53,94.44-229.72S942,340.93,1028.59,340.93C1185.23,340.93,1351.71,454.7,1351.71,665.53Zm-106-74.36C1211.74,477.34,1107.52,437,1028.59,437c-96.38,0-183,61.59-215.45,153.26h0a19.92,19.92,0,0,0,18.7,26.62h394.88A19.92,19.92,0,0,0,1245.73,591.17Zm1271.33,74.36c0,26.53-21.29,47.32-48.46,47.32H1997.2a19.93,19.93,0,0,0-18.74,26.52h0c32.25,92.55,118.85,154.74,215.49,154.74,38.24,0,91.81-1.86,158.87-45.37a46.18,46.18,0,0,1,63.25,17c12.79,22.25,4.67,53.09-17.48,65.93-83.13,55.68-151.69,58.43-197.93,58.43H2194c-178.16,0-323.1-145.61-323.1-324.59,0-86.95,33.54-168.53,94.44-229.72S2107.4,340.93,2194,340.93C2350.59,340.93,2517.06,454.7,2517.06,665.53Zm-106-74.36C2377.1,477.34,2272.88,437,2194,437c-96.39,0-183,61.59-215.45,153.26h0a19.92,19.92,0,0,0,18.7,26.62h394.88A19.92,19.92,0,0,0,2411.09,591.17Zm1026-285.86h-.45v4.33C3436.67,308.15,3437,306.76,3437.12,305.31Zm-.45,4.33v-4.33h0v4.34Zm0,0h0v0Zm47.78-52.34a47.89,47.89,0,0,0-47.78,48V940.15c0,25.11,18.4,47.09,43.26,49.7,28.85,3,52.31-19.34,52.31-48.42V305.31h0A47.9,47.9,0,0,0,3484.45,257.3Zm0-215.09a48,48,0,1,0,47.79,48A47.89,47.89,0,0,0,3484.45,42.21ZM1834.32,344a48.52,48.52,0,0,0-62.54,28.67.56.56,0,0,0,0,.12l-160.46,429.6-160.47-429.6,0-.12a48.63,48.63,0,1,0-91,34.23h0L1564.41,957a50.65,50.65,0,0,0,46.28,33.06v0l.59,0,.58,0v0A50.67,50.67,0,0,0,1658.15,957l204.67-550.09h0A49,49,0,0,0,1834.32,344Z"/></g></g></svg>