<?xml version="1.0" encoding="UTF-8" standalone="no"?>
<!DOCTYPE svg PUBLIC "-//W3C//DTD SVG 1.1//EN" "http://www.w3.org/Graphics/SVG/1.1/DTD/svg11.dtd">
<svg width="100%" height="100%" viewBox="0 0 500 500" version="1.1" xmlns="http://www.w3.org/2000/svg" xmlns:xlink="http://www.w3.org/1999/xlink" xml:space="preserve" xmlns:serif="http://www.serif.com/" style="fill-rule:evenodd;clip-rule:evenodd;stroke-linecap:round;stroke-linejoin:round;stroke-miterlimit:1.5;">
    <g transform="matrix(1,0,0,1,-3144.7,-3543)">
        <g id="Artboard1" transform="matrix(0.195312,0,0,0.347222,-21.4899,3543)">
            <rect x="16210.9" y="0" width="2560" height="1440" style="fill:none;"/>
            <clipPath id="_clip1">
                <rect x="16210.9" y="0" width="2560" height="1440"/>
            </clipPath>
            <g clip-path="url(#_clip1)">
                <g transform="matrix(5.12,0,0,2.88,16210.9,-10203.8)">
                    <path d="M500,3793C500,3654.93 388.071,3543 250,3543C250,3543 250,3543 250,3543C111.929,3543 -0,3654.93 -0,3793C0,3793 0,3793 0,3793C0,3931.07 111.929,4043 250,4043C250,4043 250,4043 250,4043C388.071,4043 500,3931.07 500,3793L500,3793Z" style="fill:rgb(55,55,55);"/>
                    <path d="M500,3793C500,3654.93 388.071,3543 250,3543C250,3543 250,3543 250,3543C111.929,3543 -0,3654.93 -0,3793C0,3793 0,3793 0,3793C0,3931.07 111.929,4043 250,4043C250,4043 250,4043 250,4043C388.071,4043 500,3931.07 500,3793L500,3793ZM484,3793C484,3663.76 379.235,3559 250,3559C250,3559 250,3559 250,3559C120.765,3559 16,3663.76 16,3793C16,3793 16,3793 16,3793C16,3922.24 120.765,4027 250,4027C250,4027 250,4027 250,4027C379.235,4027 484,3922.24 484,3793L484,3793Z" style="fill:rgb(69,69,69);"/>
                </g>
                <g transform="matrix(6.84581,-0.725602,1.42567,4.25588,10468.5,-15289)">
                    <path d="M233.077,3777.56L233.077,3822.94L233.077,3822.94C250.963,3822.94 265.462,3809.82 265.462,3793.64C265.462,3779.46 265.462,3762.5 265.462,3748.44C265.462,3732.78 251.428,3720.08 234.117,3720.08L234.114,3720.08C216.803,3720.08 202.769,3732.78 202.769,3748.44C202.769,3778.28 202.769,3824.95 202.769,3854.75C202.769,3870.35 216.747,3883 233.991,3883C233.991,3883 233.991,3883 233.991,3883C242.311,3883 250.287,3880 256.157,3874.67C262.026,3869.33 265.305,3862.1 265.267,3854.57C265.217,3844.75 265.173,3836.16 265.173,3836.16" style="fill:none;stroke:rgb(249,249,249);stroke-width:13.54px;"/>
                </g>
            </g>
        </g>
    </g>
</svg>
