<svg width="86" height="28" viewBox="0 0 86 28" fill="none" xmlns="http://www.w3.org/2000/svg">
<path d="M36.5625 13C39 13 40.5117 11.4961 40.5117 8.99609C40.5117 6.5 39 5 36.5586 5H33.6055V13H36.5625ZM35.5391 11.3516V6.64844H36.4609C37.8359 6.64844 38.5742 7.27344 38.5742 8.99609C38.5742 10.7266 37.8359 11.3516 36.4883 11.3516H35.5391ZM41.2006 13H46.7787V11.4297H43.1342V9.78516H46.4936V8.21094H43.1342V6.57031H46.7787V5H41.2006V13ZM49.3661 5H47.202L49.9012 13H52.4755L55.1747 5H53.0106L51.2216 10.8594H51.1552L49.3661 5ZM55.596 13H61.1741V11.4297H57.5296V9.78516H60.889V8.21094H57.5296V6.57031H61.1741V5H55.596V13ZM61.9451 13H67.2068V11.4297H63.8787V5H61.9451V13ZM75.007 9C75.007 6.35547 73.3352 4.89062 71.1867 4.89062C69.0305 4.89062 67.3703 6.35547 67.3703 9C67.3703 11.6328 69.0305 13.1094 71.1867 13.1094C73.3352 13.1094 75.007 11.6445 75.007 9ZM73.0305 9C73.0305 10.5664 72.343 11.4141 71.1867 11.4141C70.0344 11.4141 69.343 10.5664 69.343 9C69.343 7.43359 70.0344 6.58594 71.1867 6.58594C72.343 6.58594 73.0305 7.43359 73.0305 9ZM77.6295 5H75.6959V13H77.6295V5ZM81.3604 13C83.7979 13 85.3096 11.4961 85.3096 8.99609C85.3096 6.5 83.7979 5 81.3565 5H78.4034V13H81.3604ZM80.337 11.3516V6.64844H81.2589C82.6339 6.64844 83.3721 7.27344 83.3721 8.99609C83.3721 10.7266 82.6339 11.3516 81.2862 11.3516H80.337Z" fill="black"/>
<path d="M38.2422 18.1016H39.4063C39.3711 16.8203 38.2383 15.8906 36.6133 15.8906C35.0078 15.8906 33.7773 16.8086 33.7773 18.1875C33.7773 19.3008 34.5742 19.9531 35.8594 20.3008L36.8047 20.5586C37.6602 20.7852 38.3203 21.0664 38.3203 21.7773C38.3203 22.5586 37.5742 23.0742 36.5469 23.0742C35.6172 23.0742 34.8438 22.6602 34.7734 21.7891H33.5625C33.6406 23.2383 34.7617 24.1328 36.5547 24.1328C38.4336 24.1328 39.5156 23.1445 39.5156 21.7891C39.5156 20.3477 38.2305 19.7891 37.2148 19.5391L36.4336 19.3359C35.8086 19.1758 34.9766 18.8828 34.9805 18.1172C34.9805 17.4375 35.6016 16.9336 36.5859 16.9336C37.5039 16.9336 38.1562 17.3633 38.2422 18.1016ZM45.6625 16V21.1641C45.6625 22.25 44.9125 23.0312 43.6938 23.0312C42.4789 23.0312 41.725 22.25 41.725 21.1641V16H40.518V21.2617C40.518 22.9414 41.7758 24.1328 43.6938 24.1328C45.6118 24.1328 46.8735 22.9414 46.8735 21.2617V16H45.6625ZM48.1884 24H49.3954V21.1875H51.036C52.8915 21.1875 53.8095 20.0664 53.8095 18.5898C53.8095 17.1172 52.8993 16 51.0399 16H48.1884V24ZM49.3954 20.1641V17.0352H50.911C52.1063 17.0352 52.5946 17.6836 52.5946 18.5898C52.5946 19.4961 52.1063 20.1641 50.9266 20.1641H49.3954ZM54.7845 24H55.9915V21.1875H57.6321C59.4876 21.1875 60.4056 20.0664 60.4056 18.5898C60.4056 17.1172 59.4954 16 57.6361 16H54.7845V24ZM55.9915 20.1641V17.0352H57.5071C58.7025 17.0352 59.1907 17.6836 59.1907 18.5898C59.1907 19.4961 58.7025 20.1641 57.5228 20.1641H55.9915ZM68.3298 20C68.3298 17.4414 66.7986 15.8906 64.7283 15.8906C62.6502 15.8906 61.1228 17.4414 61.1228 20C61.1228 22.5547 62.6502 24.1094 64.7283 24.1094C66.7986 24.1094 68.3298 22.5586 68.3298 20ZM67.1345 20C67.1345 21.9492 66.1033 23.0078 64.7283 23.0078C63.3494 23.0078 62.322 21.9492 62.322 20C62.322 18.0508 63.3494 16.9922 64.7283 16.9922C66.1033 16.9922 67.1345 18.0508 67.1345 20ZM69.3947 24H70.6018V20.9727H72.3205L73.9455 24H75.3205L73.5471 20.7617C74.5275 20.3984 75.0158 19.582 75.0158 18.5078C75.0158 17.0352 74.1018 16 72.2463 16H69.3947V24ZM70.6018 19.9336V17.0352H72.1174C73.3088 17.0352 73.801 17.6016 73.801 18.5078C73.801 19.4102 73.3088 19.9336 72.133 19.9336H70.6018ZM75.65 17.0391H78.1422V24H79.3454V17.0391H81.8414V16H75.65V17.0391Z" fill="#8E77C6"/>
<path d="M12.5999 28C11.9283 28.0008 11.2683 27.8243 10.6863 27.4882L1.91359 22.4062C1.3325 22.0684 0.849954 21.5835 0.514156 21C0.178358 20.4165 0.00106861 19.7549 0 19.0811L0 8.91894C0.00106861 8.2452 0.178358 7.58353 0.514156 7.00004C0.849954 6.41655 1.3325 5.93168 1.91359 5.59387L10.6863 0.512775C11.2685 0.176814 11.9283 0 12.6 0C13.2716 0 13.9315 0.176814 14.5136 0.512775L23.2863 5.59387C23.8674 5.93168 24.35 6.41655 24.6858 7.00004C25.0216 7.58353 25.1989 8.2452 25.1999 8.91894V19.0811C25.1989 19.7549 25.0216 20.4165 24.6858 21C24.35 21.5835 23.8674 22.0684 23.2863 22.4062L14.5136 27.4882C13.9316 27.8243 13.2715 28.0009 12.5999 28ZM12.5999 1.46188C12.184 1.46155 11.7754 1.57105 11.4151 1.77938L2.64189 6.86047C2.282 7.06965 1.98315 7.36996 1.77524 7.73135C1.56733 8.09275 1.45764 8.50257 1.45715 8.91984V19.082C1.45764 19.4993 1.56733 19.9091 1.77524 20.2705C1.98315 20.6319 2.282 20.9322 2.64189 21.1414L11.4144 26.2225C11.7749 26.4305 12.1834 26.5399 12.5992 26.5399C13.0151 26.5399 13.4236 26.4305 13.7841 26.2225L22.5566 21.1414C22.9165 20.9322 23.2153 20.6319 23.4233 20.2705C23.6312 19.9091 23.7409 19.4993 23.7413 19.082V8.91894C23.7407 8.50183 23.6309 8.09219 23.423 7.73097C23.2151 7.36974 22.9164 7.06958 22.5566 6.86047L13.7848 1.77938C13.4245 1.57103 13.0158 1.46153 12.5999 1.46188Z" fill="black"/>
<path d="M9.37105 20.3406C9.24317 20.3405 9.11757 20.3066 9.00686 20.2423C8.89616 20.1781 8.80425 20.0858 8.74035 19.9747C8.67645 19.8635 8.64281 19.7375 8.64282 19.6092C8.64283 19.4809 8.67648 19.3549 8.74039 19.2438L15.1963 8.02555C15.2439 7.94188 15.3075 7.86847 15.3835 7.80954C15.4595 7.75061 15.5463 7.70732 15.639 7.68217C15.7317 7.65701 15.8285 7.65048 15.9237 7.66295C16.019 7.67542 16.1108 7.70665 16.194 7.75484C16.2771 7.80302 16.35 7.86722 16.4084 7.94374C16.4667 8.02026 16.5094 8.1076 16.534 8.20073C16.5587 8.29386 16.5647 8.39096 16.5518 8.48643C16.5389 8.58191 16.5073 8.67388 16.4588 8.75708L10.0026 19.9749C9.93865 20.0862 9.8466 20.1785 9.73572 20.2427C9.62485 20.3069 9.49907 20.3407 9.37105 20.3406Z" fill="#8E77C6"/>
</svg>
