<?xml version="1.0" encoding="utf-8"?>
<!-- Generator: Adobe Illustrator 26.3.1, SVG Export Plug-In . SVG Version: 6.00 Build 0)  -->
<svg version="1.1" id="레이어_1" xmlns="http://www.w3.org/2000/svg" xmlns:xlink="http://www.w3.org/1999/xlink" x="0px"
	 y="0px" viewBox="0 0 400 500" style="enable-background:new 0 0 400 500;" xml:space="preserve">
<style type="text/css">
	.st0{clip-path:url(#SVGID_00000162322138667646015710000009850451289245391039_);}
	.st1{fill:url(#SVGID_00000176038800038063462610000007189357187751802256_);}
	.st2{fill:url(#SVGID_00000071548869284180179960000017051948174032375682_);}
	.st3{fill:url(#SVGID_00000080167433247215261020000015007167533468947344_);}
	.st4{fill:url(#SVGID_00000164492215070049361260000010011211892078080165_);}
	.st5{fill:url(#SVGID_00000172419731631927562710000011365266486679281066_);}
	.st6{fill:url(#SVGID_00000049906572075772677730000014691208492944840615_);}
	.st7{fill:url(#SVGID_00000007403450462183764150000014145587805712982961_);}
	.st8{fill:url(#SVGID_00000038386053481247016260000001062985715046380718_);}
	.st9{fill:url(#SVGID_00000029727054045578612870000003800376906079074971_);}
	.st10{fill:url(#SVGID_00000034780784203308854360000001201922903013354390_);}
	.st11{fill:url(#SVGID_00000052096350306068589750000004349373778613703098_);}
	.st12{fill:url(#SVGID_00000077296336980294445460000007734754330155274146_);}
	.st13{fill:url(#SVGID_00000054959326050674722760000012783245362184036527_);}
	.st14{fill:url(#SVGID_00000165917936838383942440000006141770643685398973_);}
	.st15{fill:url(#SVGID_00000148630672721724758340000004431108465874126232_);}
	.st16{fill:url(#SVGID_00000061437373327302389730000008963218167505063830_);}
	.st17{fill:url(#SVGID_00000015351607663686297860000008192513147126532262_);}
	.st18{fill:url(#SVGID_00000129923335584049212860000002458778310903401112_);}
	.st19{fill:url(#SVGID_00000034076852270068103950000017173987227015776166_);}
	.st20{fill:url(#SVGID_00000064312245366503807390000001785814765906359427_);}
	.st21{fill:url(#SVGID_00000098196094657713006000000012823881670432945594_);}
	.st22{fill:url(#SVGID_00000166676574741164401270000000952573314677097864_);}
	.st23{fill:url(#SVGID_00000169540306241761519580000014900575284408427420_);}
	.st24{fill:url(#SVGID_00000174561964348646758780000010728295904630629777_);}
	.st25{fill:url(#SVGID_00000144317250488569438610000007398940475209302664_);}
	.st26{fill:url(#SVGID_00000130611628610682571680000004385146355632705189_);}
	.st27{fill:url(#SVGID_00000137847364498610919810000000737754120585084806_);}
	.st28{fill:url(#SVGID_00000132060888551895191590000018363177486434885303_);}
	.st29{fill:url(#SVGID_00000007406842486272870360000003516698050047705770_);}
	.st30{fill:url(#SVGID_00000010310871953015175820000013479764326669928605_);}
	.st31{fill:url(#SVGID_00000071540519765249810410000008912307408114565811_);}
	.st32{fill:url(#SVGID_00000013883361486365478640000012095488823080125060_);}
	.st33{fill:url(#SVGID_00000129187059288382977010000004584607507680708784_);}
	.st34{fill:url(#SVGID_00000027597162126381641300000017710517575929063871_);}
	.st35{fill:url(#SVGID_00000093173426131938615890000006831592995843090071_);}
	.st36{fill:url(#SVGID_00000037689767349380485060000011566938113317927300_);}
	.st37{fill:url(#SVGID_00000173141566487381140350000003420565774064722325_);}
	.st38{fill:url(#SVGID_00000060745296371864314000000004357635006708359301_);}
	.st39{fill:url(#SVGID_00000021825363970577134690000013022131194279483560_);}
	.st40{fill:url(#SVGID_00000057869598676137602010000017392992477686166916_);}
	.st41{fill:url(#SVGID_00000183233228169434889760000003464478546316907948_);}
	.st42{fill:url(#SVGID_00000114060752360144260130000000313899141218893990_);}
	.st43{fill:url(#SVGID_00000053518680471426791720000014231936226403808918_);}
	.st44{fill:url(#SVGID_00000099652213016639568150000007837821785559468709_);}
	.st45{fill:url(#SVGID_00000165954504173256985850000008204287190639054487_);}
	.st46{fill:url(#SVGID_00000152251927635260356980000010073354186478085277_);}
	.st47{fill:url(#SVGID_00000172405090645470855610000017436060448718589616_);}
	.st48{fill:url(#SVGID_00000088827010192977041250000010809491881531096510_);}
	.st49{fill:url(#SVGID_00000129185399056989968090000017312810870436588471_);}
	.st50{fill:url(#SVGID_00000034068953717681853190000013905802403996673413_);}
	.st51{fill:url(#SVGID_00000176016032622926279200000005590171757643773873_);}
	.st52{fill:url(#SVGID_00000000926168493533695860000002527551573311176579_);}
	.st53{fill:url(#SVGID_00000127039306245118167500000010526834398040452539_);}
	.st54{fill:url(#SVGID_00000143586490643703881280000003940203614403706008_);}
	.st55{fill:url(#SVGID_00000090990697699153311000000016456928930872420520_);}
	.st56{fill:url(#SVGID_00000062879389165880439660000010514873698231864201_);}
	.st57{fill:url(#SVGID_00000044160285228261976980000015697675338567998354_);}
	.st58{fill:url(#SVGID_00000044154406386486284630000004100675329642459828_);}
	.st59{fill:url(#SVGID_00000114763811168003143180000005372709078692566446_);}
	.st60{fill:url(#SVGID_00000057870916581433756210000011551486263896805003_);}
	.st61{fill:url(#SVGID_00000118364224375351987610000018211918850143532160_);}
	.st62{fill:url(#SVGID_00000044168596780984464950000015344640436409093509_);}
	.st63{fill:url(#SVGID_00000148639281943964025380000008328386619568430524_);}
</style>
<g>
	<g>
		<g>
			<defs>
				<path id="SVGID_1_" d="M374,352.4c14.3-8.2,26-28.5,26-45V136.6c0-16.5-11.7-36.8-26-45L226,6.2c-14.3-8.2-37.7-8.2-52,0
					L26,91.6c-14.3,8.2-26,28.5-26,45v170.8c0,16.5,11.7,36.8,26,45l148,85.4c14.3,8.2,37.7,8.2,52,0L374,352.4z"/>
			</defs>
			
				<linearGradient id="SVGID_00000091710981055316151140000006136291889209756804_" gradientUnits="userSpaceOnUse" x1="100.0316" y1="395.1503" x2="299.9684" y2="48.8497">
				<stop  offset="0" style="stop-color:#9F55FF"/>
				<stop  offset="1" style="stop-color:#FFA53F"/>
			</linearGradient>
			<use xlink:href="#SVGID_1_"  style="overflow:visible;fill:url(#SVGID_00000091710981055316151140000006136291889209756804_);"/>
			<clipPath id="SVGID_00000037692746151774938460000003864482614751474086_">
				<use xlink:href="#SVGID_1_"  style="overflow:visible;"/>
			</clipPath>
		</g>
	</g>
	<g>
		<g>
			<defs>
				<path id="SVGID_00000157300689713875434560000002368062733203905173_" d="M374,352.4c14.3-8.2,26-28.5,26-45V136.6
					c0-16.5-11.7-36.8-26-45L226,6.2c-14.3-8.2-37.7-8.2-52,0L26,91.6c-14.3,8.2-26,28.5-26,45v170.8c0,16.5,11.7,36.8,26,45
					l148,85.4c14.3,8.2,37.7,8.2,52,0L374,352.4z"/>
			</defs>
			
				<linearGradient id="SVGID_00000093165374917279099230000007185701317590652843_" gradientUnits="userSpaceOnUse" x1="100.0316" y1="395.1503" x2="299.9684" y2="48.8497">
				<stop  offset="0" style="stop-color:#9F55FF"/>
				<stop  offset="1" style="stop-color:#FFA53F"/>
			</linearGradient>
			
				<use xlink:href="#SVGID_00000157300689713875434560000002368062733203905173_"  style="overflow:visible;fill:url(#SVGID_00000093165374917279099230000007185701317590652843_);"/>
			<clipPath id="SVGID_00000127019217647727158180000009948995441286689466_">
				<use xlink:href="#SVGID_00000157300689713875434560000002368062733203905173_"  style="overflow:visible;"/>
			</clipPath>
			<g style="clip-path:url(#SVGID_00000127019217647727158180000009948995441286689466_);">
				
					<linearGradient id="SVGID_00000031192092105377813970000015534665818048712104_" gradientUnits="userSpaceOnUse" x1="-14.9978" y1="100.2693" x2="45.6153" y2="-4.7157">
					<stop  offset="0" style="stop-color:#9F55FF"/>
					<stop  offset="1" style="stop-color:#FFA53F"/>
				</linearGradient>
				<path style="fill:url(#SVGID_00000031192092105377813970000015534665818048712104_);" d="M44.5-1.3c16.5,0,23.2,11.7,15,26
					L15,101.8c-8.3,14.3-15,12.5-15-4v-69c0-16.5,13.5-30,30-30H44.5z"/>
			</g>
			<g style="clip-path:url(#SVGID_00000127019217647727158180000009948995441286689466_);">
				
					<linearGradient id="SVGID_00000132778017953670602730000014806667181741500346_" gradientUnits="userSpaceOnUse" x1="-0.3156" y1="135.5963" x2="78.7435" y2="-1.3381">
					<stop  offset="0" style="stop-color:#9F55FF"/>
					<stop  offset="1" style="stop-color:#FFA53F"/>
				</linearGradient>
				<path style="fill:url(#SVGID_00000132778017953670602730000014806667181741500346_);" d="M78.7-1.3c2.3,0-2.6,11.7-10.8,26
					L15,116.3C6.8,130.6,0,139,0,135s6.8-18.9,15-33.2l44.5-77.1C67.8,10.4,76.4-1.3,78.7-1.3z"/>
			</g>
			<g style="clip-path:url(#SVGID_00000127019217647727158180000009948995441286689466_);">
				
					<linearGradient id="SVGID_00000088814319884571637980000017288828696526171014_" gradientUnits="userSpaceOnUse" x1="-0.315" y1="150.0401" x2="87.0835" y2="-1.3385">
					<stop  offset="0" style="stop-color:#9F55FF"/>
					<stop  offset="1" style="stop-color:#FFA53F"/>
				</linearGradient>
				<path style="fill:url(#SVGID_00000088814319884571637980000017288828696526171014_);" d="M87.1-1.3c2.3,0-2.6,11.7-10.8,26
					L15,130.7C6.8,145,0,153.5,0,149.5s6.8-18.9,15-33.2l52.9-91.5C76.1,10.4,84.8-1.3,87.1-1.3z"/>
			</g>
			<g style="clip-path:url(#SVGID_00000127019217647727158180000009948995441286689466_);">
				
					<linearGradient id="SVGID_00000004529078653035802520000006532128124140753540_" gradientUnits="userSpaceOnUse" x1="-0.3144" y1="164.484" x2="95.4235" y2="-1.3389">
					<stop  offset="0" style="stop-color:#9F55FF"/>
					<stop  offset="1" style="stop-color:#FFA53F"/>
				</linearGradient>
				<path style="fill:url(#SVGID_00000004529078653035802520000006532128124140753540_);" d="M95.4-1.3c2.3,0-2.6,11.7-10.8,26
					L15,145.1c-8.3,14.3-15,22.7-15,18.8s6.8-18.9,15-33.2l61.2-106C84.5,10.4,93.1-1.3,95.4-1.3z"/>
			</g>
			<g style="clip-path:url(#SVGID_00000127019217647727158180000009948995441286689466_);">
				
					<linearGradient id="SVGID_00000067932065486451131840000002916255023990918054_" gradientUnits="userSpaceOnUse" x1="-0.3137" y1="178.9279" x2="103.7635" y2="-1.3392">
					<stop  offset="0" style="stop-color:#9F55FF"/>
					<stop  offset="1" style="stop-color:#FFA53F"/>
				</linearGradient>
				<path style="fill:url(#SVGID_00000067932065486451131840000002916255023990918054_);" d="M103.7-1.3c2.3,0-2.6,11.7-10.8,26
					L15,159.6c-8.3,14.3-15,22.7-15,18.8c0-4,6.8-18.9,15-33.2L84.6,24.7C92.8,10.4,101.4-1.3,103.7-1.3z"/>
			</g>
			<g style="clip-path:url(#SVGID_00000127019217647727158180000009948995441286689466_);">
				
					<linearGradient id="SVGID_00000114075783581108053250000010476944326469862534_" gradientUnits="userSpaceOnUse" x1="-0.3131" y1="193.3718" x2="112.1036" y2="-1.3396">
					<stop  offset="0" style="stop-color:#9F55FF"/>
					<stop  offset="1" style="stop-color:#FFA53F"/>
				</linearGradient>
				<path style="fill:url(#SVGID_00000114075783581108053250000010476944326469862534_);" d="M112.1-1.3c2.3,0-2.6,11.7-10.8,26
					L15,174c-8.3,14.3-15,22.7-15,18.8s6.8-18.9,15-33.2L92.9,24.7C101.1,10.4,109.8-1.3,112.1-1.3z"/>
			</g>
			<g style="clip-path:url(#SVGID_00000127019217647727158180000009948995441286689466_);">
				
					<linearGradient id="SVGID_00000117656010910975759560000004995796206250568343_" gradientUnits="userSpaceOnUse" x1="-0.3125" y1="207.8157" x2="120.4436" y2="-1.3399">
					<stop  offset="0" style="stop-color:#9F55FF"/>
					<stop  offset="1" style="stop-color:#FFA53F"/>
				</linearGradient>
				<path style="fill:url(#SVGID_00000117656010910975759560000004995796206250568343_);" d="M120.4-1.3c2.3,0-2.6,11.7-10.8,26
					L15,188.5c-8.3,14.3-15,22.7-15,18.8c0-4,6.8-18.9,15-33.2l86.2-149.3C109.5,10.4,118.1-1.3,120.4-1.3z"/>
			</g>
			<g style="clip-path:url(#SVGID_00000127019217647727158180000009948995441286689466_);">
				
					<linearGradient id="SVGID_00000138544253043576624280000012322313042100488579_" gradientUnits="userSpaceOnUse" x1="-0.3119" y1="222.2596" x2="128.7836" y2="-1.3403">
					<stop  offset="0" style="stop-color:#9F55FF"/>
					<stop  offset="1" style="stop-color:#FFA53F"/>
				</linearGradient>
				<path style="fill:url(#SVGID_00000138544253043576624280000012322313042100488579_);" d="M128.8-1.3c2.3,0-2.6,11.7-10.8,26
					L15,202.9c-8.3,14.3-15,22.7-15,18.8s6.8-18.9,15-33.2l94.6-163.8C117.8,10.4,126.5-1.3,128.8-1.3z"/>
			</g>
			<g style="clip-path:url(#SVGID_00000127019217647727158180000009948995441286689466_);">
				
					<linearGradient id="SVGID_00000021840977850394002210000017357562315448149139_" gradientUnits="userSpaceOnUse" x1="-0.3112" y1="236.7034" x2="137.1236" y2="-1.3407">
					<stop  offset="0" style="stop-color:#9F55FF"/>
					<stop  offset="1" style="stop-color:#FFA53F"/>
				</linearGradient>
				<path style="fill:url(#SVGID_00000021840977850394002210000017357562315448149139_);" d="M137.1-1.3c2.3,0-2.6,11.7-10.8,26
					L15,217.4c-8.3,14.3-15,22.7-15,18.8c0-4,6.8-18.9,15-33.2L117.9,24.7C126.2,10.4,134.8-1.3,137.1-1.3z"/>
			</g>
			<g style="clip-path:url(#SVGID_00000127019217647727158180000009948995441286689466_);">
				
					<linearGradient id="SVGID_00000043440148588765790760000013896866648417702583_" gradientUnits="userSpaceOnUse" x1="-0.3106" y1="251.1473" x2="145.4636" y2="-1.341">
					<stop  offset="0" style="stop-color:#9F55FF"/>
					<stop  offset="1" style="stop-color:#FFA53F"/>
				</linearGradient>
				<path style="fill:url(#SVGID_00000043440148588765790760000013896866648417702583_);" d="M145.4-1.3c2.3,0-2.6,11.7-10.8,26
					L15,231.8c-8.3,14.3-15,22.7-15,18.8s6.8-18.9,15-33.2L126.3,24.7C134.5,10.4,143.1-1.3,145.4-1.3z"/>
			</g>
			<g style="clip-path:url(#SVGID_00000127019217647727158180000009948995441286689466_);">
				
					<linearGradient id="SVGID_00000076576618989438182930000006787426714554370190_" gradientUnits="userSpaceOnUse" x1="-0.31" y1="265.5912" x2="153.8036" y2="-1.3414">
					<stop  offset="0" style="stop-color:#9F55FF"/>
					<stop  offset="1" style="stop-color:#FFA53F"/>
				</linearGradient>
				<path style="fill:url(#SVGID_00000076576618989438182930000006787426714554370190_);" d="M153.8-1.3c2.3,0-2.6,11.7-10.8,26
					L15,246.3C6.8,260.5,0,269,0,265c0-4,6.8-18.9,15-33.2L134.6,24.7C142.9,10.4,151.5-1.3,153.8-1.3z"/>
			</g>
			<g style="clip-path:url(#SVGID_00000127019217647727158180000009948995441286689466_);">
				
					<linearGradient id="SVGID_00000019636808857508199690000007202354644481501626_" gradientUnits="userSpaceOnUse" x1="-0.3093" y1="280.0351" x2="162.1436" y2="-1.3418">
					<stop  offset="0" style="stop-color:#9F55FF"/>
					<stop  offset="1" style="stop-color:#FFA53F"/>
				</linearGradient>
				<path style="fill:url(#SVGID_00000019636808857508199690000007202354644481501626_);" d="M162.1-1.3c2.3,0-2.6,11.7-10.8,26
					L15,260.7C6.8,275,0,283.4,0,279.5c0-4,6.8-18.9,15-33.2L142.9,24.7C151.2,10.4,159.8-1.3,162.1-1.3z"/>
			</g>
			<g style="clip-path:url(#SVGID_00000127019217647727158180000009948995441286689466_);">
				
					<linearGradient id="SVGID_00000053507940187113986040000012361408515256557203_" gradientUnits="userSpaceOnUse" x1="-0.3087" y1="294.4789" x2="170.4836" y2="-1.3421">
					<stop  offset="0" style="stop-color:#9F55FF"/>
					<stop  offset="1" style="stop-color:#FFA53F"/>
				</linearGradient>
				<path style="fill:url(#SVGID_00000053507940187113986040000012361408515256557203_);" d="M170.5-1.3c2.3,0-2.6,11.7-10.8,26
					L15,275.1c-8.3,14.3-15,22.7-15,18.8c0-4,6.8-18.9,15-33.2l136.3-236C159.5,10.4,168.2-1.3,170.5-1.3z"/>
			</g>
			<g style="clip-path:url(#SVGID_00000127019217647727158180000009948995441286689466_);">
				
					<linearGradient id="SVGID_00000008110258060010819820000014985514066368085932_" gradientUnits="userSpaceOnUse" x1="-0.3081" y1="308.9228" x2="178.8237" y2="-1.3425">
					<stop  offset="0" style="stop-color:#9F55FF"/>
					<stop  offset="1" style="stop-color:#FFA53F"/>
				</linearGradient>
				<path style="fill:url(#SVGID_00000008110258060010819820000014985514066368085932_);" d="M178.8-1.3c2.3,0-2.6,11.7-10.8,26
					L15,289.6c-8.3,14.3-15,22.7-15,18.8c0-4,6.8-18.9,15-33.2L159.6,24.7C167.9,10.4,176.5-1.3,178.8-1.3z"/>
			</g>
			<g style="clip-path:url(#SVGID_00000127019217647727158180000009948995441286689466_);">
				
					<linearGradient id="SVGID_00000119095849120003613960000013675813096522137012_" gradientUnits="userSpaceOnUse" x1="-0.3075" y1="323.3667" x2="187.1637" y2="-1.3428">
					<stop  offset="0" style="stop-color:#9F55FF"/>
					<stop  offset="1" style="stop-color:#FFA53F"/>
				</linearGradient>
				<path style="fill:url(#SVGID_00000119095849120003613960000013675813096522137012_);" d="M187.1-1.3c2.3,0-2.6,11.7-10.8,26
					L15,304c-8.3,14.3-15,22.7-15,18.8c0-4,6.8-18.9,15-33.2L168,24.7C176.2,10.4,184.8-1.3,187.1-1.3z"/>
			</g>
			<g style="clip-path:url(#SVGID_00000127019217647727158180000009948995441286689466_);">
				
					<linearGradient id="SVGID_00000106835964142087589470000002819762675474362796_" gradientUnits="userSpaceOnUse" x1="-0.3391" y1="337.8665" x2="195.5037" y2="-1.3432">
					<stop  offset="0" style="stop-color:#9F55FF"/>
					<stop  offset="1" style="stop-color:#FFA53F"/>
				</linearGradient>
				<path style="fill:url(#SVGID_00000106835964142087589470000002819762675474362796_);" d="M195.5-1.3c2.3,0-2.6,11.7-10.8,26
					L17.8,313.7C9.5,328,2.1,339.3,1.4,338.9C0.6,338.4,0,336.3,0,334c0-2.2,6.8-15.7,15-30L176.3,24.7
					C184.6,10.4,193.2-1.3,195.5-1.3z"/>
			</g>
			<g style="clip-path:url(#SVGID_00000127019217647727158180000009948995441286689466_);">
				
					<linearGradient id="SVGID_00000145751768097399683000000007611178035522523009_" gradientUnits="userSpaceOnUse" x1="5.9162" y1="341.4775" x2="203.8439" y2="-1.3434">
					<stop  offset="0" style="stop-color:#9F55FF"/>
					<stop  offset="1" style="stop-color:#FFA53F"/>
				</linearGradient>
				<path style="fill:url(#SVGID_00000145751768097399683000000007611178035522523009_);" d="M203.8-1.3c2.3,0-2.6,11.7-10.8,26
					L24,317.3c-8.3,14.3-16.4,25.2-18.1,24.2s3.6-13.5,11.9-27.8L184.6,24.7C192.9,10.4,201.5-1.3,203.8-1.3z"/>
			</g>
			<g style="clip-path:url(#SVGID_00000127019217647727158180000009948995441286689466_);">
				
					<linearGradient id="SVGID_00000134235188845006078460000012015673586897099909_" gradientUnits="userSpaceOnUse" x1="12.1718" y1="345.0884" x2="212.6749" y2="-2.1932">
					<stop  offset="0" style="stop-color:#9F55FF"/>
					<stop  offset="1" style="stop-color:#FFA53F"/>
				</linearGradient>
				<path style="fill:url(#SVGID_00000134235188845006078460000012015673586897099909_);" d="M211.1-1.3c1.7,0,3.5,0.2,3.9,0.4
					s-6,12.1-14.2,26.4L30.3,320.9c-8.3,14.3-16.4,25.2-18.1,24.2c-1.7-1,3.6-13.5,11.9-27.8L193,24.7
					C201.2,10.4,209.4-1.3,211.1-1.3z"/>
			</g>
			<g style="clip-path:url(#SVGID_00000127019217647727158180000009948995441286689466_);">
				
					<linearGradient id="SVGID_00000153675119423894416200000004672451715255368627_" gradientUnits="userSpaceOnUse" x1="18.4272" y1="348.6993" x2="218.9303" y2="1.4178">
					<stop  offset="0" style="stop-color:#9F55FF"/>
					<stop  offset="1" style="stop-color:#FFA53F"/>
				</linearGradient>
				<path style="fill:url(#SVGID_00000153675119423894416200000004672451715255368627_);" d="M200.8,25.6
					c8.3-14.3,16.4-25.2,18.1-24.2s-3.6,13.5-11.9,27.8L36.6,324.5c-8.3,14.3-16.4,25.2-18.1,24.2c-1.7-1,3.6-13.5,11.9-27.8
					L200.8,25.6z"/>
			</g>
			<g style="clip-path:url(#SVGID_00000127019217647727158180000009948995441286689466_);">
				
					<linearGradient id="SVGID_00000065061925058103399990000016868359676025033405_" gradientUnits="userSpaceOnUse" x1="24.6827" y1="352.3102" x2="225.1858" y2="5.0287">
					<stop  offset="0" style="stop-color:#9F55FF"/>
					<stop  offset="1" style="stop-color:#FFA53F"/>
				</linearGradient>
				<path style="fill:url(#SVGID_00000065061925058103399990000016868359676025033405_);" d="M207.1,29.2
					C215.3,14.9,223.5,4,225.2,5s-3.6,13.5-11.9,27.8L42.8,328.1c-8.3,14.3-16.4,25.2-18.1,24.2c-1.7-1,3.6-13.5,11.9-27.8
					L207.1,29.2z"/>
			</g>
			<g style="clip-path:url(#SVGID_00000127019217647727158180000009948995441286689466_);">
				
					<linearGradient id="SVGID_00000043436976059204845360000001173473028366127031_" gradientUnits="userSpaceOnUse" x1="30.9382" y1="355.9211" x2="231.4412" y2="8.6396">
					<stop  offset="0" style="stop-color:#9F55FF"/>
					<stop  offset="1" style="stop-color:#FFA53F"/>
				</linearGradient>
				<path style="fill:url(#SVGID_00000043436976059204845360000001173473028366127031_);" d="M213.3,32.8
					c8.3-14.3,16.4-25.2,18.1-24.2s-3.6,13.5-11.9,27.8L49.1,331.7c-8.3,14.3-16.4,25.2-18.1,24.2c-1.7-1,3.6-13.5,11.9-27.8
					L213.3,32.8z"/>
			</g>
			<g style="clip-path:url(#SVGID_00000127019217647727158180000009948995441286689466_);">
				
					<linearGradient id="SVGID_00000080898359511599843760000000549674303367052417_" gradientUnits="userSpaceOnUse" x1="37.1937" y1="359.5319" x2="237.6967" y2="12.2505">
					<stop  offset="0" style="stop-color:#9F55FF"/>
					<stop  offset="1" style="stop-color:#FFA53F"/>
				</linearGradient>
				<path style="fill:url(#SVGID_00000080898359511599843760000000549674303367052417_);" d="M219.6,36.5
					c8.3-14.3,16.4-25.2,18.1-24.2c1.7,1-3.6,13.5-11.9,27.8L55.3,335.3c-8.3,14.3-16.4,25.2-18.1,24.2c-1.7-1,3.6-13.5,11.9-27.8
					L219.6,36.5z"/>
			</g>
			<g style="clip-path:url(#SVGID_00000127019217647727158180000009948995441286689466_);">
				
					<linearGradient id="SVGID_00000133516656331311155690000003681211850795618694_" gradientUnits="userSpaceOnUse" x1="43.4492" y1="363.1428" x2="243.9522" y2="15.8614">
					<stop  offset="0" style="stop-color:#9F55FF"/>
					<stop  offset="1" style="stop-color:#FFA53F"/>
				</linearGradient>
				<path style="fill:url(#SVGID_00000133516656331311155690000003681211850795618694_);" d="M225.8,40.1
					c8.3-14.3,16.4-25.2,18.1-24.2c1.7,1-3.6,13.5-11.9,27.8L61.6,338.9c-8.3,14.3-16.4,25.2-18.1,24.2c-1.7-1,3.6-13.5,11.9-27.8
					L225.8,40.1z"/>
			</g>
			<g style="clip-path:url(#SVGID_00000127019217647727158180000009948995441286689466_);">
				
					<linearGradient id="SVGID_00000180362998810934568450000015576668307958349746_" gradientUnits="userSpaceOnUse" x1="49.7046" y1="366.7537" x2="250.2077" y2="19.4722">
					<stop  offset="0" style="stop-color:#9F55FF"/>
					<stop  offset="1" style="stop-color:#FFA53F"/>
				</linearGradient>
				<path style="fill:url(#SVGID_00000180362998810934568450000015576668307958349746_);" d="M232.1,43.7
					c8.3-14.3,16.4-25.2,18.1-24.2c1.7,1-3.6,13.5-11.9,27.8L67.8,342.6c-8.3,14.3-16.4,25.2-18.1,24.2s3.6-13.5,11.9-27.8
					L232.1,43.7z"/>
			</g>
			<g style="clip-path:url(#SVGID_00000127019217647727158180000009948995441286689466_);">
				
					<linearGradient id="SVGID_00000008836187988416573800000007672265888433206917_" gradientUnits="userSpaceOnUse" x1="55.9601" y1="370.3646" x2="256.4632" y2="23.0831">
					<stop  offset="0" style="stop-color:#9F55FF"/>
					<stop  offset="1" style="stop-color:#FFA53F"/>
				</linearGradient>
				<path style="fill:url(#SVGID_00000008836187988416573800000007672265888433206917_);" d="M238.3,47.3
					c8.3-14.3,16.4-25.2,18.1-24.2c1.7,1-3.6,13.5-11.9,27.8L74.1,346.2c-8.3,14.3-16.4,25.2-18.1,24.2c-1.7-1,3.6-13.5,11.9-27.8
					L238.3,47.3z"/>
			</g>
			<g style="clip-path:url(#SVGID_00000127019217647727158180000009948995441286689466_);">
				
					<linearGradient id="SVGID_00000171690892480804778810000015855984216725846175_" gradientUnits="userSpaceOnUse" x1="62.2156" y1="373.9755" x2="262.7187" y2="26.694">
					<stop  offset="0" style="stop-color:#9F55FF"/>
					<stop  offset="1" style="stop-color:#FFA53F"/>
				</linearGradient>
				<path style="fill:url(#SVGID_00000171690892480804778810000015855984216725846175_);" d="M244.6,50.9
					c8.3-14.3,16.4-25.2,18.1-24.2s-3.6,13.5-11.9,27.8L80.3,349.8C72.1,364.1,63.9,375,62.2,374c-1.7-1,3.6-13.5,11.9-27.8
					L244.6,50.9z"/>
			</g>
			<g style="clip-path:url(#SVGID_00000127019217647727158180000009948995441286689466_);">
				
					<linearGradient id="SVGID_00000143608933944785102520000010090804603839266953_" gradientUnits="userSpaceOnUse" x1="68.4711" y1="377.5863" x2="268.9741" y2="30.3049">
					<stop  offset="0" style="stop-color:#9F55FF"/>
					<stop  offset="1" style="stop-color:#FFA53F"/>
				</linearGradient>
				<path style="fill:url(#SVGID_00000143608933944785102520000010090804603839266953_);" d="M250.8,54.5
					c8.3-14.3,16.4-25.2,18.1-24.2c1.7,1-3.6,13.5-11.9,27.8L86.6,353.4c-8.3,14.3-16.4,25.2-18.1,24.2s3.6-13.5,11.9-27.8
					L250.8,54.5z"/>
			</g>
			<g style="clip-path:url(#SVGID_00000127019217647727158180000009948995441286689466_);">
				
					<linearGradient id="SVGID_00000178898770768738041430000016021538261365760692_" gradientUnits="userSpaceOnUse" x1="74.7266" y1="381.1972" x2="275.2296" y2="33.9158">
					<stop  offset="0" style="stop-color:#9F55FF"/>
					<stop  offset="1" style="stop-color:#FFA53F"/>
				</linearGradient>
				<path style="fill:url(#SVGID_00000178898770768738041430000016021538261365760692_);" d="M257.1,58.1
					c8.3-14.3,16.4-25.2,18.1-24.2s-3.6,13.5-11.9,27.8L92.9,357c-8.3,14.3-16.4,25.2-18.1,24.2c-1.7-1,3.6-13.5,11.9-27.8
					L257.1,58.1z"/>
			</g>
			<g style="clip-path:url(#SVGID_00000127019217647727158180000009948995441286689466_);">
				
					<linearGradient id="SVGID_00000096737446463812866890000005202921397712068485_" gradientUnits="userSpaceOnUse" x1="80.982" y1="384.8081" x2="281.4851" y2="37.5266">
					<stop  offset="0" style="stop-color:#9F55FF"/>
					<stop  offset="1" style="stop-color:#FFA53F"/>
				</linearGradient>
				<path style="fill:url(#SVGID_00000096737446463812866890000005202921397712068485_);" d="M263.4,61.7
					c8.3-14.3,16.4-25.2,18.1-24.2c1.7,1-3.6,13.5-11.9,27.8L99.1,360.6c-8.3,14.3-16.4,25.2-18.1,24.2c-1.7-1,3.6-13.5,11.9-27.8
					L263.4,61.7z"/>
			</g>
			<g style="clip-path:url(#SVGID_00000127019217647727158180000009948995441286689466_);">
				
					<linearGradient id="SVGID_00000124125093238067163980000013342685530560995726_" gradientUnits="userSpaceOnUse" x1="87.2375" y1="388.419" x2="287.7406" y2="41.1375">
					<stop  offset="0" style="stop-color:#9F55FF"/>
					<stop  offset="1" style="stop-color:#FFA53F"/>
				</linearGradient>
				<path style="fill:url(#SVGID_00000124125093238067163980000013342685530560995726_);" d="M269.6,65.3
					c8.3-14.3,16.4-25.2,18.1-24.2s-3.6,13.5-11.9,27.8L105.4,364.2c-8.3,14.3-16.4,25.2-18.1,24.2c-1.7-1,3.6-13.5,11.9-27.8
					L269.6,65.3z"/>
			</g>
			<g style="clip-path:url(#SVGID_00000127019217647727158180000009948995441286689466_);">
				
					<linearGradient id="SVGID_00000030489277351707440840000005160888802304016820_" gradientUnits="userSpaceOnUse" x1="93.493" y1="392.0298" x2="293.996" y2="44.7484">
					<stop  offset="0" style="stop-color:#9F55FF"/>
					<stop  offset="1" style="stop-color:#FFA53F"/>
				</linearGradient>
				<path style="fill:url(#SVGID_00000030489277351707440840000005160888802304016820_);" d="M275.9,68.9
					c8.3-14.3,16.4-25.2,18.1-24.2c1.7,1-3.6,13.5-11.9,27.8L111.6,367.8c-8.3,14.3-16.4,25.2-18.1,24.2c-1.7-1,3.6-13.5,11.9-27.8
					L275.9,68.9z"/>
			</g>
			<g style="clip-path:url(#SVGID_00000127019217647727158180000009948995441286689466_);">
				
					<linearGradient id="SVGID_00000150784404574873667360000001013300734282262957_" gradientUnits="userSpaceOnUse" x1="99.7485" y1="395.6407" x2="300.2515" y2="48.3593">
					<stop  offset="0" style="stop-color:#9F55FF"/>
					<stop  offset="1" style="stop-color:#FFA53F"/>
				</linearGradient>
				<path style="fill:url(#SVGID_00000150784404574873667360000001013300734282262957_);" d="M282.1,72.6
					c8.3-14.3,16.4-25.2,18.1-24.2c1.7,1-3.6,13.5-11.9,27.8L117.9,371.4c-8.3,14.3-16.4,25.2-18.1,24.2c-1.7-1,3.6-13.5,11.9-27.8
					L282.1,72.6z"/>
			</g>
			<g style="clip-path:url(#SVGID_00000127019217647727158180000009948995441286689466_);">
				
					<linearGradient id="SVGID_00000080885148984989300980000011738180091204919729_" gradientUnits="userSpaceOnUse" x1="106.004" y1="399.2516" x2="306.507" y2="51.9701">
					<stop  offset="0" style="stop-color:#9F55FF"/>
					<stop  offset="1" style="stop-color:#FFA53F"/>
				</linearGradient>
				<path style="fill:url(#SVGID_00000080885148984989300980000011738180091204919729_);" d="M288.4,76.2
					c8.3-14.3,16.4-25.2,18.1-24.2c1.7,1-3.6,13.5-11.9,27.8L124.1,375.1c-8.3,14.3-16.4,25.2-18.1,24.2c-1.7-1,3.6-13.5,11.9-27.8
					L288.4,76.2z"/>
			</g>
			<g style="clip-path:url(#SVGID_00000127019217647727158180000009948995441286689466_);">
				
					<linearGradient id="SVGID_00000083789685700704382950000002869867004366781596_" gradientUnits="userSpaceOnUse" x1="112.2594" y1="402.8625" x2="312.7625" y2="55.581">
					<stop  offset="0" style="stop-color:#9F55FF"/>
					<stop  offset="1" style="stop-color:#FFA53F"/>
				</linearGradient>
				<path style="fill:url(#SVGID_00000083789685700704382950000002869867004366781596_);" d="M294.6,79.8
					c8.3-14.3,16.4-25.2,18.1-24.2c1.7,1-3.6,13.5-11.9,27.8L130.4,378.7c-8.3,14.3-16.4,25.2-18.1,24.2c-1.7-1,3.6-13.5,11.9-27.8
					L294.6,79.8z"/>
			</g>
			<g style="clip-path:url(#SVGID_00000127019217647727158180000009948995441286689466_);">
				
					<linearGradient id="SVGID_00000001623506726519151820000007545369432337426842_" gradientUnits="userSpaceOnUse" x1="118.5149" y1="406.4734" x2="319.018" y2="59.1919">
					<stop  offset="0" style="stop-color:#9F55FF"/>
					<stop  offset="1" style="stop-color:#FFA53F"/>
				</linearGradient>
				<path style="fill:url(#SVGID_00000001623506726519151820000007545369432337426842_);" d="M300.9,83.4
					c8.3-14.3,16.4-25.2,18.1-24.2s-3.6,13.5-11.9,27.8L136.6,382.3c-8.3,14.3-16.4,25.2-18.1,24.2c-1.7-1,3.6-13.5,11.9-27.8
					L300.9,83.4z"/>
			</g>
			<g style="clip-path:url(#SVGID_00000127019217647727158180000009948995441286689466_);">
				
					<linearGradient id="SVGID_00000146460406109044916740000005335447914009902750_" gradientUnits="userSpaceOnUse" x1="124.7704" y1="410.0843" x2="325.2734" y2="62.8028">
					<stop  offset="0" style="stop-color:#9F55FF"/>
					<stop  offset="1" style="stop-color:#FFA53F"/>
				</linearGradient>
				<path style="fill:url(#SVGID_00000146460406109044916740000005335447914009902750_);" d="M307.1,87
					c8.3-14.3,16.4-25.2,18.1-24.2c1.7,1-3.6,13.5-11.9,27.8L142.9,385.9c-8.3,14.3-16.4,25.2-18.1,24.2c-1.7-1,3.6-13.5,11.9-27.8
					L307.1,87z"/>
			</g>
			<g style="clip-path:url(#SVGID_00000127019217647727158180000009948995441286689466_);">
				
					<linearGradient id="SVGID_00000046340052002761723260000015971470359804036005_" gradientUnits="userSpaceOnUse" x1="131.0259" y1="413.6951" x2="331.5289" y2="66.4137">
					<stop  offset="0" style="stop-color:#9F55FF"/>
					<stop  offset="1" style="stop-color:#FFA53F"/>
				</linearGradient>
				<path style="fill:url(#SVGID_00000046340052002761723260000015971470359804036005_);" d="M313.4,90.6
					c8.3-14.3,16.4-25.2,18.1-24.2s-3.6,13.5-11.9,27.8L149.2,389.5c-8.3,14.3-16.4,25.2-18.1,24.2s3.6-13.5,11.9-27.8L313.4,90.6z"
					/>
			</g>
			<g style="clip-path:url(#SVGID_00000127019217647727158180000009948995441286689466_);">
				
					<linearGradient id="SVGID_00000065039711074689191140000013678777421365718967_" gradientUnits="userSpaceOnUse" x1="137.2814" y1="417.306" x2="337.7844" y2="70.0246">
					<stop  offset="0" style="stop-color:#9F55FF"/>
					<stop  offset="1" style="stop-color:#FFA53F"/>
				</linearGradient>
				<path style="fill:url(#SVGID_00000065039711074689191140000013678777421365718967_);" d="M319.7,94.2
					c8.3-14.3,16.4-25.2,18.1-24.2c1.7,1-3.6,13.5-11.9,27.8L155.4,393.1c-8.3,14.3-16.4,25.2-18.1,24.2c-1.7-1,3.6-13.5,11.9-27.8
					L319.7,94.2z"/>
			</g>
			<g style="clip-path:url(#SVGID_00000127019217647727158180000009948995441286689466_);">
				
					<linearGradient id="SVGID_00000106867337296661885880000013909724612879985283_" gradientUnits="userSpaceOnUse" x1="143.5368" y1="420.9169" x2="344.0399" y2="73.6354">
					<stop  offset="0" style="stop-color:#9F55FF"/>
					<stop  offset="1" style="stop-color:#FFA53F"/>
				</linearGradient>
				<path style="fill:url(#SVGID_00000106867337296661885880000013909724612879985283_);" d="M325.9,97.8
					c8.3-14.3,16.4-25.2,18.1-24.2c1.7,1-3.6,13.5-11.9,27.8L161.7,396.7c-8.3,14.3-16.4,25.2-18.1,24.2c-1.7-1,3.6-13.5,11.9-27.8
					L325.9,97.8z"/>
			</g>
			<g style="clip-path:url(#SVGID_00000127019217647727158180000009948995441286689466_);">
				
					<linearGradient id="SVGID_00000051367813460846979320000013419132274024818831_" gradientUnits="userSpaceOnUse" x1="149.7923" y1="424.5278" x2="350.2953" y2="77.2463">
					<stop  offset="0" style="stop-color:#9F55FF"/>
					<stop  offset="1" style="stop-color:#FFA53F"/>
				</linearGradient>
				<path style="fill:url(#SVGID_00000051367813460846979320000013419132274024818831_);" d="M332.2,101.4
					c8.3-14.3,16.4-25.2,18.1-24.2c1.7,1-3.6,13.5-11.9,27.8L167.9,400.3c-8.3,14.3-16.4,25.2-18.1,24.2c-1.7-1,3.6-13.5,11.9-27.8
					L332.2,101.4z"/>
			</g>
			<g style="clip-path:url(#SVGID_00000127019217647727158180000009948995441286689466_);">
				
					<linearGradient id="SVGID_00000046339750357912925900000004957540140824319895_" gradientUnits="userSpaceOnUse" x1="156.0478" y1="428.1386" x2="356.5508" y2="80.8572">
					<stop  offset="0" style="stop-color:#9F55FF"/>
					<stop  offset="1" style="stop-color:#FFA53F"/>
				</linearGradient>
				<path style="fill:url(#SVGID_00000046339750357912925900000004957540140824319895_);" d="M338.4,105.1
					c8.3-14.3,16.4-25.2,18.1-24.2c1.7,1-3.6,13.5-11.9,27.8L174.2,403.9c-8.3,14.3-16.4,25.2-18.1,24.2c-1.7-1,3.6-13.5,11.9-27.8
					L338.4,105.1z"/>
			</g>
			<g style="clip-path:url(#SVGID_00000127019217647727158180000009948995441286689466_);">
				
					<linearGradient id="SVGID_00000089538567288198113860000015378249799231890619_" gradientUnits="userSpaceOnUse" x1="162.3033" y1="431.7495" x2="362.8063" y2="84.4681">
					<stop  offset="0" style="stop-color:#9F55FF"/>
					<stop  offset="1" style="stop-color:#FFA53F"/>
				</linearGradient>
				<path style="fill:url(#SVGID_00000089538567288198113860000015378249799231890619_);" d="M344.7,108.7
					c8.3-14.3,16.4-25.2,18.1-24.2c1.7,1-3.6,13.5-11.9,27.8L180.4,407.5c-8.3,14.3-16.4,25.2-18.1,24.2c-1.7-1,3.6-13.5,11.9-27.8
					L344.7,108.7z"/>
			</g>
			<g style="clip-path:url(#SVGID_00000127019217647727158180000009948995441286689466_);">
				
					<linearGradient id="SVGID_00000074440240680722367840000003189737412097142416_" gradientUnits="userSpaceOnUse" x1="168.5588" y1="435.3604" x2="369.0618" y2="88.0789">
					<stop  offset="0" style="stop-color:#9F55FF"/>
					<stop  offset="1" style="stop-color:#FFA53F"/>
				</linearGradient>
				<path style="fill:url(#SVGID_00000074440240680722367840000003189737412097142416_);" d="M350.9,112.3
					c8.3-14.3,16.4-25.2,18.1-24.2c1.7,1-3.6,13.5-11.9,27.8L186.7,411.2c-8.3,14.3-16.4,25.2-18.1,24.2s3.6-13.5,11.9-27.8
					L350.9,112.3z"/>
			</g>
			<g style="clip-path:url(#SVGID_00000127019217647727158180000009948995441286689466_);">
				
					<linearGradient id="SVGID_00000054959570915507828740000009180203484718535852_" gradientUnits="userSpaceOnUse" x1="174.8142" y1="438.9713" x2="375.3173" y2="91.6898">
					<stop  offset="0" style="stop-color:#9F55FF"/>
					<stop  offset="1" style="stop-color:#FFA53F"/>
				</linearGradient>
				<path style="fill:url(#SVGID_00000054959570915507828740000009180203484718535852_);" d="M357.2,115.9
					c8.3-14.3,16.4-25.2,18.1-24.2c1.7,1-3.6,13.5-11.9,27.8L192.9,414.8c-8.3,14.3-16.4,25.2-18.1,24.2c-1.7-1,3.6-13.5,11.9-27.8
					L357.2,115.9z"/>
			</g>
			<g style="clip-path:url(#SVGID_00000127019217647727158180000009948995441286689466_);">
				
					<linearGradient id="SVGID_00000161608926210736940210000004942742031918867854_" gradientUnits="userSpaceOnUse" x1="181.0697" y1="442.5822" x2="381.5728" y2="95.3007">
					<stop  offset="0" style="stop-color:#9F55FF"/>
					<stop  offset="1" style="stop-color:#FFA53F"/>
				</linearGradient>
				<path style="fill:url(#SVGID_00000161608926210736940210000004942742031918867854_);" d="M363.4,119.5
					c8.3-14.3,16.4-25.2,18.1-24.2c1.7,1-3.6,13.5-11.9,27.8L199.2,418.4c-8.3,14.3-16.4,25.2-18.1,24.2c-1.7-1,3.6-13.5,11.9-27.8
					L363.4,119.5z"/>
			</g>
			<g style="clip-path:url(#SVGID_00000127019217647727158180000009948995441286689466_);">
				
					<linearGradient id="SVGID_00000137092426947821793370000004603633334407210135_" gradientUnits="userSpaceOnUse" x1="187.3251" y1="446.1932" x2="387.8282" y2="98.9116">
					<stop  offset="0" style="stop-color:#9F55FF"/>
					<stop  offset="1" style="stop-color:#FFA53F"/>
				</linearGradient>
				<path style="fill:url(#SVGID_00000137092426947821793370000004603633334407210135_);" d="M369.7,123.1
					c8.3-14.3,16.4-25.2,18.1-24.2s-3.6,13.5-11.9,27.8L207,419.3c-8.3,14.3-16.4,26-18.2,26c-1.7,0-3.5-0.2-3.9-0.4
					c-0.4-0.2,6-12.1,14.2-26.4L369.7,123.1z"/>
			</g>
			<g style="clip-path:url(#SVGID_00000127019217647727158180000009948995441286689466_);">
				
					<linearGradient id="SVGID_00000054959911999556703800000000199067514593554873_" gradientUnits="userSpaceOnUse" x1="196.1561" y1="445.3434" x2="394.0838" y2="102.5225">
					<stop  offset="0" style="stop-color:#9F55FF"/>
					<stop  offset="1" style="stop-color:#FFA53F"/>
				</linearGradient>
				<path style="fill:url(#SVGID_00000054959911999556703800000000199067514593554873_);" d="M376,126.7
					c8.3-14.3,16.4-25.2,18.1-24.2c1.7,1-3.6,13.5-11.9,27.8L215.4,419.3c-8.3,14.3-16.9,26-19.2,26s2.6-11.7,10.8-26L376,126.7z"/>
			</g>
			<g style="clip-path:url(#SVGID_00000127019217647727158180000009948995441286689466_);">
				
					<linearGradient id="SVGID_00000081607222761548968540000002276046854629300375_" gradientUnits="userSpaceOnUse" x1="204.4963" y1="445.3432" x2="400.3391" y2="106.1335">
					<stop  offset="0" style="stop-color:#9F55FF"/>
					<stop  offset="1" style="stop-color:#FFA53F"/>
				</linearGradient>
				<path style="fill:url(#SVGID_00000081607222761548968540000002276046854629300375_);" d="M382.2,130.3
					c8.3-14.3,15.6-25.6,16.4-25.2c0.8,0.4,1.4,2.6,1.4,4.8c0,2.2-6.8,15.7-15,30L223.7,419.3c-8.3,14.3-16.9,26-19.2,26
					s2.6-11.7,10.8-26L382.2,130.3z"/>
			</g>
			<g style="clip-path:url(#SVGID_00000127019217647727158180000009948995441286689466_);">
				
					<linearGradient id="SVGID_00000035489956985768836130000008289562850754953139_" gradientUnits="userSpaceOnUse" x1="212.8363" y1="445.3428" x2="400.3075" y2="120.6333">
					<stop  offset="0" style="stop-color:#9F55FF"/>
					<stop  offset="1" style="stop-color:#FFA53F"/>
				</linearGradient>
				<path style="fill:url(#SVGID_00000035489956985768836130000008289562850754953139_);" d="M400,121.2c0,4-6.8,18.9-15,33.2
					L232,419.3c-8.3,14.3-16.9,26-19.2,26c-2.3,0,2.6-11.7,10.8-26L385,140C393.2,125.7,400,117.2,400,121.2z"/>
			</g>
			<g style="clip-path:url(#SVGID_00000127019217647727158180000009948995441286689466_);">
				
					<linearGradient id="SVGID_00000022532819271060557610000012815897845295883702_" gradientUnits="userSpaceOnUse" x1="221.1763" y1="445.3425" x2="400.3081" y2="135.0772">
					<stop  offset="0" style="stop-color:#9F55FF"/>
					<stop  offset="1" style="stop-color:#FFA53F"/>
				</linearGradient>
				<path style="fill:url(#SVGID_00000022532819271060557610000012815897845295883702_);" d="M400,135.6c0,4-6.8,18.9-15,33.2
					L240.4,419.3c-8.3,14.3-16.9,26-19.2,26c-2.3,0,2.6-11.7,10.8-26L385,154.4C393.2,140.1,400,131.7,400,135.6z"/>
			</g>
			<g style="clip-path:url(#SVGID_00000127019217647727158180000009948995441286689466_);">
				
					<linearGradient id="SVGID_00000159464270206403529020000007784542122729981867_" gradientUnits="userSpaceOnUse" x1="229.5164" y1="445.3421" x2="400.3087" y2="149.5211">
					<stop  offset="0" style="stop-color:#9F55FF"/>
					<stop  offset="1" style="stop-color:#FFA53F"/>
				</linearGradient>
				<path style="fill:url(#SVGID_00000159464270206403529020000007784542122729981867_);" d="M400,150.1c0,4-6.8,18.9-15,33.2
					l-136.3,236c-8.3,14.3-16.9,26-19.2,26c-2.3,0,2.6-11.7,10.8-26L385,168.9C393.2,154.6,400,146.1,400,150.1z"/>
			</g>
			<g style="clip-path:url(#SVGID_00000127019217647727158180000009948995441286689466_);">
				
					<linearGradient id="SVGID_00000129884172560597198300000006827992939270880133_" gradientUnits="userSpaceOnUse" x1="237.8564" y1="445.3418" x2="400.3094" y2="163.9649">
					<stop  offset="0" style="stop-color:#9F55FF"/>
					<stop  offset="1" style="stop-color:#FFA53F"/>
				</linearGradient>
				<path style="fill:url(#SVGID_00000129884172560597198300000006827992939270880133_);" d="M400,164.5c0,4-6.8,18.9-15,33.2
					L257.1,419.3c-8.3,14.3-16.9,26-19.2,26c-2.3,0,2.6-11.7,10.8-26l136.3-236C393.2,169,400,160.6,400,164.5z"/>
			</g>
			<g style="clip-path:url(#SVGID_00000127019217647727158180000009948995441286689466_);">
				
					<linearGradient id="SVGID_00000118385881495192385710000000790071505862713018_" gradientUnits="userSpaceOnUse" x1="246.1964" y1="445.3414" x2="400.31" y2="178.4088">
					<stop  offset="0" style="stop-color:#9F55FF"/>
					<stop  offset="1" style="stop-color:#FFA53F"/>
				</linearGradient>
				<path style="fill:url(#SVGID_00000118385881495192385710000000790071505862713018_);" d="M400,179c0,4-6.8,18.9-15,33.2
					L265.4,419.3c-8.3,14.3-16.9,26-19.2,26s2.6-11.7,10.8-26L385,197.7C393.2,183.5,400,175,400,179z"/>
			</g>
			<g style="clip-path:url(#SVGID_00000127019217647727158180000009948995441286689466_);">
				
					<linearGradient id="SVGID_00000035523755010989638080000016483297131269393556_" gradientUnits="userSpaceOnUse" x1="254.5364" y1="445.341" x2="400.3106" y2="192.8527">
					<stop  offset="0" style="stop-color:#9F55FF"/>
					<stop  offset="1" style="stop-color:#FFA53F"/>
				</linearGradient>
				<path style="fill:url(#SVGID_00000035523755010989638080000016483297131269393556_);" d="M400,193.4c0,4-6.8,18.9-15,33.2
					L273.7,419.3c-8.3,14.3-16.9,26-19.2,26s2.6-11.7,10.8-26L385,212.2C393.2,197.9,400,189.4,400,193.4z"/>
			</g>
			<g style="clip-path:url(#SVGID_00000127019217647727158180000009948995441286689466_);">
				
					<linearGradient id="SVGID_00000061452316218397675800000004989075658786485662_" gradientUnits="userSpaceOnUse" x1="262.8764" y1="445.3407" x2="400.3112" y2="207.2966">
					<stop  offset="0" style="stop-color:#9F55FF"/>
					<stop  offset="1" style="stop-color:#FFA53F"/>
				</linearGradient>
				<path style="fill:url(#SVGID_00000061452316218397675800000004989075658786485662_);" d="M400,207.9c0,4-6.8,18.9-15,33.2
					L282.1,419.3c-8.3,14.3-16.9,26-19.2,26s2.6-11.7,10.8-26L385,226.6C393.2,212.3,400,203.9,400,207.9z"/>
			</g>
			<g style="clip-path:url(#SVGID_00000127019217647727158180000009948995441286689466_);">
				
					<linearGradient id="SVGID_00000084532406824027216390000010115209130262046886_" gradientUnits="userSpaceOnUse" x1="271.2164" y1="445.3403" x2="400.3119" y2="221.7404">
					<stop  offset="0" style="stop-color:#9F55FF"/>
					<stop  offset="1" style="stop-color:#FFA53F"/>
				</linearGradient>
				<path style="fill:url(#SVGID_00000084532406824027216390000010115209130262046886_);" d="M400,222.3c0,4-6.8,18.9-15,33.2
					l-94.6,163.8c-8.3,14.3-16.9,26-19.2,26s2.6-11.7,10.8-26L385,241.1C393.2,226.8,400,218.3,400,222.3z"/>
			</g>
			<g style="clip-path:url(#SVGID_00000127019217647727158180000009948995441286689466_);">
				
					<linearGradient id="SVGID_00000021097277208751839430000016737841642453881234_" gradientUnits="userSpaceOnUse" x1="279.5564" y1="445.3399" x2="400.3125" y2="236.1843">
					<stop  offset="0" style="stop-color:#9F55FF"/>
					<stop  offset="1" style="stop-color:#FFA53F"/>
				</linearGradient>
				<path style="fill:url(#SVGID_00000021097277208751839430000016737841642453881234_);" d="M400,236.7c0,4-6.8,18.9-15,33.2
					l-86.2,149.3c-8.3,14.3-16.9,26-19.2,26s2.6-11.7,10.8-26L385,255.5C393.2,241.2,400,232.8,400,236.7z"/>
			</g>
			<g style="clip-path:url(#SVGID_00000127019217647727158180000009948995441286689466_);">
				
					<linearGradient id="SVGID_00000114781156289767712500000005895887304009957021_" gradientUnits="userSpaceOnUse" x1="287.8965" y1="445.3396" x2="400.3131" y2="250.6282">
					<stop  offset="0" style="stop-color:#9F55FF"/>
					<stop  offset="1" style="stop-color:#FFA53F"/>
				</linearGradient>
				<path style="fill:url(#SVGID_00000114781156289767712500000005895887304009957021_);" d="M400,251.2c0,4-6.8,18.9-15,33.2
					l-77.9,134.9c-8.3,14.3-16.9,26-19.2,26s2.6-11.7,10.8-26L385,270C393.2,255.7,400,247.2,400,251.2z"/>
			</g>
			<g style="clip-path:url(#SVGID_00000127019217647727158180000009948995441286689466_);">
				
					<linearGradient id="SVGID_00000137104240298013727320000005217018722763497360_" gradientUnits="userSpaceOnUse" x1="296.2365" y1="445.3392" x2="400.3137" y2="265.0721">
					<stop  offset="0" style="stop-color:#9F55FF"/>
					<stop  offset="1" style="stop-color:#FFA53F"/>
				</linearGradient>
				<path style="fill:url(#SVGID_00000137104240298013727320000005217018722763497360_);" d="M400,265.6c0,4-6.8,18.9-15,33.2
					l-69.5,120.4c-8.3,14.3-16.9,26-19.2,26c-2.3,0,2.6-11.7,10.8-26L385,284.4C393.2,270.1,400,261.7,400,265.6z"/>
			</g>
			<g style="clip-path:url(#SVGID_00000127019217647727158180000009948995441286689466_);">
				
					<linearGradient id="SVGID_00000127005705231217384970000002897168470940937133_" gradientUnits="userSpaceOnUse" x1="304.5765" y1="445.3389" x2="400.3144" y2="279.516">
					<stop  offset="0" style="stop-color:#9F55FF"/>
					<stop  offset="1" style="stop-color:#FFA53F"/>
				</linearGradient>
				<path style="fill:url(#SVGID_00000127005705231217384970000002897168470940937133_);" d="M400,280.1c0,4-6.8,18.9-15,33.2
					l-61.2,106c-8.3,14.3-16.9,26-19.2,26c-2.3,0,2.6-11.7,10.8-26L385,298.9C393.2,284.6,400,276.1,400,280.1z"/>
			</g>
			<g style="clip-path:url(#SVGID_00000127019217647727158180000009948995441286689466_);">
				
					<linearGradient id="SVGID_00000067209117544853963660000013894193840395700132_" gradientUnits="userSpaceOnUse" x1="312.9165" y1="445.3385" x2="400.315" y2="293.9599">
					<stop  offset="0" style="stop-color:#9F55FF"/>
					<stop  offset="1" style="stop-color:#FFA53F"/>
				</linearGradient>
				<path style="fill:url(#SVGID_00000067209117544853963660000013894193840395700132_);" d="M400,294.5c0,4-6.8,18.9-15,33.2
					l-52.9,91.5c-8.3,14.3-16.9,26-19.2,26c-2.3,0,2.6-11.7,10.8-26l61.2-106C393.2,299,400,290.5,400,294.5z"/>
			</g>
			<g style="clip-path:url(#SVGID_00000127019217647727158180000009948995441286689466_);">
				
					<linearGradient id="SVGID_00000153681645642452921410000015155466809038879167_" gradientUnits="userSpaceOnUse" x1="321.2565" y1="445.3381" x2="400.3156" y2="308.4037">
					<stop  offset="0" style="stop-color:#9F55FF"/>
					<stop  offset="1" style="stop-color:#FFA53F"/>
				</linearGradient>
				<path style="fill:url(#SVGID_00000153681645642452921410000015155466809038879167_);" d="M400,309c0,4-6.8,18.9-15,33.2
					l-44.5,77.1c-8.3,14.3-16.9,26-19.2,26c-2.3,0,2.6-11.7,10.8-26l52.9-91.5C393.2,313.4,400,305,400,309z"/>
			</g>
			<g style="clip-path:url(#SVGID_00000127019217647727158180000009948995441286689466_);">
				
					<linearGradient id="SVGID_00000048474341657305366570000005477905288081299897_" gradientUnits="userSpaceOnUse" x1="354.3847" y1="448.7157" x2="414.9978" y2="343.7307">
					<stop  offset="0" style="stop-color:#9F55FF"/>
					<stop  offset="1" style="stop-color:#FFA53F"/>
				</linearGradient>
				<path style="fill:url(#SVGID_00000048474341657305366570000005477905288081299897_);" d="M355.5,445.3c-16.5,0-23.2-11.7-15-26
					l44.5-77.1c8.3-14.3,15-12.5,15,4v69c0,16.5-13.5,30-30,30H355.5z"/>
			</g>
		</g>
	</g>
	<g>
		<g>
			<defs>
				<path id="SVGID_00000005236373706406173110000007916185811412078773_" d="M374,352.4c14.3-8.2,26-28.5,26-45V136.6
					c0-16.5-11.7-36.8-26-45L226,6.2c-14.3-8.2-37.7-8.2-52,0L26,91.6c-14.3,8.2-26,28.5-26,45v170.8c0,16.5,11.7,36.8,26,45
					l148,85.4c14.3,8.2,37.7,8.2,52,0L374,352.4z"/>
			</defs>
			
				<linearGradient id="SVGID_00000021102650544451256710000012344555002614572419_" gradientUnits="userSpaceOnUse" x1="100.0316" y1="395.1503" x2="299.9684" y2="48.8497">
				<stop  offset="0" style="stop-color:#9F55FF"/>
				<stop  offset="1" style="stop-color:#FFA53F"/>
			</linearGradient>
			
				<use xlink:href="#SVGID_00000005236373706406173110000007916185811412078773_"  style="overflow:visible;fill:url(#SVGID_00000021102650544451256710000012344555002614572419_);"/>
			<clipPath id="SVGID_00000158732065881841018420000015102373383322261917_">
				<use xlink:href="#SVGID_00000005236373706406173110000007916185811412078773_"  style="overflow:visible;"/>
			</clipPath>
		</g>
	</g>
</g>
</svg>
