<svg width="97" height="28" viewBox="0 0 97 28" fill="none" xmlns="http://www.w3.org/2000/svg">
<path d="M36.5625 13C39 13 40.5117 11.4961 40.5117 8.99609C40.5117 6.5 39 5 36.5586 5H33.6055V13H36.5625ZM35.5391 11.3516V6.64844H36.4609C37.8359 6.64844 38.5742 7.27344 38.5742 8.99609C38.5742 10.7266 37.8359 11.3516 36.4883 11.3516H35.5391ZM41.2006 13H46.7787V11.4297H43.1342V9.78516H46.4936V8.21094H43.1342V6.57031H46.7787V5H41.2006V13ZM49.3661 5H47.202L49.9012 13H52.4755L55.1747 5H53.0106L51.2216 10.8594H51.1552L49.3661 5ZM55.596 13H61.1741V11.4297H57.5296V9.78516H60.889V8.21094H57.5296V6.57031H61.1741V5H55.596V13ZM61.9451 13H67.2068V11.4297H63.8787V5H61.9451V13ZM75.007 9C75.007 6.35547 73.3352 4.89062 71.1867 4.89062C69.0305 4.89062 67.3703 6.35547 67.3703 9C67.3703 11.6328 69.0305 13.1094 71.1867 13.1094C73.3352 13.1094 75.007 11.6445 75.007 9ZM73.0305 9C73.0305 10.5664 72.343 11.4141 71.1867 11.4141C70.0344 11.4141 69.343 10.5664 69.343 9C69.343 7.43359 70.0344 6.58594 71.1867 6.58594C72.343 6.58594 73.0305 7.43359 73.0305 9ZM77.6295 5H75.6959V13H77.6295V5ZM81.3604 13C83.7979 13 85.3096 11.4961 85.3096 8.99609C85.3096 6.5 83.7979 5 81.3565 5H78.4034V13H81.3604ZM80.337 11.3516V6.64844H81.2589C82.6339 6.64844 83.3721 7.27344 83.3721 8.99609C83.3721 10.7266 82.6339 11.3516 81.2862 11.3516H80.337Z" fill="black"/>
<path d="M33.8789 24H38.7109V22.9609H35.0859V16H33.8789V24ZM46.2856 20C46.2856 17.4414 44.7543 15.8906 42.684 15.8906C40.6059 15.8906 39.0786 17.4414 39.0786 20C39.0786 22.5547 40.6059 24.1094 42.684 24.1094C44.7543 24.1094 46.2856 22.5586 46.2856 20ZM45.0903 20C45.0903 21.9492 44.059 23.0078 42.684 23.0078C41.3051 23.0078 40.2778 21.9492 40.2778 20C40.2778 18.0508 41.3051 16.9922 42.684 16.9922C44.059 16.9922 45.0903 18.0508 45.0903 20ZM52.7645 18.5273H54.0028C53.7333 16.9687 52.4012 15.8906 50.6747 15.8906C48.6044 15.8906 47.0927 17.4492 47.0927 20.0039C47.0927 22.5352 48.5614 24.1094 50.7294 24.1094C52.6708 24.1094 54.0575 22.8359 54.0575 20.8164V19.9062H50.913V20.9023H52.8895C52.8622 22.1914 52.0106 23.0078 50.7294 23.0078C49.3192 23.0078 48.2919 21.9414 48.2919 19.9961C48.2919 18.0586 49.327 16.9922 50.6825 16.9922C51.745 16.9922 52.4637 17.5781 52.7645 18.5273ZM62.0989 20C62.0989 17.4414 60.5677 15.8906 58.4974 15.8906C56.4193 15.8906 54.8919 17.4414 54.8919 20C54.8919 22.5547 56.4193 24.1094 58.4974 24.1094C60.5677 24.1094 62.0989 22.5586 62.0989 20ZM60.9036 20C60.9036 21.9492 59.8724 23.0078 58.4974 23.0078C57.1185 23.0078 56.0911 21.9492 56.0911 20C56.0911 18.0508 57.1185 16.9922 58.4974 16.9922C59.8724 16.9922 60.9036 18.0508 60.9036 20ZM71.049 18.5273H72.2873C72.0178 16.9687 70.6857 15.8906 68.9592 15.8906C66.8889 15.8906 65.3771 17.4492 65.3771 20.0039C65.3771 22.5352 66.8459 24.1094 69.0139 24.1094C70.9553 24.1094 72.342 22.8359 72.342 20.8164V19.9062H69.1975V20.9023H71.174C71.1467 22.1914 70.2951 23.0078 69.0139 23.0078C67.6037 23.0078 66.5764 21.9414 66.5764 19.9961C66.5764 18.0586 67.6115 16.9922 68.967 16.9922C70.0295 16.9922 70.7482 17.5781 71.049 18.5273ZM78.5788 16V21.1641C78.5788 22.25 77.8288 23.0312 76.61 23.0312C75.3952 23.0312 74.6413 22.25 74.6413 21.1641V16H73.4342V21.2617C73.4342 22.9414 74.692 24.1328 76.61 24.1328C78.528 24.1328 79.7897 22.9414 79.7897 21.2617V16H78.5788ZM82.3116 16H81.1046V24H82.3116V16ZM86.2193 24C88.6568 24 90.0669 22.4883 90.0669 19.9883C90.0669 17.5 88.6568 16 86.3013 16H83.6294V24H86.2193ZM84.8364 22.9453V17.0547H86.2271C87.9771 17.0547 88.8794 18.1016 88.8794 19.9883C88.8794 21.8828 87.9771 22.9453 86.1529 22.9453H84.8364ZM91.1279 24H96.1904V22.9609H92.3349V20.5117H95.8818V19.4766H92.3349V17.0391H96.1435V16H91.1279V24Z" fill="#1F84FF"/>
<path d="M12.5999 28C11.9283 28.0008 11.2683 27.8243 10.6863 27.4882L1.91359 22.4062C1.3325 22.0684 0.849954 21.5835 0.514156 21C0.178358 20.4165 0.00106861 19.7549 0 19.0811L0 8.91894C0.00106861 8.2452 0.178358 7.58353 0.514156 7.00004C0.849954 6.41655 1.3325 5.93168 1.91359 5.59387L10.6863 0.512775C11.2685 0.176814 11.9283 0 12.6 0C13.2716 0 13.9315 0.176814 14.5136 0.512775L23.2863 5.59387C23.8674 5.93168 24.35 6.41655 24.6858 7.00004C25.0216 7.58353 25.1989 8.2452 25.1999 8.91894V19.0811C25.1989 19.7549 25.0216 20.4165 24.6858 21C24.35 21.5835 23.8674 22.0684 23.2863 22.4062L14.5136 27.4882C13.9316 27.8243 13.2715 28.0009 12.5999 28ZM12.5999 1.46188C12.184 1.46155 11.7754 1.57105 11.4151 1.77938L2.64189 6.86047C2.282 7.06965 1.98315 7.36996 1.77524 7.73135C1.56733 8.09275 1.45764 8.50257 1.45715 8.91984V19.082C1.45764 19.4993 1.56733 19.9091 1.77524 20.2705C1.98315 20.6319 2.282 20.9322 2.64189 21.1414L11.4144 26.2225C11.7749 26.4305 12.1834 26.5399 12.5992 26.5399C13.0151 26.5399 13.4236 26.4305 13.7841 26.2225L22.5566 21.1414C22.9165 20.9322 23.2153 20.6319 23.4233 20.2705C23.6312 19.9091 23.7409 19.4993 23.7413 19.082V8.91894C23.7407 8.50183 23.6309 8.09219 23.423 7.73097C23.2151 7.36974 22.9164 7.06957 22.5566 6.86047L13.7848 1.77938C13.4245 1.57103 13.0158 1.46153 12.5999 1.46188Z" fill="black"/>
<path d="M9.37105 20.3406C9.24317 20.3405 9.11757 20.3066 9.00686 20.2423C8.89616 20.1781 8.80425 20.0858 8.74035 19.9747C8.67645 19.8635 8.64281 19.7375 8.64282 19.6092C8.64283 19.4809 8.67648 19.3549 8.74039 19.2438L15.1963 8.02555C15.2439 7.94188 15.3075 7.86847 15.3835 7.80954C15.4595 7.75061 15.5463 7.70732 15.639 7.68217C15.7317 7.65701 15.8285 7.65048 15.9237 7.66295C16.019 7.67542 16.1108 7.70665 16.194 7.75484C16.2771 7.80302 16.35 7.86722 16.4084 7.94374C16.4667 8.02026 16.5094 8.1076 16.534 8.20073C16.5587 8.29386 16.5647 8.39096 16.5518 8.48643C16.5389 8.58191 16.5073 8.67388 16.4588 8.75708L10.0026 19.9749C9.93865 20.0862 9.8466 20.1785 9.73572 20.2427C9.62485 20.3069 9.49907 20.3407 9.37105 20.3406Z" fill="#1F84FF"/>
</svg>
