<?xml version="1.0" encoding="utf-8"?>
<!-- Generator: Adobe Illustrator 26.3.1, SVG Export Plug-In . SVG Version: 6.00 Build 0)  -->
<svg version="1.1" id="레이어_1" xmlns="http://www.w3.org/2000/svg" xmlns:xlink="http://www.w3.org/1999/xlink" x="0px"
	 y="0px" viewBox="0 0 86 28" style="enable-background:new 0 0 86 28;" xml:space="preserve">
<style type="text/css">
	.st0{fill:#FFFFFF;}
	.st1{fill:#8E77C6;}
</style>
<path class="st0" d="M36.6,13c2.4,0,3.9-1.5,3.9-4c0-2.5-1.5-4-4-4h-3v8H36.6z M35.5,11.4V6.6h0.9c1.4,0,2.1,0.6,2.1,2.3
	c0,1.7-0.7,2.4-2.1,2.4H35.5z M41.2,13h5.6v-1.6h-3.6V9.8h3.4V8.2h-3.4V6.6h3.6V5h-5.6V13z M49.4,5h-2.2l2.7,8h2.6l2.7-8H53
	l-1.8,5.9h-0.1L49.4,5z M55.6,13h5.6v-1.6h-3.6V9.8h3.4V8.2h-3.4V6.6h3.6V5h-5.6V13z M61.9,13h5.3v-1.6h-3.3V5h-1.9V13z M75,9
	c0-2.6-1.7-4.1-3.8-4.1c-2.2,0-3.8,1.5-3.8,4.1c0,2.6,1.7,4.1,3.8,4.1C73.3,13.1,75,11.6,75,9z M73,9c0,1.6-0.7,2.4-1.8,2.4
	c-1.2,0-1.8-0.8-1.8-2.4c0-1.6,0.7-2.4,1.8-2.4C72.3,6.6,73,7.4,73,9z M77.6,5h-1.9v8h1.9V5z M81.4,13c2.4,0,3.9-1.5,3.9-4
	c0-2.5-1.5-4-4-4h-3v8H81.4z M80.3,11.4V6.6h0.9c1.4,0,2.1,0.6,2.1,2.3c0,1.7-0.7,2.4-2.1,2.4H80.3z"/>
<path class="st1" d="M38.2,18.1h1.2c0-1.3-1.2-2.2-2.8-2.2c-1.6,0-2.8,0.9-2.8,2.3c0,1.1,0.8,1.8,2.1,2.1l0.9,0.3
	c0.9,0.2,1.5,0.5,1.5,1.2c0,0.8-0.7,1.3-1.8,1.3c-0.9,0-1.7-0.4-1.8-1.3h-1.2c0.1,1.4,1.2,2.3,3,2.3c1.9,0,3-1,3-2.3
	c0-1.4-1.3-2-2.3-2.2l-0.8-0.2c-0.6-0.2-1.5-0.5-1.5-1.2c0-0.7,0.6-1.2,1.6-1.2C37.5,16.9,38.2,17.4,38.2,18.1z M45.7,16v5.2
	c0,1.1-0.8,1.9-2,1.9c-1.2,0-2-0.8-2-1.9V16h-1.2v5.3c0,1.7,1.3,2.9,3.2,2.9c1.9,0,3.2-1.2,3.2-2.9V16H45.7z M48.2,24h1.2v-2.8H51
	c1.9,0,2.8-1.1,2.8-2.6c0-1.5-0.9-2.6-2.8-2.6h-2.9V24z M49.4,20.2V17h1.5c1.2,0,1.7,0.6,1.7,1.6c0,0.9-0.5,1.6-1.7,1.6H49.4z
	 M54.8,24H56v-2.8h1.6c1.9,0,2.8-1.1,2.8-2.6c0-1.5-0.9-2.6-2.8-2.6h-2.9V24z M56,20.2V17h1.5c1.2,0,1.7,0.6,1.7,1.6
	c0,0.9-0.5,1.6-1.7,1.6H56z M68.3,20c0-2.6-1.5-4.1-3.6-4.1c-2.1,0-3.6,1.6-3.6,4.1c0,2.6,1.5,4.1,3.6,4.1
	C66.8,24.1,68.3,22.6,68.3,20z M67.1,20c0,1.9-1,3-2.4,3c-1.4,0-2.4-1.1-2.4-3s1-3,2.4-3C66.1,17,67.1,18.1,67.1,20z M69.4,24h1.2
	v-3h1.7l1.6,3h1.4l-1.8-3.2c1-0.4,1.5-1.2,1.5-2.3c0-1.5-0.9-2.5-2.8-2.5h-2.9V24z M70.6,19.9V17h1.5c1.2,0,1.7,0.6,1.7,1.5
	c0,0.9-0.5,1.4-1.7,1.4H70.6z M75.7,17h2.5v7h1.2v-7h2.5v-1h-6.2V17z"/>
<path class="st0" d="M12.6,28c-0.7,0-1.3-0.2-1.9-0.5l-8.8-5.1c-0.6-0.3-1.1-0.8-1.4-1.4S0,19.8,0,19.1V8.9C0,8.2,0.2,7.6,0.5,7
	s0.8-1.1,1.4-1.4l8.8-5.1C11.3,0.2,11.9,0,12.6,0c0.7,0,1.3,0.2,1.9,0.5l8.8,5.1c0.6,0.3,1.1,0.8,1.4,1.4s0.5,1.2,0.5,1.9v10.2
	c0,0.7-0.2,1.3-0.5,1.9s-0.8,1.1-1.4,1.4l-8.8,5.1C13.9,27.8,13.3,28,12.6,28z M12.6,1.5c-0.4,0-0.8,0.1-1.2,0.3L2.6,6.9
	C2.3,7.1,2,7.4,1.8,7.7C1.6,8.1,1.5,8.5,1.5,8.9v10.2c0,0.4,0.1,0.8,0.3,1.2s0.5,0.7,0.9,0.9l8.8,5.1c0.4,0.2,0.8,0.3,1.2,0.3
	c0.4,0,0.8-0.1,1.2-0.3l8.8-5.1c0.4-0.2,0.7-0.5,0.9-0.9c0.2-0.4,0.3-0.8,0.3-1.2V8.9c0-0.4-0.1-0.8-0.3-1.2
	c-0.2-0.4-0.5-0.7-0.9-0.9l-8.8-5.1C13.4,1.6,13,1.5,12.6,1.5z"/>
<path class="st1" d="M9.4,20.3c-0.1,0-0.3,0-0.4-0.1c-0.1-0.1-0.2-0.2-0.3-0.3c-0.1-0.1-0.1-0.2-0.1-0.4c0-0.1,0-0.3,0.1-0.4L15.2,8
	c0-0.1,0.1-0.2,0.2-0.2c0.1-0.1,0.2-0.1,0.3-0.1c0.1,0,0.2,0,0.3,0c0.1,0,0.2,0,0.3,0.1c0.1,0,0.2,0.1,0.2,0.2
	c0.1,0.1,0.1,0.2,0.1,0.3c0,0.1,0,0.2,0,0.3c0,0.1,0,0.2-0.1,0.3L10,20c-0.1,0.1-0.2,0.2-0.3,0.3C9.6,20.3,9.5,20.3,9.4,20.3z"/>
</svg>
